<svg xmlns="http://www.w3.org/2000/svg" width="104" height="104" viewBox="0 0 104 104">
  <g id="Grupo_1115335" data-name="Grupo 1115335" transform="translate(-1093.782 -574.306)">
    <g id="Trazado_874818" data-name="Trazado 874818" transform="translate(1093.782 574.306)" fill="#c7b8b4">
      <path d="M 52 103 C 45.11460113525391 103 38.43569946289062 101.6517105102539 32.1488151550293 98.99258422851562 C 26.07588577270508 96.42394256591797 20.62162780761719 92.74652862548828 15.93755722045898 88.06244659423828 C 11.25348567962646 83.37837219238281 7.576056957244873 77.92412567138672 5.007428646087646 71.8511962890625 C 2.348285675048828 65.56430053710938 1 58.88539886474609 1 52 C 1 45.11460113525391 2.348285675048828 38.43569946289062 5.007428646087646 32.1488151550293 C 7.576056957244873 26.07588577270508 11.25348567962646 20.62162780761719 15.93755722045898 15.93755722045898 C 20.62162780761719 11.25348567962646 26.07588577270508 7.576056957244873 32.1488151550293 5.007428646087646 C 38.43569946289062 2.348285675048828 45.11460113525391 1 52 1 C 58.88539886474609 1 65.56430053710938 2.348285675048828 71.8511962890625 5.007428646087646 C 77.92412567138672 7.576056957244873 83.37837219238281 11.25348567962646 88.06244659423828 15.93755722045898 C 92.74652862548828 20.62162780761719 96.42394256591797 26.07588577270508 98.99258422851562 32.1488151550293 C 101.6517105102539 38.43569946289062 103 45.11460113525391 103 52 C 103 58.88539886474609 101.6517105102539 65.56430053710938 98.99258422851562 71.8511962890625 C 96.42394256591797 77.92412567138672 92.74652862548828 83.37837219238281 88.06244659423828 88.06244659423828 C 83.37837219238281 92.74652862548828 77.92412567138672 96.42394256591797 71.8511962890625 98.99258422851562 C 65.56430053710938 101.6517105102539 58.88539886474609 103 52 103 Z" stroke="none"/>
      <path d="M 52 2 C 45.24916839599609 2 38.70132446289062 3.321708679199219 32.53835296630859 5.928428649902344 C 26.58463287353516 8.446647644042969 21.23721313476562 12.05210876464844 16.64466094970703 16.64466094970703 C 12.05210876464844 21.23721313476562 8.446647644042969 26.58463287353516 5.928428649902344 32.53835296630859 C 3.321708679199219 38.70132446289062 2 45.24916839599609 2 52 C 2 58.75084686279297 3.321708679199219 65.29867553710938 5.928428649902344 71.46164703369141 C 8.446647644042969 77.41536712646484 12.05210876464844 82.76278686523438 16.64466094970703 87.35533905029297 C 21.23721313476562 91.94789123535156 26.58463287353516 95.55335235595703 32.53835296630859 98.07157135009766 C 38.70132446289062 100.6782913208008 45.24916839599609 102 52 102 C 58.75084686279297 102 65.29867553710938 100.6782913208008 71.46164703369141 98.07157135009766 C 77.41536712646484 95.55335235595703 82.76278686523438 91.94789123535156 87.35533905029297 87.35533905029297 C 91.94789123535156 82.76278686523438 95.55335235595703 77.41536712646484 98.07157135009766 71.46164703369141 C 100.6782913208008 65.29867553710938 102 58.75084686279297 102 52 C 102 45.24916839599609 100.6782913208008 38.70132446289062 98.07157135009766 32.53835296630859 C 95.55335235595703 26.58463287353516 91.94789123535156 21.23721313476562 87.35533905029297 16.64466094970703 C 82.76278686523438 12.05210876464844 77.41536712646484 8.446647644042969 71.46164703369141 5.928428649902344 C 65.29867553710938 3.321708679199219 58.75084686279297 2 52 2 M 52 0 C 80.71881103515625 0 104 23.28119659423828 104 52 C 104 80.71881103515625 80.71881103515625 104 52 104 C 23.28119659423828 104 0 80.71881103515625 0 52 C 0 23.28119659423828 23.28119659423828 0 52 0 Z" stroke="none" fill="#fff"/>
    </g>
    <g id="letra-b" transform="translate(1122.489 594.224)">
      <g id="Grupo_1114922" data-name="Grupo 1114922" transform="translate(0 0)">
        <g id="Grupo_1114921" data-name="Grupo 1114921">
          <g id="Grupo_1114917" data-name="Grupo 1114917" transform="translate(25.71 18.559)">
            <path id="Trazado_895751" data-name="Trazado 895751" d="M521.5,321.778a.174.174,0,0,1-.248-.167c-.005-.139-.015-.42-.022-.623l-.027-.739a.371.371,0,0,1,.356-.383.353.353,0,0,1,.381.316c.007.181.167.6.343.549s.687-.024.739.172a.381.381,0,0,1-.261.46l-.674.21C521.9,321.639,521.634,321.731,521.5,321.778Z" transform="translate(-521.207 -319.866)"/>
          </g>
          <g id="Grupo_1114918" data-name="Grupo 1114918">
            <path id="Trazado_895752" data-name="Trazado 895752" d="M184.575,134.377a.37.37,0,0,1-.007-.739s.965-.013,1.652-.028l.534-.013a.37.37,0,0,1,.021.739l-.539.013C185.547,134.365,184.575,134.377,184.575,134.377ZM181.269,134a.367.367,0,0,1-.377.359s-.231-.006-.4-.015l-.344-.017a3.77,3.77,0,0,1-.37-.158l-1.087-.506a.369.369,0,0,1,.312-.67l.96.447a2.015,2.015,0,0,0,.618.169C180.735,133.615,181.273,133.8,181.269,134Zm9.185.18a.365.365,0,0,1-.39-.344.376.376,0,0,1,.348-.394l2.159-.179a.381.381,0,0,1,.414.329.36.36,0,0,1-.322.4Zm-13.734-3.025a.353.353,0,0,1-.41-.307s-.12-.959-.234-2.133l-.014-.142a.378.378,0,0,1,.736-.07l.014.142c.112,1.159.228,2.084.228,2.084A.389.389,0,0,1,176.72,131.154Zm-.581-5.834a.369.369,0,0,1-.4-.336l-.183-2.188a.369.369,0,1,1,.736-.06l.183,2.185A.372.372,0,0,1,176.139,125.32Zm-.476-5.848a.371.371,0,0,1-.4-.34l-.166-2.19a.37.37,0,1,1,.737-.054l.166,2.188a.37.37,0,0,1-.34.4Zm-.432-5.852a.371.371,0,0,1-.395-.343l-.151-2.19a.37.37,0,0,1,.738-.05l.151,2.188A.371.371,0,0,1,175.231,113.619Zm-.393-5.854a.37.37,0,0,1-.392-.345l-.136-2.192a.37.37,0,0,1,.739-.044l.135,2.189A.372.372,0,0,1,174.838,107.765Zm-.352-5.857a.371.371,0,0,1-.39-.348l-.118-2.193a.37.37,0,0,1,.739-.038l.118,2.189a.371.371,0,0,1-.349.39Zm-.3-5.858a.369.369,0,0,1-.386-.352l-.1-2.194a.37.37,0,0,1,.739-.03l.1,2.19A.371.371,0,0,1,174.183,96.05Zm-.236-5.862a.369.369,0,0,1-.381-.357l-.063-2.2a.37.37,0,1,1,.739-.018l.063,2.19A.373.373,0,0,1,173.947,90.188Zm25.442-5.732a.371.371,0,0,1-.384-.356l-.088-2.191a.37.37,0,0,1,.739-.032l.088,2.194A.371.371,0,0,1,199.389,84.455Zm-25.578-.133a.37.37,0,0,1-.373-.365s0-.256,0-.56q0-.488,0-.955c0-.361,0-.686,0-.686a.37.37,0,0,1,.739.006s0,.321,0,.68q0,.465,0,.951c0,.3,0,.556,0,.556A.371.371,0,0,1,173.811,84.322Zm25.328-5.729a.372.372,0,0,1-.389-.351l-.123-2.184a.374.374,0,0,1,.346-.394.369.369,0,0,1,.392.344l.124,2.2A.368.368,0,0,1,199.138,78.594ZM174.255,78.1a.375.375,0,0,1-.387.355.367.367,0,0,1-.352-.384s.055-1.149.107-1.777c.024-.283.039-.437.039-.437a.367.367,0,0,1,.405-.327.374.374,0,0,1,.33.408s-.014.141-.037.418C174.309,76.975,174.255,78.1,174.255,78.1Zm24.384-5.346a.433.433,0,0,1-.5-.248,3.3,3.3,0,0,0-.756-1.107,2.317,2.317,0,0,0-.393-.27.414.414,0,0,1-.194-.51.331.331,0,0,1,.466-.175,3.694,3.694,0,0,1,.6.388,4.589,4.589,0,0,1,1,1.488A.316.316,0,0,1,198.639,72.756Zm-23.447-.274a.417.417,0,0,1-.513.191.33.33,0,0,1-.173-.466,5.6,5.6,0,0,1,.9-1.269,6.213,6.213,0,0,1,.684-.526.349.349,0,0,1,.5.116.4.4,0,0,1-.123.522,4.944,4.944,0,0,0-.557.432A4.324,4.324,0,0,0,175.192,72.482Zm18.75-2.489c-.031.2-.17.348-.308.327l-.133-.02c-.545-.081-2.142-.282-2.142-.282a.376.376,0,0,1-.325-.413.366.366,0,0,1,.408-.322s1.618.2,2.168.285l.134.02C193.885,69.61,193.974,69.792,193.943,69.993Zm-14.165-.136a.386.386,0,0,1-.437-.3.356.356,0,0,1,.292-.423s.955-.159,1.711-.223c.285-.024.519-.038.519-.038a.367.367,0,0,1,.388.347.374.374,0,0,1-.35.391s-.218.013-.5.037c-.727.062-1.628.211-1.628.211Zm8.335-.526c-.015.2-.12.362-.233.353l-.1-.007c-.909-.063-2.231-.11-2.231-.11a.377.377,0,0,1-.361-.383.366.366,0,0,1,.378-.356s1.345.048,2.264.112l.1.007C188.047,68.955,188.129,69.128,188.113,69.331Z" transform="translate(-173.43 -68.827)"/>
          </g>
          <g id="Grupo_1114919" data-name="Grupo 1114919" transform="translate(22.166 62.416)">
            <path id="Trazado_895753" data-name="Trazado 895753" d="M473.872,914.5a.37.37,0,1,1-.483-.56l.738-.636c.154-.133.328-.22.387-.194s.26.113.447.193l.662.271a.379.379,0,0,1,.216.481.364.364,0,0,1-.473.213l-.489-.2a.657.657,0,0,0-.621.1Z" transform="translate(-473.261 -913.108)"/>
          </g>
          <g id="Grupo_1114920" data-name="Grupo 1114920" transform="translate(27.663 18.668)">
            <path id="Trazado_895754" data-name="Trazado 895754" d="M550.649,367.262a.351.351,0,0,1-.38.342l-2.356-.284a.352.352,0,0,1-.289-.422.39.39,0,0,1,.44-.3l2.227.269A.391.391,0,0,1,550.649,367.262Zm3.461.1a.35.35,0,0,1-.42-.29.393.393,0,0,1,.3-.441l2.167-.558a.393.393,0,0,1,.479.239.35.35,0,0,1-.228.457Zm5.786-2.228a.351.351,0,0,1-.5-.118.393.393,0,0,1,.123-.52l1.824-1.3a.391.391,0,0,1,.532.052.351.351,0,0,1-.05.509Zm4.42-3.85a1.178,1.178,0,0,1-.3-.214,1.224,1.224,0,0,1-.265-.259l.243-.316,1.269-1.791a.388.388,0,0,1,.519-.118.355.355,0,0,1,.114.5l-1.332,1.881-.244.316Zm3.331-5.606a.358.358,0,0,1-.476.2.384.384,0,0,1-.2-.49l.776-2.131a.383.383,0,0,1,.47-.244.358.358,0,0,1,.237.458Zm1.721-5.924a.361.361,0,0,1-.425.294.381.381,0,0,1-.3-.435l.333-2.254a.38.38,0,0,1,.414-.328.362.362,0,0,1,.322.405Zm.6-6.126a.367.367,0,0,1-.377.359.374.374,0,0,1-.362-.38s.009-.426.009-.826c0-.616-.033-1.456-.033-1.456a.376.376,0,0,1,.354-.389.365.365,0,0,1,.384.35s.035.866.035,1.495c0,.407-.01.846-.01.846Zm-.721-5.725a.383.383,0,0,1-.432-.307l-.477-2.216a.386.386,0,0,1,.267-.459.357.357,0,0,1,.444.259l.5,2.3A.359.359,0,0,1,569.245,337.9Zm-1.666-5.853a.389.389,0,0,1-.5-.183l-1.064-1.983a.389.389,0,0,1,.123-.519.353.353,0,0,1,.5.118l1.119,2.087A.354.354,0,0,1,567.579,332.048Zm-3.311-5.093a.375.375,0,0,1-.525-.016s-.049-.052-.2-.206c-.546-.543-1.473-1.282-1.473-1.282a.387.387,0,0,1-.069-.528.354.354,0,0,1,.509-.067s.982.784,1.553,1.351c.162.161.225.227.225.227a.365.365,0,0,1-.016.52Zm-4.875-3.612a.392.392,0,0,1-.5.186l-2.1-.794a.392.392,0,0,1-.253-.471.35.35,0,0,1,.45-.241l2.222.842A.351.351,0,0,1,559.394,323.343ZM550.9,322.1a.387.387,0,0,1-.4-.348.356.356,0,0,1,.336-.388l2.372-.017a.349.349,0,0,1,.339.38.393.393,0,0,1-.4.357Z" transform="translate(-547.616 -321.35)"/>
          </g>
        </g>
      </g>
      <path id="Trazado_895755" data-name="Trazado 895755" d="M211.861,163.941l-.37-.532c-.131-.19-.175-.254-.428-2.861-.157-1.627-.349-3.821-.554-6.342-.29-3.578-.849-10.827-1.331-19.169-.465-8.048-.716-14.633-.746-19.572-.018-2.892.044-5.2.181-6.873.218-2.647.59-3.326.959-3.665,1.37-1.262,4.9-1.707,10.49-1.323,2.464.169,4.553.452,5.579.606,2.614.392,2.831.573,2.976.693.327.273.463.386.759,6.71.158,3.375.3,7.427.4,10.385.033.923.063,1.786.088,2.462a14.5,14.5,0,0,1,8.289-2.338,14.268,14.268,0,0,1,9.97,4.149,16.139,16.139,0,0,1,3.7,5.86,25.321,25.321,0,0,1,1.447,8.875c0,7.028-1.745,12.846-5.045,16.829a14.418,14.418,0,0,1-11.2,5.444,19.354,19.354,0,0,1-9.991-3.259c0,.163,0,.344,0,.544,0,2.013-.094,2.346-.474,2.6a.77.77,0,0,1-.4.13,54.371,54.371,0,0,1-7.572.549c-1.615.038-3.177.047-4.4.028a18.323,18.323,0,0,1-1.993-.1Zm.878-1.594a96.929,96.929,0,0,0,12.787-.424c.018-.263.035-.719.033-1.5,0-.648-.018-1.244-.027-1.525a.757.757,0,0,1,.151-.772.719.719,0,0,1,.671-.224l.359-.071.119.286c.07.045.153.1.25.165,1.309.869,5.291,3.515,9.946,3.515,7.352,0,14.771-6.43,14.771-20.794,0-5.891-1.63-10.623-4.713-13.686a12.781,12.781,0,0,0-8.928-3.719c-5.41,0-8.143,2.576-8.437,2.871l-.923.923-.316-1.267c-.035-.138-.04-.159-.177-4.079-.152-4.306-.493-14.043-.773-16a59.154,59.154,0,0,0-7.9-.991c-6.721-.427-8.564.512-9.048.948-.05.069-.335.562-.514,2.925-.124,1.64-.177,3.892-.157,6.694.034,4.846.279,11.269.729,19.091C211.378,147.527,212.42,159.829,212.739,162.347Zm19.846-14.954a5.566,5.566,0,0,1-4.074-1.481,4.817,4.817,0,0,1-1.333-3.475c0-3.245,1.825-5.182,4.88-5.182,2.692,0,5.407,1.579,5.407,5.106A4.8,4.8,0,0,1,232.585,147.393Zm-.527-8.658c-2.811,0-3.4,2.014-3.4,3.7,0,2.177,1.469,3.477,3.929,3.477a3.366,3.366,0,0,0,3.4-3.552C235.986,139.688,233.957,138.735,232.058,138.735Z" transform="translate(-205.842 -100.909)"/>
    </g>
  </g>
</svg>
