<svg xmlns="http://www.w3.org/2000/svg" width="104" height="104" viewBox="0 0 104 104">
  <g id="Grupo_1115337" data-name="Grupo 1115337" transform="translate(-11059.409 11033.694)">
    <g id="Trazado_895773" data-name="Trazado 895773" transform="translate(11059.409 -11033.694)" fill="#c7b8b4">
      <path d="M 52 103 C 45.11460113525391 103 38.43569946289062 101.6517105102539 32.1488151550293 98.99258422851562 C 26.07588577270508 96.42394256591797 20.62162780761719 92.74652862548828 15.93755722045898 88.06244659423828 C 11.25348567962646 83.37837219238281 7.576056957244873 77.92412567138672 5.007428646087646 71.8511962890625 C 2.348285675048828 65.56430053710938 1 58.88539886474609 1 52 C 1 45.11460113525391 2.348285675048828 38.43569946289062 5.007428646087646 32.1488151550293 C 7.576056957244873 26.07588577270508 11.25348567962646 20.62162780761719 15.93755722045898 15.93755722045898 C 20.62162780761719 11.25348567962646 26.07588577270508 7.576056957244873 32.1488151550293 5.007428646087646 C 38.43569946289062 2.348285675048828 45.11460113525391 1 52 1 C 58.88539886474609 1 65.56430053710938 2.348285675048828 71.8511962890625 5.007428646087646 C 77.92412567138672 7.576056957244873 83.37837219238281 11.25348567962646 88.06244659423828 15.93755722045898 C 92.74652862548828 20.62162780761719 96.42394256591797 26.07588577270508 98.99258422851562 32.1488151550293 C 101.6517105102539 38.43569946289062 103 45.11460113525391 103 52 C 103 58.88539886474609 101.6517105102539 65.56430053710938 98.99258422851562 71.8511962890625 C 96.42394256591797 77.92412567138672 92.74652862548828 83.37837219238281 88.06244659423828 88.06244659423828 C 83.37837219238281 92.74652862548828 77.92412567138672 96.42394256591797 71.8511962890625 98.99258422851562 C 65.56430053710938 101.6517105102539 58.88539886474609 103 52 103 Z" stroke="none"/>
      <path d="M 52 2 C 45.24916839599609 2 38.70132446289062 3.321708679199219 32.53835296630859 5.928428649902344 C 26.58463287353516 8.446647644042969 21.23721313476562 12.05210876464844 16.64466094970703 16.64466094970703 C 12.05210876464844 21.23721313476562 8.446647644042969 26.58463287353516 5.928428649902344 32.53835296630859 C 3.321708679199219 38.70132446289062 2 45.24916839599609 2 52 C 2 58.75084686279297 3.321708679199219 65.29867553710938 5.928428649902344 71.46164703369141 C 8.446647644042969 77.41536712646484 12.05210876464844 82.76278686523438 16.64466094970703 87.35533905029297 C 21.23721313476562 91.94789123535156 26.58463287353516 95.55335235595703 32.53835296630859 98.07157135009766 C 38.70132446289062 100.6782913208008 45.24916839599609 102 52 102 C 58.75084686279297 102 65.29867553710938 100.6782913208008 71.46164703369141 98.07157135009766 C 77.41536712646484 95.55335235595703 82.76278686523438 91.94789123535156 87.35533905029297 87.35533905029297 C 91.94789123535156 82.76278686523438 95.55335235595703 77.41536712646484 98.07157135009766 71.46164703369141 C 100.6782913208008 65.29867553710938 102 58.75084686279297 102 52 C 102 45.24916839599609 100.6782913208008 38.70132446289062 98.07157135009766 32.53835296630859 C 95.55335235595703 26.58463287353516 91.94789123535156 21.23721313476562 87.35533905029297 16.64466094970703 C 82.76278686523438 12.05210876464844 77.41536712646484 8.446647644042969 71.46164703369141 5.928428649902344 C 65.29867553710938 3.321708679199219 58.75084686279297 2 52 2 M 52 0 C 80.71881103515625 0 104 23.28119659423828 104 52 C 104 80.71881103515625 80.71881103515625 104 52 104 C 23.28119659423828 104 0 80.71881103515625 0 52 C 0 23.28119659423828 23.28119659423828 0 52 0 Z" stroke="none" fill="#fff"/>
    </g>
    <g id="letra-d" transform="translate(11083.822 -11012.958)">
      <g id="Grupo_1114934" data-name="Grupo 1114934" transform="translate(0 0)">
        <g id="Grupo_1114933" data-name="Grupo 1114933">
          <g id="Grupo_1114927" data-name="Grupo 1114927" transform="translate(47.28 0.436)">
            <path id="Trazado_895759" data-name="Trazado 895759" d="M810.229,81.834a.46.46,0,0,1-.566-.035l-.4-.374c-.177-.1-.35-.193-.384-.209s-.188-.079-.341-.14-.886-.392-.85-.591a.336.336,0,0,1,.424-.268,6.606,6.606,0,0,1,.826.21l.487.226a.756.756,0,0,1,.164.089,2.927,2.927,0,0,0,.3.224l.391.381A.318.318,0,0,1,810.229,81.834Z" transform="translate(-807.682 -80.204)"/>
          </g>
          <g id="Grupo_1114928" data-name="Grupo 1114928" transform="translate(25.841)">
            <path id="Trazado_895760" data-name="Trazado 895760" d="M518.06,89.942a.371.371,0,0,1-.37-.369v-.423q0-.552,0-1.1c0-.316,0-.557,0-.557a.37.37,0,1,1,.739.006s0,.24,0,.555c0,.365,0,.733,0,1.1v.421A.371.371,0,0,1,518.06,89.942Zm.429-6a.373.373,0,0,1-.381.361.368.368,0,0,1-.359-.378l.076-2.089a.366.366,0,0,1,.386-.349.375.375,0,0,1,.353.39Zm.454-5.551a.422.422,0,0,1-.467.291.323.323,0,0,1-.259-.418l.974-2.057a.292.292,0,0,1,.468-.021.476.476,0,0,1,.029.573Zm3.727-2.85a.379.379,0,0,1-.417-.324.362.362,0,0,1,.317-.409s.828-.1,1.679-.164l.414-.032a.37.37,0,1,1,.052.738l-.407.031C523.471,75.45,522.67,75.544,522.67,75.544Zm5.588-.39a.37.37,0,0,1-.032-.739s1.019-.041,1.715-.06l.371-.01a.37.37,0,0,1,.017.739l-.367.01C529.27,75.113,528.259,75.154,528.259,75.154Zm8.068-.413a.377.377,0,0,1-.388.356l-2.061-.048a.375.375,0,0,1-.368-.374.367.367,0,0,1,.371-.365l2.1.05A.364.364,0,0,1,536.327,74.741Z" transform="translate(-517.69 -74.31)"/>
          </g>
          <g id="Grupo_1114929" data-name="Grupo 1114929" transform="translate(24.811 18.462)">
            <path id="Trazado_895761" data-name="Trazado 895761" d="M505.565,325.767a.174.174,0,0,1-.24.179c-.134-.042-.4-.123-.6-.18l-.684-.184a.38.38,0,0,1-.277-.449.349.349,0,0,1,.407-.282c.179.043.643.024.641-.153s.159-.656.362-.657a.371.371,0,0,1,.373.366l.009.738C505.56,325.345,505.563,325.627,505.565,325.767Z" transform="translate(-503.755 -324.04)"/>
          </g>
          <g id="Grupo_1114930" data-name="Grupo 1114930" transform="translate(0 18.717)">
            <path id="Trazado_895762" data-name="Trazado 895762" d="M189.31,372.644a.36.36,0,0,1-.384-.345.382.382,0,0,1,.354-.393l2.074-.191a.383.383,0,0,1,.421.322.359.359,0,0,1-.313.41Zm-3.244-.409a.351.351,0,0,1-.4.313l-2.145-.412a.351.351,0,0,1-.259-.441.389.389,0,0,1,.46-.271l2.022.388A.39.39,0,0,1,186.066,372.235Zm-5.491-1.535a.354.354,0,0,1-.485.166l-1.9-1.068a.355.355,0,0,1-.11-.5.389.389,0,0,1,.52-.115l1.8,1.013A.388.388,0,0,1,180.575,370.7Zm-4.751-3.161a.36.36,0,0,1-.516.02s-.665-.631-1.1-1.1c-.221-.241-.41-.462-.41-.462a.365.365,0,0,1,.044-.518.377.377,0,0,1,.524.044s.174.2.387.436c.418.457,1.051,1.056,1.051,1.056A.381.381,0,0,1,175.825,367.539Zm-3.66-4.382a.356.356,0,0,1-.5-.123l-1.031-1.91a.356.356,0,0,1,.171-.485.385.385,0,0,1,.5.177l.985,1.827A.386.386,0,0,1,172.165,363.157Zm-2.395-5.188a.358.358,0,0,1-.455-.242l-.543-2.1a.359.359,0,0,1,.279-.433.383.383,0,0,1,.445.288l.522,2.015A.384.384,0,0,1,169.77,357.97Zm-1.131-5.6a.361.361,0,0,1-.394-.334l-.1-2.1c0-.2-.008-.383-.008-.4a1.189,1.189,0,0,1,.37-.028,1.242,1.242,0,0,1,.37.03c0,.016,0,.194.008.4l.093,2.03A.381.381,0,0,1,168.639,352.366Zm.444-6.044a.385.385,0,0,1-.418.326.358.358,0,0,1-.316-.407l.361-2.136a.357.357,0,0,1,.432-.279.385.385,0,0,1,.288.447Zm1.376-5.444a.386.386,0,0,1-.488.211.356.356,0,0,1-.2-.472l.906-1.976a.355.355,0,0,1,.49-.153.388.388,0,0,1,.159.508Zm2.778-4.864a.387.387,0,0,1-.528.067.356.356,0,0,1-.064-.509l1.423-1.645a.355.355,0,0,1,.513-.01.387.387,0,0,1,.01.532Zm4.027-3.9a.386.386,0,0,1-.525-.083.355.355,0,0,1,.08-.507l1.819-1.188a.355.355,0,0,1,.5.131.386.386,0,0,1-.135.514Zm4.94-2.658a.386.386,0,0,1-.484-.22.356.356,0,0,1,.212-.468l2.072-.659a.355.355,0,0,1,.443.259.387.387,0,0,1-.269.459Zm5.465-1.2a.38.38,0,0,1-.4-.345.362.362,0,0,1,.339-.391s.567-.035,1.025-.035c.511,0,1.154.035,1.154.035a.362.362,0,0,1,.342.388.379.379,0,0,1-.4.349s-.608-.033-1.1-.033C188.2,328.228,187.669,328.261,187.669,328.261Z" transform="translate(-168.14 -327.49)"/>
          </g>
          <g id="Grupo_1114931" data-name="Grupo 1114931" transform="translate(26.431 61.751)">
            <path id="Trazado_895763" data-name="Trazado 895763" d="M528.463,910.914a.37.37,0,0,1-.48.207l-.92-.365a1.671,1.671,0,0,1-.344-.16,1.069,1.069,0,0,0-.31.076c-.17.055-.671.03-.726-.166a.38.38,0,0,1,.252-.464l.676-.22c.192-.067.461-.163.6-.213s.248.043.248.208a.541.541,0,0,0,.344.436l.454.18A.374.374,0,0,1,528.463,910.914Z" transform="translate(-525.669 -909.596)"/>
          </g>
          <g id="Grupo_1114932" data-name="Grupo 1114932" transform="translate(32.089 4.832)">
            <path id="Trazado_895764" data-name="Trazado 895764" d="M608.542,199.57a.366.366,0,0,1-.37-.365.375.375,0,0,1,.369-.374s1.087-.014,1.858-.044l.383-.016a.369.369,0,1,1,.038.738s-.132.007-.392.016C609.647,199.556,608.542,199.57,608.542,199.57Zm-3.367-.453a.36.36,0,0,1-.393.335l-2.285-.274a.355.355,0,0,1-.3-.418.387.387,0,0,1,.433-.308l2.2.263A.383.383,0,0,1,605.175,199.117Zm9.388.12a.37.37,0,0,1-.07-.736s.18-.018.434-.046c.9-.1,1.748-.248,1.748-.248a.4.4,0,0,1,.454.294.341.341,0,0,1-.274.424s-.918.164-1.847.265C614.75,199.219,614.563,199.237,614.563,199.237Zm5.258-2.816a.37.37,0,1,1-.733-.092l.007-.062c.025-.2.052-.464.059-.581s.225-1.958.429-1.952a.368.368,0,0,1,.358.379s-.043,1.547-.051,1.664-.036.38-.061.582Zm.212-6.058a.37.37,0,0,1-.739-.016l.05-2.267a.37.37,0,1,1,.739.016Zm.129-6.013a.37.37,0,1,1-.739-.015l.047-2.267a.37.37,0,1,1,.739.015Zm.121-6.012a.37.37,0,1,1-.739-.015l.044-2.266a.37.37,0,0,1,.739.015Zm.117-6.012a.369.369,0,1,1-.739-.015l.044-2.27a.369.369,0,0,1,.739.014Zm.115-6.027a.37.37,0,1,1-.739-.013l.041-2.26a.37.37,0,0,1,.739.013Zm.109-6a.37.37,0,0,1-.739-.013l.04-2.259a.37.37,0,1,1,.739.013Zm.1-6a.37.37,0,1,1-.739-.012l.037-2.26a.37.37,0,0,1,.739.012Zm.094-6a.37.37,0,1,1-.739-.01l.006-.383c0-.2.007-.536.01-.739l.016-1.137a.37.37,0,0,1,.739.01l-.016,1.138c0,.2-.007.536-.01.739Zm.075-6a.369.369,0,1,1-.739-.007s.007-.724.01-1.176c0-.437,0-.812,0-1.133v-.112c0-.112.166-.2.369-.2s.37.091.37.2v.112c0,.322,0,.7,0,1.138S620.9,142.3,620.9,142.3Z" transform="translate(-602.194 -139.67)"/>
          </g>
        </g>
      </g>
      <path id="Trazado_895765" data-name="Trazado 895765" d="M238.5,168.821a22.41,22.41,0,0,1-7.41-.945l-.466-.185v-.485c-.007-.126-.064-.889-.111-1.505-.008-.106-.016-.2-.022-.295-1.725,1.071-4.822,2.6-10.346,2.6a15.962,15.962,0,0,1-11.613-5.4,19.636,19.636,0,0,1-3.9-6.455,24.809,24.809,0,0,1-1.487-8.689c0-7.737,3.422-12.372,6.293-14.9a18.2,18.2,0,0,1,11.613-4.589,15.484,15.484,0,0,1,8.033,2.051c-.048-2.149-.109-5.967-.1-9.607.011-2.751.063-4.965.154-6.581.054-.957.123-1.719.206-2.264.115-.759.259-1.244.65-1.485l.015-.009c.168-.1.48-.28,3.151-.494,1.6-.128,3.569-.228,5.558-.285,2.966-.083,8.134-.127,9.567.509a.84.84,0,0,1,.471.82c0,.116.008.28.01.5,0,.41,0,1.018,0,1.81-.009,1.476-.033,3.631-.073,6.4-.086,6.084-.227,13.921-.33,19.425-.213,11.438-.556,28.319-.608,28.736l-.032.251-.18.18c-.179.179-.288.288-2.37.516-.787.086-2.406.242-4.4.322-.709.028-1.479.047-2.273.047Zm-6.433-2.166c3.813,1.211,12.1.514,14.239.169.077-2.663.333-14.788.573-27.639.292-15.631.441-25.882.412-28.138a44.655,44.655,0,0,0-8.305-.27,68.666,68.666,0,0,0-8.092.558c-.143.536-.416,2.494-.43,9.614-.009,4.552.094,9.255.133,10.453l.047,1.477-1.21-.847-.106-.075a13.574,13.574,0,0,0-8.279-2.5c-6.821,0-16.427,5.587-16.427,18.008,0,7.179,2.72,11.655,5,14.145a14.485,14.485,0,0,0,10.523,4.918c6.018,0,8.906-1.924,10.294-2.848.108-.072.206-.137.3-.2l1.141-.739v1.342c.007.126.064.889.111,1.505C232.022,166.087,232.047,166.424,232.064,166.655Zm-1.443.534v.005Zm1.252-3.092v0Zm15.808-52.934.015.007-.008,0Zm-21.441,41.858c-3.037,0-4.654-2.878-4.654-4.955,0-3.009,1.74-4.805,4.654-4.805a4.927,4.927,0,0,1,5.182,4.88,4.828,4.828,0,0,1-1.33,3.405A5.221,5.221,0,0,1,226.241,153.021Zm0-8.281c-2.107,0-3.176,1.119-3.176,3.327,0,1.421,1.131,3.477,3.176,3.477,2.733,0,3.7-1.833,3.7-3.4A3.458,3.458,0,0,0,226.241,144.739Z" transform="translate(-200.553 -106.673)"/>
    </g>
  </g>
</svg>
