<svg xmlns="http://www.w3.org/2000/svg" width="420.115" height="236.003" viewBox="0 0 420.115 236.003">
  <g id="Grupo_1115338" data-name="Grupo 1115338" transform="translate(4764.256 5426.828)">
    <g id="Trazado_896826" data-name="Trazado 896826" transform="translate(-4764.256 -5400.73)" fill="#fff">
      <path d="M 419 188.5561981201172 L 1 188.5561981201172 L 1 0.9999861717224121 L 419 0.9999861717224121 L 419 188.5561981201172 Z" stroke="none"/>
      <path d="M 2 1.999984741210938 L 2 187.5561981201172 L 418 187.5561981201172 L 418 1.999984741210938 L 2 1.999984741210938 M 0 -1.52587890625e-05 L 420 -1.52587890625e-05 L 420 189.5561981201172 L 0 189.5561981201172 L 0 -1.52587890625e-05 Z" stroke="none" fill="#7eadbf"/>
    </g>
    <g id="Grupo_1101623" data-name="Grupo 1101623" transform="translate(-4601.307 -5218.037) rotate(180)">
      <path id="Polígono_6" data-name="Polígono 6" d="M7.277,0l7.277,12.474H0Z" transform="translate(0 14.553) rotate(-90)" fill="red"/>
      <path id="Trazado_892525" data-name="Trazado 892525" d="M0,0H150.542" transform="translate(7.458 6.757)" fill="#fff" stroke="red" stroke-width="2"/>
    </g>
    <g id="Grupo_1114462" data-name="Grupo 1114462" transform="translate(-4506.307 -5232.59)">
      <path id="Polígono_6-2" data-name="Polígono 6" d="M7.277,0l7.277,12.474H0Z" transform="translate(0 14.553) rotate(-90)" fill="red"/>
      <path id="Trazado_892525-2" data-name="Trazado 892525" d="M0,0H150.542" transform="translate(7.458 7.796)" fill="#fff" stroke="red" stroke-width="2"/>
    </g>
    <g id="Grupo_1114479" data-name="Grupo 1114479" transform="translate(-4507.531 -5388.085) rotate(-90)">
      <path id="Polígono_6-3" data-name="Polígono 6" d="M3.79,0,7.58,6.5H0Z" transform="translate(0 10.548) rotate(-90)" fill="red"/>
      <path id="Trazado_892525-3" data-name="Trazado 892525" d="M0,0H18.161" transform="translate(4.808 6.757)" fill="#fff" stroke="red" stroke-width="2"/>
    </g>
    <g id="Grupo_1114480" data-name="Grupo 1114480" transform="translate(-4594.802 -5373.085) rotate(-90)">
      <path id="Polígono_6-4" data-name="Polígono 6" d="M3.79,0,7.58,6.5H0Z" transform="translate(0 10.548) rotate(-90)" fill="red"/>
      <path id="Trazado_892525-4" data-name="Trazado 892525" d="M0,0H18.161" transform="translate(4.808 6.757)" fill="#fff" stroke="red" stroke-width="2"/>
    </g>
    <path id="Trazado_892534" data-name="Trazado 892534" d="M-7728.248-5629.32s65.139,6.124,60.236-57.648" transform="translate(2965.879 287.041)" fill="#fff" stroke="#727aa6" stroke-width="2"/>
    <path id="Trazado_892535" data-name="Trazado 892535" d="M-7395.543-5706.651v10.44" transform="translate(2995.554 295.48)" fill="#fff" stroke="#12263f" stroke-width="2"/>
    <path id="Trazado_892536" data-name="Trazado 892536" d="M-7339.186-5696.019s-40.882,3.989-56.137-11.544" transform="translate(2994.879 295.898)" fill="none" stroke="#727aa6" stroke-width="2"/>
    <path id="Trazado_892537" data-name="Trazado 892537" d="M-7728.826-5504.162v-20.9" transform="translate(2965.837 313.338)" fill="#fff" stroke="#7eadbf" stroke-width="2"/>
    <path id="Trazado_892538" data-name="Trazado 892538" d="M-7728.826-5504.162v-20.9" transform="translate(3174.07 313.338)" fill="#fff" stroke="#7eadbf" stroke-width="2"/>
    <g id="Grupo_1114463" data-name="Grupo 1114463" transform="translate(-5663.1 -12297.537)">
      <path id="Trazado_892540" data-name="Trazado 892540" d="M-7728.826-5336.309v-188.754" transform="translate(8882.68 12422.672)" fill="#fff" stroke="#7eadbf" stroke-width="2"/>
      <path id="Trazado_892541" data-name="Trazado 892541" d="M-7728.826-5336.309v-188.754" transform="translate(8792.67 12422.672)" fill="#fff" stroke="#7eadbf" stroke-width="2"/>
    </g>
    <path id="Trazado_892539" data-name="Trazado 892539" d="M-7728.826-5504.162v-20.9" transform="translate(3383.686 313.338)" fill="#fff" stroke="#7eadbf" stroke-width="2"/>
    <path id="Trazado_896827" data-name="Trazado 896827" d="M-74.033,0h-1.418V-6.85l-2.092.715v-1.2l3.328-1.225h.182Zm3.457.732H-71.7l3.357-9.264h1.119ZM-60.586,0h-5.736V-.979l2.842-3.1A7.077,7.077,0,0,0-62.6-5.224a1.856,1.856,0,0,0,.261-.923,1.4,1.4,0,0,0-.343-.984,1.189,1.189,0,0,0-.923-.375,1.37,1.37,0,0,0-1.072.422,1.659,1.659,0,0,0-.381,1.154h-1.424a2.791,2.791,0,0,1,.354-1.4,2.441,2.441,0,0,1,1.014-.97A3.226,3.226,0,0,1-63.6-8.648a2.886,2.886,0,0,1,1.96.624A2.166,2.166,0,0,1-60.92-6.3a2.928,2.928,0,0,1-.36,1.339,7.613,7.613,0,0,1-1.181,1.591l-2.086,2.232h3.961Zm9.076-1.986h-3.3L-55.506,0h-1.541l3.223-8.531h1.33L-49.266,0h-1.547Zm-2.889-1.2h2.473l-1.236-3.539Zm7-3.158.041.732a2.28,2.28,0,0,1,1.846-.85q1.98,0,2.016,2.268V0h-1.424V-4.107A1.306,1.306,0,0,0-45.179-5a1.1,1.1,0,0,0-.853-.29,1.372,1.372,0,0,0-1.283.779V0h-1.424V-6.34Zm7.957,5.32a1.287,1.287,0,0,0,.885-.311A1.061,1.061,0,0,0-38.18-2.1h1.342a2.091,2.091,0,0,1-.369,1.1,2.421,2.421,0,0,1-.937.812,2.794,2.794,0,0,1-1.277.3,2.7,2.7,0,0,1-2.109-.861,3.416,3.416,0,0,1-.779-2.379V-3.27a3.359,3.359,0,0,1,.773-2.317,2.678,2.678,0,0,1,2.109-.87,2.6,2.6,0,0,1,1.843.659,2.361,2.361,0,0,1,.747,1.731H-38.18a1.3,1.3,0,0,0-.372-.9,1.2,1.2,0,0,0-.888-.352,1.253,1.253,0,0,0-1.066.5,2.556,2.556,0,0,0-.381,1.521v.229a2.6,2.6,0,0,0,.372,1.538A1.252,1.252,0,0,0-39.439-1.02Zm5.08-4.629A2.229,2.229,0,0,1-32.6-6.457q2.027,0,2.057,2.314V0h-1.424V-4.09a1.252,1.252,0,0,0-.284-.929,1.162,1.162,0,0,0-.835-.272,1.372,1.372,0,0,0-1.277.762V0h-1.424V-9h1.424Zm4.992,2.42A3.738,3.738,0,0,1-29-4.907a2.7,2.7,0,0,1,1.037-1.148,2.922,2.922,0,0,1,1.535-.4,2.769,2.769,0,0,1,2.083.826,3.249,3.249,0,0,1,.864,2.191l.006.334a3.772,3.772,0,0,1-.36,1.676A2.664,2.664,0,0,1-24.864-.287a2.944,2.944,0,0,1-1.55.4,2.75,2.75,0,0,1-2.147-.894,3.422,3.422,0,0,1-.806-2.382Zm1.424.123a2.555,2.555,0,0,0,.4,1.532,1.314,1.314,0,0,0,1.125.554,1.3,1.3,0,0,0,1.122-.562,2.822,2.822,0,0,0,.4-1.646A2.522,2.522,0,0,0-25.3-4.752a1.319,1.319,0,0,0-1.122-.562,1.307,1.307,0,0,0-1.107.554A2.768,2.768,0,0,0-27.943-3.105Zm8.4-.111a3.769,3.769,0,0,1,.68-2.353,2.178,2.178,0,0,1,1.822-.888,2.069,2.069,0,0,1,1.629.7V-9h1.424V0h-1.289l-.07-.656a2.1,2.1,0,0,1-1.705.773,2.166,2.166,0,0,1-1.8-.9A3.907,3.907,0,0,1-19.547-3.217Zm1.424.123a2.639,2.639,0,0,0,.372,1.509,1.207,1.207,0,0,0,1.058.542,1.345,1.345,0,0,0,1.277-.779V-4.529a1.324,1.324,0,0,0-1.266-.762,1.216,1.216,0,0,0-1.066.548A2.939,2.939,0,0,0-18.123-3.094ZM-9.715.117a2.946,2.946,0,0,1-2.194-.853,3.093,3.093,0,0,1-.841-2.271v-.176a3.8,3.8,0,0,1,.366-1.7,2.787,2.787,0,0,1,1.028-1.163,2.719,2.719,0,0,1,1.477-.416,2.488,2.488,0,0,1,2,.826,3.494,3.494,0,0,1,.706,2.338v.574h-4.143a1.9,1.9,0,0,0,.524,1.242,1.574,1.574,0,0,0,1.157.457,1.928,1.928,0,0,0,1.594-.791l.768.732A2.563,2.563,0,0,1-8.288-.2,3.183,3.183,0,0,1-9.715.117Zm-.17-5.432a1.2,1.2,0,0,0-.946.41,2.126,2.126,0,0,0-.46,1.143h2.713v-.105a1.731,1.731,0,0,0-.381-1.081A1.19,1.19,0,0,0-9.885-5.314ZM2.473-3.105A3.775,3.775,0,0,1,1.8-.759,2.139,2.139,0,0,1,.012.117a2.154,2.154,0,0,1-1.67-.686V2.438H-3.082V-6.34H-1.77l.059.645A2.091,2.091,0,0,1-.006-6.457a2.161,2.161,0,0,1,1.819.864,3.875,3.875,0,0,1,.659,2.4ZM1.055-3.229A2.644,2.644,0,0,0,.677-4.734,1.229,1.229,0,0,0-.4-5.291a1.31,1.31,0,0,0-1.254.721v2.813A1.322,1.322,0,0,0-.393-1.02,1.227,1.227,0,0,0,.671-1.567,2.911,2.911,0,0,0,1.055-3.229ZM6.469.117A2.946,2.946,0,0,1,4.274-.735a3.093,3.093,0,0,1-.841-2.271v-.176a3.8,3.8,0,0,1,.366-1.7A2.787,2.787,0,0,1,4.828-6.041,2.719,2.719,0,0,1,6.3-6.457a2.488,2.488,0,0,1,2,.826,3.494,3.494,0,0,1,.706,2.338v.574H4.869a1.9,1.9,0,0,0,.524,1.242,1.574,1.574,0,0,0,1.157.457,1.928,1.928,0,0,0,1.594-.791l.768.732A2.563,2.563,0,0,1,7.9-.2,3.183,3.183,0,0,1,6.469.117ZM6.3-5.314a1.2,1.2,0,0,0-.946.41,2.126,2.126,0,0,0-.46,1.143H7.605v-.105a1.731,1.731,0,0,0-.381-1.081A1.19,1.19,0,0,0,6.3-5.314ZM12.721-1.02a1.287,1.287,0,0,0,.885-.311A1.061,1.061,0,0,0,13.98-2.1h1.342a2.091,2.091,0,0,1-.369,1.1,2.421,2.421,0,0,1-.937.812,2.794,2.794,0,0,1-1.277.3,2.7,2.7,0,0,1-2.109-.861A3.416,3.416,0,0,1,9.85-3.123V-3.27a3.359,3.359,0,0,1,.773-2.317,2.678,2.678,0,0,1,2.109-.87,2.6,2.6,0,0,1,1.843.659,2.361,2.361,0,0,1,.747,1.731H13.98a1.3,1.3,0,0,0-.372-.9,1.2,1.2,0,0,0-.888-.352,1.253,1.253,0,0,0-1.066.5,2.556,2.556,0,0,0-.381,1.521v.229a2.6,2.6,0,0,0,.372,1.538A1.252,1.252,0,0,0,12.721-1.02ZM17.8-5.648a2.229,2.229,0,0,1,1.764-.809q2.027,0,2.057,2.314V0H20.2V-4.09a1.252,1.252,0,0,0-.284-.929,1.162,1.162,0,0,0-.835-.272,1.372,1.372,0,0,0-1.277.762V0H16.377V-9H17.8Zm4.992,2.42a3.738,3.738,0,0,1,.369-1.679A2.7,2.7,0,0,1,24.2-6.056a2.922,2.922,0,0,1,1.535-.4,2.769,2.769,0,0,1,2.083.826,3.249,3.249,0,0,1,.864,2.191l.006.334a3.772,3.772,0,0,1-.36,1.676A2.664,2.664,0,0,1,27.3-.287a2.944,2.944,0,0,1-1.55.4A2.75,2.75,0,0,1,23.6-.776a3.422,3.422,0,0,1-.806-2.382Zm1.424.123a2.555,2.555,0,0,0,.4,1.532,1.314,1.314,0,0,0,1.125.554,1.3,1.3,0,0,0,1.122-.562,2.822,2.822,0,0,0,.4-1.646,2.522,2.522,0,0,0-.413-1.523,1.319,1.319,0,0,0-1.122-.562,1.307,1.307,0,0,0-1.107.554A2.768,2.768,0,0,0,24.217-3.105ZM36.17-4.693H38.4v1.3H36.17V-.855H34.787V-3.393H32.549v-1.3h2.238V-7.066H36.17ZM46.318,0H44.9V-6.85l-2.092.715v-1.2l3.328-1.225h.182Zm3.943-1.5a.813.813,0,0,1,.615.226.784.784,0,0,1,.217.565.756.756,0,0,1-.217.554.826.826,0,0,1-.615.22.828.828,0,0,1-.6-.217.743.743,0,0,1-.223-.557.784.784,0,0,1,.217-.565A.805.805,0,0,1,50.262-1.5Zm2.754-2.73.463-4.3h4.582V-7.3h-3.4l-.234,2.039a2.634,2.634,0,0,1,1.336-.34,2.377,2.377,0,0,1,1.9.779,3.088,3.088,0,0,1,.677,2.1,2.842,2.842,0,0,1-.75,2.071,2.737,2.737,0,0,1-2.057.771,2.867,2.867,0,0,1-1.942-.665A2.4,2.4,0,0,1,52.752-2.3h1.377a1.5,1.5,0,0,0,.445.952,1.355,1.355,0,0,0,.949.331,1.224,1.224,0,0,0,1.022-.469,2.023,2.023,0,0,0,.366-1.277A1.788,1.788,0,0,0,56.508-4a1.414,1.414,0,0,0-1.113-.454,1.852,1.852,0,0,0-.656.1,1.859,1.859,0,0,0-.586.4ZM65.139-1.02a1.287,1.287,0,0,0,.885-.311A1.061,1.061,0,0,0,66.4-2.1H67.74a2.091,2.091,0,0,1-.369,1.1,2.421,2.421,0,0,1-.937.812,2.794,2.794,0,0,1-1.277.3,2.7,2.7,0,0,1-2.109-.861,3.416,3.416,0,0,1-.779-2.379V-3.27a3.359,3.359,0,0,1,.773-2.317,2.678,2.678,0,0,1,2.109-.87,2.6,2.6,0,0,1,1.843.659,2.361,2.361,0,0,1,.747,1.731H66.4a1.3,1.3,0,0,0-.372-.9,1.2,1.2,0,0,0-.888-.352,1.253,1.253,0,0,0-1.066.5,2.556,2.556,0,0,0-.381,1.521v.229a2.6,2.6,0,0,0,.372,1.538A1.252,1.252,0,0,0,65.139-1.02Zm5.016-5.32.041.662a2.281,2.281,0,0,1,1.828-.779,1.753,1.753,0,0,1,1.74.973,2.249,2.249,0,0,1,1.945-.973,1.977,1.977,0,0,1,1.562.58,2.554,2.554,0,0,1,.524,1.711V0H76.371V-4.125a1.261,1.261,0,0,0-.264-.885,1.154,1.154,0,0,0-.873-.281,1.185,1.185,0,0,0-.794.261,1.375,1.375,0,0,0-.431.683L74.016,0H72.592V-4.172a1.016,1.016,0,0,0-1.143-1.119,1.253,1.253,0,0,0-1.213.7V0H68.813V-6.34Z" transform="translate(-4680.307 -5238.673)" fill="#12263f"/>
    <path id="Trazado_896828" data-name="Trazado 896828" d="M-74.033,0h-1.418V-6.85l-2.092.715v-1.2l3.328-1.225h.182Zm3.457.732H-71.7l3.357-9.264h1.119ZM-60.586,0h-5.736V-.979l2.842-3.1A7.077,7.077,0,0,0-62.6-5.224a1.856,1.856,0,0,0,.261-.923,1.4,1.4,0,0,0-.343-.984,1.189,1.189,0,0,0-.923-.375,1.37,1.37,0,0,0-1.072.422,1.659,1.659,0,0,0-.381,1.154h-1.424a2.791,2.791,0,0,1,.354-1.4,2.441,2.441,0,0,1,1.014-.97A3.226,3.226,0,0,1-63.6-8.648a2.886,2.886,0,0,1,1.96.624A2.166,2.166,0,0,1-60.92-6.3a2.928,2.928,0,0,1-.36,1.339,7.613,7.613,0,0,1-1.181,1.591l-2.086,2.232h3.961Zm9.076-1.986h-3.3L-55.506,0h-1.541l3.223-8.531h1.33L-49.266,0h-1.547Zm-2.889-1.2h2.473l-1.236-3.539Zm7-3.158.041.732a2.28,2.28,0,0,1,1.846-.85q1.98,0,2.016,2.268V0h-1.424V-4.107A1.306,1.306,0,0,0-45.179-5a1.1,1.1,0,0,0-.853-.29,1.372,1.372,0,0,0-1.283.779V0h-1.424V-6.34Zm7.957,5.32a1.287,1.287,0,0,0,.885-.311A1.061,1.061,0,0,0-38.18-2.1h1.342a2.091,2.091,0,0,1-.369,1.1,2.421,2.421,0,0,1-.937.812,2.794,2.794,0,0,1-1.277.3,2.7,2.7,0,0,1-2.109-.861,3.416,3.416,0,0,1-.779-2.379V-3.27a3.359,3.359,0,0,1,.773-2.317,2.678,2.678,0,0,1,2.109-.87,2.6,2.6,0,0,1,1.843.659,2.361,2.361,0,0,1,.747,1.731H-38.18a1.3,1.3,0,0,0-.372-.9,1.2,1.2,0,0,0-.888-.352,1.253,1.253,0,0,0-1.066.5,2.556,2.556,0,0,0-.381,1.521v.229a2.6,2.6,0,0,0,.372,1.538A1.252,1.252,0,0,0-39.439-1.02Zm5.08-4.629A2.229,2.229,0,0,1-32.6-6.457q2.027,0,2.057,2.314V0h-1.424V-4.09a1.252,1.252,0,0,0-.284-.929,1.162,1.162,0,0,0-.835-.272,1.372,1.372,0,0,0-1.277.762V0h-1.424V-9h1.424Zm4.992,2.42A3.738,3.738,0,0,1-29-4.907a2.7,2.7,0,0,1,1.037-1.148,2.922,2.922,0,0,1,1.535-.4,2.769,2.769,0,0,1,2.083.826,3.249,3.249,0,0,1,.864,2.191l.006.334a3.772,3.772,0,0,1-.36,1.676A2.664,2.664,0,0,1-24.864-.287a2.944,2.944,0,0,1-1.55.4,2.75,2.75,0,0,1-2.147-.894,3.422,3.422,0,0,1-.806-2.382Zm1.424.123a2.555,2.555,0,0,0,.4,1.532,1.314,1.314,0,0,0,1.125.554,1.3,1.3,0,0,0,1.122-.562,2.822,2.822,0,0,0,.4-1.646A2.522,2.522,0,0,0-25.3-4.752a1.319,1.319,0,0,0-1.122-.562,1.307,1.307,0,0,0-1.107.554A2.768,2.768,0,0,0-27.943-3.105Zm8.4-.111a3.769,3.769,0,0,1,.68-2.353,2.178,2.178,0,0,1,1.822-.888,2.069,2.069,0,0,1,1.629.7V-9h1.424V0h-1.289l-.07-.656a2.1,2.1,0,0,1-1.705.773,2.166,2.166,0,0,1-1.8-.9A3.907,3.907,0,0,1-19.547-3.217Zm1.424.123a2.639,2.639,0,0,0,.372,1.509,1.207,1.207,0,0,0,1.058.542,1.345,1.345,0,0,0,1.277-.779V-4.529a1.324,1.324,0,0,0-1.266-.762,1.216,1.216,0,0,0-1.066.548A2.939,2.939,0,0,0-18.123-3.094ZM-9.715.117a2.946,2.946,0,0,1-2.194-.853,3.093,3.093,0,0,1-.841-2.271v-.176a3.8,3.8,0,0,1,.366-1.7,2.787,2.787,0,0,1,1.028-1.163,2.719,2.719,0,0,1,1.477-.416,2.488,2.488,0,0,1,2,.826,3.494,3.494,0,0,1,.706,2.338v.574h-4.143a1.9,1.9,0,0,0,.524,1.242,1.574,1.574,0,0,0,1.157.457,1.928,1.928,0,0,0,1.594-.791l.768.732A2.563,2.563,0,0,1-8.288-.2,3.183,3.183,0,0,1-9.715.117Zm-.17-5.432a1.2,1.2,0,0,0-.946.41,2.126,2.126,0,0,0-.46,1.143h2.713v-.105a1.731,1.731,0,0,0-.381-1.081A1.19,1.19,0,0,0-9.885-5.314ZM2.473-3.105A3.775,3.775,0,0,1,1.8-.759,2.139,2.139,0,0,1,.012.117a2.154,2.154,0,0,1-1.67-.686V2.438H-3.082V-6.34H-1.77l.059.645A2.091,2.091,0,0,1-.006-6.457a2.161,2.161,0,0,1,1.819.864,3.875,3.875,0,0,1,.659,2.4ZM1.055-3.229A2.644,2.644,0,0,0,.677-4.734,1.229,1.229,0,0,0-.4-5.291a1.31,1.31,0,0,0-1.254.721v2.813A1.322,1.322,0,0,0-.393-1.02,1.227,1.227,0,0,0,.671-1.567,2.911,2.911,0,0,0,1.055-3.229ZM6.469.117A2.946,2.946,0,0,1,4.274-.735a3.093,3.093,0,0,1-.841-2.271v-.176a3.8,3.8,0,0,1,.366-1.7A2.787,2.787,0,0,1,4.828-6.041,2.719,2.719,0,0,1,6.3-6.457a2.488,2.488,0,0,1,2,.826,3.494,3.494,0,0,1,.706,2.338v.574H4.869a1.9,1.9,0,0,0,.524,1.242,1.574,1.574,0,0,0,1.157.457,1.928,1.928,0,0,0,1.594-.791l.768.732A2.563,2.563,0,0,1,7.9-.2,3.183,3.183,0,0,1,6.469.117ZM6.3-5.314a1.2,1.2,0,0,0-.946.41,2.126,2.126,0,0,0-.46,1.143H7.605v-.105a1.731,1.731,0,0,0-.381-1.081A1.19,1.19,0,0,0,6.3-5.314ZM12.721-1.02a1.287,1.287,0,0,0,.885-.311A1.061,1.061,0,0,0,13.98-2.1h1.342a2.091,2.091,0,0,1-.369,1.1,2.421,2.421,0,0,1-.937.812,2.794,2.794,0,0,1-1.277.3,2.7,2.7,0,0,1-2.109-.861A3.416,3.416,0,0,1,9.85-3.123V-3.27a3.359,3.359,0,0,1,.773-2.317,2.678,2.678,0,0,1,2.109-.87,2.6,2.6,0,0,1,1.843.659,2.361,2.361,0,0,1,.747,1.731H13.98a1.3,1.3,0,0,0-.372-.9,1.2,1.2,0,0,0-.888-.352,1.253,1.253,0,0,0-1.066.5,2.556,2.556,0,0,0-.381,1.521v.229a2.6,2.6,0,0,0,.372,1.538A1.252,1.252,0,0,0,12.721-1.02ZM17.8-5.648a2.229,2.229,0,0,1,1.764-.809q2.027,0,2.057,2.314V0H20.2V-4.09a1.252,1.252,0,0,0-.284-.929,1.162,1.162,0,0,0-.835-.272,1.372,1.372,0,0,0-1.277.762V0H16.377V-9H17.8Zm4.992,2.42a3.738,3.738,0,0,1,.369-1.679A2.7,2.7,0,0,1,24.2-6.056a2.922,2.922,0,0,1,1.535-.4,2.769,2.769,0,0,1,2.083.826,3.249,3.249,0,0,1,.864,2.191l.006.334a3.772,3.772,0,0,1-.36,1.676A2.664,2.664,0,0,1,27.3-.287a2.944,2.944,0,0,1-1.55.4A2.75,2.75,0,0,1,23.6-.776a3.422,3.422,0,0,1-.806-2.382Zm1.424.123a2.555,2.555,0,0,0,.4,1.532,1.314,1.314,0,0,0,1.125.554,1.3,1.3,0,0,0,1.122-.562,2.822,2.822,0,0,0,.4-1.646,2.522,2.522,0,0,0-.413-1.523,1.319,1.319,0,0,0-1.122-.562,1.307,1.307,0,0,0-1.107.554A2.768,2.768,0,0,0,24.217-3.105ZM36.17-4.693H38.4v1.3H36.17V-.855H34.787V-3.393H32.549v-1.3h2.238V-7.066H36.17ZM46.318,0H44.9V-6.85l-2.092.715v-1.2l3.328-1.225h.182Zm3.943-1.5a.813.813,0,0,1,.615.226.784.784,0,0,1,.217.565.756.756,0,0,1-.217.554.826.826,0,0,1-.615.22.828.828,0,0,1-.6-.217.743.743,0,0,1-.223-.557.784.784,0,0,1,.217-.565A.805.805,0,0,1,50.262-1.5Zm2.754-2.73.463-4.3h4.582V-7.3h-3.4l-.234,2.039a2.634,2.634,0,0,1,1.336-.34,2.377,2.377,0,0,1,1.9.779,3.088,3.088,0,0,1,.677,2.1,2.842,2.842,0,0,1-.75,2.071,2.737,2.737,0,0,1-2.057.771,2.867,2.867,0,0,1-1.942-.665A2.4,2.4,0,0,1,52.752-2.3h1.377a1.5,1.5,0,0,0,.445.952,1.355,1.355,0,0,0,.949.331,1.224,1.224,0,0,0,1.022-.469,2.023,2.023,0,0,0,.366-1.277A1.788,1.788,0,0,0,56.508-4a1.414,1.414,0,0,0-1.113-.454,1.852,1.852,0,0,0-.656.1,1.859,1.859,0,0,0-.586.4ZM65.139-1.02a1.287,1.287,0,0,0,.885-.311A1.061,1.061,0,0,0,66.4-2.1H67.74a2.091,2.091,0,0,1-.369,1.1,2.421,2.421,0,0,1-.937.812,2.794,2.794,0,0,1-1.277.3,2.7,2.7,0,0,1-2.109-.861,3.416,3.416,0,0,1-.779-2.379V-3.27a3.359,3.359,0,0,1,.773-2.317,2.678,2.678,0,0,1,2.109-.87,2.6,2.6,0,0,1,1.843.659,2.361,2.361,0,0,1,.747,1.731H66.4a1.3,1.3,0,0,0-.372-.9,1.2,1.2,0,0,0-.888-.352,1.253,1.253,0,0,0-1.066.5,2.556,2.556,0,0,0-.381,1.521v.229a2.6,2.6,0,0,0,.372,1.538A1.252,1.252,0,0,0,65.139-1.02Zm5.016-5.32.041.662a2.281,2.281,0,0,1,1.828-.779,1.753,1.753,0,0,1,1.74.973,2.249,2.249,0,0,1,1.945-.973,1.977,1.977,0,0,1,1.562.58,2.554,2.554,0,0,1,.524,1.711V0H76.371V-4.125a1.261,1.261,0,0,0-.264-.885,1.154,1.154,0,0,0-.873-.281,1.185,1.185,0,0,0-.794.261,1.375,1.375,0,0,0-.431.683L74.016,0H72.592V-4.172a1.016,1.016,0,0,0-1.143-1.119,1.253,1.253,0,0,0-1.213.7V0H68.813V-6.34Z" transform="translate(-4427.307 -5238.673)" fill="#12263f"/>
    <path id="Trazado_896829" data-name="Trazado 896829" d="M-7.811-3.041H-6.75V-1.9H-7.811V0H-9.234V-1.9H-12.92l-.041-.867,3.68-5.766h1.471Zm-3.656,0h2.232V-6.6l-.105.188ZM-.123-1.02A1.287,1.287,0,0,0,.762-1.33,1.061,1.061,0,0,0,1.137-2.1H2.479a2.091,2.091,0,0,1-.369,1.1,2.421,2.421,0,0,1-.937.812,2.794,2.794,0,0,1-1.277.3A2.7,2.7,0,0,1-2.215-.744a3.416,3.416,0,0,1-.779-2.379V-3.27a3.359,3.359,0,0,1,.773-2.317,2.678,2.678,0,0,1,2.109-.87A2.6,2.6,0,0,1,1.731-5.8a2.361,2.361,0,0,1,.747,1.731H1.137a1.3,1.3,0,0,0-.372-.9,1.2,1.2,0,0,0-.888-.352,1.253,1.253,0,0,0-1.066.5A2.556,2.556,0,0,0-1.57-3.293v.229A2.6,2.6,0,0,0-1.2-1.526,1.252,1.252,0,0,0-.123-1.02ZM4.893-6.34l.041.662a2.281,2.281,0,0,1,1.828-.779,1.753,1.753,0,0,1,1.74.973,2.249,2.249,0,0,1,1.945-.973,1.977,1.977,0,0,1,1.562.58,2.554,2.554,0,0,1,.524,1.711V0H11.109V-4.125a1.261,1.261,0,0,0-.264-.885,1.154,1.154,0,0,0-.873-.281,1.185,1.185,0,0,0-.794.261,1.375,1.375,0,0,0-.431.683L8.754,0H7.33V-4.172A1.016,1.016,0,0,0,6.188-5.291a1.253,1.253,0,0,0-1.213.7V0H3.551V-6.34Z" transform="translate(-4500.255 -5418.296)" fill="#12263f"/>
    <path id="Trazado_896830" data-name="Trazado 896830" d="M-43.43-1.184h3.873V0h-5.355V-8.531h1.482ZM-34.77,0a2.2,2.2,0,0,1-.164-.592A2.216,2.216,0,0,1-36.6.117a2.237,2.237,0,0,1-1.559-.545,1.743,1.743,0,0,1-.6-1.348,1.8,1.8,0,0,1,.753-1.556,3.649,3.649,0,0,1,2.153-.542h.873v-.416a1.11,1.11,0,0,0-.275-.788,1.092,1.092,0,0,0-.838-.3,1.254,1.254,0,0,0-.8.243.753.753,0,0,0-.311.618h-1.424a1.58,1.58,0,0,1,.346-.976,2.3,2.3,0,0,1,.94-.712,3.3,3.3,0,0,1,1.327-.258,2.66,2.66,0,0,1,1.775.56,2,2,0,0,1,.68,1.573v2.859A3.241,3.241,0,0,0-33.316-.1V0Zm-1.564-1.025a1.62,1.62,0,0,0,.794-.205,1.37,1.37,0,0,0,.56-.551v-1.2h-.768a2.1,2.1,0,0,0-1.189.275.892.892,0,0,0-.4.779.832.832,0,0,0,.272.653A1.055,1.055,0,0,0-36.334-1.025Zm7.588-4.014a3.523,3.523,0,0,0-.58-.047,1.306,1.306,0,0,0-1.318.75V0h-1.424V-6.34h1.359l.035.709a1.6,1.6,0,0,1,1.43-.826,1.333,1.333,0,0,1,.5.082Zm.65,1.822A3.708,3.708,0,0,1-27.4-5.575a2.229,2.229,0,0,1,1.843-.882,2.088,2.088,0,0,1,1.705.756l.064-.639h1.283V-.193a2.555,2.555,0,0,1-.776,1.969,2.957,2.957,0,0,1-2.095.721,3.376,3.376,0,0,1-1.362-.29,2.421,2.421,0,0,1-1.011-.759l.674-.855a2.035,2.035,0,0,0,1.617.779A1.573,1.573,0,0,0-24.34.987a1.471,1.471,0,0,0,.41-1.128V-.568A2.1,2.1,0,0,1-25.57.117,2.223,2.223,0,0,1-27.39-.768,3.828,3.828,0,0,1-28.1-3.217Zm1.418.123a2.552,2.552,0,0,0,.39,1.5,1.253,1.253,0,0,0,1.081.548,1.37,1.37,0,0,0,1.277-.738V-4.57A1.351,1.351,0,0,0-25.2-5.291a1.258,1.258,0,0,0-1.093.557A2.858,2.858,0,0,0-26.678-3.094Zm5.367-.135a3.738,3.738,0,0,1,.369-1.679A2.7,2.7,0,0,1-19.9-6.056a2.922,2.922,0,0,1,1.535-.4,2.769,2.769,0,0,1,2.083.826,3.249,3.249,0,0,1,.864,2.191l.006.334a3.772,3.772,0,0,1-.36,1.676A2.664,2.664,0,0,1-16.808-.287a2.944,2.944,0,0,1-1.55.4A2.75,2.75,0,0,1-20.5-.776a3.422,3.422,0,0,1-.806-2.382Zm1.424.123a2.555,2.555,0,0,0,.4,1.532,1.314,1.314,0,0,0,1.125.554,1.3,1.3,0,0,0,1.122-.562,2.822,2.822,0,0,0,.4-1.646,2.522,2.522,0,0,0-.413-1.523,1.319,1.319,0,0,0-1.122-.562,1.307,1.307,0,0,0-1.107.554A2.768,2.768,0,0,0-19.887-3.105Zm8.4-.111a3.769,3.769,0,0,1,.68-2.353,2.178,2.178,0,0,1,1.822-.888,2.069,2.069,0,0,1,1.629.7V-9h1.424V0H-7.225l-.07-.656A2.1,2.1,0,0,1-9,.117a2.166,2.166,0,0,1-1.8-.9A3.907,3.907,0,0,1-11.49-3.217Zm1.424.123a2.639,2.639,0,0,0,.372,1.509,1.207,1.207,0,0,0,1.058.542,1.345,1.345,0,0,0,1.277-.779V-4.529a1.324,1.324,0,0,0-1.266-.762,1.216,1.216,0,0,0-1.066.548A2.939,2.939,0,0,0-10.066-3.094ZM-1.658.117A2.946,2.946,0,0,1-3.853-.735a3.093,3.093,0,0,1-.841-2.271v-.176a3.8,3.8,0,0,1,.366-1.7A2.787,2.787,0,0,1-3.3-6.041a2.719,2.719,0,0,1,1.477-.416,2.488,2.488,0,0,1,2,.826A3.494,3.494,0,0,1,.885-3.293v.574H-3.258a1.9,1.9,0,0,0,.524,1.242,1.574,1.574,0,0,0,1.157.457A1.928,1.928,0,0,0,.018-1.811l.768.732A2.563,2.563,0,0,1-.231-.2,3.183,3.183,0,0,1-1.658.117Zm-.17-5.432a1.2,1.2,0,0,0-.946.41,2.126,2.126,0,0,0-.46,1.143H-.521v-.105A1.731,1.731,0,0,0-.9-4.948,1.19,1.19,0,0,0-1.828-5.314Zm8.209-.334a2.229,2.229,0,0,1,1.764-.809q2.027,0,2.057,2.314V0H8.777V-4.09a1.252,1.252,0,0,0-.284-.929,1.162,1.162,0,0,0-.835-.272,1.372,1.372,0,0,0-1.277.762V0H4.957V-9H6.381Zm4.992,2.42a3.738,3.738,0,0,1,.369-1.679,2.7,2.7,0,0,1,1.037-1.148,2.922,2.922,0,0,1,1.535-.4,2.769,2.769,0,0,1,2.083.826,3.249,3.249,0,0,1,.864,2.191l.006.334a3.772,3.772,0,0,1-.36,1.676A2.664,2.664,0,0,1,15.876-.287a2.944,2.944,0,0,1-1.55.4,2.75,2.75,0,0,1-2.147-.894,3.422,3.422,0,0,1-.806-2.382Zm1.424.123a2.555,2.555,0,0,0,.4,1.532,1.314,1.314,0,0,0,1.125.554,1.3,1.3,0,0,0,1.122-.562,2.822,2.822,0,0,0,.4-1.646,2.522,2.522,0,0,0-.413-1.523,1.319,1.319,0,0,0-1.122-.562,1.307,1.307,0,0,0-1.107.554A2.768,2.768,0,0,0,12.8-3.105ZM19.811-6.34l.041.662a2.281,2.281,0,0,1,1.828-.779,1.753,1.753,0,0,1,1.74.973,2.249,2.249,0,0,1,1.945-.973,1.977,1.977,0,0,1,1.562.58,2.554,2.554,0,0,1,.524,1.711V0H26.027V-4.125a1.261,1.261,0,0,0-.264-.885,1.154,1.154,0,0,0-.873-.281,1.185,1.185,0,0,0-.794.261,1.375,1.375,0,0,0-.431.683L23.672,0H22.248V-4.172a1.016,1.016,0,0,0-1.143-1.119,1.253,1.253,0,0,0-1.213.7V0H18.469V-6.34ZM34.477-3.105a3.808,3.808,0,0,1-.659,2.35A2.147,2.147,0,0,1,32,.117a2.068,2.068,0,0,1-1.734-.8L30.2,0H28.91V-9h1.424v3.27a2.061,2.061,0,0,1,1.658-.727,2.172,2.172,0,0,1,1.822.861,3.871,3.871,0,0,1,.662,2.408Zm-1.424-.123a2.692,2.692,0,0,0-.363-1.547,1.21,1.21,0,0,0-1.055-.516,1.322,1.322,0,0,0-1.3.809v2.613a1.336,1.336,0,0,0,1.313.826,1.2,1.2,0,0,0,1.031-.5,2.608,2.608,0,0,0,.375-1.506Zm5.936-1.811a3.523,3.523,0,0,0-.58-.047,1.306,1.306,0,0,0-1.318.75V0H35.666V-6.34h1.359l.035.709a1.6,1.6,0,0,1,1.43-.826,1.333,1.333,0,0,1,.5.082Zm.422,1.811a3.738,3.738,0,0,1,.369-1.679,2.7,2.7,0,0,1,1.037-1.148,2.922,2.922,0,0,1,1.535-.4,2.769,2.769,0,0,1,2.083.826A3.249,3.249,0,0,1,45.3-3.439l.006.334a3.772,3.772,0,0,1-.36,1.676A2.664,2.664,0,0,1,43.913-.287a2.944,2.944,0,0,1-1.55.4,2.75,2.75,0,0,1-2.147-.894,3.422,3.422,0,0,1-.806-2.382Zm1.424.123a2.555,2.555,0,0,0,.4,1.532,1.314,1.314,0,0,0,1.125.554,1.3,1.3,0,0,0,1.122-.562,2.822,2.822,0,0,0,.4-1.646,2.522,2.522,0,0,0-.413-1.523,1.319,1.319,0,0,0-1.122-.562,1.307,1.307,0,0,0-1.107.554A2.768,2.768,0,0,0,40.834-3.105Z" transform="translate(-4450.889 -5375.555) rotate(-16)" fill="#454964"/>
    <path id="Trazado_896831" data-name="Trazado 896831" d="M-43.43-1.184h3.873V0h-5.355V-8.531h1.482ZM-34.77,0a2.2,2.2,0,0,1-.164-.592A2.216,2.216,0,0,1-36.6.117a2.237,2.237,0,0,1-1.559-.545,1.743,1.743,0,0,1-.6-1.348,1.8,1.8,0,0,1,.753-1.556,3.649,3.649,0,0,1,2.153-.542h.873v-.416a1.11,1.11,0,0,0-.275-.788,1.092,1.092,0,0,0-.838-.3,1.254,1.254,0,0,0-.8.243.753.753,0,0,0-.311.618h-1.424a1.58,1.58,0,0,1,.346-.976,2.3,2.3,0,0,1,.94-.712,3.3,3.3,0,0,1,1.327-.258,2.66,2.66,0,0,1,1.775.56,2,2,0,0,1,.68,1.573v2.859A3.241,3.241,0,0,0-33.316-.1V0Zm-1.564-1.025a1.62,1.62,0,0,0,.794-.205,1.37,1.37,0,0,0,.56-.551v-1.2h-.768a2.1,2.1,0,0,0-1.189.275.892.892,0,0,0-.4.779.832.832,0,0,0,.272.653A1.055,1.055,0,0,0-36.334-1.025Zm7.588-4.014a3.523,3.523,0,0,0-.58-.047,1.306,1.306,0,0,0-1.318.75V0h-1.424V-6.34h1.359l.035.709a1.6,1.6,0,0,1,1.43-.826,1.333,1.333,0,0,1,.5.082Zm.65,1.822A3.708,3.708,0,0,1-27.4-5.575a2.229,2.229,0,0,1,1.843-.882,2.088,2.088,0,0,1,1.705.756l.064-.639h1.283V-.193a2.555,2.555,0,0,1-.776,1.969,2.957,2.957,0,0,1-2.095.721,3.376,3.376,0,0,1-1.362-.29,2.421,2.421,0,0,1-1.011-.759l.674-.855a2.035,2.035,0,0,0,1.617.779A1.573,1.573,0,0,0-24.34.987a1.471,1.471,0,0,0,.41-1.128V-.568A2.1,2.1,0,0,1-25.57.117,2.223,2.223,0,0,1-27.39-.768,3.828,3.828,0,0,1-28.1-3.217Zm1.418.123a2.552,2.552,0,0,0,.39,1.5,1.253,1.253,0,0,0,1.081.548,1.37,1.37,0,0,0,1.277-.738V-4.57A1.351,1.351,0,0,0-25.2-5.291a1.258,1.258,0,0,0-1.093.557A2.858,2.858,0,0,0-26.678-3.094Zm5.367-.135a3.738,3.738,0,0,1,.369-1.679A2.7,2.7,0,0,1-19.9-6.056a2.922,2.922,0,0,1,1.535-.4,2.769,2.769,0,0,1,2.083.826,3.249,3.249,0,0,1,.864,2.191l.006.334a3.772,3.772,0,0,1-.36,1.676A2.664,2.664,0,0,1-16.808-.287a2.944,2.944,0,0,1-1.55.4A2.75,2.75,0,0,1-20.5-.776a3.422,3.422,0,0,1-.806-2.382Zm1.424.123a2.555,2.555,0,0,0,.4,1.532,1.314,1.314,0,0,0,1.125.554,1.3,1.3,0,0,0,1.122-.562,2.822,2.822,0,0,0,.4-1.646,2.522,2.522,0,0,0-.413-1.523,1.319,1.319,0,0,0-1.122-.562,1.307,1.307,0,0,0-1.107.554A2.768,2.768,0,0,0-19.887-3.105Zm8.4-.111a3.769,3.769,0,0,1,.68-2.353,2.178,2.178,0,0,1,1.822-.888,2.069,2.069,0,0,1,1.629.7V-9h1.424V0H-7.225l-.07-.656A2.1,2.1,0,0,1-9,.117a2.166,2.166,0,0,1-1.8-.9A3.907,3.907,0,0,1-11.49-3.217Zm1.424.123a2.639,2.639,0,0,0,.372,1.509,1.207,1.207,0,0,0,1.058.542,1.345,1.345,0,0,0,1.277-.779V-4.529a1.324,1.324,0,0,0-1.266-.762,1.216,1.216,0,0,0-1.066.548A2.939,2.939,0,0,0-10.066-3.094ZM-1.658.117A2.946,2.946,0,0,1-3.853-.735a3.093,3.093,0,0,1-.841-2.271v-.176a3.8,3.8,0,0,1,.366-1.7A2.787,2.787,0,0,1-3.3-6.041a2.719,2.719,0,0,1,1.477-.416,2.488,2.488,0,0,1,2,.826A3.494,3.494,0,0,1,.885-3.293v.574H-3.258a1.9,1.9,0,0,0,.524,1.242,1.574,1.574,0,0,0,1.157.457A1.928,1.928,0,0,0,.018-1.811l.768.732A2.563,2.563,0,0,1-.231-.2,3.183,3.183,0,0,1-1.658.117Zm-.17-5.432a1.2,1.2,0,0,0-.946.41,2.126,2.126,0,0,0-.46,1.143H-.521v-.105A1.731,1.731,0,0,0-.9-4.948,1.19,1.19,0,0,0-1.828-5.314Zm8.209-.334a2.229,2.229,0,0,1,1.764-.809q2.027,0,2.057,2.314V0H8.777V-4.09a1.252,1.252,0,0,0-.284-.929,1.162,1.162,0,0,0-.835-.272,1.372,1.372,0,0,0-1.277.762V0H4.957V-9H6.381Zm4.992,2.42a3.738,3.738,0,0,1,.369-1.679,2.7,2.7,0,0,1,1.037-1.148,2.922,2.922,0,0,1,1.535-.4,2.769,2.769,0,0,1,2.083.826,3.249,3.249,0,0,1,.864,2.191l.006.334a3.772,3.772,0,0,1-.36,1.676A2.664,2.664,0,0,1,15.876-.287a2.944,2.944,0,0,1-1.55.4,2.75,2.75,0,0,1-2.147-.894,3.422,3.422,0,0,1-.806-2.382Zm1.424.123a2.555,2.555,0,0,0,.4,1.532,1.314,1.314,0,0,0,1.125.554,1.3,1.3,0,0,0,1.122-.562,2.822,2.822,0,0,0,.4-1.646,2.522,2.522,0,0,0-.413-1.523,1.319,1.319,0,0,0-1.122-.562,1.307,1.307,0,0,0-1.107.554A2.768,2.768,0,0,0,12.8-3.105ZM19.811-6.34l.041.662a2.281,2.281,0,0,1,1.828-.779,1.753,1.753,0,0,1,1.74.973,2.249,2.249,0,0,1,1.945-.973,1.977,1.977,0,0,1,1.562.58,2.554,2.554,0,0,1,.524,1.711V0H26.027V-4.125a1.261,1.261,0,0,0-.264-.885,1.154,1.154,0,0,0-.873-.281,1.185,1.185,0,0,0-.794.261,1.375,1.375,0,0,0-.431.683L23.672,0H22.248V-4.172a1.016,1.016,0,0,0-1.143-1.119,1.253,1.253,0,0,0-1.213.7V0H18.469V-6.34ZM34.477-3.105a3.808,3.808,0,0,1-.659,2.35A2.147,2.147,0,0,1,32,.117a2.068,2.068,0,0,1-1.734-.8L30.2,0H28.91V-9h1.424v3.27a2.061,2.061,0,0,1,1.658-.727,2.172,2.172,0,0,1,1.822.861,3.871,3.871,0,0,1,.662,2.408Zm-1.424-.123a2.692,2.692,0,0,0-.363-1.547,1.21,1.21,0,0,0-1.055-.516,1.322,1.322,0,0,0-1.3.809v2.613a1.336,1.336,0,0,0,1.313.826,1.2,1.2,0,0,0,1.031-.5,2.608,2.608,0,0,0,.375-1.506Zm5.936-1.811a3.523,3.523,0,0,0-.58-.047,1.306,1.306,0,0,0-1.318.75V0H35.666V-6.34h1.359l.035.709a1.6,1.6,0,0,1,1.43-.826,1.333,1.333,0,0,1,.5.082Zm.422,1.811a3.738,3.738,0,0,1,.369-1.679,2.7,2.7,0,0,1,1.037-1.148,2.922,2.922,0,0,1,1.535-.4,2.769,2.769,0,0,1,2.083.826A3.249,3.249,0,0,1,45.3-3.439l.006.334a3.772,3.772,0,0,1-.36,1.676A2.664,2.664,0,0,1,43.913-.287a2.944,2.944,0,0,1-1.55.4,2.75,2.75,0,0,1-2.147-.894,3.422,3.422,0,0,1-.806-2.382Zm1.424.123a2.555,2.555,0,0,0,.4,1.532,1.314,1.314,0,0,0,1.125.554,1.3,1.3,0,0,0,1.122-.562,2.822,2.822,0,0,0,.4-1.646,2.522,2.522,0,0,0-.413-1.523,1.319,1.319,0,0,0-1.122-.562,1.307,1.307,0,0,0-1.107.554A2.768,2.768,0,0,0,40.834-3.105Z" transform="matrix(0.961, 0.276, -0.276, 0.961, -4652.824, -5364.909)" fill="#454964"/>
    <path id="Trazado_896832" data-name="Trazado 896832" d="M-7.811-3.041H-6.75V-1.9H-7.811V0H-9.234V-1.9H-12.92l-.041-.867,3.68-5.766h1.471Zm-3.656,0h2.232V-6.6l-.105.188ZM-.123-1.02A1.287,1.287,0,0,0,.762-1.33,1.061,1.061,0,0,0,1.137-2.1H2.479a2.091,2.091,0,0,1-.369,1.1,2.421,2.421,0,0,1-.937.812,2.794,2.794,0,0,1-1.277.3A2.7,2.7,0,0,1-2.215-.744a3.416,3.416,0,0,1-.779-2.379V-3.27a3.359,3.359,0,0,1,.773-2.317,2.678,2.678,0,0,1,2.109-.87A2.6,2.6,0,0,1,1.731-5.8a2.361,2.361,0,0,1,.747,1.731H1.137a1.3,1.3,0,0,0-.372-.9,1.2,1.2,0,0,0-.888-.352,1.253,1.253,0,0,0-1.066.5A2.556,2.556,0,0,0-1.57-3.293v.229A2.6,2.6,0,0,0-1.2-1.526,1.252,1.252,0,0,0-.123-1.02ZM4.893-6.34l.041.662a2.281,2.281,0,0,1,1.828-.779,1.753,1.753,0,0,1,1.74.973,2.249,2.249,0,0,1,1.945-.973,1.977,1.977,0,0,1,1.562.58,2.554,2.554,0,0,1,.524,1.711V0H11.109V-4.125a1.261,1.261,0,0,0-.264-.885,1.154,1.154,0,0,0-.873-.281,1.185,1.185,0,0,0-.794.261,1.375,1.375,0,0,0-.431.683L8.754,0H7.33V-4.172A1.016,1.016,0,0,0,6.188-5.291a1.253,1.253,0,0,0-1.213.7V0H3.551V-6.34Z" transform="translate(-4571.255 -5386.928)" fill="#12263f"/>
    <path id="Trazado_892542" data-name="Trazado 892542" d="M-7405.715-4345.107H-7517.14" transform="translate(2994.855 -1068.068)" fill="none" stroke="red" stroke-width="2" stroke-dasharray="15 10"/>
    <g id="Grupo_1114481" data-name="Grupo 1114481" transform="translate(-4514.072 -5379.696) rotate(-16)">
      <path id="Polígono_6-5" data-name="Polígono 6" d="M3.79,0,7.58,6.5H0Z" transform="translate(0 10.548) rotate(-90)" fill="#a6826d"/>
      <path id="Trazado_892525-5" data-name="Trazado 892525" d="M0,0H111.576" transform="translate(4.808 6.757)" fill="#fff" stroke="#a6826d" stroke-width="2"/>
    </g>
    <g id="Grupo_1114482" data-name="Grupo 1114482" transform="translate(-4583.747 -5356.732) rotate(-166)">
      <path id="Polígono_6-6" data-name="Polígono 6" d="M3.79,0,7.58,6.5H0Z" transform="translate(0 7.58) rotate(-90)" fill="#a6826d"/>
      <path id="Trazado_892525-6" data-name="Trazado 892525" d="M0,0H118.481" transform="translate(4.808 3.79)" fill="#fff" stroke="#a6826d" stroke-width="2"/>
    </g>
    <path id="Trazado_892543" data-name="Trazado 892543" d="M0,0H68.988" transform="translate(-4465.319 -5380.361) rotate(180)" fill="#fff" stroke="red" stroke-width="2"/>
    <path id="Trazado_892544" data-name="Trazado 892544" d="M-7696.184-4330.954l121.629,31.815" transform="translate(2994.744 -1068.068)" fill="none" stroke="#727aa6" stroke-width="2"/>
    <path id="Trazado_892525-7" data-name="Trazado 892525" d="M0,0H68.988" transform="translate(-4564.189 -5369.557) rotate(180)" fill="#fff" stroke="red" stroke-width="2"/>
    <path id="Trazado_892545" data-name="Trazado 892545" d="M-7394.221-4343.342l-116.3,30.737" transform="translate(2994.744 -1068.068)" fill="none" stroke="#727aa6" stroke-width="2"/>
  </g>
</svg>
