<svg xmlns="http://www.w3.org/2000/svg" width="383.955" height="305.034" viewBox="0 0 383.955 305.034">
  <g id="Grupo_1115339" data-name="Grupo 1115339" transform="translate(4735.705 4791.859)">
    <g id="Trazado_896833" data-name="Trazado 896833" transform="translate(-4681.831 -4775.59)" fill="none">
      <path d="M0,0H329.984V269.91H0Z" stroke="none"/>
      <path d="M 2 2 L 2 267.9099426269531 L 327.9842224121094 267.9099426269531 L 327.9842224121094 2 L 2 2 M 0 0 L 329.9842224121094 0 L 329.9842224121094 269.9099426269531 L 0 269.9099426269531 L 0 0 Z" stroke="none" fill="#7eadbf"/>
    </g>
    <g id="Grupo_1114463" data-name="Grupo 1114463" transform="translate(-4551.328 -4775.59)">
      <path id="Trazado_892540" data-name="Trazado 892540" d="M-7728.826-5366.75v-158.312" transform="translate(7796.853 5525.063)" fill="#fff" stroke="#7eadbf" stroke-width="2"/>
      <path id="Trazado_892541" data-name="Trazado 892541" d="M-7728.826-5366.75v-158.312" transform="translate(7728.826 5525.063)" fill="#fff" stroke="#7eadbf" stroke-width="2"/>
    </g>
    <g id="Grupo_1114496" data-name="Grupo 1114496" transform="translate(-4351.895 -4618.508) rotate(90)">
      <path id="Trazado_892541-2" data-name="Trazado 892541" d="M0,329.936V0" fill="#fff" stroke="#7eadbf" stroke-width="2"/>
    </g>
    <path id="Trazado_892546" data-name="Trazado 892546" d="M-7395.543-5706.651v15.7" transform="translate(2994.888 915.358)" fill="#fff" stroke="#12263f" stroke-width="2"/>
    <path id="Trazado_892547" data-name="Trazado 892547" d="M-7346.563-5692.46s-35.509,5.218-48.759-15.1" transform="translate(2994.667 916.27)" fill="none" stroke="#727aa6" stroke-width="2"/>
    <path id="Trazado_892548" data-name="Trazado 892548" d="M-7399.783-3736.35l-91.555,26.606s36.417,149.034-25.345,145.136-18.134-132.56-18.134-132.56l-101.016-23.561s6.446,20.431-6.939,38.143-38.245,14.715-38.245,14.715v234.595h80.944l83.389-19.01v-112.322" transform="translate(3000.132 -1054.549)" fill="none" stroke="#727aa6" stroke-width="2"/>
    <g id="Grupo_1114480" data-name="Grupo 1114480" transform="translate(-4694.927 -4486.863) rotate(-90)">
      <path id="Polígono_6" data-name="Polígono 6" d="M3.646,0,7.292,6.251H0Z" transform="translate(0 7.292) rotate(-90)" fill="red"/>
      <path id="Trazado_892525" data-name="Trazado 892525" d="M0,0H17.472" transform="translate(4.625 3.646)" fill="#fff" stroke="red" stroke-width="2"/>
    </g>
    <path id="Trazado_896834" data-name="Trazado 896834" d="M-8.613,0h-7.17V-1.223L-12.231-5.1A8.846,8.846,0,0,0-11.136-6.53a2.32,2.32,0,0,0,.326-1.154,1.753,1.753,0,0,0-.428-1.23,1.486,1.486,0,0,0-1.154-.469,1.713,1.713,0,0,0-1.34.527,2.074,2.074,0,0,0-.476,1.443h-1.78a3.488,3.488,0,0,1,.443-1.754,3.051,3.051,0,0,1,1.267-1.212,4.033,4.033,0,0,1,1.9-.432,3.607,3.607,0,0,1,2.45.78,2.708,2.708,0,0,1,.9,2.157A3.66,3.66,0,0,1-9.481-6.2a9.516,9.516,0,0,1-1.476,1.989l-2.607,2.791h4.951ZM-.154-1.274A1.609,1.609,0,0,0,.952-1.663a1.326,1.326,0,0,0,.469-.959H3.1a2.614,2.614,0,0,1-.461,1.381A3.027,3.027,0,0,1,1.465-.227a3.492,3.492,0,0,1-1.6.374A3.379,3.379,0,0,1-2.769-.93,4.27,4.27,0,0,1-3.743-3.9v-.183a4.2,4.2,0,0,1,.967-2.9A3.348,3.348,0,0,1-.139-8.071a3.256,3.256,0,0,1,2.3.824A2.952,2.952,0,0,1,3.1-5.083H1.421A1.63,1.63,0,0,0,.956-6.2a1.5,1.5,0,0,0-1.11-.439,1.566,1.566,0,0,0-1.333.626,3.2,3.2,0,0,0-.476,1.9v.286A3.248,3.248,0,0,0-1.5-1.908,1.565,1.565,0,0,0-.154-1.274Zm6.27-6.65.051.828a2.852,2.852,0,0,1,2.285-.974,2.191,2.191,0,0,1,2.175,1.216,2.811,2.811,0,0,1,2.432-1.216,2.471,2.471,0,0,1,1.952.725,3.192,3.192,0,0,1,.656,2.139V0h-1.78V-5.156a1.576,1.576,0,0,0-.33-1.106,1.443,1.443,0,0,0-1.091-.352,1.482,1.482,0,0,0-.992.326,1.719,1.719,0,0,0-.538.853L10.942,0H9.163V-5.215a1.27,1.27,0,0,0-1.428-1.4,1.567,1.567,0,0,0-1.516.872V0H4.438V-7.925Z" transform="translate(-4719.716 -4493.457)" fill="#12263f"/>
  </g>
</svg>
