<svg xmlns="http://www.w3.org/2000/svg" width="411.32" height="270.301" viewBox="0 0 411.32 270.301">
  <g id="Grupo_1115334" data-name="Grupo 1115334" transform="translate(4759.471 8042.297)">
    <path id="Trazado_896811" data-name="Trazado 896811" d="M-37.352-3.7A4.107,4.107,0,0,1-38.7-.863,4.581,4.581,0,0,1-41.812.156a4.436,4.436,0,0,1-2.395-.645A4.231,4.231,0,0,1-45.8-2.32a6.611,6.611,0,0,1-.586-2.758V-6.141a6.659,6.659,0,0,1,.57-2.836,4.3,4.3,0,0,1,1.637-1.891,4.566,4.566,0,0,1,2.465-.664,4.386,4.386,0,0,1,3.031,1.023,4.276,4.276,0,0,1,1.336,2.891H-39.32a2.81,2.81,0,0,0-.715-1.77,2.363,2.363,0,0,0-1.684-.543,2.309,2.309,0,0,0-1.98.941,4.7,4.7,0,0,0-.707,2.762v1.008a4.988,4.988,0,0,0,.66,2.813,2.191,2.191,0,0,0,1.934.969,2.555,2.555,0,0,0,1.75-.523A2.729,2.729,0,0,0-39.32-3.7Zm5.3,3.859A3.928,3.928,0,0,1-34.973-.98a4.124,4.124,0,0,1-1.121-3.027v-.234A5.072,5.072,0,0,1-35.605-6.5a3.716,3.716,0,0,1,1.371-1.551,3.625,3.625,0,0,1,1.969-.555,3.318,3.318,0,0,1,2.668,1.1,4.658,4.658,0,0,1,.941,3.117v.766H-34.18a2.539,2.539,0,0,0,.7,1.656,2.1,2.1,0,0,0,1.543.609,2.571,2.571,0,0,0,2.125-1.055l1.023.977A3.418,3.418,0,0,1-30.145-.262,4.244,4.244,0,0,1-32.047.156Zm-.227-7.242a1.6,1.6,0,0,0-1.262.547,2.835,2.835,0,0,0-.613,1.523h3.617v-.141A2.307,2.307,0,0,0-31.039-6.6,1.586,1.586,0,0,0-32.273-7.086Zm6.852-1.367.055.977a3.039,3.039,0,0,1,2.461-1.133q2.641,0,2.688,3.023V0h-1.9V-5.477a1.741,1.741,0,0,0-.348-1.191A1.462,1.462,0,0,0-23.6-7.055a1.829,1.829,0,0,0-1.711,1.039V0h-1.9V-8.453Zm9.516-2.055v2.055h1.492v1.406h-1.492v4.719a1.039,1.039,0,0,0,.191.7.888.888,0,0,0,.684.215,2.924,2.924,0,0,0,.664-.078V-.023a4.676,4.676,0,0,1-1.25.18Q-17.8.156-17.8-2.258V-7.047H-19.2V-8.453H-17.8v-2.055Zm7.367,3.789a4.7,4.7,0,0,0-.773-.062,1.741,1.741,0,0,0-1.758,1V0h-1.9V-8.453h1.813l.047.945A2.139,2.139,0,0,1-9.2-8.609a1.777,1.777,0,0,1,.672.109ZM-7.977-4.3a4.984,4.984,0,0,1,.492-2.238A3.6,3.6,0,0,1-6.1-8.074a3.9,3.9,0,0,1,2.047-.535,3.692,3.692,0,0,1,2.777,1.1A4.333,4.333,0,0,1-.125-4.586l.008.445A5.029,5.029,0,0,1-.6-1.906,3.551,3.551,0,0,1-1.973-.383,3.925,3.925,0,0,1-4.039.156,3.667,3.667,0,0,1-6.9-1.035,4.563,4.563,0,0,1-7.977-4.211Zm1.9.164A3.406,3.406,0,0,0-5.539-2.1a1.752,1.752,0,0,0,1.5.738,1.733,1.733,0,0,0,1.5-.75,3.762,3.762,0,0,0,.535-2.2,3.362,3.362,0,0,0-.551-2.031,1.759,1.759,0,0,0-1.5-.75,1.743,1.743,0,0,0-1.477.738A3.691,3.691,0,0,0-6.078-4.141ZM6.141,0V-7.047H4.852V-8.453H6.141v-.773A2.9,2.9,0,0,1,6.922-11.4a2.993,2.993,0,0,1,2.188-.766,4.388,4.388,0,0,1,1.063.141l-.047,1.484A3.739,3.739,0,0,0,9.4-10.6,1.219,1.219,0,0,0,8.039-9.2v.75H9.758v1.406H8.039V0Zm9.43-6.719a4.7,4.7,0,0,0-.773-.062,1.741,1.741,0,0,0-1.758,1V0h-1.9V-8.453h1.813L13-7.508a2.139,2.139,0,0,1,1.906-1.1,1.777,1.777,0,0,1,.672.109ZM20.492.156A3.928,3.928,0,0,1,17.566-.98a4.124,4.124,0,0,1-1.121-3.027v-.234A5.072,5.072,0,0,1,16.934-6.5,3.716,3.716,0,0,1,18.3-8.055a3.625,3.625,0,0,1,1.969-.555,3.318,3.318,0,0,1,2.668,1.1,4.658,4.658,0,0,1,.941,3.117v.766H18.359a2.539,2.539,0,0,0,.7,1.656,2.1,2.1,0,0,0,1.543.609,2.571,2.571,0,0,0,2.125-1.055l1.023.977A3.418,3.418,0,0,1,22.395-.262,4.244,4.244,0,0,1,20.492.156Zm-.227-7.242A1.6,1.6,0,0,0,19-6.539a2.835,2.835,0,0,0-.613,1.523h3.617v-.141A2.307,2.307,0,0,0,21.5-6.6,1.586,1.586,0,0,0,20.266-7.086Zm6.852-1.367.055.977a3.039,3.039,0,0,1,2.461-1.133q2.641,0,2.688,3.023V0h-1.9V-5.477a1.741,1.741,0,0,0-.348-1.191,1.462,1.462,0,0,0-1.137-.387,1.829,1.829,0,0,0-1.711,1.039V0h-1.9V-8.453Zm9.516-2.055v2.055h1.492v1.406H36.633v4.719a1.039,1.039,0,0,0,.191.7.888.888,0,0,0,.684.215,2.924,2.924,0,0,0,.664-.078V-.023a4.676,4.676,0,0,1-1.25.18q-2.187,0-2.187-2.414V-7.047H33.344V-8.453h1.391v-2.055ZM43.3.156A3.928,3.928,0,0,1,40.371-.98,4.124,4.124,0,0,1,39.25-4.008v-.234A5.072,5.072,0,0,1,39.738-6.5a3.716,3.716,0,0,1,1.371-1.551,3.625,3.625,0,0,1,1.969-.555,3.318,3.318,0,0,1,2.668,1.1,4.658,4.658,0,0,1,.941,3.117v.766H41.164a2.539,2.539,0,0,0,.7,1.656,2.1,2.1,0,0,0,1.543.609,2.571,2.571,0,0,0,2.125-1.055l1.023.977A3.418,3.418,0,0,1,45.2-.262,4.244,4.244,0,0,1,43.3.156ZM43.07-7.086a1.6,1.6,0,0,0-1.262.547A2.835,2.835,0,0,0,41.2-5.016h3.617v-.141A2.307,2.307,0,0,0,44.3-6.6,1.586,1.586,0,0,0,43.07-7.086Z" transform="translate(-4747.307 -7907.297) rotate(-90)" fill="#12263f"/>
    <path id="Trazado_896812" data-name="Trazado 896812" d="M-34.266-3.7a4.107,4.107,0,0,1-1.344,2.84A4.581,4.581,0,0,1-38.727.156a4.436,4.436,0,0,1-2.395-.645,4.231,4.231,0,0,1-1.6-1.832A6.611,6.611,0,0,1-43.3-5.078V-6.141a6.659,6.659,0,0,1,.57-2.836A4.3,4.3,0,0,1-41.1-10.867a4.566,4.566,0,0,1,2.465-.664A4.386,4.386,0,0,1-35.6-10.508a4.276,4.276,0,0,1,1.336,2.891h-1.969a2.81,2.81,0,0,0-.715-1.77,2.363,2.363,0,0,0-1.684-.543,2.309,2.309,0,0,0-1.98.941,4.7,4.7,0,0,0-.707,2.762v1.008a4.988,4.988,0,0,0,.66,2.813,2.191,2.191,0,0,0,1.934.969,2.555,2.555,0,0,0,1.75-.523A2.729,2.729,0,0,0-36.234-3.7Zm5.3,3.859A3.928,3.928,0,0,1-31.887-.98a4.124,4.124,0,0,1-1.121-3.027v-.234A5.072,5.072,0,0,1-32.52-6.5a3.716,3.716,0,0,1,1.371-1.551,3.625,3.625,0,0,1,1.969-.555,3.318,3.318,0,0,1,2.668,1.1,4.658,4.658,0,0,1,.941,3.117v.766h-5.523a2.539,2.539,0,0,0,.7,1.656,2.1,2.1,0,0,0,1.543.609,2.571,2.571,0,0,0,2.125-1.055l1.023.977A3.418,3.418,0,0,1-27.059-.262,4.244,4.244,0,0,1-28.961.156Zm-.227-7.242a1.6,1.6,0,0,0-1.262.547,2.835,2.835,0,0,0-.613,1.523h3.617v-.141A2.307,2.307,0,0,0-27.953-6.6,1.586,1.586,0,0,0-29.187-7.086Zm6.852-1.367.055.977A3.039,3.039,0,0,1-19.82-8.609q2.641,0,2.688,3.023V0h-1.9V-5.477a1.741,1.741,0,0,0-.348-1.191,1.462,1.462,0,0,0-1.137-.387,1.829,1.829,0,0,0-1.711,1.039V0h-1.9V-8.453Zm9.516-2.055v2.055h1.492v1.406H-12.82v4.719a1.039,1.039,0,0,0,.191.7.888.888,0,0,0,.684.215,2.924,2.924,0,0,0,.664-.078V-.023a4.676,4.676,0,0,1-1.25.18q-2.187,0-2.187-2.414V-7.047h-1.391V-8.453h1.391v-2.055Zm7.367,3.789a4.7,4.7,0,0,0-.773-.062,1.741,1.741,0,0,0-1.758,1V0h-1.9V-8.453H-8.07l.047.945a2.139,2.139,0,0,1,1.906-1.1,1.777,1.777,0,0,1,.672.109ZM-4.891-4.3A4.984,4.984,0,0,1-4.4-6.543,3.6,3.6,0,0,1-3.016-8.074,3.9,3.9,0,0,1-.969-8.609a3.692,3.692,0,0,1,2.777,1.1A4.333,4.333,0,0,1,2.961-4.586l.008.445a5.029,5.029,0,0,1-.48,2.234A3.551,3.551,0,0,1,1.113-.383,3.925,3.925,0,0,1-.953.156,3.667,3.667,0,0,1-3.816-1.035,4.563,4.563,0,0,1-4.891-4.211Zm1.9.164A3.406,3.406,0,0,0-2.453-2.1a1.752,1.752,0,0,0,1.5.738,1.733,1.733,0,0,0,1.5-.75,3.762,3.762,0,0,0,.535-2.2A3.362,3.362,0,0,0,.527-6.336a1.759,1.759,0,0,0-1.5-.75,1.743,1.743,0,0,0-1.477.738A3.691,3.691,0,0,0-2.992-4.141ZM13.609,0a2.93,2.93,0,0,1-.219-.789,2.955,2.955,0,0,1-2.219.945A2.982,2.982,0,0,1,9.094-.57a2.325,2.325,0,0,1-.8-1.8,2.4,2.4,0,0,1,1-2.074,4.865,4.865,0,0,1,2.871-.723h1.164v-.555a1.481,1.481,0,0,0-.367-1.051,1.456,1.456,0,0,0-1.117-.395,1.672,1.672,0,0,0-1.062.324,1,1,0,0,0-.414.824h-1.9a2.107,2.107,0,0,1,.461-1.3,3.071,3.071,0,0,1,1.254-.949,4.4,4.4,0,0,1,1.77-.344,3.547,3.547,0,0,1,2.367.746,2.661,2.661,0,0,1,.906,2.1v3.813a4.321,4.321,0,0,0,.32,1.82V0ZM11.523-1.367a2.159,2.159,0,0,0,1.059-.273,1.827,1.827,0,0,0,.746-.734V-3.969H12.3a2.8,2.8,0,0,0-1.586.367,1.189,1.189,0,0,0-.531,1.039,1.109,1.109,0,0,0,.363.871A1.407,1.407,0,0,0,11.523-1.367Zm8.07-9.141v2.055h1.492v1.406H19.594v4.719a1.039,1.039,0,0,0,.191.7.888.888,0,0,0,.684.215,2.924,2.924,0,0,0,.664-.078V-.023a4.676,4.676,0,0,1-1.25.18Q17.7.156,17.7-2.258V-7.047H16.3V-8.453H17.7v-2.055Zm7.367,3.789a4.7,4.7,0,0,0-.773-.062,1.741,1.741,0,0,0-1.758,1V0h-1.9V-8.453h1.813l.047.945a2.139,2.139,0,0,1,1.906-1.1,1.777,1.777,0,0,1,.672.109ZM33.211,0a2.93,2.93,0,0,1-.219-.789,2.955,2.955,0,0,1-2.219.945A2.982,2.982,0,0,1,28.7-.57a2.325,2.325,0,0,1-.8-1.8,2.4,2.4,0,0,1,1-2.074,4.865,4.865,0,0,1,2.871-.723H32.93v-.555a1.481,1.481,0,0,0-.367-1.051,1.456,1.456,0,0,0-1.117-.395,1.672,1.672,0,0,0-1.062.324,1,1,0,0,0-.414.824h-1.9a2.107,2.107,0,0,1,.461-1.3,3.071,3.071,0,0,1,1.254-.949,4.4,4.4,0,0,1,1.77-.344,3.547,3.547,0,0,1,2.367.746,2.661,2.661,0,0,1,.906,2.1v3.813a4.321,4.321,0,0,0,.32,1.82V0ZM31.125-1.367a2.159,2.159,0,0,0,1.059-.273,1.827,1.827,0,0,0,.746-.734V-3.969H31.906A2.8,2.8,0,0,0,30.32-3.6a1.189,1.189,0,0,0-.531,1.039,1.109,1.109,0,0,0,.363.871A1.407,1.407,0,0,0,31.125-1.367ZM32.18-12h2.164L32.18-9.633H30.656Zm9.375,9.7a.861.861,0,0,0-.418-.773,4.445,4.445,0,0,0-1.387-.469,7.129,7.129,0,0,1-1.617-.516,2.158,2.158,0,0,1-1.422-1.992,2.25,2.25,0,0,1,.922-1.828,3.644,3.644,0,0,1,2.344-.734,3.792,3.792,0,0,1,2.449.75,2.38,2.38,0,0,1,.934,1.945h-1.9a1.17,1.17,0,0,0-.406-.91,1.557,1.557,0,0,0-1.078-.363,1.682,1.682,0,0,0-1.02.289.911.911,0,0,0-.395.773.769.769,0,0,0,.367.68,5.049,5.049,0,0,0,1.484.488,7.027,7.027,0,0,1,1.754.586,2.484,2.484,0,0,1,.945.816A2.082,2.082,0,0,1,43.422-2.4a2.2,2.2,0,0,1-.945,1.848A4.031,4.031,0,0,1,40,.156a4.371,4.371,0,0,1-1.852-.375A3.047,3.047,0,0,1,36.883-1.25a2.441,2.441,0,0,1-.453-1.414h1.844a1.338,1.338,0,0,0,.508,1.035,1.973,1.973,0,0,0,1.242.363,1.92,1.92,0,0,0,1.141-.285A.883.883,0,0,0,41.555-2.3Z" transform="translate(-4348.307 -7907.297) rotate(-90)" fill="#12263f"/>
    <g id="Trazado_896813" data-name="Trazado 896813" transform="translate(-4737.807 -8042.297)" fill="#fff">
      <path d="M 372.5 269.16748046875 L 1 269.16748046875 L 1 0.9999902248382568 L 372.5 0.9999902248382568 L 372.5 269.16748046875 Z" stroke="none"/>
      <path d="M 2 2 L 2 268.16748046875 L 371.5 268.16748046875 L 371.5 2 L 2 2 M 0 0 L 373.5 0 L 373.5 270.16748046875 L 0 270.16748046875 L 0 0 Z" stroke="none" fill="#7eadbf"/>
    </g>
    <path id="Trazado_896814" data-name="Trazado 896814" d="M-20.129-3.7a4.107,4.107,0,0,1-1.344,2.84A4.581,4.581,0,0,1-24.59.156a4.436,4.436,0,0,1-2.395-.645,4.231,4.231,0,0,1-1.6-1.832,6.611,6.611,0,0,1-.586-2.758V-6.141a6.659,6.659,0,0,1,.57-2.836,4.3,4.3,0,0,1,1.637-1.891,4.566,4.566,0,0,1,2.465-.664,4.386,4.386,0,0,1,3.031,1.023,4.276,4.276,0,0,1,1.336,2.891H-22.1a2.81,2.81,0,0,0-.715-1.77A2.363,2.363,0,0,0-24.5-9.93a2.309,2.309,0,0,0-1.98.941,4.7,4.7,0,0,0-.707,2.762v1.008a4.988,4.988,0,0,0,.66,2.813,2.191,2.191,0,0,0,1.934.969,2.555,2.555,0,0,0,1.75-.523A2.729,2.729,0,0,0-22.1-3.7Zm1.227-.6a4.984,4.984,0,0,1,.492-2.238,3.6,3.6,0,0,1,1.383-1.531,3.9,3.9,0,0,1,2.047-.535,3.692,3.692,0,0,1,2.777,1.1,4.333,4.333,0,0,1,1.152,2.922l.008.445a5.029,5.029,0,0,1-.48,2.234A3.551,3.551,0,0,1-12.9-.383a3.925,3.925,0,0,1-2.066.539,3.667,3.667,0,0,1-2.863-1.191A4.563,4.563,0,0,1-18.9-4.211Zm1.9.164A3.406,3.406,0,0,0-16.465-2.1a1.752,1.752,0,0,0,1.5.738,1.733,1.733,0,0,0,1.5-.75,3.762,3.762,0,0,0,.535-2.2,3.362,3.362,0,0,0-.551-2.031,1.759,1.759,0,0,0-1.5-.75,1.743,1.743,0,0,0-1.477.738A3.691,3.691,0,0,0-17-4.141ZM-4.7-2.3a.861.861,0,0,0-.418-.773A4.445,4.445,0,0,0-6.5-3.539a7.129,7.129,0,0,1-1.617-.516A2.158,2.158,0,0,1-9.543-6.047a2.25,2.25,0,0,1,.922-1.828,3.644,3.644,0,0,1,2.344-.734,3.792,3.792,0,0,1,2.449.75,2.38,2.38,0,0,1,.934,1.945h-1.9a1.17,1.17,0,0,0-.406-.91,1.557,1.557,0,0,0-1.078-.363A1.682,1.682,0,0,0-7.3-6.9a.911.911,0,0,0-.395.773.769.769,0,0,0,.367.68,5.049,5.049,0,0,0,1.484.488,7.027,7.027,0,0,1,1.754.586,2.484,2.484,0,0,1,.945.816A2.082,2.082,0,0,1-2.832-2.4,2.2,2.2,0,0,1-3.777-.551,4.031,4.031,0,0,1-6.254.156,4.371,4.371,0,0,1-8.105-.219,3.047,3.047,0,0,1-9.371-1.25a2.441,2.441,0,0,1-.453-1.414H-7.98a1.338,1.338,0,0,0,.508,1.035,1.973,1.973,0,0,0,1.242.363A1.92,1.92,0,0,0-5.09-1.551.883.883,0,0,0-4.7-2.3Zm5.9-8.211v2.055H2.691v1.406H1.2v4.719a1.039,1.039,0,0,0,.191.7.888.888,0,0,0,.684.215,2.924,2.924,0,0,0,.664-.078V-.023a4.676,4.676,0,0,1-1.25.18Q-.7.156-.7-2.258V-7.047H-2.09V-8.453H-.7v-2.055ZM9.191,0a2.93,2.93,0,0,1-.219-.789A2.955,2.955,0,0,1,6.754.156,2.982,2.982,0,0,1,4.676-.57a2.325,2.325,0,0,1-.8-1.8,2.4,2.4,0,0,1,1-2.074,4.865,4.865,0,0,1,2.871-.723H8.91v-.555A1.481,1.481,0,0,0,8.543-6.77a1.456,1.456,0,0,0-1.117-.395,1.672,1.672,0,0,0-1.062.324,1,1,0,0,0-.414.824h-1.9a2.107,2.107,0,0,1,.461-1.3,3.071,3.071,0,0,1,1.254-.949,4.4,4.4,0,0,1,1.77-.344A3.547,3.547,0,0,1,9.9-7.863a2.661,2.661,0,0,1,.906,2.1v3.813a4.321,4.321,0,0,0,.32,1.82V0ZM7.105-1.367a2.159,2.159,0,0,0,1.059-.273,1.827,1.827,0,0,0,.746-.734V-3.969H7.887A2.8,2.8,0,0,0,6.3-3.6,1.189,1.189,0,0,0,5.77-2.562a1.109,1.109,0,0,0,.363.871A1.407,1.407,0,0,0,7.105-1.367Zm5.336-2.922a5.026,5.026,0,0,1,.906-3.137,2.9,2.9,0,0,1,2.43-1.184,2.759,2.759,0,0,1,2.172.938V-12h1.9V0H18.129l-.094-.875A2.8,2.8,0,0,1,15.762.156a2.887,2.887,0,0,1-2.4-1.2A5.21,5.21,0,0,1,12.441-4.289Zm1.9.164a3.519,3.519,0,0,0,.5,2.012,1.61,1.61,0,0,0,1.41.723,1.793,1.793,0,0,0,1.7-1.039V-6.039a1.766,1.766,0,0,0-1.687-1.016,1.622,1.622,0,0,0-1.422.73A3.919,3.919,0,0,0,14.34-4.125Zm7.133-.18a4.984,4.984,0,0,1,.492-2.238,3.6,3.6,0,0,1,1.383-1.531,3.9,3.9,0,0,1,2.047-.535,3.692,3.692,0,0,1,2.777,1.1,4.333,4.333,0,0,1,1.152,2.922l.008.445a5.029,5.029,0,0,1-.48,2.234A3.551,3.551,0,0,1,27.477-.383,3.925,3.925,0,0,1,25.41.156a3.667,3.667,0,0,1-2.863-1.191,4.563,4.563,0,0,1-1.074-3.176Zm1.9.164A3.406,3.406,0,0,0,23.91-2.1a1.752,1.752,0,0,0,1.5.738,1.733,1.733,0,0,0,1.5-.75,3.762,3.762,0,0,0,.535-2.2,3.362,3.362,0,0,0-.551-2.031,1.759,1.759,0,0,0-1.5-.75,1.743,1.743,0,0,0-1.477.738A3.691,3.691,0,0,0,23.371-4.141Z" transform="translate(-4563.307 -7830.83) rotate(-90)" fill="#12263f"/>
    <path id="Trazado_896815" data-name="Trazado 896815" d="M-43.789-1.578h5.164V0h-7.141V-11.375h1.977ZM-35.25,0h-1.9V-8.453h1.9Zm-.359-11.945h2.164l-2.164,2.367h-1.523Zm4.281,3.492.055.977a3.039,3.039,0,0,1,2.461-1.133q2.641,0,2.688,3.023V0h-1.9V-5.477a1.741,1.741,0,0,0-.348-1.191,1.462,1.462,0,0,0-1.137-.387,1.829,1.829,0,0,0-1.711,1.039V0h-1.9V-8.453ZM-20.469.156A3.928,3.928,0,0,1-23.395-.98a4.124,4.124,0,0,1-1.121-3.027v-.234A5.072,5.072,0,0,1-24.027-6.5a3.716,3.716,0,0,1,1.371-1.551,3.625,3.625,0,0,1,1.969-.555,3.318,3.318,0,0,1,2.668,1.1,4.658,4.658,0,0,1,.941,3.117v.766H-22.6a2.539,2.539,0,0,0,.7,1.656,2.1,2.1,0,0,0,1.543.609,2.571,2.571,0,0,0,2.125-1.055l1.023.977A3.418,3.418,0,0,1-18.566-.262,4.244,4.244,0,0,1-20.469.156ZM-20.7-7.086a1.6,1.6,0,0,0-1.262.547,2.835,2.835,0,0,0-.613,1.523h3.617v-.141A2.307,2.307,0,0,0-19.461-6.6,1.586,1.586,0,0,0-20.7-7.086ZM-10.555,0a2.93,2.93,0,0,1-.219-.789,2.955,2.955,0,0,1-2.219.945A2.982,2.982,0,0,1-15.07-.57a2.325,2.325,0,0,1-.8-1.8,2.4,2.4,0,0,1,1-2.074A4.865,4.865,0,0,1-12-5.164h1.164v-.555A1.481,1.481,0,0,0-11.2-6.77a1.456,1.456,0,0,0-1.117-.395,1.672,1.672,0,0,0-1.062.324,1,1,0,0,0-.414.824h-1.9a2.107,2.107,0,0,1,.461-1.3,3.071,3.071,0,0,1,1.254-.949,4.4,4.4,0,0,1,1.77-.344,3.547,3.547,0,0,1,2.367.746,2.661,2.661,0,0,1,.906,2.1v3.813a4.321,4.321,0,0,0,.32,1.82V0Zm-2.086-1.367a2.159,2.159,0,0,0,1.059-.273,1.827,1.827,0,0,0,.746-.734V-3.969h-1.023a2.8,2.8,0,0,0-1.586.367,1.189,1.189,0,0,0-.531,1.039,1.109,1.109,0,0,0,.363.871A1.407,1.407,0,0,0-12.641-1.367Zm9.32-2.922a5.026,5.026,0,0,1,.906-3.137A2.9,2.9,0,0,1,.016-8.609a2.759,2.759,0,0,1,2.172.938V-12h1.9V0H2.367L2.273-.875A2.8,2.8,0,0,1,0,.156a2.887,2.887,0,0,1-2.4-1.2A5.21,5.21,0,0,1-3.32-4.289Zm1.9.164a3.519,3.519,0,0,0,.5,2.012,1.61,1.61,0,0,0,1.41.723,1.793,1.793,0,0,0,1.7-1.039V-6.039A1.766,1.766,0,0,0,.5-7.055a1.622,1.622,0,0,0-1.422.73A3.918,3.918,0,0,0-1.422-4.125ZM9.789.156A3.928,3.928,0,0,1,6.863-.98,4.124,4.124,0,0,1,5.742-4.008v-.234A5.072,5.072,0,0,1,6.23-6.5,3.716,3.716,0,0,1,7.6-8.055,3.625,3.625,0,0,1,9.57-8.609a3.318,3.318,0,0,1,2.668,1.1,4.658,4.658,0,0,1,.941,3.117v.766H7.656a2.539,2.539,0,0,0,.7,1.656A2.1,2.1,0,0,0,9.9-1.359a2.571,2.571,0,0,0,2.125-1.055l1.023.977A3.418,3.418,0,0,1,11.691-.262,4.244,4.244,0,0,1,9.789.156ZM9.563-7.086A1.6,1.6,0,0,0,8.3-6.539a2.835,2.835,0,0,0-.613,1.523H11.3v-.141A2.307,2.307,0,0,0,10.8-6.6,1.586,1.586,0,0,0,9.563-7.086ZM23.375-2.3a.861.861,0,0,0-.418-.773,4.445,4.445,0,0,0-1.387-.469,7.129,7.129,0,0,1-1.617-.516,2.158,2.158,0,0,1-1.422-1.992,2.25,2.25,0,0,1,.922-1.828A3.644,3.644,0,0,1,21.8-8.609a3.792,3.792,0,0,1,2.449.75,2.38,2.38,0,0,1,.934,1.945h-1.9a1.17,1.17,0,0,0-.406-.91A1.557,1.557,0,0,0,21.8-7.187a1.682,1.682,0,0,0-1.02.289.911.911,0,0,0-.395.773.769.769,0,0,0,.367.68,5.049,5.049,0,0,0,1.484.488,7.027,7.027,0,0,1,1.754.586,2.484,2.484,0,0,1,.945.816A2.082,2.082,0,0,1,25.242-2.4,2.2,2.2,0,0,1,24.3-.551,4.031,4.031,0,0,1,21.82.156a4.371,4.371,0,0,1-1.852-.375A3.047,3.047,0,0,1,18.7-1.25a2.441,2.441,0,0,1-.453-1.414h1.844A1.338,1.338,0,0,0,20.6-1.629a1.973,1.973,0,0,0,1.242.363,1.92,1.92,0,0,0,1.141-.285A.883.883,0,0,0,23.375-2.3ZM28.914,0h-1.9V-8.453h1.9ZM26.9-10.648a1.008,1.008,0,0,1,.277-.727,1.048,1.048,0,0,1,.793-.289,1.061,1.061,0,0,1,.8.289,1,1,0,0,1,.281.727.977.977,0,0,1-.281.715,1.069,1.069,0,0,1-.8.285,1.056,1.056,0,0,1-.793-.285A.984.984,0,0,1,26.9-10.648ZM35.719-2.3A.861.861,0,0,0,35.3-3.07a4.445,4.445,0,0,0-1.387-.469A7.129,7.129,0,0,1,32.3-4.055a2.158,2.158,0,0,1-1.422-1.992A2.25,2.25,0,0,1,31.8-7.875a3.644,3.644,0,0,1,2.344-.734,3.792,3.792,0,0,1,2.449.75,2.38,2.38,0,0,1,.934,1.945h-1.9a1.17,1.17,0,0,0-.406-.91,1.557,1.557,0,0,0-1.078-.363,1.682,1.682,0,0,0-1.02.289.911.911,0,0,0-.395.773.769.769,0,0,0,.367.68,5.049,5.049,0,0,0,1.484.488,7.027,7.027,0,0,1,1.754.586,2.484,2.484,0,0,1,.945.816A2.082,2.082,0,0,1,37.586-2.4a2.2,2.2,0,0,1-.945,1.848,4.031,4.031,0,0,1-2.477.707,4.371,4.371,0,0,1-1.852-.375A3.047,3.047,0,0,1,31.047-1.25a2.441,2.441,0,0,1-.453-1.414h1.844a1.338,1.338,0,0,0,.508,1.035,1.973,1.973,0,0,0,1.242.363,1.92,1.92,0,0,0,1.141-.285A.883.883,0,0,0,35.719-2.3ZM44.289,0a2.93,2.93,0,0,1-.219-.789,2.955,2.955,0,0,1-2.219.945A2.982,2.982,0,0,1,39.773-.57a2.325,2.325,0,0,1-.8-1.8,2.4,2.4,0,0,1,1-2.074,4.865,4.865,0,0,1,2.871-.723h1.164v-.555a1.481,1.481,0,0,0-.367-1.051,1.456,1.456,0,0,0-1.117-.395,1.672,1.672,0,0,0-1.062.324,1,1,0,0,0-.414.824h-1.9a2.107,2.107,0,0,1,.461-1.3,3.071,3.071,0,0,1,1.254-.949,4.4,4.4,0,0,1,1.77-.344A3.547,3.547,0,0,1,45-7.863a2.661,2.661,0,0,1,.906,2.1v3.813a4.321,4.321,0,0,0,.32,1.82V0ZM42.2-1.367a2.16,2.16,0,0,0,1.059-.273,1.827,1.827,0,0,0,.746-.734V-3.969H42.984A2.8,2.8,0,0,0,41.4-3.6a1.189,1.189,0,0,0-.531,1.039,1.109,1.109,0,0,0,.363.871A1.407,1.407,0,0,0,42.2-1.367Z" transform="translate(-4460.307 -7900.664)" fill="#12263f"/>
    <path id="Trazado_892529" data-name="Trazado 892529" d="M-7731.55-6761.367h371.784" transform="translate(2993.744 -1127.297)" fill="none" stroke="#7eadbf" stroke-width="2"/>
    <path id="Trazado_892530" data-name="Trazado 892530" d="M0,0H117.667" transform="translate(-4551.057 -7771.996) rotate(-90)" fill="none" stroke="#7eadbf" stroke-width="2"/>
  </g>
</svg>
