<svg xmlns="http://www.w3.org/2000/svg" width="72" height="72" viewBox="0 0 72 72">
  <g id="Grupo_1115341" data-name="Grupo 1115341" transform="translate(-215.34 -3647)">
    <path id="Trazado_824488" data-name="Trazado 824488" d="M36,0A36,36,0,1,1,0,36,36,36,0,0,1,36,0Z" transform="translate(215.34 3647)" fill="#f2f7f9"/>
    <g id="layer1" transform="translate(226.811 3379.404)">
      <path id="path15777-4" d="M45.951,284.035H.794v34.257a1.554,1.554,0,0,0,1.557,1.557H44.394a1.554,1.554,0,0,0,1.557-1.557Z" transform="translate(0.514 6.682)" fill="#dbe9ee"/>
      <path id="rect2181-6" d="M2.351,280.86a1.554,1.554,0,0,0-1.557,1.557V290.2H45.951v-7.786a1.554,1.554,0,0,0-1.557-1.557Z" transform="translate(0.514 0.514)" fill="#727aa6"/>
      <g id="Grupo_1114548" data-name="Grupo 1114548" transform="translate(4.422 284.489)">
        <path id="path2185-5" d="M4.966,283.476a1.557,1.557,0,1,1-1.557-1.557,1.557,1.557,0,0,1,1.557,1.557Z" transform="translate(-1.852 -281.919)" fill="#a6826d"/>
        <path id="circle2187-5" d="M7.083,283.476a1.557,1.557,0,1,1-1.557-1.557,1.557,1.557,0,0,1,1.557,1.557Z" transform="translate(2.26 -281.919)" fill="#a6826d"/>
        <path id="circle2189-2" d="M9.2,283.476a1.557,1.557,0,1,1-1.557-1.557A1.557,1.557,0,0,1,9.2,283.476Z" transform="translate(6.372 -281.919)" fill="#a6826d"/>
      </g>
      <path id="rect2197-2" d="M9.79,281.919H25.361v3.114H9.79Z" transform="translate(17.99 2.57)" fill="#79cd34"/>
      <path id="rect2118" d="M2.381,285.623H38.2v20.243H2.381Z" transform="translate(3.598 9.766)" fill="#f7e07f"/>
      <path id="path2126" d="M7.408,295.525l6.229-3.893L7.408,287.74Z" transform="translate(13.364 13.878)" fill="#dbe9ee"/>
      <path id="path13073-4" d="M2.863,280.6a2.344,2.344,0,0,0-2.334,2.333V324.97a2.351,2.351,0,0,0,2.334,2.34H44.911a2.349,2.349,0,0,0,2.333-2.34V282.928a2.343,2.343,0,0,0-2.333-2.333Zm0,1.557H44.911a.755.755,0,0,1,.776.776v7.006H2.088v-7.006a.755.755,0,0,1,.776-.776Zm3.114,1.557a2.333,2.333,0,1,0,2.34,2.334,2.344,2.344,0,0,0-2.34-2.334Zm6.23,0a2.333,2.333,0,1,0,2.334,2.334A2.344,2.344,0,0,0,12.208,283.71Zm6.23,0a2.333,2.333,0,1,0,2.334,2.334A2.349,2.349,0,0,0,18.438,283.71Zm9.3,0a.784.784,0,0,0-.739.776V287.6a.778.778,0,0,0,.776.776H43.354a.778.778,0,0,0,.776-.776v-3.116a.779.779,0,0,0-.776-.776ZM5.978,285.269a.779.779,0,1,1-.776.776A.767.767,0,0,1,5.978,285.269Zm6.23,0a.779.779,0,0,1,0,1.557.779.779,0,1,1,0-1.557Zm6.23,0a.779.779,0,0,1,0,1.557.779.779,0,1,1,0-1.557Zm10.121,0H42.571v1.557H28.559ZM2.088,291.493h43.6V324.97a.762.762,0,0,1-.776.783H2.863a.762.762,0,0,1-.776-.783Zm3.893,3.117a.779.779,0,0,0-.782.776v20.249a.779.779,0,0,0,.782.776H41.792a.779.779,0,0,0,.782-.776V295.386a.779.779,0,0,0-.782-.776Zm.776,1.559h34.26v18.684H6.756ZM20.74,300.84a.78.78,0,0,0-.748.776V309.4a.779.779,0,0,0,1.191.66l6.23-3.9a.779.779,0,0,0,0-1.317l-6.23-3.9a.779.779,0,0,0-.443-.116Zm.809,2.179,3.989,2.494L21.549,308Zm-7.8,14.937a.779.779,0,0,0-.765.786v.783H5.94a.779.779,0,1,0,0,1.557h7.047v.776a.779.779,0,1,0,1.557,0v-3.116A.778.778,0,0,0,13.751,317.957Zm3.126,3.126H41.792a.779.779,0,1,0,0-1.557H16.84a.779.779,0,0,0,.037,1.557Z"/>
    </g>
  </g>
</svg>
