<svg xmlns="http://www.w3.org/2000/svg" xmlns:xlink="http://www.w3.org/1999/xlink" width="1030" height="562.516" viewBox="0 0 1030 562.516">
  <defs>
    <clipPath id="clip-path">
      <rect id="Rectángulo_402503" data-name="Rectángulo 402503" width="1030" height="514.157" fill="none"/>
    </clipPath>
    <clipPath id="clip-path-3">
      <rect id="Rectángulo_402490" data-name="Rectángulo 402490" width="21.018" height="12.355" fill="none"/>
    </clipPath>
    <clipPath id="clip-path-4">
      <rect id="Rectángulo_402491" data-name="Rectángulo 402491" width="20.111" height="3.909" fill="none"/>
    </clipPath>
    <clipPath id="clip-path-7">
      <rect id="Rectángulo_402494" data-name="Rectángulo 402494" width="50.004" height="15.912" fill="none"/>
    </clipPath>
    <clipPath id="clip-path-9">
      <rect id="Rectángulo_402496" data-name="Rectángulo 402496" width="21.017" height="12.355" fill="none"/>
    </clipPath>
    <clipPath id="clip-path-13">
      <rect id="Rectángulo_402500" data-name="Rectángulo 402500" width="50.003" height="15.912" fill="none"/>
    </clipPath>
  </defs>
  <g id="Grupo_1115339" data-name="Grupo 1115339" transform="translate(-285 -4022.824)">
    <g id="Grupo_1114589" data-name="Grupo 1114589" transform="translate(285 4063.887)">
      <g id="Grupo_1114588" data-name="Grupo 1114588" clip-path="url(#clip-path)">
        <g id="Grupo_1114587" data-name="Grupo 1114587">
          <g id="Grupo_1114586" data-name="Grupo 1114586" clip-path="url(#clip-path)">
            <path id="Trazado_892988" data-name="Trazado 892988" d="M9.15,370.108c1,.042,4.294.232,9.095.831,2,.259,4.2.577,6.593,1a131.888,131.888,0,0,1,40.324,13.776c4.556.819,30.965-84.888,43.739-131.141,1.206-13.652,2.544-91.607,2.544-91.607-.175-1.309,11.466-33.054,11.629-43.427L87.765,74.909c-3.892,11.587-9.272,29.877-9.8,31.932-10.056,38.407-14.28,58.1-16.423,67.86-.035.232-.119.485-.179.728-2,9.2-4.552,18.4-7.292,27.531-4.519,14.982-9.642,29.886-14.043,44.629-5.977,19.865-12.173,46.391-19.31,76.915-7.846,33.458-10.7,38.946-11.563,45.605" transform="translate(0.499 4.089)" fill="#545672"/>
            <path id="Trazado_892989" data-name="Trazado 892989" d="M9.15,370.108c1,.042,4.294.232,9.095.831,2,.259,4.2.577,6.593,1a131.888,131.888,0,0,1,40.324,13.776c4.556.819,30.965-84.888,43.739-131.141,1.206-13.652,2.544-91.607,2.544-91.607-.175-1.309,11.466-33.054,11.629-43.427L87.765,74.909c-3.892,11.587-9.272,29.877-9.8,31.932-10.056,38.407-14.28,58.1-16.423,67.86-.035.232-.119.485-.179.728-2,9.2-4.552,18.4-7.292,27.531-4.519,14.982-9.642,29.886-14.043,44.629-5.977,19.865-12.173,46.391-19.31,76.915C12.867,357.96,10.013,363.448,9.15,370.108Z" transform="translate(0.499 4.089)" fill="none" stroke="#000" stroke-linecap="round" stroke-linejoin="round" stroke-width="1.505"/>
            <path id="Trazado_892990" data-name="Trazado 892990" d="M.869,399.584c-.015-.034,0-.05.005-.083.752-2.625,7.652-3.125,23.5,1.4,14.764,4.227,25.083,9.468,25.986,12.3.081.038.179.077.26.116l15.192-42.763-.194-.111c-25.146-13.836-52.652-15.472-56-15.616l-.315-.019C4.962,371.32.752,399.578.752,399.578l.117.006" transform="translate(0.041 19.366)" fill="#545672"/>
            <path id="Trazado_892991" data-name="Trazado 892991" d="M.869,399.584c-.015-.034,0-.05.005-.083.752-2.625,7.652-3.125,23.5,1.4,14.764,4.227,25.083,9.468,25.986,12.3.081.038.179.077.26.116l15.192-42.763-.194-.111c-25.146-13.836-52.652-15.472-56-15.616l-.315-.019C4.962,371.32.752,399.578.752,399.578Z" transform="translate(0.041 19.366)" fill="none" stroke="#000" stroke-linecap="round" stroke-linejoin="round" stroke-width="1.505"/>
            <path id="Trazado_892992" data-name="Trazado 892992" d="M.869,397.291c0,.033-.02.049-.005.083-.487,2.656,5.118,6.351,20.8,10.831,15.83,4.522,28,6,28.738,3.376a.909.909,0,0,0-.05-.586c-.9-2.838-11.221-8.079-25.985-12.3-15.848-4.523-22.747-4.023-23.5-1.4" transform="translate(0.046 21.576)" fill="#1b1b37"/>
            <path id="Trazado_892993" data-name="Trazado 892993" d="M.869,397.291c0,.033-.02.049-.005.083-.487,2.656,5.118,6.351,20.8,10.831,15.83,4.522,28,6,28.738,3.376a.909.909,0,0,0-.05-.586c-.9-2.838-11.221-8.079-25.985-12.3C8.521,394.166,1.622,394.666.869,397.291Z" transform="translate(0.046 21.576)" fill="none" stroke="#000" stroke-linecap="round" stroke-linejoin="round" stroke-width="1.505"/>
            <path id="Trazado_892994" data-name="Trazado 892994" d="M62.666,374.559S35.989,358.551,6.986,360.2" transform="translate(0.381 19.653)" fill="none" stroke="#000" stroke-linecap="round" stroke-linejoin="round" stroke-width="0.43" stroke-dasharray="1.075 0.645"/>
            <path id="Trazado_892995" data-name="Trazado 892995" d="M85.282,234.768A37.548,37.548,0,0,0,59.89,220.846" transform="translate(3.269 12.054)" fill="#232638"/>
            <path id="Trazado_892996" data-name="Trazado 892996" d="M53.646,226.833A65.123,65.123,0,0,0,77.98,239.019" transform="translate(2.928 12.381)" fill="#232638"/>
            <path id="Trazado_892997" data-name="Trazado 892997" d="M71.525,118.245q1.813,14.942,3.625,29.885" transform="translate(3.904 6.454)" fill="#232638"/>
            <path id="Trazado_892998" data-name="Trazado 892998" d="M107.7,249.174A621.749,621.749,0,0,1,40.786,356.7" transform="translate(2.226 13.6)" fill="#232638"/>
            <path id="Trazado_892999" data-name="Trazado 892999" d="M45.568,224.88q-10.3,39.52-18,79.655" transform="translate(1.504 12.274)" fill="#232638"/>
            <g id="Grupo_1114552" data-name="Grupo 1114552" transform="translate(28.787 421.712)" style="mix-blend-mode: multiply;isolation: isolate">
              <g id="Grupo_1114551" data-name="Grupo 1114551">
                <g id="Grupo_1114550" data-name="Grupo 1114550" clip-path="url(#clip-path-3)">
                  <path id="Trazado_893000" data-name="Trazado 893000" d="M44.108,412.241S41.475,404.95,27.3,399.886c0,0,25.723,9.317,20.254,12.355" transform="translate(-27.297 -399.886)" fill="#b5b5b5"/>
                </g>
              </g>
            </g>
            <g id="Grupo_1114555" data-name="Grupo 1114555" transform="translate(0.777 416.993)" style="mix-blend-mode: multiply;isolation: isolate">
              <g id="Grupo_1114554" data-name="Grupo 1114554">
                <g id="Grupo_1114553" data-name="Grupo 1114553" clip-path="url(#clip-path-4)">
                  <path id="Trazado_893001" data-name="Trazado 893001" d="M20.847,398.307S1,396.079,2.415,399.319c0,0-6.97-5.844,7.495-3.241" transform="translate(-0.737 -395.411)" fill="#b5b5b5"/>
                </g>
              </g>
            </g>
            <path id="Trazado_893002" data-name="Trazado 893002" d="M186.072,33.45l65.422-.4L239.544,53.7,218.682,89.758" transform="translate(10.156 1.804)" fill="#545672"/>
            <path id="Trazado_893003" data-name="Trazado 893003" d="M186.072,33.45l65.422-.4L239.544,53.7,218.682,89.758" transform="translate(10.156 1.804)" fill="none" stroke="#000" stroke-linecap="round" stroke-linejoin="round" stroke-width="1.505"/>
            <path id="Trazado_893004" data-name="Trazado 893004" d="M220.547,96.218c-2.723,5.165-6.32,11.995-7.425,14.085a8.7,8.7,0,0,0-.572,2.248v393.58c-38.183-.644-67.3-4.448-85.372-7.62-9.163-1.616-19.36-3.05-22.569-3.84-1.628-.4-2.491-.644-2.491-.644l2.832-247.576.135-129.78L87.133,82.91,86.392,81.5l-2.466-4.643A142.377,142.377,0,0,1,94.34,64.28c3.888-4.411,8.968-6.818,20.307-12.092,16.213-7.535,40.761-16.078,40.761-16.078-.279,1.945-.717,4.862-1.239,8.3-1.325.5-1.325.5,0,.012-2.017,13.2-5.421,34.38-7.365,40.639,0,0,11.9-4.715,18.837-9.552,8.265-5.772,14.717-16.9,19.87-19.018a4.011,4.011,0,0,1,1.871-.352,5.624,5.624,0,0,1,4.886,3.512l-.486.814-5.1,8.47s22.993,18.4,33.87,27.283" transform="translate(4.581 1.971)" fill="#545672"/>
            <path id="Trazado_893005" data-name="Trazado 893005" d="M220.547,96.218c-2.723,5.165-6.32,11.995-7.425,14.085a8.7,8.7,0,0,0-.572,2.248v393.58c-38.183-.644-67.3-4.448-85.372-7.62-9.163-1.616-19.36-3.05-22.569-3.84-1.628-.4-2.491-.644-2.491-.644l2.832-247.576.135-129.78L87.133,82.91,86.392,81.5l-2.466-4.643A142.377,142.377,0,0,1,94.34,64.28c3.888-4.411,8.968-6.818,20.307-12.092,16.213-7.535,40.761-16.078,40.761-16.078-.279,1.945-.717,4.862-1.239,8.3-1.325.5-1.325.5,0,.012-2.017,13.2-5.421,34.38-7.365,40.639,0,0,11.9-4.715,18.837-9.552,8.265-5.772,14.717-16.9,19.87-19.018a4.011,4.011,0,0,1,1.871-.352,5.624,5.624,0,0,1,4.886,3.512l-.486.814-5.1,8.47S209.67,87.334,220.547,96.218Z" transform="translate(4.581 1.971)" fill="none" stroke="#000" stroke-linecap="round" stroke-linejoin="round" stroke-width="1.505"/>
            <path id="Trazado_893006" data-name="Trazado 893006" d="M429.259,370.108c-1,.042-4.293.232-9.094.831-2,.259-4.2.577-6.594,1a131.888,131.888,0,0,0-40.324,13.776c-4.556.819-30.965-84.888-43.738-131.141-1.206-13.652-2.545-91.607-2.545-91.607.175-1.309-11.466-33.054-11.629-43.427l35.309-44.631c3.891,11.587,9.271,29.877,9.8,31.932,10.057,38.407,14.28,58.1,16.423,67.86.035.232.119.485.18.728,2,9.2,4.551,18.4,7.291,27.531,4.519,14.982,9.642,29.886,14.043,44.629,5.977,19.865,12.173,46.391,19.31,76.915,7.847,33.458,10.7,38.946,11.563,45.605" transform="translate(17.211 4.089)" fill="#545672"/>
            <path id="Trazado_893007" data-name="Trazado 893007" d="M429.259,370.108c-1,.042-4.293.232-9.094.831-2,.259-4.2.577-6.594,1a131.888,131.888,0,0,0-40.324,13.776c-4.556.819-30.965-84.888-43.738-131.141-1.206-13.652-2.545-91.607-2.545-91.607.175-1.309-11.466-33.054-11.629-43.427l35.309-44.631c3.891,11.587,9.271,29.877,9.8,31.932,10.057,38.407,14.28,58.1,16.423,67.86.035.232.119.485.18.728,2,9.2,4.551,18.4,7.291,27.531,4.519,14.982,9.642,29.886,14.043,44.629,5.977,19.865,12.173,46.391,19.31,76.915C425.543,357.96,428.4,363.448,429.259,370.108Z" transform="translate(17.211 4.089)" fill="none" stroke="#000" stroke-linecap="round" stroke-linejoin="round" stroke-width="1.505"/>
            <path id="Trazado_893008" data-name="Trazado 893008" d="M357.038,76.859,354.57,81.5l-.753,1.41-17.9,33.675-.014.085.135,129.78,2.832,247.576h-.037s-.851.231-2.479.632c-3.233.79-13.441,2.224-22.58,3.816-7.668,1.348-17.318,2.806-28.766,4.094s-24.694,2.395-39.569,3.051c-24.136,2.079-22.92,1.738-39.546,5.469V116.671a12.84,12.84,0,0,1,1.094-5.274c1.5-2.807,47.286-42.463,47.286-42.463l-5.1-8.47-.485-.814a5.624,5.624,0,0,1,4.9-3.512,4.014,4.014,0,0,1,1.858.352c5.154,2.114,11.607,13.247,19.87,19.019,6.939,4.836,18.837,9.552,18.837,9.552-1.945-6.259-5.335-27.441-7.365-40.639,1.325.486,1.325.486.014-.012-.536-3.453-.961-6.356-1.253-8.3,0,0,24.55,8.543,40.761,16.09,11.339,5.262,16.419,7.669,20.307,12.08a143.715,143.715,0,0,1,10.428,12.578" transform="translate(11.238 1.971)" fill="#545672"/>
            <path id="Trazado_893009" data-name="Trazado 893009" d="M357.038,76.859,354.57,81.5l-.753,1.41-17.9,33.675-.014.085.135,129.78,2.832,247.576h-.037s-.851.231-2.479.632c-3.233.79-13.441,2.224-22.58,3.816-7.668,1.348-17.318,2.806-28.766,4.094s-24.694,2.395-39.569,3.051c-24.136,2.079-22.92,1.738-39.546,5.469V116.671a12.84,12.84,0,0,1,1.094-5.274c1.5-2.807,47.286-42.463,47.286-42.463l-5.1-8.47-.485-.814a5.624,5.624,0,0,1,4.9-3.512,4.014,4.014,0,0,1,1.858.352c5.154,2.114,11.607,13.247,19.87,19.019,6.939,4.836,18.837,9.552,18.837,9.552-1.945-6.259-5.335-27.441-7.365-40.639,1.325.486,1.325.486.014-.012-.536-3.453-.961-6.356-1.253-8.3,0,0,24.55,8.543,40.761,16.09,11.339,5.262,16.419,7.669,20.307,12.08A143.715,143.715,0,0,1,357.038,76.859Z" transform="translate(11.238 1.971)" fill="none" stroke="#000" stroke-linecap="round" stroke-linejoin="round" stroke-width="1.505"/>
            <path id="Trazado_893010" data-name="Trazado 893010" d="M435.011,399.584c.015-.034,0-.05-.005-.083-.752-2.625-7.652-3.125-23.5,1.4-14.764,4.227-25.083,9.468-25.986,12.3-.081.038-.179.077-.26.116l-15.192-42.763.194-.111c25.146-13.836,52.652-15.472,56-15.616l.315-.019c4.345,16.509,8.555,44.767,8.555,44.767l-.117.006" transform="translate(20.198 19.366)" fill="#545672"/>
            <path id="Trazado_893011" data-name="Trazado 893011" d="M435.011,399.584c.015-.034,0-.05-.005-.083-.752-2.625-7.652-3.125-23.5,1.4-14.764,4.227-25.083,9.468-25.986,12.3-.081.038-.179.077-.26.116l-15.192-42.763.194-.111c25.146-13.836,52.652-15.472,56-15.616l.315-.019c4.345,16.509,8.555,44.767,8.555,44.767Z" transform="translate(20.198 19.366)" fill="none" stroke="#000" stroke-linecap="round" stroke-linejoin="round" stroke-width="1.505"/>
            <path id="Trazado_893012" data-name="Trazado 893012" d="M434.211,397.291c0,.033.02.049.005.083.487,2.656-5.118,6.351-20.8,10.831-15.83,4.522-28,6-28.738,3.376a.909.909,0,0,1,.05-.586c.9-2.838,11.221-8.079,25.985-12.3,15.848-4.523,22.747-4.023,23.5-1.4" transform="translate(20.994 21.576)" fill="#1b1b37"/>
            <path id="Trazado_893013" data-name="Trazado 893013" d="M434.211,397.291c0,.033.02.049.005.083.487,2.656-5.118,6.351-20.8,10.831-15.83,4.522-28,6-28.738,3.376a.909.909,0,0,1,.05-.586c.9-2.838,11.221-8.079,25.985-12.3C426.559,394.166,433.458,394.666,434.211,397.291Z" transform="translate(20.994 21.576)" fill="none" stroke="#000" stroke-linecap="round" stroke-linejoin="round" stroke-width="1.505"/>
            <path id="Trazado_893014" data-name="Trazado 893014" d="M372.73,374.559s26.677-16.009,55.68-14.358" transform="translate(20.344 19.653)" fill="none" stroke="#000" stroke-linecap="round" stroke-linejoin="round" stroke-width="0.43" stroke-dasharray="1.075 0.645"/>
            <path id="Trazado_893015" data-name="Trazado 893015" d="M348.545,234.768a37.548,37.548,0,0,1,25.392-13.922" transform="translate(19.024 12.054)" fill="#232638"/>
            <path id="Trazado_893016" data-name="Trazado 893016" d="M380.126,226.833a65.123,65.123,0,0,1-24.334,12.186" transform="translate(19.419 12.381)" fill="#232638"/>
            <path id="Trazado_893017" data-name="Trazado 893017" d="M326.744,131.753q-2.8,21.855-5.6,43.711" transform="translate(17.528 7.191)" fill="#232638"/>
            <path id="Trazado_893018" data-name="Trazado 893018" d="M361.176,118.245q-1.813,14.942-3.625,29.885" transform="translate(19.515 6.454)" fill="#232638"/>
            <path id="Trazado_893019" data-name="Trazado 893019" d="M252.1,19.712c0,3.014-.084,5.979-.328,8.459-.024.207-.036.437-.06.643-.048.426-.1.839-.146,1.228a18.6,18.6,0,0,1-1.216,3.755h-64.07a17.567,17.567,0,0,1-1.2-3.755c-.062-.388-.11-.8-.158-1.228-.024-.207-.037-.437-.061-.643-.231-2.479-.328-5.445-.316-8.459Z" transform="translate(10.072 1.076)" fill="#545672"/>
            <path id="Trazado_893020" data-name="Trazado 893020" d="M252.1,19.712c0,3.014-.084,5.979-.328,8.459-.024.207-.036.437-.06.643-.048.426-.1.839-.146,1.228a18.6,18.6,0,0,1-1.216,3.755h-64.07a17.567,17.567,0,0,1-1.2-3.755c-.062-.388-.11-.8-.158-1.228-.024-.207-.037-.437-.061-.643-.231-2.479-.328-5.445-.316-8.459Z" transform="translate(10.072 1.076)" fill="none" stroke="#000" stroke-linecap="round" stroke-linejoin="round" stroke-width="1.505"/>
            <path id="Trazado_893021" data-name="Trazado 893021" d="M151.836,36.111m-2.368.878h0l.017-.006-.017.006" transform="translate(8.158 1.971)" fill="#b2b1b1"/>
            <path id="Trazado_893022" data-name="Trazado 893022" d="M148.57,45.2c.576-4.955.946-8.193.947-8.208l.017-.005,2.351-.872h0c-.288,1.949-.721,4.854-1.249,8.3l-2.067.78" transform="translate(8.109 1.971)" fill="#232638"/>
            <path id="Trazado_893023" data-name="Trazado 893023" d="M144.425,81.057c1.463-11.455,3.284-26.934,4.371-36.29.757-.287,1.449-.547,2.067-.779-.518,3.387-1.126,7.3-1.778,11.355-2.157,12.41-4.66,25.715-4.66,25.715" transform="translate(7.883 2.401)" fill="#232638"/>
            <path id="Trazado_893024" data-name="Trazado 893024" d="M148.844,55.77c.652-4.052,1.26-7.965,1.779-11.355.526-3.451.96-6.357,1.247-8.3-.24,3.112-1.551,11.176-3.026,19.659" transform="translate(8.124 1.971)" fill="#a8a7a7"/>
            <path id="Trazado_893025" data-name="Trazado 893025" d="M150.054,81.78s7.628-3.6,12.164-7.44h0c4.25-3.016,8.019-7.433,11.378-11.273a94.274,94.274,0,0,1,7.218-7.047,7.47,7.47,0,0,1,1.088-.565l.1-.041a4.331,4.331,0,0,1,1.406-.316c1.289.093,3.029.872,5.156,3.335l-6.025,9.116,3.872-8.707a2.959,2.959,0,0,0-2.361-1.682,2.361,2.361,0,0,0-.46.046c-1.871.379-4.542,2.021-8.4,6.694A58.423,58.423,0,0,1,150.054,81.78" transform="translate(8.19 3.007)" fill="#232638"/>
            <path id="Trazado_893026" data-name="Trazado 893026" d="M180.184,56.02,180.2,56a3.2,3.2,0,0,1,2.3-.916c.089,0,.18,0,.273.009a4.363,4.363,0,0,0-1.406.318c-.035.013-.07.026-.1.041a7.471,7.471,0,0,0-1.088.565m-18.6,18.32a111.607,111.607,0,0,0,11.284-11.171c.031-.035.063-.069.094-.1-3.359,3.842-7.127,8.257-11.378,11.275" transform="translate(8.82 3.007)" fill="#a8a7a7"/>
            <path id="Trazado_893027" data-name="Trazado 893027" d="M161.193,32.128a111.87,111.87,0,0,0,9.393-10.5l4.512-3.759c-3.329,5.434-13.9,14.256-13.9,14.256" transform="translate(8.798 0.975)" fill="#a8a7a7"/>
            <path id="Trazado_893028" data-name="Trazado 893028" d="M187.082,20.728h-2.308L184.9,8.321V8.3l.37-4.062.966-1.866L188.709,1.2h3.272c-4.441,0-3.68,5.257-4.557,11.51a52.245,52.245,0,0,0-.342,8.022" transform="translate(10.085 0.065)" fill="#a8a7a7"/>
            <path id="Trazado_893029" data-name="Trazado 893029" d="M194.475,47.774,186.766,34.4q-.313-.693-.575-1.325h2.4c1.746,5.2,5.929,14.557,5.88,14.7" transform="translate(10.162 1.805)" fill="#232638"/>
            <path id="Trazado_893030" data-name="Trazado 893030" d="M188.668,33.364h-2.4l-.057-.137a25.17,25.17,0,0,1-1.347-5.5h2.74c.121,1.226.245,2.255.345,2.983a16.731,16.731,0,0,0,.722,2.651" transform="translate(10.09 1.513)" fill="#232638"/>
            <path id="Trazado_893031" data-name="Trazado 893031" d="M184.908,7.953v0m-.129,20.089c-.06-.581-.072-.924-.072-.924v-.064q.032.5.072.988m2.066,7.727-.016-.03c-.229-.472-.432-.953-.615-1.433.019.045.038.092.058.138q.263.631.573,1.325" transform="translate(10.081 0.433)" fill="#a8a7a7"/>
            <path id="Trazado_893032" data-name="Trazado 893032" d="M187.609,28.167h-2.74c-.038-.287-.067-.545-.09-.768-.027-.324-.051-.653-.073-.988l.071-6.694h2.308c.066,3.076.292,6.122.523,8.45" transform="translate(10.081 1.076)" fill="#232638"/>
            <path id="Trazado_893033" data-name="Trazado 893033" d="M248.54,20.728h-2.307a52.654,52.654,0,0,0-.342-8.022c-.877-6.253-.118-11.51-4.558-11.51H244.6l2.467,1.178.967,1.866.372,4.073Z" transform="translate(13.172 0.065)" fill="#a8a7a7"/>
            <path id="Trazado_893034" data-name="Trazado 893034" d="M238.9,47.774c-.049-.144,4.134-9.5,5.88-14.7h2.408c-.169.434-.355.868-.561,1.3Z" transform="translate(13.039 1.805)" fill="#232638"/>
            <path id="Trazado_893035" data-name="Trazado 893035" d="M246.878,33.364H244.47a16.85,16.85,0,0,0,.722-2.651c.1-.729.223-1.757.345-2.983h2.74a25.1,25.1,0,0,1-1.4,5.635" transform="translate(13.343 1.513)" fill="#232638"/>
            <path id="Trazado_893036" data-name="Trazado 893036" d="M248.222,28.167h-2.74c.231-2.329.457-5.374.523-8.45h2.308l.07,6.759s-.024.655-.161,1.692" transform="translate(13.398 1.076)" fill="#232638"/>
            <path id="Trazado_893037" data-name="Trazado 893037" d="M205.541,107.75v0c3.461-9.935,5.346-16.3,5.346-16.3L213.9,93.2s-8.311,14.549-8.361,14.549" transform="translate(11.218 4.991)" fill="#232638"/>
            <path id="Trazado_893038" data-name="Trazado 893038" d="M217.131,87.715a22.122,22.122,0,0,1-2.2-3.386c-1.9-3.367-3.923-6.889-6-10.462.035.046,6.157,8.176,8.049,8.176s8.459-8.88,8.459-8.88v0c-2.931,5.03-5.771,9.971-8.294,14.542a.021.021,0,0,1-.014.006" transform="translate(11.404 3.993)" fill="#232638"/>
            <path id="Trazado_893039" data-name="Trazado 893039" d="M214.935,84.292c-2.433-4.1-6-10.461-6-10.461,2.079,3.573,4.107,7.1,6,10.461" transform="translate(11.404 4.03)" fill="#a8a7a7"/>
            <path id="Trazado_893040" data-name="Trazado 893040" d="M216.719,87.708c2.524-4.569,5.365-9.511,8.294-14.542-.139.245-8.073,14.14-8.293,14.541h0" transform="translate(11.829 3.993)" fill="#a8a7a7"/>
            <path id="Trazado_893041" data-name="Trazado 893041" d="M206.1,491.455h0l-4.141-.083c3.672-11.752,4.141-186.462,4.141-186.462Z" transform="translate(11.023 16.642)" fill="#232638"/>
            <path id="Trazado_893042" data-name="Trazado 893042" d="M110.882,458.862c-6.608-51.82-6.623-145.145-7.915-167.713l.127-13,.142-7.753c.611,19.672,7.646,188.468,7.646,188.468" transform="translate(5.62 14.758)" fill="#232638"/>
            <path id="Trazado_893043" data-name="Trazado 893043" d="M103.188,267.868c0-.022,0-.045,0-.067Zm-.1,10.42.1-10.42c-.006.715.008,1.611.042,2.667l-.143,7.753" transform="translate(5.627 14.617)" fill="#232638"/>
            <path id="Trazado_893044" data-name="Trazado 893044" d="M283.993,37.071c-1.183-.443-2.006-.747-2.371-.882,0-.026-.005-.053-.006-.078l2.368.878.009.081" transform="translate(15.371 1.971)" fill="#b2b1b1"/>
            <path id="Trazado_893045" data-name="Trazado 893045" d="M284.94,45.275c-.8-.3-1.539-.582-2.191-.828-.577-3.649-.993-6.611-1.127-8.262.366.135,1.187.439,2.371.882.061.535.419,3.655.948,8.208" transform="translate(15.371 1.975)" fill="#232638"/>
            <path id="Trazado_893046" data-name="Trazado 893046" d="M289.243,81.055s-4.392-23.347-6.553-37.035c.653.246,1.388.523,2.191.828,1.088,9.364,2.9,24.785,4.362,36.207" transform="translate(15.429 2.403)" fill="#232638"/>
            <path id="Trazado_893047" data-name="Trazado 893047" d="M252.831,55.407a4.453,4.453,0,0,0-1.268-.3,4.453,4.453,0,0,1,1.268.3m.017.006-.015-.005.015.005" transform="translate(13.73 3.007)" fill="#b2b1b1"/>
            <path id="Trazado_893048" data-name="Trazado 893048" d="M255,56.689a9.243,9.243,0,0,0-2.054-1.234c-.034-.015-.069-.028-.1-.041l-.015-.005,0,0a4.432,4.432,0,0,0-1.267-.3,3.5,3.5,0,0,1,.359-.018,3.2,3.2,0,0,1,2.3.916s.288.249.777.687m18.972,18.56q-.6-.389-1.159-.778c-5.552-3.877-10.291-10.178-14.364-14.535,1,.986,2.073,2.09,3.106,3.234a111.63,111.63,0,0,0,11.285,11.172q.539.457,1.133.907" transform="translate(13.73 3.007)" fill="#a8a7a7"/>
            <path id="Trazado_893049" data-name="Trazado 893049" d="M285.268,81.78A58.393,58.393,0,0,1,260.128,63.9c-3.858-4.674-6.529-6.316-8.4-6.694a2.379,2.379,0,0,0-.461-.046,2.959,2.959,0,0,0-2.361,1.682l3.871,8.707-6.024-9.116c2.081-2.41,3.792-3.207,5.071-3.328a4.446,4.446,0,0,1,1.267.3h0l.015.006.1.04a9.226,9.226,0,0,1,2.054,1.235c.768.69,2.031,1.848,3.45,3.247,4.073,4.356,8.811,10.657,14.363,14.533.372.26.761.521,1.159.778a73.1,73.1,0,0,0,11.031,6.533" transform="translate(13.468 3.007)" fill="#232638"/>
            <path id="Trazado_893050" data-name="Trazado 893050" d="M287.23,212.777s14.373-80.82,20.682-149.955c0,0-5.258,90.713-20.682,149.955" transform="translate(15.677 3.429)" fill="#232638"/>
            <path id="Trazado_893051" data-name="Trazado 893051" d="M322.656,458.906s7.246-171.052,7.669-189.31l.077,4.14.169,17.456c-1.292,22.568-1.307,115.893-7.915,167.713" transform="translate(17.611 14.715)" fill="#232638"/>
            <path id="Trazado_893052" data-name="Trazado 893052" d="M329.945,267.866v0Zm.059,5.968-.076-4.14c.016-.7.022-1.31.017-1.828l.059,5.968" transform="translate(18.008 14.617)" fill="#7e7e7e"/>
            <path id="Trazado_893053" data-name="Trazado 893053" d="M169.748,473.467c13.334-58.161,15.113-283.013,15.113-283.013.885,125.572-15.113,283.013-15.113,283.013" transform="translate(9.265 10.395)" fill="#232638"/>
            <path id="Trazado_893054" data-name="Trazado 893054" d="M131.657,190.773c-6.834-44.994-15.487-100.895-14.411-124.925,0,0,5.811,61.539,14.411,124.925m10.571,65.145c-4.005-20.2-7.537-42.786-10.571-65.145,5.476,36.054,10.565,65.1,10.571,65.145m0,0h0" transform="translate(6.394 3.594)" fill="#232638"/>
            <path id="Trazado_893055" data-name="Trazado 893055" d="M185.1,5.369c-.149,2.141-.56,8.849-.566,15.384h67.559c-.005-6.535-.418-13.243-.566-15.384A5.574,5.574,0,0,0,248.255.754H188.372A5.576,5.576,0,0,0,185.1,5.369" transform="translate(10.072 0.041)" fill="#545672"/>
            <path id="Trazado_893056" data-name="Trazado 893056" d="M185.1,5.369c-.149,2.141-.56,8.849-.566,15.384h67.559c-.005-6.535-.418-13.243-.566-15.384A5.574,5.574,0,0,0,248.255.754H188.372A5.576,5.576,0,0,0,185.1,5.369Z" transform="translate(10.072 0.041)" fill="none" stroke="#000" stroke-linecap="round" stroke-linejoin="round" stroke-width="1.505"/>
            <path id="Trazado_893057" data-name="Trazado 893057" d="M164.3,25.9c2.294-1.539,4.294-2.969,5.973-4.351A29.2,29.2,0,0,0,164.3,25.9Z" transform="translate(8.967 1.176)" fill="none" stroke="#000" stroke-linecap="round" stroke-linejoin="round" stroke-width="0.215"/>
            <path id="Trazado_893058" data-name="Trazado 893058" d="M181.359,68.631s22.993,18.4,33.864,27.288c1.831-3.478,3.264-6.2,3.264-6.2-4.012-7.277-8.844-15.517-13.568-23.574-2.528-4.309-5.019-8.56-7.341-12.587-2.482-4.3-4.774-8.358-6.686-11.923l-1.69,7.6-2.249,10.112-.487.809Z" transform="translate(9.899 2.273)" fill="#545672"/>
            <path id="Trazado_893059" data-name="Trazado 893059" d="M181.359,68.631s22.993,18.4,33.864,27.288c1.831-3.478,3.264-6.2,3.264-6.2-4.012-7.277-8.844-15.517-13.568-23.574-2.528-4.309-5.019-8.56-7.341-12.587-2.482-4.3-4.774-8.358-6.686-11.923l-1.69,7.6-2.249,10.112-.487.809Z" transform="translate(9.899 2.273)" fill="none" stroke="#000" stroke-linecap="round" stroke-linejoin="round" stroke-width="1.505"/>
            <path id="Trazado_893060" data-name="Trazado 893060" d="M230.717,66.149c-4.725,8.057-9.557,16.3-13.569,23.574l-3.264,6.2c-2.719,5.161-6.316,11.993-7.418,14.083a8.578,8.578,0,0,0-.578,2.252v4.118a12.814,12.814,0,0,1,1.094-5.272c1.5-2.807,47.295-42.469,47.295-42.469l-5.105-8.469-.487-.809L246.434,49.24l-1.69-7.6v0c-1.912,3.566-4.2,7.619-6.686,11.923-2.322,4.027-4.813,8.278-7.341,12.587" transform="translate(11.237 2.273)" fill="#545672"/>
            <path id="Trazado_893061" data-name="Trazado 893061" d="M230.717,66.149c-4.725,8.057-9.557,16.3-13.569,23.574l-3.264,6.2c-2.719,5.161-6.316,11.993-7.418,14.083a8.578,8.578,0,0,0-.578,2.252v4.118a12.814,12.814,0,0,1,1.094-5.272c1.5-2.807,47.295-42.469,47.295-42.469l-5.105-8.469-.487-.809L246.434,49.24l-1.69-7.6v0c-1.912,3.566-4.2,7.619-6.686,11.923C235.736,57.589,233.245,61.84,230.717,66.149Z" transform="translate(11.237 2.273)" fill="none" stroke="#000" stroke-linecap="round" stroke-linejoin="round" stroke-width="1.505"/>
            <path id="Trazado_893062" data-name="Trazado 893062" d="M143.548,86.988s11.905-4.71,18.841-9.553c8.262-5.765,14.717-16.9,19.867-19.014a4.124,4.124,0,0,1,1.867-.352,5.617,5.617,0,0,1,4.892,3.516l2.248-10.111,1.69-7.6c-1.911-3.562-3.441-6.638-4.436-9.034a17.6,17.6,0,0,1-1.212-3.762c-.057-.386-.105-.8-.153-1.228-.023-.2-.04-.431-.06-.644-.238-2.475-.325-5.437-.323-8.45.005-6.535.419-13.242.566-15.383A5.579,5.579,0,0,1,190.61.753h-3.418S184.6.692,184.122,1.79s-5.044,11.489-8.42,16.446a22.31,22.31,0,0,1-4.3,4.443c-1.679,1.381-3.68,2.812-5.974,4.352-3.626,2.43-7.965,5.134-12.881,8.351,0,0-.142.982-.389,2.659-.288,1.95-.721,4.854-1.249,8.307-2.017,13.2-5.416,34.391-7.362,40.64" transform="translate(7.835 0.041)" fill="#545672"/>
            <path id="Trazado_893063" data-name="Trazado 893063" d="M143.548,86.988s11.905-4.71,18.841-9.553c8.262-5.765,14.717-16.9,19.867-19.014a4.124,4.124,0,0,1,1.867-.352,5.617,5.617,0,0,1,4.892,3.516l2.248-10.111,1.69-7.6c-1.911-3.562-3.441-6.638-4.436-9.034a17.6,17.6,0,0,1-1.212-3.762c-.057-.386-.105-.8-.153-1.228-.023-.2-.04-.431-.06-.644-.238-2.475-.325-5.437-.323-8.45.005-6.535.419-13.242.566-15.383A5.579,5.579,0,0,1,190.61.753h-3.418S184.6.692,184.122,1.79s-5.044,11.489-8.42,16.446a22.31,22.31,0,0,1-4.3,4.443c-1.679,1.381-3.68,2.812-5.974,4.352-3.626,2.43-7.965,5.134-12.881,8.351,0,0-.142.982-.389,2.659-.288,1.95-.721,4.854-1.249,8.307C148.893,59.551,145.494,80.739,143.548,86.988Z" transform="translate(7.835 0.041)" fill="none" stroke="#000" stroke-linecap="round" stroke-linejoin="round" stroke-width="1.505"/>
            <path id="Trazado_893064" data-name="Trazado 893064" d="M215.444,167.131s12.055-2.138,12.1-.323S215.444,167.131,215.444,167.131Z" transform="translate(11.759 9.065)" fill="none" stroke="#000" stroke-linecap="round" stroke-linejoin="round" stroke-width="0.645"/>
            <path id="Trazado_893065" data-name="Trazado 893065" d="M212.234,167.415A4.894,4.894,0,1,0,217,162.392a4.894,4.894,0,0,0-4.762,5.023" transform="translate(11.584 8.863)" fill="#cbcbca"/>
            <path id="Trazado_893066" data-name="Trazado 893066" d="M212.234,167.415A4.894,4.894,0,1,0,217,162.392,4.894,4.894,0,0,0,212.234,167.415Z" transform="translate(11.584 8.863)" fill="none" stroke="#000" stroke-linecap="round" stroke-linejoin="round" stroke-width="0.161"/>
            <path id="Trazado_893067" data-name="Trazado 893067" d="M213.6,167.3a3.454,3.454,0,1,0,3.361-3.545A3.455,3.455,0,0,0,213.6,167.3Z" transform="translate(11.658 8.938)" fill="none" stroke="#000" stroke-linecap="round" stroke-linejoin="round" stroke-width="0.054"/>
            <path id="Trazado_893068" data-name="Trazado 893068" d="M216.373,167.071a.592.592,0,1,1-.6-.582.591.591,0,0,1,.6.582" transform="translate(11.745 9.087)" fill="gray"/>
            <path id="Trazado_893069" data-name="Trazado 893069" d="M216.373,167.071a.592.592,0,1,1-.6-.582A.591.591,0,0,1,216.373,167.071Z" transform="translate(11.745 9.087)" fill="none" stroke="#000" stroke-linecap="round" stroke-linejoin="round" stroke-width="0.054"/>
            <path id="Trazado_893070" data-name="Trazado 893070" d="M218.618,167.035a.592.592,0,1,1-.6-.582.591.591,0,0,1,.6.582" transform="translate(11.868 9.085)" fill="gray"/>
            <path id="Trazado_893071" data-name="Trazado 893071" d="M218.618,167.035a.592.592,0,1,1-.6-.582A.591.591,0,0,1,218.618,167.035Z" transform="translate(11.868 9.085)" fill="none" stroke="#000" stroke-linecap="round" stroke-linejoin="round" stroke-width="0.054"/>
            <path id="Trazado_893072" data-name="Trazado 893072" d="M215.444,229.432s12.055-2.138,12.1-.323S215.444,229.432,215.444,229.432Z" transform="translate(11.759 12.465)" fill="none" stroke="#000" stroke-linecap="round" stroke-linejoin="round" stroke-width="0.645"/>
            <path id="Trazado_893073" data-name="Trazado 893073" d="M212.234,229.717A4.894,4.894,0,1,0,217,224.694a4.895,4.895,0,0,0-4.762,5.023" transform="translate(11.584 12.264)" fill="#cbcbca"/>
            <path id="Trazado_893074" data-name="Trazado 893074" d="M212.234,229.717A4.894,4.894,0,1,0,217,224.694,4.895,4.895,0,0,0,212.234,229.717Z" transform="translate(11.584 12.264)" fill="none" stroke="#000" stroke-linecap="round" stroke-linejoin="round" stroke-width="0.161"/>
            <path id="Trazado_893075" data-name="Trazado 893075" d="M213.6,229.6a3.454,3.454,0,1,0,3.361-3.546A3.455,3.455,0,0,0,213.6,229.6Z" transform="translate(11.658 12.338)" fill="none" stroke="#000" stroke-linecap="round" stroke-linejoin="round" stroke-width="0.054"/>
            <path id="Trazado_893076" data-name="Trazado 893076" d="M216.373,229.372a.592.592,0,1,1-.6-.582.591.591,0,0,1,.6.582" transform="translate(11.745 12.487)" fill="gray"/>
            <path id="Trazado_893077" data-name="Trazado 893077" d="M216.373,229.372a.592.592,0,1,1-.6-.582A.591.591,0,0,1,216.373,229.372Z" transform="translate(11.745 12.487)" fill="none" stroke="#000" stroke-linecap="round" stroke-linejoin="round" stroke-width="0.054"/>
            <path id="Trazado_893078" data-name="Trazado 893078" d="M218.618,229.336a.592.592,0,1,1-.6-.582.591.591,0,0,1,.6.582" transform="translate(11.868 12.485)" fill="gray"/>
            <path id="Trazado_893079" data-name="Trazado 893079" d="M218.618,229.336a.592.592,0,1,1-.6-.582A.591.591,0,0,1,218.618,229.336Z" transform="translate(11.868 12.485)" fill="none" stroke="#000" stroke-linecap="round" stroke-linejoin="round" stroke-width="0.054"/>
            <path id="Trazado_893080" data-name="Trazado 893080" d="M215.444,291.733s12.055-2.138,12.1-.323S215.444,291.733,215.444,291.733Z" transform="translate(11.759 15.865)" fill="none" stroke="#000" stroke-linecap="round" stroke-linejoin="round" stroke-width="0.645"/>
            <path id="Trazado_893081" data-name="Trazado 893081" d="M212.234,292.019A4.894,4.894,0,1,0,217,287a4.895,4.895,0,0,0-4.762,5.023" transform="translate(11.584 15.664)" fill="#cbcbca"/>
            <path id="Trazado_893082" data-name="Trazado 893082" d="M212.234,292.019A4.894,4.894,0,1,0,217,287,4.895,4.895,0,0,0,212.234,292.019Z" transform="translate(11.584 15.664)" fill="none" stroke="#000" stroke-linecap="round" stroke-linejoin="round" stroke-width="0.161"/>
            <path id="Trazado_893083" data-name="Trazado 893083" d="M213.6,291.906a3.454,3.454,0,1,0,3.361-3.546A3.455,3.455,0,0,0,213.6,291.906Z" transform="translate(11.658 15.739)" fill="none" stroke="#000" stroke-linecap="round" stroke-linejoin="round" stroke-width="0.054"/>
            <path id="Trazado_893084" data-name="Trazado 893084" d="M216.373,291.674a.592.592,0,1,1-.6-.582.591.591,0,0,1,.6.582" transform="translate(11.745 15.888)" fill="gray"/>
            <path id="Trazado_893085" data-name="Trazado 893085" d="M216.373,291.674a.592.592,0,1,1-.6-.582A.591.591,0,0,1,216.373,291.674Z" transform="translate(11.745 15.888)" fill="none" stroke="#000" stroke-linecap="round" stroke-linejoin="round" stroke-width="0.054"/>
            <path id="Trazado_893086" data-name="Trazado 893086" d="M218.618,291.638a.592.592,0,1,1-.6-.582.592.592,0,0,1,.6.582" transform="translate(11.868 15.886)" fill="gray"/>
            <path id="Trazado_893087" data-name="Trazado 893087" d="M218.618,291.638a.592.592,0,1,1-.6-.582A.592.592,0,0,1,218.618,291.638Z" transform="translate(11.868 15.886)" fill="none" stroke="#000" stroke-linecap="round" stroke-linejoin="round" stroke-width="0.054"/>
            <path id="Trazado_893088" data-name="Trazado 893088" d="M154.7,32.15a357.283,357.283,0,0,1-7.867,49.1s11.02-5.51,16.136-9.692c3.692-3.017,11.249-11.365,13.824-13.726,3.7-3.4,6.838-6.395,12.5-1.573" transform="translate(8.014 1.755)" fill="none" stroke="#000" stroke-linecap="round" stroke-linejoin="round" stroke-width="0.43" stroke-dasharray="1.075 0.645"/>
            <path id="Trazado_893089" data-name="Trazado 893089" d="M102.109,443.328l4.575.186-1.171,28.913" transform="translate(5.573 24.197)" fill="none" stroke="#000" stroke-linecap="round" stroke-linejoin="round" stroke-width="0.107" stroke-dasharray="0.215 0.215"/>
            <line id="Línea_603" data-name="Línea 603" x2="64.166" transform="translate(196.399 33.121)" fill="none" stroke="#000" stroke-linecap="round" stroke-linejoin="round" stroke-width="0.107" stroke-dasharray="0.215 0.215"/>
            <path id="Trazado_893090" data-name="Trazado 893090" d="M187.763,56.408l2.041,1.975s1.84-8.761,2.587-13.784" transform="translate(10.248 2.434)" fill="none" stroke="#000" stroke-linecap="round" stroke-linejoin="round" stroke-width="0.107" stroke-dasharray="0.215 0.215"/>
            <line id="Línea_604" data-name="Línea 604" x2="19.305" y2="35.48" transform="translate(90.358 76.305)" fill="none" stroke="#000" stroke-linecap="round" stroke-linejoin="round" stroke-width="0.43" stroke-dasharray="1.075 0.645"/>
            <path id="Trazado_893091" data-name="Trazado 893091" d="M331.165,443.328l-4.575.186,1.171,28.913" transform="translate(17.825 24.197)" fill="none" stroke="#000" stroke-linecap="round" stroke-linejoin="round" stroke-width="0.107" stroke-dasharray="0.215 0.215"/>
            <path id="Trazado_893092" data-name="Trazado 893092" d="M245.512,56.408l-2.041,1.975s-1.84-8.761-2.587-13.784" transform="translate(13.148 2.434)" fill="none" stroke="#000" stroke-linecap="round" stroke-linejoin="round" stroke-width="0.107" stroke-dasharray="0.215 0.215"/>
            <path id="Trazado_893093" data-name="Trazado 893093" d="M338.736,462.156c-.155-.084-34.2,10.265-110.388,11.694-8,.15-22.459,2.828-22.459,2.828" transform="translate(11.237 25.225)" fill="none" stroke="#000" stroke-linecap="round" stroke-linejoin="round" stroke-width="0.43" stroke-dasharray="1.075 0.645"/>
            <line id="Línea_605" data-name="Línea 605" x1="19.305" y2="35.48" transform="translate(347.008 76.305)" fill="none" stroke="#000" stroke-linecap="round" stroke-linejoin="round" stroke-width="0.43" stroke-dasharray="1.075 0.645"/>
            <path id="Trazado_893094" data-name="Trazado 893094" d="M245.515,487.549c-12.065-87.606-16.141-254.43-16.141-254.43,3.731,49.71,16.133,254.362,16.141,254.43m0,0h0" transform="translate(12.519 12.724)" fill="#232638"/>
            <path id="Trazado_893095" data-name="Trazado 893095" d="M329.606,120.777c-.323-10.8-.646-32.948-.969-43.749" transform="translate(17.937 4.204)" fill="#232638"/>
            <path id="Trazado_893096" data-name="Trazado 893096" d="M215.444,354.034s12.055-2.137,12.1-.323S215.444,354.034,215.444,354.034Z" transform="translate(11.759 19.266)" fill="none" stroke="#000" stroke-linecap="round" stroke-linejoin="round" stroke-width="0.645"/>
            <path id="Trazado_893097" data-name="Trazado 893097" d="M212.234,354.32A4.894,4.894,0,1,0,217,349.3a4.895,4.895,0,0,0-4.762,5.023" transform="translate(11.584 19.065)" fill="#cbcbca"/>
            <path id="Trazado_893098" data-name="Trazado 893098" d="M212.234,354.32A4.894,4.894,0,1,0,217,349.3,4.895,4.895,0,0,0,212.234,354.32Z" transform="translate(11.584 19.065)" fill="none" stroke="#000" stroke-linecap="round" stroke-linejoin="round" stroke-width="0.161"/>
            <path id="Trazado_893099" data-name="Trazado 893099" d="M213.6,354.208a3.454,3.454,0,1,0,3.361-3.546A3.455,3.455,0,0,0,213.6,354.208Z" transform="translate(11.658 19.139)" fill="none" stroke="#000" stroke-linecap="round" stroke-linejoin="round" stroke-width="0.054"/>
            <path id="Trazado_893100" data-name="Trazado 893100" d="M216.373,353.975a.592.592,0,1,1-.6-.582.593.593,0,0,1,.6.582" transform="translate(11.745 19.288)" fill="gray"/>
            <path id="Trazado_893101" data-name="Trazado 893101" d="M216.373,353.975a.592.592,0,1,1-.6-.582A.593.593,0,0,1,216.373,353.975Z" transform="translate(11.745 19.288)" fill="none" stroke="#000" stroke-linecap="round" stroke-linejoin="round" stroke-width="0.054"/>
            <path id="Trazado_893102" data-name="Trazado 893102" d="M218.618,353.94a.592.592,0,1,1-.6-.582.592.592,0,0,1,.6.582" transform="translate(11.868 19.286)" fill="gray"/>
            <path id="Trazado_893103" data-name="Trazado 893103" d="M218.618,353.94a.592.592,0,1,1-.6-.582A.592.592,0,0,1,218.618,353.94Z" transform="translate(11.868 19.286)" fill="none" stroke="#000" stroke-linecap="round" stroke-linejoin="round" stroke-width="0.054"/>
            <path id="Trazado_893104" data-name="Trazado 893104" d="M104,100.237c.045-6.516.165-11.672.268-15.2.119-3.525.183-5.426.183-5.426s-.1,1.892-.216,4.116-.2,4.785-.241,6.116c-.143,4.265-.208,9.158-.215,10.545-.049,7.438.03,14.878.286,22.314.081,2.374.171,4.153.252,5.338.044.59.078,1.032.1,1.332a1.773,1.773,0,0,0,.063.443,1.854,1.854,0,0,0,.019-.447c-.006-.3-.017-.745-.03-1.335q-.062-1.784-.182-5.339c-.257-7.481-.337-14.97-.287-22.456" transform="translate(5.663 4.345)" fill="#212121"/>
            <path id="Trazado_893105" data-name="Trazado 893105" d="M104,100.237c.045-6.516.165-11.672.268-15.2.119-3.525.183-5.426.183-5.426s-.1,1.892-.216,4.116-.2,4.785-.241,6.116c-.143,4.265-.208,9.158-.215,10.545-.049,7.438.03,14.878.286,22.314.081,2.374.171,4.153.252,5.338.044.59.078,1.032.1,1.332a1.773,1.773,0,0,0,.063.443,1.854,1.854,0,0,0,.019-.447c-.006-.3-.017-.745-.03-1.335q-.062-1.784-.182-5.339C104.029,115.213,103.949,107.724,104,100.237Z" transform="translate(5.663 4.345)" fill="none" stroke="#212121" stroke-width="0.005"/>
            <path id="Trazado_893106" data-name="Trazado 893106" d="M215.444,104.829s12.055-2.138,12.1-.323S215.444,104.829,215.444,104.829Z" transform="translate(11.759 5.664)" fill="none" stroke="#000" stroke-linecap="round" stroke-linejoin="round" stroke-width="0.645"/>
            <path id="Trazado_893107" data-name="Trazado 893107" d="M212.234,105.114A4.894,4.894,0,1,0,217,100.091a4.895,4.895,0,0,0-4.762,5.023" transform="translate(11.584 5.463)" fill="#cbcbca"/>
            <path id="Trazado_893108" data-name="Trazado 893108" d="M212.234,105.114A4.894,4.894,0,1,0,217,100.091,4.895,4.895,0,0,0,212.234,105.114Z" transform="translate(11.584 5.463)" fill="none" stroke="#000" stroke-linecap="round" stroke-linejoin="round" stroke-width="0.161"/>
            <path id="Trazado_893109" data-name="Trazado 893109" d="M213.6,105a3.454,3.454,0,1,0,3.361-3.545A3.455,3.455,0,0,0,213.6,105Z" transform="translate(11.658 5.537)" fill="none" stroke="#000" stroke-linecap="round" stroke-linejoin="round" stroke-width="0.054"/>
            <path id="Trazado_893110" data-name="Trazado 893110" d="M216.373,104.769a.592.592,0,1,1-.6-.582.591.591,0,0,1,.6.582" transform="translate(11.745 5.687)" fill="gray"/>
            <path id="Trazado_893111" data-name="Trazado 893111" d="M216.373,104.769a.592.592,0,1,1-.6-.582A.591.591,0,0,1,216.373,104.769Z" transform="translate(11.745 5.687)" fill="none" stroke="#000" stroke-linecap="round" stroke-linejoin="round" stroke-width="0.054"/>
            <path id="Trazado_893112" data-name="Trazado 893112" d="M218.618,104.733a.592.592,0,1,1-.6-.582.591.591,0,0,1,.6.582" transform="translate(11.868 5.685)" fill="gray"/>
            <path id="Trazado_893113" data-name="Trazado 893113" d="M218.618,104.733a.592.592,0,1,1-.6-.582A.591.591,0,0,1,218.618,104.733Z" transform="translate(11.868 5.685)" fill="none" stroke="#000" stroke-linecap="round" stroke-linejoin="round" stroke-width="0.054"/>
            <path id="Trazado_893114" data-name="Trazado 893114" d="M259.27,186.493l-.411-3.54A839.931,839.931,0,0,0,307.088,372.27" transform="translate(14.129 9.986)" fill="#232638"/>
            <path id="Trazado_893115" data-name="Trazado 893115" d="M104.016,172.418a799.167,799.167,0,0,1,13.922,130.111" transform="translate(5.677 9.411)" fill="#232638"/>
            <path id="Trazado_893116" data-name="Trazado 893116" d="M328.273,249.174A621.814,621.814,0,0,0,395.19,356.7" transform="translate(17.917 13.6)" fill="#232638"/>
            <path id="Trazado_893117" data-name="Trazado 893117" d="M387.878,224.88q10.3,39.52,18,79.655" transform="translate(21.17 12.274)" fill="#232638"/>
            <path id="Trazado_893118" data-name="Trazado 893118" d="M175.774,15.837a110.321,110.321,0,0,0-9.094,44.274" transform="translate(9.097 0.864)" fill="#232638"/>
            <g id="Grupo_1114558" data-name="Grupo 1114558" transform="translate(406.315 421.712)" style="mix-blend-mode: multiply;isolation: isolate">
              <g id="Grupo_1114557" data-name="Grupo 1114557">
                <g id="Grupo_1114556" data-name="Grupo 1114556" clip-path="url(#clip-path-3)">
                  <path id="Trazado_893119" data-name="Trazado 893119" d="M389.493,412.241s2.633-7.291,16.811-12.355c0,0-25.723,9.317-20.254,12.355" transform="translate(-385.286 -399.886)" fill="#b5b5b5"/>
                </g>
              </g>
            </g>
            <g id="Grupo_1114561" data-name="Grupo 1114561" transform="translate(435.233 416.993)" style="mix-blend-mode: multiply;isolation: isolate">
              <g id="Grupo_1114560" data-name="Grupo 1114560">
                <g id="Grupo_1114559" data-name="Grupo 1114559" clip-path="url(#clip-path-4)">
                  <path id="Trazado_893120" data-name="Trazado 893120" d="M412.707,398.307s19.849-2.228,18.432,1.012c0,0,6.97-5.844-7.495-3.241" transform="translate(-412.707 -395.411)" fill="#b5b5b5"/>
                </g>
              </g>
            </g>
            <path id="Trazado_893121" data-name="Trazado 893121" d="M106.291,245.554v.009C93.517,291.816,67.108,377.524,62.551,376.7" transform="translate(3.414 13.402)" fill="#232638"/>
            <path id="Trazado_893122" data-name="Trazado 893122" d="M9.438,370.394c.863-6.659,3.718-12.149,11.563-45.6,7.136-30.524,13.333-57.049,19.31-76.915,4.4-14.743,9.524-29.645,14.043-44.628,2.74-9.133,5.3-18.335,7.292-27.531.06-.243.144-.5.179-.728,2.143-9.762,6.366-29.453,16.423-67.86.532-2.054,5.911-20.345,9.8-31.933l1.008,1.275" transform="translate(0.515 4.104)" fill="none" stroke="#000" stroke-linecap="round" stroke-linejoin="round" stroke-width="0.387"/>
            <path id="Trazado_893123" data-name="Trazado 893123" d="M48.08,412.683c.081.038.179.077.26.115l15.192-42.762-.194-.112" transform="translate(2.624 20.191)" fill="none" stroke="#000" stroke-linecap="round" stroke-linejoin="round" stroke-width="0.387"/>
            <path id="Trazado_893124" data-name="Trazado 893124" d="M9.9,355.117l-.3-.018C5.25,371.607,1.04,399.865,1.04,399.865l.117.007" transform="translate(0.057 19.381)" fill="none" stroke="#000" stroke-linecap="round" stroke-linejoin="round" stroke-width="0.387"/>
            <g id="Grupo_1114564" data-name="Grupo 1114564" transform="translate(0.981 419.049)" style="mix-blend-mode: multiply;isolation: isolate">
              <g id="Grupo_1114563" data-name="Grupo 1114563">
                <g id="Grupo_1114562" data-name="Grupo 1114562" clip-path="url(#clip-path-7)">
                  <path id="Trazado_893125" data-name="Trazado 893125" d="M1.153,397.555c-.488,2.656,5.118,6.351,20.8,10.831,15.831,4.522,28,6,28.739,3.377a.925.925,0,0,0-.05-.587" transform="translate(-0.919 -397.351)" fill="none" stroke="#000" stroke-linecap="round" stroke-linejoin="round" stroke-width="0.387"/>
                </g>
              </g>
            </g>
            <path id="Trazado_893126" data-name="Trazado 893126" d="M155.7,36.4s-24.547,8.544-40.761,16.079C103.6,57.751,98.517,60.157,94.628,64.569A142.2,142.2,0,0,0,84.214,77.147l.766,1.442" transform="translate(4.596 1.987)" fill="none" stroke="#000" stroke-linecap="round" stroke-linejoin="round" stroke-width="0.387"/>
            <line id="Línea_606" data-name="Línea 606" y2="0.104" transform="translate(217.435 118.841)" fill="none" stroke="#000" stroke-linecap="round" stroke-linejoin="round" stroke-width="0.387"/>
            <path id="Trazado_893127" data-name="Trazado 893127" d="M104.167,245.554l-2.7,237.345s.863.243,2.491.644c3.209.79,13.4,2.224,22.568,3.84,18.071,3.172,47.189,6.976,85.372,7.619" transform="translate(5.538 13.402)" fill="#545672"/>
            <path id="Trazado_893128" data-name="Trazado 893128" d="M104.167,245.554l-2.7,237.345s.863.243,2.491.644c3.209.79,13.4,2.224,22.568,3.84,18.071,3.172,47.189,6.976,85.372,7.619" transform="translate(5.538 13.402)" fill="none" stroke="#000" stroke-linecap="round" stroke-linejoin="round" stroke-width="1.505"/>
            <path id="Trazado_893129" data-name="Trazado 893129" d="M372.765,376.571c-4.472.8-30-81.773-43.022-128.558" transform="translate(17.997 13.537)" fill="none" stroke="#000" stroke-linecap="round" stroke-linejoin="round" stroke-width="0.387"/>
            <path id="Trazado_893130" data-name="Trazado 893130" d="M349.226,75.558c3.882,11.6,9.151,29.519,9.677,31.552,10.056,38.406,14.28,58.1,16.422,67.859.036.232.12.485.18.728,1.994,9.2,4.552,18.4,7.291,27.531,4.519,14.982,9.642,29.886,14.043,44.629,5.977,19.865,12.174,46.391,19.31,76.915,7.846,33.453,10.7,38.945,11.563,45.6" transform="translate(19.061 4.124)" fill="none" stroke="#000" stroke-linecap="round" stroke-linejoin="round" stroke-width="0.387"/>
            <path id="Trazado_893131" data-name="Trazado 893131" d="M352.911,77.7l.292-.549a143.889,143.889,0,0,0-10.428-12.578c-3.889-4.411-8.968-6.818-20.307-12.08-16.211-7.547-40.761-16.09-40.761-16.09" transform="translate(15.376 1.987)" fill="none" stroke="#000" stroke-linecap="round" stroke-linejoin="round" stroke-width="0.387"/>
            <path id="Trazado_893132" data-name="Trazado 893132" d="M206.181,112.691c0,.063,0,.1,0,.1" transform="translate(11.253 6.151)" fill="none" stroke="#000" stroke-linecap="round" stroke-linejoin="round" stroke-width="0.387"/>
            <path id="Trazado_893133" data-name="Trazado 893133" d="M206.181,494.869v4.959c16.624-3.731,15.41-3.391,39.546-5.469,14.875-.656,28.12-1.762,39.568-3.05s21.1-2.747,28.766-4.1c9.14-1.591,19.347-3.026,22.581-3.815,1.628-.4,2.478-.633,2.478-.633h.037l-2.669-234.751" transform="translate(11.253 13.537)" fill="none" stroke="#000" stroke-linecap="round" stroke-linejoin="round" stroke-width="0.387"/>
            <path id="Trazado_893134" data-name="Trazado 893134" d="M423.651,355.117l.3-.018c4.345,16.508,8.555,44.766,8.555,44.766l-.117.007" transform="translate(23.123 19.381)" fill="none" stroke="#000" stroke-linecap="round" stroke-linejoin="round" stroke-width="0.387"/>
            <path id="Trazado_893135" data-name="Trazado 893135" d="M370.55,369.924l-.193.112L385.548,412.8c.082-.038.179-.077.26-.115" transform="translate(20.214 20.191)" fill="none" stroke="#000" stroke-linecap="round" stroke-linejoin="round" stroke-width="0.387"/>
            <g id="Grupo_1114567" data-name="Grupo 1114567" transform="translate(405.743 419.049)" style="mix-blend-mode: multiply;isolation: isolate">
              <g id="Grupo_1114566" data-name="Grupo 1114566">
                <g id="Grupo_1114565" data-name="Grupo 1114565" clip-path="url(#clip-path-7)">
                  <path id="Trazado_893136" data-name="Trazado 893136" d="M385.013,411.175a.922.922,0,0,0-.05.586c.737,2.626,12.908,1.146,28.739-3.376,15.684-4.48,21.289-8.174,20.8-10.831" transform="translate(-384.733 -397.351)" fill="none" stroke="#000" stroke-linecap="round" stroke-linejoin="round" stroke-width="0.387"/>
                </g>
              </g>
            </g>
            <path id="Trazado_893137" data-name="Trazado 893137" d="M248.351,1.041H188.469s-.047.019-.132.059" transform="translate(10.279 0.057)" fill="none" stroke="#000" stroke-linecap="round" stroke-linejoin="round" stroke-width="0.387"/>
            <path id="Trazado_893138" data-name="Trazado 893138" d="M190.32,1.1l.132-.061h-3.418s-2.587-.059-3.07,1.037-5.044,11.491-8.42,16.446a22.318,22.318,0,0,1-4.3,4.445c-1.679,1.38-3.68,2.809-5.974,4.35-3.626,2.432-7.965,5.136-12.881,8.352,0,0-.141.982-.389,2.658" transform="translate(8.296 0.057)" fill="none" stroke="#000" stroke-linecap="round" stroke-linejoin="round" stroke-width="0.387"/>
            <path id="Trazado_893139" data-name="Trazado 893139" d="M215.8,416.337s12.055-2.138,12.1-.323S215.8,416.337,215.8,416.337Z" transform="translate(11.778 22.666)" fill="none" stroke="#000" stroke-linecap="round" stroke-linejoin="round" stroke-width="0.645"/>
            <path id="Trazado_893140" data-name="Trazado 893140" d="M212.592,416.622a4.894,4.894,0,1,0,4.762-5.023,4.895,4.895,0,0,0-4.762,5.023" transform="translate(11.603 22.465)" fill="#cbcbca"/>
            <path id="Trazado_893141" data-name="Trazado 893141" d="M212.592,416.622a4.894,4.894,0,1,0,4.762-5.023A4.895,4.895,0,0,0,212.592,416.622Z" transform="translate(11.603 22.465)" fill="none" stroke="#000" stroke-linecap="round" stroke-linejoin="round" stroke-width="0.161"/>
            <path id="Trazado_893142" data-name="Trazado 893142" d="M213.956,416.51a3.454,3.454,0,1,0,3.361-3.546A3.454,3.454,0,0,0,213.956,416.51Z" transform="translate(11.678 22.54)" fill="none" stroke="#000" stroke-linecap="round" stroke-linejoin="round" stroke-width="0.054"/>
            <path id="Trazado_893143" data-name="Trazado 893143" d="M216.73,416.277a.592.592,0,1,1-.6-.582.591.591,0,0,1,.6.582" transform="translate(11.765 22.689)" fill="gray"/>
            <path id="Trazado_893144" data-name="Trazado 893144" d="M216.73,416.277a.592.592,0,1,1-.6-.582A.591.591,0,0,1,216.73,416.277Z" transform="translate(11.765 22.689)" fill="none" stroke="#000" stroke-linecap="round" stroke-linejoin="round" stroke-width="0.054"/>
            <path id="Trazado_893145" data-name="Trazado 893145" d="M218.976,416.241a.592.592,0,1,1-.6-.582.591.591,0,0,1,.6.582" transform="translate(11.887 22.687)" fill="gray"/>
            <path id="Trazado_893146" data-name="Trazado 893146" d="M218.976,416.241a.592.592,0,1,1-.6-.582A.591.591,0,0,1,218.976,416.241Z" transform="translate(11.887 22.687)" fill="none" stroke="#000" stroke-linecap="round" stroke-linejoin="round" stroke-width="0.054"/>
            <path id="Trazado_893147" data-name="Trazado 893147" d="M263.723,22c-.146-.117-.29-.234-.431-.35a31.116,31.116,0,0,1-2.36-2.132l2.421,2.017.211.266-.272-.151c.141.116.286.233.431.35" transform="translate(14.242 1.066)" fill="#b2b1b1"/>
            <path id="Trazado_893148" data-name="Trazado 893148" d="M263.6,21.894c-.146-.117-.29-.234-.431-.35l.272.151c.045.058.1.124.159.2" transform="translate(14.364 1.176)" fill="#a8a7a7"/>
            <path id="Trazado_893149" data-name="Trazado 893149" d="M272.855,32.128s-10.575-8.822-13.9-14.256l2.09,1.742a31.109,31.109,0,0,0,2.36,2.13c.141.117.286.234.431.35a107.456,107.456,0,0,0,9.023,10.033" transform="translate(14.134 0.975)" fill="#a8a7a7"/>
            <path id="Trazado_893150" data-name="Trazado 893150" d="M263.17,21.544c1.679,1.383,3.68,2.813,5.973,4.351A29.115,29.115,0,0,0,263.17,21.544Z" transform="translate(14.364 1.176)" fill="none" stroke="#000" stroke-linecap="round" stroke-linejoin="round" stroke-width="0.215"/>
            <path id="Trazado_893151" data-name="Trazado 893151" d="M248.351,5.369c.147,2.141.56,8.849.565,15.384,0,3.013-.084,5.974-.323,8.45-.02.214-.037.44-.06.645-.046.423-.1.84-.153,1.226a17.514,17.514,0,0,1-1.212,3.761c-.994,2.4-2.525,5.471-4.436,9.035h0l1.689,7.6,2.248,10.111a5.621,5.621,0,0,1,4.892-3.517,4.138,4.138,0,0,1,1.867.353c5.152,2.12,11.608,13.248,19.867,19.015,6.937,4.843,18.841,9.552,18.841,9.552-1.945-6.249-5.345-27.437-7.362-40.641-.527-3.452-.961-6.357-1.248-8.306-.248-1.677-.39-2.66-.39-2.66-4.914-3.215-9.254-5.918-12.88-8.35-2.295-1.54-4.3-2.971-5.973-4.351a22.264,22.264,0,0,1-4.3-4.444c-3.377-4.955-7.938-15.349-8.42-16.446S248.5.754,248.5.754h-3.417a5.576,5.576,0,0,1,3.271,4.615" transform="translate(13.248 0.041)" fill="#545672"/>
            <path id="Trazado_893152" data-name="Trazado 893152" d="M248.351,5.369c.147,2.141.56,8.849.565,15.384,0,3.013-.084,5.974-.323,8.45-.02.214-.037.44-.06.645-.046.423-.1.84-.153,1.226a17.514,17.514,0,0,1-1.212,3.761c-.994,2.4-2.525,5.471-4.436,9.035h0l1.689,7.6,2.248,10.111a5.621,5.621,0,0,1,4.892-3.517,4.138,4.138,0,0,1,1.867.353c5.152,2.12,11.608,13.248,19.867,19.015,6.937,4.843,18.841,9.552,18.841,9.552-1.945-6.249-5.345-27.437-7.362-40.641-.527-3.452-.961-6.357-1.248-8.306-.248-1.677-.39-2.66-.39-2.66-4.914-3.215-9.254-5.918-12.88-8.35-2.295-1.54-4.3-2.971-5.973-4.351a22.264,22.264,0,0,1-4.3-4.444c-3.377-4.955-7.938-15.349-8.42-16.446S248.5.754,248.5.754h-3.417A5.576,5.576,0,0,1,248.351,5.369Z" transform="translate(13.248 0.041)" fill="none" stroke="#000" stroke-linecap="round" stroke-linejoin="round" stroke-width="1.505"/>
            <path id="Trazado_893153" data-name="Trazado 893153" d="M280.531,32.15a357.286,357.286,0,0,0,7.867,49.1s-11.02-5.51-16.136-9.692c-3.692-3.017-11.249-11.365-13.824-13.726-3.7-3.4-6.838-6.395-12.5-1.573" transform="translate(13.424 1.755)" fill="none" stroke="#000" stroke-linecap="round" stroke-linejoin="round" stroke-width="0.43" stroke-dasharray="1.075 0.645"/>
            <path id="Trazado_893154" data-name="Trazado 893154" d="M260.446,19.2q7.22,17.779,15.242,35.217" transform="translate(14.215 1.048)" fill="#232638"/>
            <path id="Trazado_893155" data-name="Trazado 893155" d="M283.7,38.329c-.248-1.677-.39-2.661-.39-2.661-4.913-3.215-9.254-5.918-12.88-8.35-2.295-1.54-4.294-2.97-5.973-4.35a22.262,22.262,0,0,1-4.3-4.444c-3.377-4.957-7.938-15.35-8.419-16.446s-3.071-1.037-3.071-1.037h-3.417" transform="translate(13.386 0.057)" fill="none" stroke="#000" stroke-linecap="round" stroke-linejoin="round" stroke-width="0.387"/>
            <path id="Trazado_893156" data-name="Trazado 893156" d="M101.177,462.156c.154-.084,35.518,10.7,110.426,11.694" transform="translate(5.522 25.225)" fill="none" stroke="#000" stroke-linecap="round" stroke-linejoin="round" stroke-width="0.43" stroke-dasharray="1.075 0.645"/>
            <path id="Trazado_893157" data-name="Trazado 893157" d="M907.282,83.371l-23.641,84.276-5.4,84.925,2.8,7.557L889.973,501.1h-.037s-.851.231-2.479.632c-3.232.79-13.441,2.224-22.58,3.817-7.668,1.349-17.317,2.807-28.766,4.095s-24.693,2.395-39.569,3.051c-18.518.51-37.206.506-37.206.506l-2.339,0c-38.184-.644-67.3-4.448-85.374-7.62-9.163-1.616-19.359-3.05-22.568-3.84-1.628-.4-2.491-.644-2.491-.644l2.7-240.972,2.239-91.9-8.979-35.149-13.389-51.33s-.906-2.542,0-4.271l.782-.572S670.964,51.848,709.3,35.837c-.185-.948-.351-1.888-.478-2.817,0,0,7.763-23.965,8.663-26.857s4.558-3.243,4.558-3.243,54.046,10.149,94.525,0c0,0,3.67.352,4.559,3.243l.561,1.021c.888,2.891,7.959,25.836,7.959,25.836-.116.851-.269,1.712-.434,2.577a621.938,621.938,0,0,1,76.668,40.681s3.374,2.484,1.406,7.092" transform="translate(34.317 0.159)" fill="#545672"/>
            <path id="Trazado_893158" data-name="Trazado 893158" d="M907.282,83.371l-23.641,84.276-5.4,84.925,2.8,7.557L889.973,501.1h-.037s-.851.231-2.479.632c-3.232.79-13.441,2.224-22.58,3.817-7.668,1.349-17.317,2.807-28.766,4.095s-24.693,2.395-39.569,3.051c-18.518.51-37.206.506-37.206.506l-2.339,0c-38.184-.644-67.3-4.448-85.374-7.62-9.163-1.616-19.359-3.05-22.568-3.84-1.628-.4-2.491-.644-2.491-.644l2.7-240.972,2.239-91.9-8.979-35.149-13.389-51.33s-.906-2.542,0-4.271l.782-.572S670.964,51.848,709.3,35.837c-.185-.948-.351-1.888-.478-2.817,0,0,7.763-23.965,8.663-26.857s4.558-3.243,4.558-3.243,54.046,10.149,94.525,0c0,0,3.67.352,4.559,3.243l.561,1.021c.888,2.891,7.959,25.836,7.959,25.836-.116.851-.269,1.712-.434,2.577a621.938,621.938,0,0,1,76.668,40.681S909.25,78.762,907.282,83.371Z" transform="translate(34.317 0.159)" fill="none" stroke="#000" stroke-linecap="round" stroke-linejoin="round" stroke-width="1.505"/>
            <path id="Trazado_893159" data-name="Trazado 893159" d="M553.328,371.4c1.005.042,4.3.232,9.1.831,2,.259,4.194.577,6.592,1a131.887,131.887,0,0,1,40.324,13.776c4.556.819,30.965-84.888,43.74-131.141,1.205-13.652,2.543-91.608,2.543-91.608C655.447,162.952,632.8,75.6,632.8,75.6c-3.892,11.587-10.129,30.481-10.662,32.535-10.057,38.407-14.28,58.1-16.423,67.86-.035.232-.118.485-.178.728-2,9.2-4.553,18.4-7.293,27.531-4.519,14.982-9.642,29.886-14.043,44.629-5.977,19.865-12.173,46.391-19.309,76.915-7.846,33.458-10.7,38.946-11.565,45.605" transform="translate(30.201 4.126)" fill="#545672"/>
            <path id="Trazado_893160" data-name="Trazado 893160" d="M553.328,371.4c1.005.042,4.3.232,9.1.831,2,.259,4.194.577,6.592,1a131.887,131.887,0,0,1,40.324,13.776c4.556.819,30.965-84.888,43.74-131.141,1.205-13.652,2.543-91.608,2.543-91.608C655.447,162.952,632.8,75.6,632.8,75.6c-3.892,11.587-10.129,30.481-10.662,32.535-10.057,38.407-14.28,58.1-16.423,67.86-.035.232-.118.485-.178.728-2,9.2-4.553,18.4-7.293,27.531-4.519,14.982-9.642,29.886-14.043,44.629-5.977,19.865-12.173,46.391-19.309,76.915C557.046,359.255,554.191,364.743,553.328,371.4Z" transform="translate(30.201 4.126)" fill="none" stroke="#000" stroke-linecap="round" stroke-linejoin="round" stroke-width="1.505"/>
            <path id="Trazado_893161" data-name="Trazado 893161" d="M545.048,400.846c-.015-.034,0-.05.005-.083.752-2.625,7.652-3.125,23.5,1.4,14.764,4.227,25.083,9.468,25.986,12.3.081.038.179.077.26.115l15.192-42.762-.194-.111c-25.145-13.836-52.652-15.472-56-15.616l-.315-.019c-4.345,16.508-8.555,44.766-8.555,44.766l.117.007" transform="translate(29.743 19.435)" fill="#545672"/>
            <path id="Trazado_893162" data-name="Trazado 893162" d="M545.048,400.846c-.015-.034,0-.05.005-.083.752-2.625,7.652-3.125,23.5,1.4,14.764,4.227,25.083,9.468,25.986,12.3.081.038.179.077.26.115l15.192-42.762-.194-.111c-25.145-13.836-52.652-15.472-56-15.616l-.315-.019c-4.345,16.508-8.555,44.766-8.555,44.766Z" transform="translate(29.743 19.435)" fill="none" stroke="#000" stroke-linecap="round" stroke-linejoin="round" stroke-width="1.505"/>
            <path id="Trazado_893163" data-name="Trazado 893163" d="M545.048,398.553c0,.033-.02.048-.005.083-.487,2.656,5.118,6.351,20.8,10.831,15.83,4.522,28,6,28.738,3.376a.909.909,0,0,0-.05-.586c-.9-2.838-11.221-8.079-25.985-12.3-15.848-4.523-22.747-4.023-23.5-1.4" transform="translate(29.747 21.644)" fill="#1b1b37"/>
            <path id="Trazado_893164" data-name="Trazado 893164" d="M545.048,398.553c0,.033-.02.048-.005.083-.487,2.656,5.118,6.351,20.8,10.831,15.83,4.522,28,6,28.738,3.376a.909.909,0,0,0-.05-.586c-.9-2.838-11.221-8.079-25.985-12.3C552.7,395.428,545.8,395.928,545.048,398.553Z" transform="translate(29.747 21.644)" fill="none" stroke="#000" stroke-linecap="round" stroke-linejoin="round" stroke-width="1.505"/>
            <path id="Trazado_893165" data-name="Trazado 893165" d="M606.844,375.821s-26.677-16.009-55.68-14.358" transform="translate(30.083 19.722)" fill="none" stroke="#000" stroke-linecap="round" stroke-linejoin="round" stroke-width="0.43" stroke-dasharray="1.075 0.645"/>
            <path id="Trazado_893166" data-name="Trazado 893166" d="M615.7,119.508q1.813,14.942,3.625,29.885" transform="translate(33.605 6.523)" fill="#232638"/>
            <path id="Trazado_893167" data-name="Trazado 893167" d="M647.2,231.787a621.747,621.747,0,0,1-66.917,107.527" transform="translate(31.672 12.651)" fill="#232638"/>
            <path id="Trazado_893168" data-name="Trazado 893168" d="M589.746,226.142q-10.3,39.52-18,79.655" transform="translate(31.206 12.343)" fill="#232638"/>
            <g id="Grupo_1114570" data-name="Grupo 1114570" transform="translate(602.667 423.043)" style="mix-blend-mode: multiply;isolation: isolate">
              <g id="Grupo_1114569" data-name="Grupo 1114569">
                <g id="Grupo_1114568" data-name="Grupo 1114568" clip-path="url(#clip-path-9)">
                  <path id="Trazado_893169" data-name="Trazado 893169" d="M588.287,413.5s-2.633-7.291-16.811-12.355c0,0,25.723,9.317,20.254,12.355" transform="translate(-571.476 -401.148)" fill="#b5b5b5"/>
                </g>
              </g>
            </g>
            <g id="Grupo_1114573" data-name="Grupo 1114573" transform="translate(574.657 418.324)" style="mix-blend-mode: multiply;isolation: isolate">
              <g id="Grupo_1114572" data-name="Grupo 1114572">
                <g id="Grupo_1114571" data-name="Grupo 1114571" clip-path="url(#clip-path-4)">
                  <path id="Trazado_893170" data-name="Trazado 893170" d="M565.026,399.57s-19.849-2.228-18.432,1.012c0,0-6.97-5.844,7.495-3.241" transform="translate(-544.915 -396.673)" fill="#b5b5b5"/>
                </g>
              </g>
            </g>
            <path id="Trazado_893171" data-name="Trazado 893171" d="M973.128,371.371c-1,.042-4.294.232-9.095.831-2,.259-4.2.577-6.594,1a131.892,131.892,0,0,0-40.323,13.776c-4.557.819-39.008-92.15-51.783-138.4-1.205-13.652,5.5-84.345,5.5-84.345.175-1.308,23.68-88.056,23.68-88.056,3.892,11.587,9.272,29.877,9.8,31.932,10.056,38.407,14.28,58.1,16.423,67.86.035.232.119.485.179.728,2,9.2,4.552,18.4,7.292,27.531,4.519,14.982,9.642,29.886,14.043,44.629,5.977,19.865,12.173,46.391,19.31,76.915,7.846,33.458,10.7,38.946,11.563,45.605" transform="translate(47.222 4.157)" fill="#545672"/>
            <path id="Trazado_893172" data-name="Trazado 893172" d="M973.128,371.371c-1,.042-4.294.232-9.095.831-2,.259-4.2.577-6.594,1a131.892,131.892,0,0,0-40.323,13.776c-4.557.819-39.008-92.15-51.783-138.4-1.205-13.652,5.5-84.345,5.5-84.345.175-1.308,23.68-88.056,23.68-88.056,3.892,11.587,9.272,29.877,9.8,31.932,10.056,38.407,14.28,58.1,16.423,67.86.035.232.119.485.179.728,2,9.2,4.552,18.4,7.292,27.531,4.519,14.982,9.642,29.886,14.043,44.629,5.977,19.865,12.173,46.391,19.31,76.915C969.411,359.223,972.266,364.711,973.128,371.371Z" transform="translate(47.222 4.157)" fill="none" stroke="#000" stroke-linecap="round" stroke-linejoin="round" stroke-width="1.505"/>
            <path id="Trazado_893173" data-name="Trazado 893173" d="M979.19,400.846c.015-.034,0-.05-.005-.083-.752-2.625-7.652-3.125-23.5,1.4-14.764,4.227-25.083,9.468-25.986,12.3-.081.038-.179.077-.26.115l-15.192-42.762.194-.111c25.145-13.836,52.652-15.472,56-15.616l.315-.019c4.345,16.508,8.555,44.766,8.555,44.766l-.117.007" transform="translate(49.9 19.435)" fill="#545672"/>
            <path id="Trazado_893174" data-name="Trazado 893174" d="M979.19,400.846c.015-.034,0-.05-.005-.083-.752-2.625-7.652-3.125-23.5,1.4-14.764,4.227-25.083,9.468-25.986,12.3-.081.038-.179.077-.26.115l-15.192-42.762.194-.111c25.145-13.836,52.652-15.472,56-15.616l.315-.019c4.345,16.508,8.555,44.766,8.555,44.766Z" transform="translate(49.9 19.435)" fill="none" stroke="#000" stroke-linecap="round" stroke-linejoin="round" stroke-width="1.505"/>
            <path id="Trazado_893175" data-name="Trazado 893175" d="M978.39,398.553c0,.033.02.048.005.083.487,2.656-5.118,6.351-20.8,10.831-15.83,4.522-28,6-28.738,3.376a.909.909,0,0,1,.05-.586c.9-2.838,11.221-8.079,25.985-12.3,15.848-4.523,22.747-4.023,23.5-1.4" transform="translate(50.696 21.644)" fill="#1b1b37"/>
            <path id="Trazado_893176" data-name="Trazado 893176" d="M978.39,398.553c0,.033.02.048.005.083.487,2.656-5.118,6.351-20.8,10.831-15.83,4.522-28,6-28.738,3.376a.909.909,0,0,1,.05-.586c.9-2.838,11.221-8.079,25.985-12.3C970.738,395.428,977.637,395.928,978.39,398.553Z" transform="translate(50.696 21.644)" fill="none" stroke="#000" stroke-linecap="round" stroke-linejoin="round" stroke-width="1.505"/>
            <path id="Trazado_893177" data-name="Trazado 893177" d="M916.908,375.821s26.677-16.009,55.68-14.358" transform="translate(50.045 19.722)" fill="none" stroke="#000" stroke-linecap="round" stroke-linejoin="round" stroke-width="0.43" stroke-dasharray="1.075 0.645"/>
            <path id="Trazado_893178" data-name="Trazado 893178" d="M870.923,133.015q-2.8,21.855-5.6,43.711" transform="translate(47.23 7.26)" fill="#232638"/>
            <path id="Trazado_893179" data-name="Trazado 893179" d="M905.355,119.508q-1.813,14.942-3.625,29.885" transform="translate(49.217 6.523)" fill="#232638"/>
            <line id="Línea_607" data-name="Línea 607" y1="0.878" transform="translate(738.407 38.507)" fill="#b2b1b1"/>
            <path id="Trazado_893180" data-name="Trazado 893180" d="M655.061,463.751c-6.608-51.82-6.624-148.772-7.915-171.341l.127-13,.142-7.754c.61,19.672,7.646,192.1,7.646,192.1" transform="translate(35.321 14.827)" fill="#232638"/>
            <path id="Trazado_893181" data-name="Trazado 893181" d="M647.366,269.131c0-.022,0-.045,0-.069Zm-.1,10.42.1-10.42c-.006.715.008,1.611.041,2.667l-.142,7.753" transform="translate(35.328 14.686)" fill="#232638"/>
            <path id="Trazado_893182" data-name="Trazado 893182" d="M831.409,214.039s14.373-80.82,20.682-149.955c0,0-5.258,90.713-20.682,149.955" transform="translate(45.379 3.498)" fill="#232638"/>
            <path id="Trazado_893183" data-name="Trazado 893183" d="M874.123,269.128v0Z" transform="translate(47.71 14.686)" fill="#7e7e7e"/>
            <path id="Trazado_893184" data-name="Trazado 893184" d="M713.927,478.357c13.334-58.161,15.113-286.64,15.113-286.64.885,125.572-15.113,286.64-15.113,286.64" transform="translate(38.966 10.464)" fill="#232638"/>
            <path id="Trazado_893185" data-name="Trazado 893185" d="M675.835,192.036C669,147.042,660.348,91.141,661.424,67.111c0,0,5.811,61.539,14.411,124.925m10.571,65.145c-4.005-20.2-7.537-42.786-10.571-65.145,5.476,36.054,10.565,65.1,10.571,65.145m0,0h0" transform="translate(36.096 3.663)" fill="#232638"/>
            <path id="Trazado_893186" data-name="Trazado 893186" d="M646.287,444.591l4.575.186-1.171,32.54" transform="translate(35.275 24.266)" fill="none" stroke="#000" stroke-linecap="round" stroke-linejoin="round" stroke-width="0.107" stroke-dasharray="0.215 0.215"/>
            <line id="Línea_608" data-name="Línea 608" x2="19.305" y2="35.48" transform="translate(664.239 77.636)" fill="none" stroke="#000" stroke-linecap="round" stroke-linejoin="round" stroke-width="0.43" stroke-dasharray="1.075 0.645"/>
            <path id="Trazado_893187" data-name="Trazado 893187" d="M875.344,444.591l-4.575.186,1.171,32.54" transform="translate(47.527 24.266)" fill="none" stroke="#000" stroke-linecap="round" stroke-linejoin="round" stroke-width="0.107" stroke-dasharray="0.215 0.215"/>
            <path id="Trazado_893188" data-name="Trazado 893188" d="M882.915,466.858c-.155-.084-34.2,10.265-110.388,11.694-8,.15-22.459,2.828-22.459,2.828" transform="translate(40.939 25.481)" fill="none" stroke="#000" stroke-linecap="round" stroke-linejoin="round" stroke-width="0.43" stroke-dasharray="1.075 0.645"/>
            <line id="Línea_609" data-name="Línea 609" x1="19.305" y2="35.48" transform="translate(920.888 77.636)" fill="none" stroke="#000" stroke-linecap="round" stroke-linejoin="round" stroke-width="0.43" stroke-dasharray="1.075 0.645"/>
            <path id="Trazado_893189" data-name="Trazado 893189" d="M789.693,492.439c-12.065-87.606-16.141-258.057-16.141-258.057,3.731,49.709,16.133,257.988,16.141,258.057m0,0h0" transform="translate(42.221 12.793)" fill="#232638"/>
            <path id="Trazado_893190" data-name="Trazado 893190" d="M873.784,122.039c-.323-10.8-.646-32.948-.969-43.749" transform="translate(47.639 4.273)" fill="#232638"/>
            <path id="Trazado_893191" data-name="Trazado 893191" d="M803.448,187.756l-.411-3.54a839.875,839.875,0,0,0,48.23,189.317" transform="translate(43.83 10.055)" fill="#232638"/>
            <path id="Trazado_893192" data-name="Trazado 893192" d="M648.195,173.681a799.165,799.165,0,0,1,13.922,130.111" transform="translate(35.379 9.48)" fill="#232638"/>
            <path id="Trazado_893193" data-name="Trazado 893193" d="M872.452,212.927a621.749,621.749,0,0,0,66.917,107.527" transform="translate(47.619 11.622)" fill="#232638"/>
            <path id="Trazado_893194" data-name="Trazado 893194" d="M932.057,226.142q10.3,39.52,18,79.655" transform="translate(50.872 12.343)" fill="#232638"/>
            <g id="Grupo_1114576" data-name="Grupo 1114576" transform="translate(980.195 423.043)" style="mix-blend-mode: multiply;isolation: isolate">
              <g id="Grupo_1114575" data-name="Grupo 1114575">
                <g id="Grupo_1114574" data-name="Grupo 1114574" clip-path="url(#clip-path-3)">
                  <path id="Trazado_893195" data-name="Trazado 893195" d="M933.672,413.5s2.633-7.291,16.811-12.355c0,0-25.723,9.317-20.254,12.355" transform="translate(-929.465 -401.148)" fill="#b5b5b5"/>
                </g>
              </g>
            </g>
            <g id="Grupo_1114579" data-name="Grupo 1114579" transform="translate(1009.112 418.324)" style="mix-blend-mode: multiply;isolation: isolate">
              <g id="Grupo_1114578" data-name="Grupo 1114578">
                <g id="Grupo_1114577" data-name="Grupo 1114577" clip-path="url(#clip-path-4)">
                  <path id="Trazado_893196" data-name="Trazado 893196" d="M956.885,399.57s19.849-2.228,18.432,1.012c0,0,6.971-5.844-7.495-3.241" transform="translate(-956.885 -396.673)" fill="#b5b5b5"/>
                </g>
              </g>
            </g>
            <path id="Trazado_893197" data-name="Trazado 893197" d="M647.7,244.237v.009c-12.774,46.253-39.182,131.961-43.739,131.141" transform="translate(32.964 13.331)" fill="#232638"/>
            <path id="Trazado_893198" data-name="Trazado 893198" d="M873.374,242.088v.009c12.773,46.253,39.182,131.961,43.739,131.141" transform="translate(47.669 13.213)" fill="#232638"/>
            <path id="Trazado_893199" data-name="Trazado 893199" d="M553.617,371.656c.863-6.659,3.718-12.149,11.563-45.6,7.136-30.524,13.333-57.049,19.31-76.915,4.4-14.743,9.524-29.645,14.043-44.628,2.74-9.133,5.3-18.335,7.292-27.531.06-.243.143-.5.179-.728,2.143-9.762,6.366-29.453,16.423-67.86.531-2.054,5.911-20.345,9.8-31.933l1.008,1.275" transform="translate(30.217 4.173)" fill="none" stroke="#000" stroke-linecap="round" stroke-linejoin="round" stroke-width="0.387"/>
            <path id="Trazado_893200" data-name="Trazado 893200" d="M592.259,413.945c.081.038.179.077.26.115L607.712,371.3l-.194-.112" transform="translate(32.326 20.259)" fill="none" stroke="#000" stroke-linecap="round" stroke-linejoin="round" stroke-width="0.387"/>
            <path id="Trazado_893201" data-name="Trazado 893201" d="M554.075,356.379l-.3-.018c-4.345,16.508-8.555,44.766-8.555,44.766l.117.007" transform="translate(29.758 19.45)" fill="none" stroke="#000" stroke-linecap="round" stroke-linejoin="round" stroke-width="0.387"/>
            <g id="Grupo_1114582" data-name="Grupo 1114582" transform="translate(574.861 420.381)" style="mix-blend-mode: multiply;isolation: isolate">
              <g id="Grupo_1114581" data-name="Grupo 1114581">
                <g id="Grupo_1114580" data-name="Grupo 1114580" clip-path="url(#clip-path-13)">
                  <path id="Trazado_893202" data-name="Trazado 893202" d="M545.331,398.817c-.488,2.656,5.118,6.351,20.8,10.831,15.831,4.522,28,6,28.739,3.377a.926.926,0,0,0-.05-.587" transform="translate(-545.098 -398.613)" fill="none" stroke="#000" stroke-linecap="round" stroke-linejoin="round" stroke-width="0.387"/>
                </g>
              </g>
            </g>
            <path id="Trazado_893203" data-name="Trazado 893203" d="M967.83,356.379l.3-.018c4.345,16.508,8.555,44.766,8.555,44.766l-.117.007" transform="translate(52.824 19.45)" fill="none" stroke="#000" stroke-linecap="round" stroke-linejoin="round" stroke-width="0.387"/>
            <path id="Trazado_893204" data-name="Trazado 893204" d="M914.729,371.187l-.193.112,15.191,42.762c.081-.038.179-.077.26-.115" transform="translate(49.916 20.26)" fill="none" stroke="#000" stroke-linecap="round" stroke-linejoin="round" stroke-width="0.387"/>
            <g id="Grupo_1114585" data-name="Grupo 1114585" transform="translate(979.623 420.381)" style="mix-blend-mode: multiply;isolation: isolate">
              <g id="Grupo_1114584" data-name="Grupo 1114584">
                <g id="Grupo_1114583" data-name="Grupo 1114583" clip-path="url(#clip-path-7)">
                  <path id="Trazado_893205" data-name="Trazado 893205" d="M929.192,412.437a.923.923,0,0,0-.05.586c.737,2.626,12.908,1.146,28.739-3.376,15.683-4.48,21.289-8.174,20.8-10.831" transform="translate(-928.911 -398.613)" fill="none" stroke="#000" stroke-linecap="round" stroke-linejoin="round" stroke-width="0.387"/>
                </g>
              </g>
            </g>
            <path id="Trazado_893206" data-name="Trazado 893206" d="M645.355,466.858c.154-.084,43.884,11.3,121.637,11.116,0,0,49.273,1.776,121.636-11.116" transform="translate(35.224 25.481)" fill="none" stroke="#000" stroke-linecap="round" stroke-linejoin="round" stroke-width="0.43" stroke-dasharray="1.075 0.645"/>
            <line id="Línea_610" data-name="Línea 610" x2="256.598" transform="translate(673.891 121.914)" fill="none" stroke="#000" stroke-linecap="round" stroke-linejoin="round" stroke-width="1.505"/>
            <line id="Línea_611" data-name="Línea 611" x2="256.598" transform="translate(673.891 117.873)" fill="none" stroke="#000" stroke-linecap="round" stroke-linejoin="round" stroke-width="0.43" stroke-dasharray="1.075 0.645"/>
            <path id="Trazado_893207" data-name="Trazado 893207" d="M705.127,34.145s59.388,11.77,119.913-.239" transform="translate(38.486 1.851)" fill="#545672"/>
            <path id="Trazado_893208" data-name="Trazado 893208" d="M705.127,34.145s59.388,11.77,119.913-.239" transform="translate(38.486 1.851)" fill="none" stroke="#000" stroke-linecap="round" stroke-linejoin="round" stroke-width="1.505"/>
            <path id="Trazado_893209" data-name="Trazado 893209" d="M567.588,407.168l33.921-123.779,9.139-4.787,4.653,9.036-22.841,81.12" transform="translate(30.979 15.206)" fill="none" stroke="#000" stroke-linecap="round" stroke-linejoin="round" stroke-width="1.075"/>
            <path id="Trazado_893210" data-name="Trazado 893210" d="M937.839,365.278l-19.262-65.921-3.7-13.5,3.2-5.578,5.82,3.525,3.707,13.963-8.79,2.439" transform="translate(49.934 15.298)" fill="none" stroke="#000" stroke-linecap="round" stroke-linejoin="round" stroke-width="0.43" stroke-dasharray="1.075 0.645"/>
            <path id="Trazado_893211" data-name="Trazado 893211" d="M577.956,380.471s12.076,2.017,11.514,3.744S577.956,380.471,577.956,380.471Z" transform="translate(31.545 20.766)" fill="none" stroke="#000" stroke-linecap="round" stroke-linejoin="round" stroke-width="0.645"/>
            <path id="Trazado_893212" data-name="Trazado 893212" d="M577.959,380.943a4.894,4.894,0,1,0,6.168-3.141,4.9,4.9,0,0,0-6.168,3.141" transform="translate(31.532 20.607)" fill="#cbcbca"/>
            <path id="Trazado_893213" data-name="Trazado 893213" d="M577.959,380.943a4.894,4.894,0,1,0,6.168-3.141A4.9,4.9,0,0,0,577.959,380.943Z" transform="translate(31.532 20.607)" fill="none" stroke="#000" stroke-linecap="round" stroke-linejoin="round" stroke-width="0.161"/>
            <path id="Trazado_893214" data-name="Trazado 893214" d="M579.254,381.314a3.455,3.455,0,1,0,4.353-2.217A3.454,3.454,0,0,0,579.254,381.314Z" transform="translate(31.607 20.682)" fill="none" stroke="#000" stroke-linecap="round" stroke-linejoin="round" stroke-width="0.054"/>
            <path id="Trazado_893215" data-name="Trazado 893215" d="M581.888,382.064a.592.592,0,1,1-.371-.75.591.591,0,0,1,.371.75" transform="translate(31.697 20.811)" fill="gray"/>
            <path id="Trazado_893216" data-name="Trazado 893216" d="M581.888,382.064a.592.592,0,1,1-.371-.75A.591.591,0,0,1,581.888,382.064Z" transform="translate(31.697 20.811)" fill="none" stroke="#000" stroke-linecap="round" stroke-linejoin="round" stroke-width="0.054"/>
            <path id="Trazado_893217" data-name="Trazado 893217" d="M584.016,382.781a.592.592,0,1,1-.371-.75.591.591,0,0,1,.371.75" transform="translate(31.813 20.85)" fill="gray"/>
            <path id="Trazado_893218" data-name="Trazado 893218" d="M584.016,382.781a.592.592,0,1,1-.371-.75A.591.591,0,0,1,584.016,382.781Z" transform="translate(31.813 20.85)" fill="none" stroke="#000" stroke-linecap="round" stroke-linejoin="round" stroke-width="0.054"/>
            <path id="Trazado_893219" data-name="Trazado 893219" d="M959.664,404.691,925.744,280.912l-9.139-4.787-4.653,9.036,22.841,81.12" transform="translate(49.775 15.071)" fill="none" stroke="#000" stroke-linecap="round" stroke-linejoin="round" stroke-width="1.075"/>
            <path id="Trazado_893220" data-name="Trazado 893220" d="M947.424,377.993s-12.076,2.017-11.514,3.744S947.424,377.993,947.424,377.993Z" transform="translate(51.081 20.631)" fill="none" stroke="#000" stroke-linecap="round" stroke-linejoin="round" stroke-width="0.645"/>
            <path id="Trazado_893221" data-name="Trazado 893221" d="M947.33,378.465a4.894,4.894,0,1,1-6.168-3.141,4.9,4.9,0,0,1,6.168,3.141" transform="translate(51.184 20.472)" fill="#cbcbca"/>
            <path id="Trazado_893222" data-name="Trazado 893222" d="M947.33,378.465a4.894,4.894,0,1,1-6.168-3.141A4.9,4.9,0,0,1,947.33,378.465Z" transform="translate(51.184 20.472)" fill="none" stroke="#000" stroke-linecap="round" stroke-linejoin="round" stroke-width="0.161"/>
            <path id="Trazado_893223" data-name="Trazado 893223" d="M945.887,378.836a3.454,3.454,0,1,1-4.353-2.217A3.454,3.454,0,0,1,945.887,378.836Z" transform="translate(51.259 20.547)" fill="none" stroke="#000" stroke-linecap="round" stroke-linejoin="round" stroke-width="0.054"/>
            <path id="Trazado_893224" data-name="Trazado 893224" d="M942.957,379.586a.592.592,0,1,0,.371-.75.591.591,0,0,0-.371.75" transform="translate(51.465 20.675)" fill="gray"/>
            <path id="Trazado_893225" data-name="Trazado 893225" d="M942.957,379.586a.592.592,0,1,0,.371-.75A.591.591,0,0,0,942.957,379.586Z" transform="translate(51.465 20.675)" fill="none" stroke="#000" stroke-linecap="round" stroke-linejoin="round" stroke-width="0.054"/>
            <path id="Trazado_893226" data-name="Trazado 893226" d="M940.829,380.3a.592.592,0,1,0,.371-.75.591.591,0,0,0-.371.75" transform="translate(51.349 20.714)" fill="gray"/>
            <path id="Trazado_893227" data-name="Trazado 893227" d="M940.829,380.3a.592.592,0,1,0,.371-.75A.591.591,0,0,0,940.829,380.3Z" transform="translate(51.349 20.714)" fill="none" stroke="#000" stroke-linecap="round" stroke-linejoin="round" stroke-width="0.054"/>
            <line id="Línea_612" data-name="Línea 612" x1="12.249" y1="41.856" transform="translate(994.109 378.563)" fill="none" stroke="#000" stroke-linecap="round" stroke-linejoin="round" stroke-width="0.43" stroke-dasharray="1.075 0.645"/>
            <path id="Trazado_893228" data-name="Trazado 893228" d="M588.1,366.784l19.262-65.921,3.7-13.5-3.2-5.578-5.82,3.525-3.707,13.963,8.79,2.439" transform="translate(32.099 15.38)" fill="none" stroke="#000" stroke-linecap="round" stroke-linejoin="round" stroke-width="0.43" stroke-dasharray="1.075 0.645"/>
            <line id="Línea_613" data-name="Línea 613" y1="41.856" x2="12.249" transform="translate(601.618 380.151)" fill="none" stroke="#000" stroke-linecap="round" stroke-linejoin="round" stroke-width="0.43" stroke-dasharray="1.075 0.645"/>
          </g>
        </g>
      </g>
    </g>
    <path id="Trazado_896833" data-name="Trazado 896833" d="M.438-7.406A8.214,8.214,0,0,1-2.25-1.727,9.162,9.162,0,0,1-8.484.313,8.871,8.871,0,0,1-13.273-.977a8.461,8.461,0,0,1-3.2-3.664,13.223,13.223,0,0,1-1.172-5.516v-2.125A13.318,13.318,0,0,1-16.5-17.953a8.6,8.6,0,0,1,3.273-3.781A9.131,9.131,0,0,1-8.3-23.062a8.772,8.772,0,0,1,6.063,2.047A8.551,8.551,0,0,1,.438-15.234H-3.5a5.62,5.62,0,0,0-1.43-3.539A4.725,4.725,0,0,0-8.3-19.859a4.617,4.617,0,0,0-3.961,1.883,9.4,9.4,0,0,0-1.414,5.523v2.016a9.976,9.976,0,0,0,1.32,5.625A4.383,4.383,0,0,0-8.484-2.875a5.111,5.111,0,0,0,3.5-1.047A5.459,5.459,0,0,0-3.5-7.406ZM17.078-9.641H7.922V0H3.969V-22.75H18.422v3.188H7.922V-12.8h9.156Z" transform="translate(514.34 4045.887)" fill="#12263f"/>
    <path id="Trazado_896834" data-name="Trazado 896834" d="M-.867-7.406a8.214,8.214,0,0,1-2.687,5.68A9.162,9.162,0,0,1-9.789.313,8.871,8.871,0,0,1-14.578-.977a8.461,8.461,0,0,1-3.2-3.664,13.223,13.223,0,0,1-1.172-5.516v-2.125A13.318,13.318,0,0,1-17.8-17.953a8.6,8.6,0,0,1,3.273-3.781A9.131,9.131,0,0,1-9.6-23.062a8.772,8.772,0,0,1,6.063,2.047A8.551,8.551,0,0,1-.867-15.234H-4.8a5.62,5.62,0,0,0-1.43-3.539A4.725,4.725,0,0,0-9.6-19.859a4.617,4.617,0,0,0-3.961,1.883,9.4,9.4,0,0,0-1.414,5.523v2.016a9.976,9.976,0,0,0,1.32,5.625A4.383,4.383,0,0,0-9.789-2.875a5.111,5.111,0,0,0,3.5-1.047A5.459,5.459,0,0,0-4.8-7.406ZM2.664,0V-22.75h7.8A9.519,9.519,0,0,1,16.336-21.2a5.448,5.448,0,0,1,2.016,4.609,4.913,4.913,0,0,1-.844,2.813,5.431,5.431,0,0,1-2.469,1.938,5.021,5.021,0,0,1,2.852,1.883A5.484,5.484,0,0,1,18.9-6.641a6.057,6.057,0,0,1-2.055,4.922A8.934,8.934,0,0,1,10.961,0ZM6.617-10.266v7.109h4.391a4.249,4.249,0,0,0,2.906-.922,3.236,3.236,0,0,0,1.047-2.562q0-3.547-3.625-3.625Zm0-2.906h3.875a4.481,4.481,0,0,0,2.883-.836,2.864,2.864,0,0,0,1.039-2.367,2.9,2.9,0,0,0-.961-2.437,4.852,4.852,0,0,0-2.992-.75H6.617Z" transform="translate(1084.34 4045.887)" fill="#12263f"/>
    <path id="Trazado_893229" data-name="Trazado 893229" d="M-6699-5446.2v-530.062" transform="translate(7783.34 10031.541)" fill="none" stroke="#c6e6f2" stroke-width="6"/>
    <path id="Trazado_893230" data-name="Trazado 893230" d="M-6699-5446.2v-530.062" transform="translate(7213.84 10031.541)" fill="none" stroke="#c6e6f2" stroke-width="6"/>
  </g>
</svg>
