<svg xmlns="http://www.w3.org/2000/svg" width="104" height="104" viewBox="0 0 104 104">
  <g id="Grupo_1115334" data-name="Grupo 1115334" transform="translate(-777.782 -574.306)">
    <g id="Trazado_874818" data-name="Trazado 874818" transform="translate(777.782 574.306)" fill="#c7b8b4">
      <path d="M 52 103 C 45.11460113525391 103 38.43569946289062 101.6517105102539 32.1488151550293 98.99258422851562 C 26.07588577270508 96.42394256591797 20.62162780761719 92.74652862548828 15.93755722045898 88.06244659423828 C 11.25348567962646 83.37837219238281 7.576056957244873 77.92412567138672 5.007428646087646 71.8511962890625 C 2.348285675048828 65.56430053710938 1 58.88539886474609 1 52 C 1 45.11460113525391 2.348285675048828 38.43569946289062 5.007428646087646 32.1488151550293 C 7.576056957244873 26.07588577270508 11.25348567962646 20.62162780761719 15.93755722045898 15.93755722045898 C 20.62162780761719 11.25348567962646 26.07588577270508 7.576056957244873 32.1488151550293 5.007428646087646 C 38.43569946289062 2.348285675048828 45.11460113525391 1 52 1 C 58.88539886474609 1 65.56430053710938 2.348285675048828 71.8511962890625 5.007428646087646 C 77.92412567138672 7.576056957244873 83.37837219238281 11.25348567962646 88.06244659423828 15.93755722045898 C 92.74652862548828 20.62162780761719 96.42394256591797 26.07588577270508 98.99258422851562 32.1488151550293 C 101.6517105102539 38.43569946289062 103 45.11460113525391 103 52 C 103 58.88539886474609 101.6517105102539 65.56430053710938 98.99258422851562 71.8511962890625 C 96.42394256591797 77.92412567138672 92.74652862548828 83.37837219238281 88.06244659423828 88.06244659423828 C 83.37837219238281 92.74652862548828 77.92412567138672 96.42394256591797 71.8511962890625 98.99258422851562 C 65.56430053710938 101.6517105102539 58.88539886474609 103 52 103 Z" stroke="none"/>
      <path d="M 52 2 C 45.24916839599609 2 38.70132446289062 3.321708679199219 32.53835296630859 5.928428649902344 C 26.58463287353516 8.446647644042969 21.23721313476562 12.05210876464844 16.64466094970703 16.64466094970703 C 12.05210876464844 21.23721313476562 8.446647644042969 26.58463287353516 5.928428649902344 32.53835296630859 C 3.321708679199219 38.70132446289062 2 45.24916839599609 2 52 C 2 58.75084686279297 3.321708679199219 65.29867553710938 5.928428649902344 71.46164703369141 C 8.446647644042969 77.41536712646484 12.05210876464844 82.76278686523438 16.64466094970703 87.35533905029297 C 21.23721313476562 91.94789123535156 26.58463287353516 95.55335235595703 32.53835296630859 98.07157135009766 C 38.70132446289062 100.6782913208008 45.24916839599609 102 52 102 C 58.75084686279297 102 65.29867553710938 100.6782913208008 71.46164703369141 98.07157135009766 C 77.41536712646484 95.55335235595703 82.76278686523438 91.94789123535156 87.35533905029297 87.35533905029297 C 91.94789123535156 82.76278686523438 95.55335235595703 77.41536712646484 98.07157135009766 71.46164703369141 C 100.6782913208008 65.29867553710938 102 58.75084686279297 102 52 C 102 45.24916839599609 100.6782913208008 38.70132446289062 98.07157135009766 32.53835296630859 C 95.55335235595703 26.58463287353516 91.94789123535156 21.23721313476562 87.35533905029297 16.64466094970703 C 82.76278686523438 12.05210876464844 77.41536712646484 8.446647644042969 71.46164703369141 5.928428649902344 C 65.29867553710938 3.321708679199219 58.75084686279297 2 52 2 M 52 0 C 80.71881103515625 0 104 23.28119659423828 104 52 C 104 80.71881103515625 80.71881103515625 104 52 104 C 23.28119659423828 104 0 80.71881103515625 0 52 C 0 23.28119659423828 23.28119659423828 0 52 0 Z" stroke="none" fill="#fff"/>
    </g>
    <g id="carta-a" transform="translate(809.114 613.368)">
      <g id="Grupo_1114916" data-name="Grupo 1114916" transform="translate(0 0)">
        <g id="Grupo_1114915" data-name="Grupo 1114915">
          <g id="Grupo_1114911" data-name="Grupo 1114911" transform="translate(5.483 19.474)">
            <path id="Trazado_895746" data-name="Trazado 895746" d="M307.089,463.693a.383.383,0,0,1-.525-.07.349.349,0,0,1,.044-.5c.149-.113.446-.5.312-.618s-.384-.577-.245-.726a.374.374,0,0,1,.524-.021l.539.486c.152.135.362.319.465.408a.175.175,0,0,1-.022.3c-.116.073-.349.225-.518.338Z" transform="translate(-306.481 -461.665)"/>
          </g>
          <g id="Grupo_1114912" data-name="Grupo 1114912" transform="translate(0 23.541)">
            <path id="Trazado_895747" data-name="Trazado 895747" d="M246.985,539.525c-.2.009-.415.016-.472.016s-.2-.169-.2-.371.094-.369.2-.367h.1a22.56,22.56,0,0,0,2.372-.193.392.392,0,0,1,.433.314.35.35,0,0,1-.3.413Zm-3.773-.658a.348.348,0,0,1-.427.276l-2.354-.7a.346.346,0,0,1-.2-.465.4.4,0,0,1,.492-.217l2.2.653A.4.4,0,0,1,243.211,538.867Zm-5.687-2.435a.355.355,0,0,1-.51.061s-.576-.469-.964-.86c-.365-.367-.79-.886-.79-.886a.357.357,0,0,1,.059-.511.386.386,0,0,1,.528.061s.384.469.727.814c.364.366.887.793.887.793A.386.386,0,0,1,237.524,536.433Zm-3.757-4.893a.346.346,0,0,1-.464-.206l-.68-2.363a.348.348,0,0,1,.282-.424.4.4,0,0,1,.447.3l.634,2.2A.4.4,0,0,1,233.767,531.54Zm-.707-6.464a.393.393,0,0,1-.393.364.35.35,0,0,1-.347-.374l.274-2.437a.348.348,0,0,1,.421-.285.394.394,0,0,1,.3.444Zm1.467-5.848a.4.4,0,0,1-.512.166.345.345,0,0,1-.157-.482l1.306-2.088a.345.345,0,0,1,.5-.07.4.4,0,0,1,.074.533Z" transform="translate(-232.32 -516.675)"/>
          </g>
          <g id="Grupo_1114913" data-name="Grupo 1114913" transform="translate(20.055 43.746)">
            <path id="Trazado_895748" data-name="Trazado 895748" d="M506.63,791.2a.371.371,0,0,1-.382.357l-1.008-.034a.482.482,0,0,1-.443-.27c-.041-.142-.214-.186-.384-.1s-.7.147-.778-.038a.384.384,0,0,1,.185-.5l.62-.316c.178-.1.417-.231.53-.3s.251.04.307.235l.055.193a.544.544,0,0,0,.471.368l.47.016a.369.369,0,0,1,.357.381Z" transform="translate(-503.603 -789.985)"/>
          </g>
          <g id="Grupo_1114914" data-name="Grupo 1114914" transform="translate(0.05)">
            <path id="Trazado_895749" data-name="Trazado 895749" d="M267.049,243.794h-.673l-1.284-.009a.37.37,0,0,1,.009-.739s1.044.01,1.645.01h.507a.371.371,0,0,1,.373.367C267.626,243.624,267.216,243.794,267.049,243.794Zm-5.222-.432a.37.37,0,0,1-.378.361l-2.162-.054a.37.37,0,0,1,.021-.739l2.157.054A.372.372,0,0,1,261.827,243.362Zm9.1.161a.3.3,0,0,1-.405-.241.461.461,0,0,1,.293-.486l1.5-.923a.494.494,0,0,1,.575-.077.279.279,0,0,1,.061.454Zm2.916-4.875a.366.366,0,0,1-.388.346.376.376,0,0,1-.35-.392l.1-2.144a.373.373,0,0,1,.384-.356.368.368,0,0,1,.354.383Zm.217-5.8a.369.369,0,1,1-.739-.021l.013-.479c.018-.675.044-1.677.044-1.677a.369.369,0,1,1,.739.018s-.025,1-.044,1.68Zm.136-5.8a.37.37,0,1,1-.739-.015l.036-2.158a.37.37,0,0,1,.739.01Zm.08-5.8a.37.37,0,1,1-.739-.007l.013-2.158a.37.37,0,1,1,.739,0Zm-37.732-5.472a.363.363,0,0,1-.518-.016l-1.448-1.654a.355.355,0,0,1,.06-.509.388.388,0,0,1,.529.062l1.394,1.59A.378.378,0,0,1,236.54,215.775Zm37.29.043a.385.385,0,0,1-.412-.336L273.1,213.4a.387.387,0,0,1,.293-.444.356.356,0,0,1,.429.282l.333,2.182A.357.357,0,0,1,273.83,215.818Zm-40.437-4.8c-.2.023-.377-.068-.39-.2l0-.129c0-.033,0-.069,0-.106a7.6,7.6,0,0,1,.609-2.167.33.33,0,0,1,.471-.158.415.415,0,0,1,.173.518,6.291,6.291,0,0,0-.514,1.806c0,.03,0,.059,0,.088l0,.109C233.753,210.886,233.6,210.995,233.393,211.018Zm39.158-.833a.39.39,0,0,1-.493-.2l-.919-1.883a.39.39,0,0,1,.141-.515.352.352,0,0,1,.493.135l.973,1.993A.352.352,0,0,1,272.551,210.184Zm-36.311-4.211a.39.39,0,0,1-.544-.5l.093-.1c.563-.6,1.578-1.5,1.578-1.5a.358.358,0,0,1,.513.04.386.386,0,0,1-.041.529s-.968.853-1.51,1.433Zm33.349-.739a.389.389,0,0,1-.532-.029s-.98-1.047-1.674-1.63l-.033-.027c-.035-.03.041-.182.171-.339s.266-.26.3-.229l.033.028c.726.609,1.76,1.714,1.76,1.714A.354.354,0,0,1,269.589,205.234Zm-28.843-2.885a.385.385,0,0,1-.515-.127.357.357,0,0,1,.123-.5s1.258-.734,2.087-1.124l.061-.029c.068-.031.193.094.278.279s.1.361.035.391l-.06.028C241.953,201.644,240.746,202.349,240.746,202.349Zm24.4-.8a.388.388,0,0,1-.512.144l-1.889-.924a.387.387,0,0,1-.2-.493.355.355,0,0,1,.475-.193l1.986.971A.355.355,0,0,1,265.146,201.553Zm-19.2-1.5a.384.384,0,0,1-.467-.251.358.358,0,0,1,.243-.454l2.134-.542a.358.358,0,0,1,.431.282.384.384,0,0,1-.291.444Zm13.841-.671a.386.386,0,0,1-.452.278l-2.076-.4a.384.384,0,0,1-.316-.425.358.358,0,0,1,.413-.308l2.162.415A.356.356,0,0,1,259.791,199.382Zm-8.232-.336a.38.38,0,0,1-.4-.347.362.362,0,0,1,.339-.39s1.149-.069,1.918-.069h.278a.368.368,0,0,1,.362.376.373.373,0,0,1-.378.363h-.261C252.669,198.98,251.56,199.046,251.56,199.046Z" transform="translate(-233 -198.24)"/>
          </g>
        </g>
      </g>
      <path id="Trazado_895750" data-name="Trazado 895750" d="M278.722,274.463c-3.665,0-6.684-1.087-8.731-3.145a11.217,11.217,0,0,1-3-8.135,11.5,11.5,0,0,1,4.026-9.081A13.853,13.853,0,0,1,280,251a13.123,13.123,0,0,1,5.85,1.294,4.084,4.084,0,0,0-.989-2.467,4.619,4.619,0,0,0-3.43-1.113,10.382,10.382,0,0,0-5.256,1.936c-.274.172-.491.308-.663.395a1.254,1.254,0,0,1-1.205-.211,31.119,31.119,0,0,1-4.221-3.708c-2.971-3.022-3.021-3.782-3.022-4.1-.029-.886,1.1-2.422,2.091-3.478a19.252,19.252,0,0,1,5.863-4.2,24.124,24.124,0,0,1,16.811-1.091,17.028,17.028,0,0,1,5.841,3.143c3.6,3.021,5.506,7.487,5.506,12.914,0,4.116-.081,9.5-.217,14.392-.217,7.806-.371,8.115-.464,8.3-.227.454-.747.5-1.249.536-.381.03-.924.052-1.612.063-1.141.019-2.714.012-4.673-.021-3.327-.056-6.671-.169-6.7-.17l-.538-.018-.662-2.316a10.416,10.416,0,0,1-1.647,1.412A11.5,11.5,0,0,1,278.722,274.463ZM280,252.479c-5.555,0-11.533,3.35-11.533,10.7,0,6.229,3.737,9.8,10.253,9.8a9.416,9.416,0,0,0,8.027-3.865l.92-1.289,1.177,4.119c5.161.168,10.766.253,12.332.115.2-2.324.52-13.263.52-21.755,0-11.5-8.68-15.6-16.8-15.6a20.574,20.574,0,0,0-12.316,3.784,11.589,11.589,0,0,0-4.031,4.481,17.1,17.1,0,0,0,3.08,3.6,26.3,26.3,0,0,0,3.465,3.007l.3-.185a11.648,11.648,0,0,1,6.042-2.163,6,6,0,0,1,4.492,1.563,6.618,6.618,0,0,1,1.442,4.922l-.05,1.569-1.178-1.039C284.937,253.191,282.47,252.479,280,252.479Zm2.861,12.2a2.6,2.6,0,0,1-2.7-2.848,2.645,2.645,0,0,1,2.7-2.772,2.711,2.711,0,0,1,2.772,2.772A2.608,2.608,0,0,1,282.863,264.676Zm0-4.141a1.185,1.185,0,0,0-1.218,1.294c0,.921.4,1.369,1.218,1.369.6,0,1.294-.155,1.294-1.369A1.241,1.241,0,0,0,282.863,260.535Z" transform="translate(-264.427 -230.643)"/>
    </g>
  </g>
</svg>
