<svg xmlns="http://www.w3.org/2000/svg" width="60" height="58" viewBox="0 0 60 58">
  <g id="Grupo_1115339" data-name="Grupo 1115339" transform="translate(-180.051 -3786.887)">
    <g id="Grupo_1114523" data-name="Grupo 1114523" transform="translate(2.32 1742.887)">
      <circle id="Elipse_11502" data-name="Elipse 11502" cx="29" cy="29" r="29" transform="translate(179.73 2044)" fill="#727aa6"/>
      <circle id="Elipse_11503" data-name="Elipse 11503" cx="29" cy="29" r="29" transform="translate(177.73 2044)" fill="#c6cadb"/>
      <g id="Grupo_1101579" data-name="Grupo 1101579" transform="translate(0.934 0.934)">
        <path id="Trazado_892481" data-name="Trazado 892481" d="M-17820.2-9542.6h26.162v22.151l-12.986,4.584-13.176-4.584Z" transform="translate(18014.424 11607.425)" fill="#fff"/>
        <g id="coser" transform="translate(187.73 2052.666)">
          <path id="Trazado_892474" data-name="Trazado 892474" d="M100.937,2.6a2.439,2.439,0,0,0-4.29-1.74.573.573,0,0,0-.062.085l-.627,1.032H77.92a2.631,2.631,0,0,0,0,5.262H91.076a.658.658,0,0,0,0-1.316H77.92a1.316,1.316,0,1,1,0-2.631H95.158l-4.8,7.893h-17.7a.658.658,0,0,0-.658.658V34.2a.658.658,0,0,0,.441.621l13.156,4.6a.662.662,0,0,0,.434,0l13.156-4.6a.658.658,0,0,0,.441-.621V11.839a.657.657,0,0,0-.658-.658H93.9l6.135-6.853a2.434,2.434,0,0,0,.9-1.732Zm-2.626,9.9v1.316H97a.658.658,0,1,0,0,1.316h1.316V33.737l-12.5,4.374-12.5-4.374V15.128h1.316a.658.658,0,0,0,0-1.316H73.316V12.5H89.559l-2.992,4.921a.658.658,0,0,0,1.052.78l5.1-5.7Zm.874-9.174a.656.656,0,0,0-.092.085l-6.959,7.774H91.9l4.8-7.893h1.613a.658.658,0,0,0,0-1.316H97.5l.181-.3a1.11,1.11,0,0,1,.779-.358,1.134,1.134,0,0,1,.84.327,1.116,1.116,0,0,1-.114,1.68Zm0,0" transform="translate(-66.08 0.001)"/>
          <path id="Trazado_892475" data-name="Trazado 892475" d="M129.973,168h-1.316a.658.658,0,1,0,0,1.316h1.316a.658.658,0,1,0,0-1.316Zm0,0" transform="translate(-117.476 -154.187)"/>
          <path id="Trazado_892476" data-name="Trazado 892476" d="M177.973,168h-1.316a.658.658,0,1,0,0,1.316h1.316a.658.658,0,1,0,0-1.316Zm0,0" transform="translate(-161.529 -154.187)"/>
          <path id="Trazado_892477" data-name="Trazado 892477" d="M226.631,168.658a.657.657,0,0,0-.658-.658h-1.316a.658.658,0,1,0,0,1.316h1.316a.657.657,0,0,0,.658-.658Zm0,0" transform="translate(-205.582 -154.187)"/>
          <path id="Trazado_892478" data-name="Trazado 892478" d="M320.658,169.316h1.316a.658.658,0,0,0,0-1.316h-1.316a.658.658,0,1,0,0,1.316Zm0,0" transform="translate(-293.689 -154.187)"/>
          <path id="Trazado_892479" data-name="Trazado 892479" d="M409.973,72h-1.316a.658.658,0,1,0,0,1.316h1.316a2.634,2.634,0,0,1,2.631,2.631v1.316a2.633,2.633,0,0,1-2.631,2.631.658.658,0,0,0,0,1.316,3.951,3.951,0,0,0,3.947-3.947V75.947A3.951,3.951,0,0,0,409.973,72Zm0,0" transform="translate(-374.453 -66.08)"/>
          <path id="Trazado_892480" data-name="Trazado 892480" d="M.658,174.578a.657.657,0,0,0,.658-.658v-1.973a2.634,2.634,0,0,1,2.631-2.631.658.658,0,1,0,0-1.316A3.951,3.951,0,0,0,0,171.947v1.973a.657.657,0,0,0,.658.658Zm0,0" transform="translate(0 -154.187)"/>
        </g>
      </g>
    </g>
  </g>
</svg>
