<svg xmlns="http://www.w3.org/2000/svg" width="130" height="130" viewBox="0 0 130 130">
  <g id="Grupo_1115331" data-name="Grupo 1115331" transform="translate(-321.34 -6082.827)">
    <g id="Trazado_874818" data-name="Trazado 874818" transform="translate(321.34 6082.827)" fill="#a6826d">
      <path d="M 65 129 C 56.35961532592773 129 47.97821807861328 127.3079833984375 40.08861541748047 123.9709701538086 C 36.29658508300781 122.3670654296875 32.63906478881836 120.3818359375 29.21769905090332 118.0703964233398 C 25.82856750488281 115.7807464599609 22.64155006408691 113.1512145996094 19.74516677856445 110.2548370361328 C 16.84878349304199 107.3584518432617 14.2192497253418 104.1714324951172 11.92959976196289 100.7823181152344 C 9.618166923522949 97.36093139648438 7.632933139801025 93.70343017578125 6.029033184051514 89.91138458251953 C 2.6920166015625 82.02178192138672 1 73.640380859375 1 65 C 1 56.35961532592773 2.6920166015625 47.97821807861328 6.029033184051514 40.08861541748047 C 7.632933139801025 36.29658508300781 9.618166923522949 32.63906478881836 11.92959976196289 29.21769905090332 C 14.2192497253418 25.82856750488281 16.84878349304199 22.64155006408691 19.74516677856445 19.74516677856445 C 22.64155006408691 16.84878349304199 25.82856750488281 14.2192497253418 29.21769905090332 11.92959976196289 C 32.63906478881836 9.618166923522949 36.29658508300781 7.632933139801025 40.08861541748047 6.029033184051514 C 47.97821807861328 2.6920166015625 56.35961532592773 1 65 1 C 73.640380859375 1 82.02178192138672 2.6920166015625 89.91138458251953 6.029033184051514 C 93.70343017578125 7.632933139801025 97.36093139648438 9.618166923522949 100.7823181152344 11.92959976196289 C 104.1714324951172 14.2192497253418 107.3584518432617 16.84878349304199 110.2548370361328 19.74516677856445 C 113.1512145996094 22.64155006408691 115.7807464599609 25.82856750488281 118.0703964233398 29.21769905090332 C 120.3818359375 32.63906478881836 122.3670654296875 36.29658508300781 123.9709701538086 40.08861541748047 C 127.3079833984375 47.97821807861328 129 56.35961532592773 129 65 C 129 73.640380859375 127.3079833984375 82.02178192138672 123.9709701538086 89.91138458251953 C 122.3670654296875 93.70343017578125 120.3818359375 97.36093139648438 118.0703964233398 100.7823181152344 C 115.7807464599609 104.1714324951172 113.1512145996094 107.3584518432617 110.2548370361328 110.2548370361328 C 107.3584518432617 113.1512145996094 104.1714324951172 115.7807464599609 100.7823181152344 118.0703964233398 C 97.36093139648438 120.3818359375 93.70343017578125 122.3670654296875 89.91138458251953 123.9709701538086 C 82.02178192138672 127.3079833984375 73.640380859375 129 65 129 Z" stroke="none"/>
      <path d="M 65 2 C 56.49416351318359 2 48.24383544921875 3.665435791015625 40.47816467285156 6.950035095214844 C 36.74559783935547 8.528778076171875 33.14536285400391 10.48294830322266 29.77748870849609 12.75821685791016 C 26.44110870361328 15.01223754882812 23.30365753173828 17.60089111328125 20.4522705078125 20.4522705078125 C 17.60089111328125 23.30365753173828 15.01223754882812 26.44110870361328 12.75821685791016 29.77748870849609 C 10.48294830322266 33.14536285400391 8.528778076171875 36.74559783935547 6.950035095214844 40.47816467285156 C 3.665435791015625 48.24383544921875 2 56.49416351318359 2 65 C 2 73.50583648681641 3.665435791015625 81.75616455078125 6.950035095214844 89.52183532714844 C 8.528778076171875 93.25439453125 10.48294830322266 96.85463714599609 12.75821685791016 100.2225112915039 C 15.01223754882812 103.5588912963867 17.60089111328125 106.6963500976562 20.4522705078125 109.5477294921875 C 23.30365753173828 112.3991088867188 26.44110870361328 114.9877624511719 29.77748870849609 117.2417831420898 C 33.14536285400391 119.5170516967773 36.74559783935547 121.4712219238281 40.47816467285156 123.0499649047852 C 48.24383544921875 126.3345642089844 56.49416351318359 128 65 128 C 73.50583648681641 128 81.75616455078125 126.3345642089844 89.52183532714844 123.0499649047852 C 93.25439453125 121.4712219238281 96.85463714599609 119.5170516967773 100.2225112915039 117.2417831420898 C 103.5588912963867 114.9877624511719 106.6963500976562 112.3991088867188 109.5477294921875 109.5477294921875 C 112.3991088867188 106.6963500976562 114.9877624511719 103.5588912963867 117.2417831420898 100.2225112915039 C 119.5170516967773 96.85463714599609 121.4712219238281 93.25439453125 123.0499649047852 89.52183532714844 C 126.3345642089844 81.75616455078125 128 73.50583648681641 128 65 C 128 56.49416351318359 126.3345642089844 48.24383544921875 123.0499649047852 40.47816467285156 C 121.4712219238281 36.74559783935547 119.5170516967773 33.14536285400391 117.2417831420898 29.77748870849609 C 114.9877624511719 26.44110870361328 112.3991088867188 23.30365753173828 109.5477294921875 20.4522705078125 C 106.6963500976562 17.60089111328125 103.5588912963867 15.01223754882812 100.2225112915039 12.75821685791016 C 96.85463714599609 10.48294830322266 93.25439453125 8.528778076171875 89.52183532714844 6.950035095214844 C 81.75616455078125 3.665435791015625 73.50583648681641 2 65 2 M 65 0 C 100.8985137939453 0 130 29.10149383544922 130 65 C 130 100.8985137939453 100.8985137939453 130 65 130 C 29.10149383544922 130 0 100.8985137939453 0 65 C 0 29.10149383544922 29.10149383544922 0 65 0 Z" stroke="none" fill="#fff"/>
    </g>
    <g id="one_8632785" transform="translate(367.067 6104.586)">
      <g id="Grupo_1114698" data-name="Grupo 1114698" transform="translate(0 0)">
        <g id="Grupo_1114696" data-name="Grupo 1114696" transform="translate(6.068 5.998)">
          <path id="Trazado_893277" data-name="Trazado 893277" d="M95.022,110.039h-.078a14.432,14.432,0,0,1-5.953-1.209.573.573,0,0,1,.526-1.019,13.358,13.358,0,0,0,5.454,1.082h.056a.573.573,0,0,1,0,1.146Zm5.589-1.363a.573.573,0,0,1-.342-1.033,4.832,4.832,0,0,0,1.664-4.254l.015-.575a.573.573,0,0,1,1.146.034l-.015.541a5.971,5.971,0,0,1-2.127,5.174.57.57,0,0,1-.341.113ZM86.6,104.035a.573.573,0,0,1-.572-.543c-.02-.389-.027-.792-.028-1.206.026-1.584.051-3.143.074-4.691a.6.6,0,0,1,.582-.565.573.573,0,0,1,.565.582q-.035,2.323-.074,4.683c0,.385.007.768.026,1.138a.573.573,0,0,1-.543.6H86.6Zm16.025-6.488h0a.573.573,0,0,1-.57-.577q.008-1.151.007-2.331c0-1.144,0-2.314-.012-3.52a.573.573,0,0,1,.57-.577.554.554,0,0,1,.577.57c.008,1.208.013,2.381.012,3.527q0,1.186-.007,2.338A.573.573,0,0,1,102.622,97.547Zm-15.894-5.23H86.72a.573.573,0,0,1-.566-.58q.038-2.955.068-5.858a.56.56,0,0,1,.579-.567.573.573,0,0,1,.567.579q-.03,2.906-.068,5.861A.573.573,0,0,1,86.728,92.316Zm15.836-6.486a.573.573,0,0,1-.573-.568l-.011-1.084c-.016-1.532-.033-3.119-.048-4.774a.573.573,0,0,1,.568-.578h.005a.573.573,0,0,1,.573.568c.015,1.654.032,3.24.048,4.772l.011,1.085a.573.573,0,0,1-.568.579h-.006ZM86.849,80.6h0a.573.573,0,0,1-.569-.578q.023-2.949.038-5.858a.573.573,0,0,1,.573-.57h0a.573.573,0,0,1,.57.576q-.015,2.911-.038,5.861a.573.573,0,0,1-.573.569Zm15.616-6.483a.573.573,0,0,1-.573-.571q-.01-2.218-.011-4.606V67.682a.573.573,0,0,1,.573-.572h0a.573.573,0,0,1,.572.574v1.254q0,2.388.011,4.6a.573.573,0,0,1-.571.576h0ZM86.909,68.878h0a.573.573,0,0,1-.572-.575q.006-2.528.006-5.037a4.624,4.624,0,0,0-.058-.727.573.573,0,0,1,1.132-.181,5.776,5.776,0,0,1,.072.907q0,2.511-.006,5.039a.573.573,0,0,1-.573.572ZM102.48,62.4h0a.573.573,0,0,1-.569-.577q.021-2.81.062-5.861a.573.573,0,1,1,1.146.016q-.041,3.052-.062,5.854a.573.573,0,0,1-.573.569ZM78.534,59.023l-.05,0a1.724,1.724,0,0,1-1.473-.9.573.573,0,1,1,1.055-.449.713.713,0,0,0,.484.205c.259-.014.647-.067,1.057-.123.513-.07,1.052-.142,1.631-.194a5.744,5.744,0,0,1,2.083.194.573.573,0,0,1-.313,1.1,4.551,4.551,0,0,0-1.666-.155c-.561.051-1.083.12-1.581.188-.458.062-.89.121-1.2.134h-.024Zm.628-6.175A.581.581,0,0,1,79,52.825a.574.574,0,0,1-.392-.71c.617-2.141,1.139-4,1.587-5.631a.573.573,0,0,1,1.106.3c-.449,1.633-.972,3.5-1.591,5.645a.574.574,0,0,1-.551.414Zm23.476-2.165h-.011a.574.574,0,0,1-.562-.584q.055-2.825.129-5.86a.573.573,0,1,1,1.146.028q-.075,3.034-.128,5.854a.573.573,0,0,1-.573.562ZM82.261,41.551a.573.573,0,0,1-.555-.718l.219-.842c.564-2.17.936-3.6,1.345-4.839a.573.573,0,0,1,1.088.36c-.4,1.2-.765,2.619-1.323,4.767l-.219.844a.574.574,0,0,1-.554.428Zm20.391-2.572a.573.573,0,0,1-.565-.482,9.953,9.953,0,0,0-.975-3.033,4.313,4.313,0,0,0-1.457-1.6.573.573,0,1,1,.64-.951,5.466,5.466,0,0,1,1.829,2.014,11.1,11.1,0,0,1,1.095,3.39.573.573,0,0,1-.566.664ZM88.559,33.188a.573.573,0,0,1-.121-1.134,26.691,26.691,0,0,1,5.6-.647q.173,0,.339,0a.573.573,0,0,1,.563.584.582.582,0,0,1-.584.563,25.227,25.227,0,0,0-5.681.619.585.585,0,0,1-.122.013Z" transform="translate(-76.964 -31.407)" fill="#fff"/>
        </g>
        <g id="Grupo_1114697" data-name="Grupo 1114697">
          <path id="Trazado_893278" data-name="Trazado 893278" d="M90.648,111.592q-.181,0-.363,0C80.3,111.22,75.461,106.7,75.461,97.776c.221-13.183.334-25.416.343-37.358a14.046,14.046,0,0,1-1.891.158h-.055A7.64,7.64,0,0,1,66.564,54.8a6.66,6.66,0,0,1,.313-3.939l.046-.154c2.518-8.457,3.806-13.416,4.658-16.7.662-2.55,1.1-4.235,1.669-5.839a8.756,8.756,0,0,1,6.474-5.718c4.153-1.229,17.94-4.43,23.188,5.165a18.863,18.863,0,0,1,2.01,9.056c-.541,19.786-.4,32.815-.294,43.284.077,7.327.138,13.114-.051,19.01a12.073,12.073,0,0,1-3.387,8.956c-2.44,2.4-6.08,3.668-10.543,3.668ZM78.671,57.231V58.8c0,12.471-.113,25.229-.344,39,0,7.338,3.6,10.612,12.033,10.925,3.816.055,6.874-.925,8.82-2.843a9.366,9.366,0,0,0,2.533-6.96c.187-5.88.127-11.64.05-18.933-.111-10.493-.248-23.552.294-43.353a16.058,16.058,0,0,0-1.672-7.667c-4.217-7.709-16.277-4.827-19.874-3.76l-.06.017a5.967,5.967,0,0,0-4.5,3.914c-.524,1.477-.926,3.025-1.592,5.591-.857,3.3-2.153,8.289-4.686,16.8l-.048.161a4.048,4.048,0,0,0-.3,2.343l.028.107a4.773,4.773,0,0,0,4.589,3.572,13.679,13.679,0,0,0,1.725-.165c.454-.062.93-.126,1.442-.173Z" transform="translate(-66.378 -20.942)" fill="#fff"/>
        </g>
      </g>
    </g>
  </g>
</svg>
