<svg xmlns="http://www.w3.org/2000/svg" width="130" height="130" viewBox="0 0 130 130">
  <g id="Grupo_1115332" data-name="Grupo 1115332" transform="translate(-735.34 -6082.827)">
    <g id="Trazado_874818" data-name="Trazado 874818" transform="translate(735.34 6082.827)" fill="#a6826d">
      <path d="M 65 129 C 56.35961532592773 129 47.97821807861328 127.3079833984375 40.08861541748047 123.9709701538086 C 36.29658508300781 122.3670654296875 32.63906478881836 120.3818359375 29.21769905090332 118.0703964233398 C 25.82856750488281 115.7807464599609 22.64155006408691 113.1512145996094 19.74516677856445 110.2548370361328 C 16.84878349304199 107.3584518432617 14.2192497253418 104.1714324951172 11.92959976196289 100.7823181152344 C 9.618166923522949 97.36093139648438 7.632933139801025 93.70343017578125 6.029033184051514 89.91138458251953 C 2.6920166015625 82.02178192138672 1 73.640380859375 1 65 C 1 56.35961532592773 2.6920166015625 47.97821807861328 6.029033184051514 40.08861541748047 C 7.632933139801025 36.29658508300781 9.618166923522949 32.63906478881836 11.92959976196289 29.21769905090332 C 14.2192497253418 25.82856750488281 16.84878349304199 22.64155006408691 19.74516677856445 19.74516677856445 C 22.64155006408691 16.84878349304199 25.82856750488281 14.2192497253418 29.21769905090332 11.92959976196289 C 32.63906478881836 9.618166923522949 36.29658508300781 7.632933139801025 40.08861541748047 6.029033184051514 C 47.97821807861328 2.6920166015625 56.35961532592773 1 65 1 C 73.640380859375 1 82.02178192138672 2.6920166015625 89.91138458251953 6.029033184051514 C 93.70343017578125 7.632933139801025 97.36093139648438 9.618166923522949 100.7823181152344 11.92959976196289 C 104.1714324951172 14.2192497253418 107.3584518432617 16.84878349304199 110.2548370361328 19.74516677856445 C 113.1512145996094 22.64155006408691 115.7807464599609 25.82856750488281 118.0703964233398 29.21769905090332 C 120.3818359375 32.63906478881836 122.3670654296875 36.29658508300781 123.9709701538086 40.08861541748047 C 127.3079833984375 47.97821807861328 129 56.35961532592773 129 65 C 129 73.640380859375 127.3079833984375 82.02178192138672 123.9709701538086 89.91138458251953 C 122.3670654296875 93.70343017578125 120.3818359375 97.36093139648438 118.0703964233398 100.7823181152344 C 115.7807464599609 104.1714324951172 113.1512145996094 107.3584518432617 110.2548370361328 110.2548370361328 C 107.3584518432617 113.1512145996094 104.1714324951172 115.7807464599609 100.7823181152344 118.0703964233398 C 97.36093139648438 120.3818359375 93.70343017578125 122.3670654296875 89.91138458251953 123.9709701538086 C 82.02178192138672 127.3079833984375 73.640380859375 129 65 129 Z" stroke="none"/>
      <path d="M 65 2 C 56.49416351318359 2 48.24383544921875 3.665435791015625 40.47816467285156 6.950035095214844 C 36.74559783935547 8.528778076171875 33.14536285400391 10.48294830322266 29.77748870849609 12.75821685791016 C 26.44110870361328 15.01223754882812 23.30365753173828 17.60089111328125 20.4522705078125 20.4522705078125 C 17.60089111328125 23.30365753173828 15.01223754882812 26.44110870361328 12.75821685791016 29.77748870849609 C 10.48294830322266 33.14536285400391 8.528778076171875 36.74559783935547 6.950035095214844 40.47816467285156 C 3.665435791015625 48.24383544921875 2 56.49416351318359 2 65 C 2 73.50583648681641 3.665435791015625 81.75616455078125 6.950035095214844 89.52183532714844 C 8.528778076171875 93.25439453125 10.48294830322266 96.85463714599609 12.75821685791016 100.2225112915039 C 15.01223754882812 103.5588912963867 17.60089111328125 106.6963500976562 20.4522705078125 109.5477294921875 C 23.30365753173828 112.3991088867188 26.44110870361328 114.9877624511719 29.77748870849609 117.2417831420898 C 33.14536285400391 119.5170516967773 36.74559783935547 121.4712219238281 40.47816467285156 123.0499649047852 C 48.24383544921875 126.3345642089844 56.49416351318359 128 65 128 C 73.50583648681641 128 81.75616455078125 126.3345642089844 89.52183532714844 123.0499649047852 C 93.25439453125 121.4712219238281 96.85463714599609 119.5170516967773 100.2225112915039 117.2417831420898 C 103.5588912963867 114.9877624511719 106.6963500976562 112.3991088867188 109.5477294921875 109.5477294921875 C 112.3991088867188 106.6963500976562 114.9877624511719 103.5588912963867 117.2417831420898 100.2225112915039 C 119.5170516967773 96.85463714599609 121.4712219238281 93.25439453125 123.0499649047852 89.52183532714844 C 126.3345642089844 81.75616455078125 128 73.50583648681641 128 65 C 128 56.49416351318359 126.3345642089844 48.24383544921875 123.0499649047852 40.47816467285156 C 121.4712219238281 36.74559783935547 119.5170516967773 33.14536285400391 117.2417831420898 29.77748870849609 C 114.9877624511719 26.44110870361328 112.3991088867188 23.30365753173828 109.5477294921875 20.4522705078125 C 106.6963500976562 17.60089111328125 103.5588912963867 15.01223754882812 100.2225112915039 12.75821685791016 C 96.85463714599609 10.48294830322266 93.25439453125 8.528778076171875 89.52183532714844 6.950035095214844 C 81.75616455078125 3.665435791015625 73.50583648681641 2 65 2 M 65 0 C 100.8985137939453 0 130 29.10149383544922 130 65 C 130 100.8985137939453 100.8985137939453 130 65 130 C 29.10149383544922 130 0 100.8985137939453 0 65 C 0 29.10149383544922 29.10149383544922 0 65 0 Z" stroke="none" fill="#fff"/>
    </g>
    <g id="two_8632817" transform="translate(767.921 6104.586)">
      <g id="Grupo_1114706" data-name="Grupo 1114706" transform="translate(0 0)">
        <g id="Grupo_1114704" data-name="Grupo 1114704" transform="translate(6.071 6.017)">
          <path id="Trazado_893282" data-name="Trazado 893282" d="M91.437,109.9h-.149c-1.743,0-3.6-.018-5.668-.057a.573.573,0,0,1-.563-.584.588.588,0,0,1,.584-.563c2.064.038,3.911.057,5.647.057h.149a.573.573,0,1,1,0,1.146Zm5.657-.077a.573.573,0,0,1-.016-1.146c1.884-.053,3.66-.131,5.43-.239.048,0,.1-.01.152-.017a.573.573,0,1,1,.168,1.134c-.071.011-.15.019-.238.027-1.8.11-3.584.189-5.481.242Zm-17.119-.111h-.015l-1.49-.04c-1.375-.037-2.766-.074-4.164-.107a.573.573,0,0,1,.013-1.146h.014c1.4.033,2.791.07,4.168.107l1.489.04a.573.573,0,0,1-.015,1.146Zm-11.313-.245h-.005q-1.043-.01-2.079-.01c-.394-.018-.82-.025-1.35-.025-.456,0-.957.006-1.48.012l-.736.008H63A.573.573,0,0,1,63,108.307l.734-.008c.528-.006,1.033-.012,1.494-.012.551,0,.994.008,1.377.026.665,0,1.364,0,2.063.01a.573.573,0,0,1-.005,1.146Zm-10.911-1.246a.573.573,0,0,1-.478-.256,3.546,3.546,0,0,1-.255-.459,7.457,7.457,0,0,1-.554-3.159,17.275,17.275,0,0,1,.168-2.3.573.573,0,0,1,1.136.154,16.192,16.192,0,0,0-.158,2.15,6.385,6.385,0,0,0,.445,2.673,2.407,2.407,0,0,0,.173.312.573.573,0,0,1-.477.89Zm46.891-3.716H104.6a.571.571,0,0,1-.535-.6c.044-.579.093-1.212.093-1.676a1.938,1.938,0,0,0-.028-.434l-.039-.151c-.194-.794-1.2-1.289-2.006-1.564a.573.573,0,0,1,.37-1.085c1.57.535,2.5,1.335,2.75,2.377l.031.122a2.906,2.906,0,0,1,.068.735c0,.508-.051,1.165-.1,1.744a.576.576,0,0,1-.572.532ZM74.147,100.93a.6.6,0,0,1-.1-.009,5.762,5.762,0,0,1-4.7-3.646.573.573,0,0,1,1.069-.413,4.628,4.628,0,0,0,3.835,2.931.573.573,0,0,1-.1,1.137Zm5.627-.168a.573.573,0,0,1-.069-1.142l.733-.09c1.657-.2,3.285-.406,4.891-.585a.573.573,0,0,1,.127,1.139c-1.6.179-3.224.379-4.877.583l-.734.091A.612.612,0,0,1,79.774,100.762Zm11.251-1.189a.573.573,0,0,1-.036-1.145c2.067-.134,3.9-.181,5.7-.145a.573.573,0,0,1-.023,1.146c-1.769-.036-3.57.011-5.605.143ZM58.509,97.2a.574.574,0,0,1-.546-.748c.252-.789.541-1.62.858-2.47a15.409,15.409,0,0,1,1.394-2.858.573.573,0,1,1,.971.61,14.262,14.262,0,0,0-1.291,2.648c-.311.834-.593,1.648-.84,2.42a.574.574,0,0,1-.546.4Zm12.165-4.882a.573.573,0,0,1-.45-.927,11.465,11.465,0,0,1,2.835-2.437c.079-.052.161-.1.244-.151q.808-.471,1.6-.914a.573.573,0,0,1,.559,1q-.784.438-1.584.9c-.066.038-.13.078-.193.119A10.455,10.455,0,0,0,71.125,92.1.572.572,0,0,1,70.674,92.317Zm-6.052-4.335a.573.573,0,0,1-.324-1.047q.236-.161.482-.317l.084-.055c1.262-.841,2.654-1.711,4.254-2.659a.573.573,0,0,1,.584.986c-1.582.937-2.957,1.8-4.2,2.628l-.1.066q-.23.146-.451.3a.572.572,0,0,1-.323.1Zm15.566-1.658a.573.573,0,0,1-.257-1.086c1.689-.844,3.279-1.6,4.817-2.333l.26-.124.272.505.221.53-.252.12c-1.541.734-3.126,1.488-4.806,2.327A.57.57,0,0,1,80.188,86.323ZM74.32,82.156a.573.573,0,0,1-.282-1.073l.242-.135c1.54-.867,3.114-1.752,4.664-2.662a.573.573,0,0,1,.58.989c-1.559.915-3.137,1.8-4.664,2.662l-.259.146a.574.574,0,0,1-.281.074Zm16.039-.79a.573.573,0,0,1-.266-1.081,39.708,39.708,0,0,0,4.778-2.865.573.573,0,1,1,.667.933A40.833,40.833,0,0,1,90.623,81.3.57.57,0,0,1,90.359,81.366Zm-6.32-5a.573.573,0,0,1-.318-1.05c1.371-.913,2.605-1.8,3.773-2.71.06-.047.118-.094.175-.144q.262-.226.52-.463a.573.573,0,0,1,.775.845q-.271.249-.547.487-.108.092-.219.179c-1.19.928-2.446,1.83-3.842,2.76A.571.571,0,0,1,84.038,76.368Zm15.337-1.7a.573.573,0,0,1-.437-.944c.35-.412.69-.846,1.011-1.289a31.382,31.382,0,0,0,2.018-3.326.573.573,0,0,1,1.015.533,32.569,32.569,0,0,1-2.1,3.456c-.344.476-.7.933-1.071,1.367A.572.572,0,0,1,99.376,74.664Zm-7.108-5.94a.573.573,0,0,1-.471-.9,26.2,26.2,0,0,0,2.652-4.849.573.573,0,1,1,1.059.439,27.348,27.348,0,0,1-2.768,5.062.573.573,0,0,1-.472.247ZM64.76,66.577a.573.573,0,0,1-.049-1.144,7.686,7.686,0,0,0,4.783-1.943.573.573,0,0,1,.8.821,8.806,8.806,0,0,1-5.484,2.264l-.05,0Zm-5.519-.858a.57.57,0,0,1-.256-.06,7.172,7.172,0,0,1-3.5-3.7c-.118-.271-.227-.557-.323-.85a.573.573,0,1,1,1.089-.358c.085.259.181.511.285.75a5.992,5.992,0,0,0,2.956,3.13.573.573,0,0,1-.257,1.086Zm45.423-.983a.574.574,0,0,1-.546-.749,29.967,29.967,0,0,0,1.206-5.411.573.573,0,1,1,1.137.142,31.092,31.092,0,0,1-1.252,5.619A.573.573,0,0,1,104.664,64.735ZM71.5,59.282a.573.573,0,0,1-.565-.484,11,11,0,0,0-2.268-4.81.573.573,0,1,1,.91-.7,11.962,11.962,0,0,1,2.49,5.329.573.573,0,0,1-.567.662Zm24.963-.956a.582.582,0,0,1-.065,0,.573.573,0,0,1-.505-.634,20.7,20.7,0,0,0,.13-2.315A20.914,20.914,0,0,0,95.78,52.2a.573.573,0,1,1,1.133-.175,21.9,21.9,0,0,1,.12,5.792.573.573,0,0,1-.569.509ZM55.176,55.908l-.044,0a.573.573,0,0,1-.528-.615,25.863,25.863,0,0,1,1.119-5.668.573.573,0,0,1,1.094.343,24.717,24.717,0,0,0-1.069,5.413A.573.573,0,0,1,55.176,55.908Zm50.834-2.333a.573.573,0,0,1-.57-.523,22.936,22.936,0,0,0-1.128-5.389.573.573,0,1,1,1.085-.371,24.094,24.094,0,0,1,1.185,5.659.573.573,0,0,1-.521.621l-.051,0ZM66.42,49.321a.573.573,0,0,1-.561-.459,8.578,8.578,0,0,1-.172-1.7,8.811,8.811,0,0,1,.754-3.54q.139-.317.3-.619a.573.573,0,1,1,1.016.531q-.14.267-.262.547a7.674,7.674,0,0,0-.658,3.081,7.416,7.416,0,0,0,.149,1.476.573.573,0,0,1-.562.687Zm28.328-2.044a.573.573,0,0,1-.523-.338,18.219,18.219,0,0,0-2.951-4.592.573.573,0,0,1,.83-.79c.012.012.028.03.039.043a19.313,19.313,0,0,1,3.127,4.867.574.574,0,0,1-.522.809Zm-36.2-2.072a.573.573,0,0,1-.491-.868,24.729,24.729,0,0,1,3.517-4.584.573.573,0,1,1,.818.8,23.589,23.589,0,0,0-3.354,4.372A.573.573,0,0,1,58.551,45.205Zm43.82-2.22a.573.573,0,0,1-.479-.258q-.332-.5-.7-1a18.353,18.353,0,0,0-3-3.008.573.573,0,0,1,.716-.9,19.508,19.508,0,0,1,3.2,3.21c.264.358.509.708.741,1.061a.573.573,0,0,1-.478.888ZM71.1,39.784a.573.573,0,0,1-.309-1.056,17.092,17.092,0,0,1,5.4-2.2.573.573,0,0,1,.252,1.118,15.928,15.928,0,0,0-5.033,2.047.572.572,0,0,1-.308.09Zm16.2-.754a.571.571,0,0,1-.271-.068,14.463,14.463,0,0,0-5.158-1.63A.573.573,0,0,1,82,36.193a15.611,15.611,0,0,1,5.566,1.759A.573.573,0,0,1,87.3,39.03ZM66.431,37.254a.573.573,0,0,1-.291-1.067,24.806,24.806,0,0,1,5.3-2.308.573.573,0,1,1,.337,1.1,23.636,23.636,0,0,0-5.051,2.2A.57.57,0,0,1,66.431,37.254Zm27.31-1.364a.57.57,0,0,1-.241-.053,25.122,25.122,0,0,0-5.233-1.762.573.573,0,0,1,.244-1.12A26.256,26.256,0,0,1,93.983,34.8a.573.573,0,0,1-.242,1.093ZM77.126,33.813a.573.573,0,0,1-.072-1.142,40.7,40.7,0,0,1,5.725-.311.573.573,0,0,1,.565.581.594.594,0,0,1-.581.565,39.753,39.753,0,0,0-5.564.3A.549.549,0,0,1,77.126,33.813Z" transform="translate(-54.602 -32.356)" fill="#fff"/>
        </g>
        <g id="Grupo_1114705" data-name="Grupo 1114705">
          <path id="Trazado_893283" data-name="Trazado 893283" d="M86.759,111.44c-4.4,0-8.677-.115-12.876-.228C69.76,111.1,65.865,111,61.926,111l-.08,0c-.624-.035-1.559-.023-2.548-.011a27.4,27.4,0,0,1-6.468-.383l-.091-.028a9.459,9.459,0,0,1-5.692-4.99C45.111,101.45,45.638,95.5,48.661,87.4a20.171,20.171,0,0,1,8.368-10.338c3.218-2.146,6.553-4.022,9.778-5.836A98.411,98.411,0,0,0,79.244,63.4a19.237,19.237,0,0,0,6.139-10.782,13.974,13.974,0,0,0-3.288-10.933,8.717,8.717,0,0,0-6.924-2.914c-2.966.132-5.964,1.58-6.684,3.228a1.838,1.838,0,0,0,.492,2.094c4.912,5.711,6.051,12.227,3.041,17.422-3.055,5.275-9.576,7.664-17.014,6.235l-.1-.022a13.523,13.523,0,0,1-9.457-7.848C42.517,53.142,44.47,44,47.707,37.929l.009-.016A29.19,29.19,0,0,1,66.609,23.231a44.3,44.3,0,0,1,13.73-1.306c8.57.457,17.219,4.769,22.039,10.985,9.359,12.6,6.185,28.756-1.1,39.185-4.664,6.465-10.825,9.4-17.957,12.793-2.7,1.287-5.48,2.609-8.446,4.225l.31-.038c6.4-.79,12.442-1.537,18.8-1.234,6.724.156,11.432,3.007,12.558,7.626a13.074,13.074,0,0,1,.158,4.49l-.007.086c-.274,2.634-1.1,10.53-8.2,11.063C94.462,111.354,90.563,111.44,86.759,111.44Zm-24.795-3.31c3.964,0,7.866.106,12,.217,7.765.209,15.794.425,24.331-.1,2.312-.174,4.8-1.316,5.541-8.462l0-.048a10.921,10.921,0,0,0-.075-3.553c-1.164-4.769-7.3-5.419-9.885-5.479-6.145-.293-12.071.439-18.344,1.214q-1.537.19-3.119.381l-.17.01h-.361c-1.467.006-2.734.01-3.112-1.256-.4-1.341.936-2.214,2.117-2.983l.061-.038c4.025-2.348,7.8-4.147,11.137-5.734,7.057-3.359,12.63-6.013,16.853-11.865,6.688-9.569,9.648-24.36,1.158-35.793-4.314-5.563-12.134-9.441-19.9-9.855A41.4,41.4,0,0,0,67.344,26,26.431,26.431,0,0,0,50.232,39.285c-2.816,5.285-4.691,13.625-2.153,19.453A10.773,10.773,0,0,0,55.6,64.947c6.186,1.174,11.525-.69,13.944-4.866,2.371-4.092,1.346-9.372-2.74-14.124a4.7,4.7,0,0,1-.94-5.1c1.325-3.038,5.624-4.787,9.185-4.945a11.5,11.5,0,0,1,9.153,3.83,16.921,16.921,0,0,1,4.027,13.249A22.026,22.026,0,0,1,81.089,65.6l-.055.045A100.311,100.311,0,0,1,68.212,73.72c-3.179,1.788-6.465,3.637-9.619,5.739A17.429,17.429,0,0,0,51.347,88.4c-2.7,7.246-3.275,12.618-1.7,15.969a6.592,6.592,0,0,0,4,3.486,27.716,27.716,0,0,0,5.623.266C60.328,108.1,61.25,108.093,61.964,108.13Z" transform="translate(-44.011 -21.858)" fill="#fff"/>
        </g>
      </g>
    </g>
  </g>
</svg>
