<svg xmlns="http://www.w3.org/2000/svg" width="130" height="130" viewBox="0 0 130 130">
  <g id="Grupo_1115333" data-name="Grupo 1115333" transform="translate(-1148.34 -6082.827)">
    <g id="Trazado_874818" data-name="Trazado 874818" transform="translate(1148.34 6082.827)" fill="#a6826d">
      <path d="M 65 129 C 56.35961532592773 129 47.97821807861328 127.3079833984375 40.08861541748047 123.9709701538086 C 36.29658508300781 122.3670654296875 32.63906478881836 120.3818359375 29.21769905090332 118.0703964233398 C 25.82856750488281 115.7807464599609 22.64155006408691 113.1512145996094 19.74516677856445 110.2548370361328 C 16.84878349304199 107.3584518432617 14.2192497253418 104.1714324951172 11.92959976196289 100.7823181152344 C 9.618166923522949 97.36093139648438 7.632933139801025 93.70343017578125 6.029033184051514 89.91138458251953 C 2.6920166015625 82.02178192138672 1 73.640380859375 1 65 C 1 56.35961532592773 2.6920166015625 47.97821807861328 6.029033184051514 40.08861541748047 C 7.632933139801025 36.29658508300781 9.618166923522949 32.63906478881836 11.92959976196289 29.21769905090332 C 14.2192497253418 25.82856750488281 16.84878349304199 22.64155006408691 19.74516677856445 19.74516677856445 C 22.64155006408691 16.84878349304199 25.82856750488281 14.2192497253418 29.21769905090332 11.92959976196289 C 32.63906478881836 9.618166923522949 36.29658508300781 7.632933139801025 40.08861541748047 6.029033184051514 C 47.97821807861328 2.6920166015625 56.35961532592773 1 65 1 C 73.640380859375 1 82.02178192138672 2.6920166015625 89.91138458251953 6.029033184051514 C 93.70343017578125 7.632933139801025 97.36093139648438 9.618166923522949 100.7823181152344 11.92959976196289 C 104.1714324951172 14.2192497253418 107.3584518432617 16.84878349304199 110.2548370361328 19.74516677856445 C 113.1512145996094 22.64155006408691 115.7807464599609 25.82856750488281 118.0703964233398 29.21769905090332 C 120.3818359375 32.63906478881836 122.3670654296875 36.29658508300781 123.9709701538086 40.08861541748047 C 127.3079833984375 47.97821807861328 129 56.35961532592773 129 65 C 129 73.640380859375 127.3079833984375 82.02178192138672 123.9709701538086 89.91138458251953 C 122.3670654296875 93.70343017578125 120.3818359375 97.36093139648438 118.0703964233398 100.7823181152344 C 115.7807464599609 104.1714324951172 113.1512145996094 107.3584518432617 110.2548370361328 110.2548370361328 C 107.3584518432617 113.1512145996094 104.1714324951172 115.7807464599609 100.7823181152344 118.0703964233398 C 97.36093139648438 120.3818359375 93.70343017578125 122.3670654296875 89.91138458251953 123.9709701538086 C 82.02178192138672 127.3079833984375 73.640380859375 129 65 129 Z" stroke="none"/>
      <path d="M 65 2 C 56.49416351318359 2 48.24383544921875 3.665435791015625 40.47816467285156 6.950035095214844 C 36.74559783935547 8.528778076171875 33.14536285400391 10.48294830322266 29.77748870849609 12.75821685791016 C 26.44110870361328 15.01223754882812 23.30365753173828 17.60089111328125 20.4522705078125 20.4522705078125 C 17.60089111328125 23.30365753173828 15.01223754882812 26.44110870361328 12.75821685791016 29.77748870849609 C 10.48294830322266 33.14536285400391 8.528778076171875 36.74559783935547 6.950035095214844 40.47816467285156 C 3.665435791015625 48.24383544921875 2 56.49416351318359 2 65 C 2 73.50583648681641 3.665435791015625 81.75616455078125 6.950035095214844 89.52183532714844 C 8.528778076171875 93.25439453125 10.48294830322266 96.85463714599609 12.75821685791016 100.2225112915039 C 15.01223754882812 103.5588912963867 17.60089111328125 106.6963500976562 20.4522705078125 109.5477294921875 C 23.30365753173828 112.3991088867188 26.44110870361328 114.9877624511719 29.77748870849609 117.2417831420898 C 33.14536285400391 119.5170516967773 36.74559783935547 121.4712219238281 40.47816467285156 123.0499649047852 C 48.24383544921875 126.3345642089844 56.49416351318359 128 65 128 C 73.50583648681641 128 81.75616455078125 126.3345642089844 89.52183532714844 123.0499649047852 C 93.25439453125 121.4712219238281 96.85463714599609 119.5170516967773 100.2225112915039 117.2417831420898 C 103.5588912963867 114.9877624511719 106.6963500976562 112.3991088867188 109.5477294921875 109.5477294921875 C 112.3991088867188 106.6963500976562 114.9877624511719 103.5588912963867 117.2417831420898 100.2225112915039 C 119.5170516967773 96.85463714599609 121.4712219238281 93.25439453125 123.0499649047852 89.52183532714844 C 126.3345642089844 81.75616455078125 128 73.50583648681641 128 65 C 128 56.49416351318359 126.3345642089844 48.24383544921875 123.0499649047852 40.47816467285156 C 121.4712219238281 36.74559783935547 119.5170516967773 33.14536285400391 117.2417831420898 29.77748870849609 C 114.9877624511719 26.44110870361328 112.3991088867188 23.30365753173828 109.5477294921875 20.4522705078125 C 106.6963500976562 17.60089111328125 103.5588912963867 15.01223754882812 100.2225112915039 12.75821685791016 C 96.85463714599609 10.48294830322266 93.25439453125 8.528778076171875 89.52183532714844 6.950035095214844 C 81.75616455078125 3.665435791015625 73.50583648681641 2 65 2 M 65 0 C 100.8985137939453 0 130 29.10149383544922 130 65 C 130 100.8985137939453 100.8985137939453 130 65 130 C 29.10149383544922 130 0 100.8985137939453 0 65 C 0 29.10149383544922 29.10149383544922 0 65 0 Z" stroke="none" fill="#fff"/>
    </g>
    <g id="three_8632821" transform="translate(1183.998 6104.586)">
      <g id="Grupo_1114703" data-name="Grupo 1114703" transform="translate(0 0)">
        <g id="Grupo_1114701" data-name="Grupo 1114701" transform="translate(6.043 6.018)">
          <g id="Grupo_1114699" data-name="Grupo 1114699" transform="translate(27.617 37.55)">
            <path id="Trazado_893279" data-name="Trazado 893279" d="M109.489,101.874a.57.57,0,0,1-.317-.1l-1.839-1.226a.558.558,0,0,1-.071-.056,3.3,3.3,0,0,1-.524-.6.573.573,0,0,1-.034-.567,2.973,2.973,0,0,1,.336-.515c.442-.537.879-1.045,1.31-1.545l.241-.28a.573.573,0,1,1,.869.748l-.212.246c-.455.528-.887,1.029-1.315,1.55l-.006.008.082.081,1.8,1.2a.573.573,0,0,1-.319,1.05Z" transform="translate(-106.643 -96.792)" fill="#fff"/>
          </g>
          <g id="Grupo_1114700" data-name="Grupo 1114700">
            <path id="Trazado_893280" data-name="Trazado 893280" d="M78.885,109.991h-.036q-.361-.022-.722-.052a28.324,28.324,0,0,1-5.137-.871.573.573,0,0,1,.3-1.106,27.227,27.227,0,0,0,4.929.834q.35.029.7.05a.573.573,0,0,1-.035,1.145Zm5.814-.131a.573.573,0,0,1-.062-1.143,31.277,31.277,0,0,0,5.6-1.14.573.573,0,1,1,.331,1.1,32.449,32.449,0,0,1-5.8,1.182A.6.6,0,0,1,84.7,109.861Zm-16.9-3.047a.572.572,0,0,1-.3-.086,19.312,19.312,0,0,1-4.534-3.9.573.573,0,1,1,.872-.745,18.167,18.167,0,0,0,4.265,3.666.573.573,0,0,1-.3,1.061Zm27.948-.378a.573.573,0,0,1-.294-1.066,18.066,18.066,0,0,0,4.327-3.587.573.573,0,0,1,.86.757,19.2,19.2,0,0,1-4.6,3.815.572.572,0,0,1-.293.081ZM81.559,104.1h-.023a16.118,16.118,0,0,1-5.15-1.09,5.754,5.754,0,0,1-.727-.34.573.573,0,0,1,.556-1,4.664,4.664,0,0,0,.583.272,14.983,14.983,0,0,0,4.784,1.014.573.573,0,0,1-.023,1.146Zm5.7-.978a.573.573,0,0,1-.217-1.1,12.371,12.371,0,0,0,4.519-3.17.573.573,0,1,1,.849.77,13.5,13.5,0,0,1-4.935,3.461.568.568,0,0,1-.216.043ZM60.352,98.1a.573.573,0,0,1-.529-.352,17.4,17.4,0,0,1-1.361-5.835.573.573,0,0,1,.542-.6.566.566,0,0,1,.6.542A16.265,16.265,0,0,0,60.88,97.3a.574.574,0,0,1-.528.8ZM73.3,97.892h-.038a.573.573,0,0,1-.534-.61,5.709,5.709,0,0,1,.593-2.187c.1-.207.207-.406.308-.6.086-.165.266-.509.3-.6.058-.174.125-.347.2-.517a15.505,15.505,0,0,0,.636-1.665.573.573,0,0,1,1.094.341,16.542,16.542,0,0,1-.683,1.789c-.06.135-.114.274-.16.414a6.806,6.806,0,0,1-.369.765c-.1.188-.2.381-.3.582a4.561,4.561,0,0,0-.474,1.75.573.573,0,0,1-.572.536Zm30.039-.046a.574.574,0,0,1-.523-.807,20.757,20.757,0,0,0,1.05-2.94c.23-.853.426-1.695.582-2.5a.573.573,0,0,1,1.126.218c-.161.832-.364,1.7-.6,2.584a21.927,21.927,0,0,1-1.109,3.106.573.573,0,0,1-.524.34ZM94.868,94.8a.574.574,0,0,1-.545-.752,14.719,14.719,0,0,0,.575-2.463c.118-.748.283-1.878.376-3.128a.573.573,0,1,1,1.143.085c-.1,1.292-.266,2.454-.385,3.215a15.8,15.8,0,0,1-.619,2.649A.573.573,0,0,1,94.868,94.8ZM60.1,86.818a.573.573,0,0,1-.489-.871,8.458,8.458,0,0,1,4.961-3.556.573.573,0,0,1,.322,1.1,7.338,7.338,0,0,0-4.3,3.05A.572.572,0,0,1,60.1,86.818Zm14.918,0a.573.573,0,0,1-.505-.3A6.37,6.37,0,0,0,70.34,83.4a.573.573,0,0,1,.3-1.107,7.569,7.569,0,0,1,4.883,3.672.573.573,0,0,1-.5.845Zm30.49-.323a.573.573,0,0,1-.573-.553,17.529,17.529,0,0,0-1.054-5.517.573.573,0,0,1,1.076-.4,18.908,18.908,0,0,1,1.124,5.872.573.573,0,0,1-.552.593h-.021Zm-9.942-3.221a.573.573,0,0,1-.559-.452,14.344,14.344,0,0,0-2.147-5.134.573.573,0,1,1,.944-.65,15.473,15.473,0,0,1,2.323,5.542.573.573,0,0,1-.561.695Zm6-7.523a.572.572,0,0,1-.452-.22,25.027,25.027,0,0,0-3-3.18,5.734,5.734,0,0,1-.97-1.129.573.573,0,0,1,.959-.627,4.588,4.588,0,0,0,.776.9,26.2,26.2,0,0,1,3.139,3.326.573.573,0,0,1-.451.926Zm-4.024-9.788a.573.573,0,0,1-.49-.871c.829-1.365,1.9-3.17,2.841-5.033a.573.573,0,1,1,1.023.517c-.959,1.9-2.045,3.729-2.884,5.111A.573.573,0,0,1,97.544,65.958Zm-5.563-.608a.573.573,0,0,1-.488-.872,17.414,17.414,0,0,0,2.158-5.185.573.573,0,1,1,1.116.261,18.545,18.545,0,0,1-2.3,5.522.573.573,0,0,1-.489.274ZM70.082,60.3a.573.573,0,0,1-.156-1.125,11.146,11.146,0,0,0,3.052-1.483,5.964,5.964,0,0,0,1.257-1.49.573.573,0,1,1,1.008.545,7.112,7.112,0,0,1-1.528,1.824.547.547,0,0,1-.068.053,12.313,12.313,0,0,1-3.409,1.654.581.581,0,0,1-.156.022ZM64.7,59.118a.57.57,0,0,1-.413-.176,11.546,11.546,0,0,1-2.559-5.522.573.573,0,1,1,1.126-.215,10.4,10.4,0,0,0,2.258,4.942.573.573,0,0,1-.413.971Zm37.918-3.611a.574.574,0,0,1-.549-.741,19.486,19.486,0,0,0,.913-5.564.573.573,0,0,1,.573-.568h.005a.573.573,0,0,1,.568.578,20.609,20.609,0,0,1-.963,5.889.574.574,0,0,1-.548.406ZM94.95,54.224h-.036a.573.573,0,0,1-.537-.607c.1-1.661.115-3.189.115-4.335-.005-.505-.028-.958-.067-1.4a.573.573,0,0,1,1.142-.1c.042.469.066.952.071,1.434v.066c0,1.162-.013,2.713-.117,4.406a.573.573,0,0,1-.572.538ZM74.841,51.383a.573.573,0,0,1-.528-.349,8.725,8.725,0,0,0-2.039-2.8q-.134-.131-.26-.269l-.118-.083c-.153-.108-.3-.216-.445-.322a5.78,5.78,0,0,1-.8-.722.573.573,0,1,1,.846-.774,4.585,4.585,0,0,0,.637.578c.135.1.277.2.422.3l.174.122a.6.6,0,0,1,.094.085q.118.133.245.257a9.832,9.832,0,0,1,2.3,3.171.574.574,0,0,1-.527.8Zm-12.591-3.3a.572.572,0,0,1-.568-.66,17.3,17.3,0,0,1,1.906-5.68.573.573,0,1,1,1.007.548A16.145,16.145,0,0,0,62.816,47.6a.574.574,0,0,1-.566.487Zm40.265-3.992a.573.573,0,0,1-.532-.36,15.567,15.567,0,0,0-3-4.71.573.573,0,1,1,.845-.775,16.709,16.709,0,0,1,3.222,5.057.574.574,0,0,1-.532.787Zm-9.042-1.271a.573.573,0,0,1-.516-.322,13.8,13.8,0,0,0-3.383-4.4.573.573,0,1,1,.75-.867A14.941,14.941,0,0,1,93.987,42a.573.573,0,0,1-.514.825ZM70.115,41.593a.574.574,0,0,1-.53-.792,5.81,5.81,0,0,1,.322-.66,12.759,12.759,0,0,1,3.558-4.012.573.573,0,1,1,.678.925,11.616,11.616,0,0,0-3.24,3.654,4.658,4.658,0,0,0-.258.53A.573.573,0,0,1,70.115,41.593Zm-2.439-3.56a.573.573,0,0,1-.388-1,20.629,20.629,0,0,1,4.946-3.34.573.573,0,1,1,.5,1.031,19.485,19.485,0,0,0-4.671,3.154.571.571,0,0,1-.387.151Zm27.2-2.454a.572.572,0,0,1-.29-.079,21.946,21.946,0,0,0-5.214-2.2.573.573,0,1,1,.308-1.1,23.1,23.1,0,0,1,5.487,2.317.573.573,0,0,1-.291,1.067ZM84.9,35.422a.576.576,0,0,1-.17-.026,12.48,12.48,0,0,0-3.686-.566h0a12.135,12.135,0,0,0-1.814.136.573.573,0,0,1-.172-1.134,13.308,13.308,0,0,1,1.985-.149h0a13.628,13.628,0,0,1,4.024.617.573.573,0,0,1-.169,1.121Zm-6.905-2.484a.573.573,0,0,1-.114-1.135,26.454,26.454,0,0,1,4.875-.521h.2c.284,0,.565,0,.845.014a.573.573,0,0,1-.039,1.146q-.4-.013-.8-.013h-.2a25.3,25.3,0,0,0-4.657.5.577.577,0,0,1-.115.011Z" transform="translate(-58.462 -31.282)" fill="#fff"/>
          </g>
        </g>
        <g id="Grupo_1114702" data-name="Grupo 1114702">
          <path id="Trazado_893281" data-name="Trazado 893281" d="M76.562,111.6q-1.7,0-3.423-.141a29.908,29.908,0,0,1-12.508-3.618C51.9,102.865,46.868,93.214,48.1,83.818c.92-7.758,7.519-11.786,13.65-12.329s13.361,2.241,15.623,9.692c.905,3.278.516,6.724-1.181,10.567-.065.188-.136.368-.211.541a7.082,7.082,0,0,0,5.076-.734,7.268,7.268,0,0,0,3.385-5.345,21.032,21.032,0,0,0,.231-6.348,7.011,7.011,0,0,0-2.932-4.867l-3.222-2.158c-3.53-2.965-3.99-6.8-1.229-10.246.494-.6.98-1.167,1.459-1.722,2.089-2.426,3.893-4.521,4.566-7.552a44.549,44.549,0,0,0,.654-8.516c-.057-4.975-3.146-7.539-5.774-8.217a5.742,5.742,0,0,0-5.844,1.6,4.212,4.212,0,0,1,.478.5c4.1,4.013,5.478,8.775,4.1,14.154a11.627,11.627,0,0,1-4,6l-.13.1A16.508,16.508,0,0,1,64.9,62.047c-8.05.872-12.754-5.97-13.695-12.693a23.971,23.971,0,0,1,5.49-19.141c5.05-5.867,12.877-9.3,21.472-9.43h.293c13.542,0,25.091,8.708,26.936,20.354,1.226,8.138-2.125,15.472-6.123,22.2,7.8,7.484,10.093,16.7,7.008,28.145l0,.007a25.818,25.818,0,0,1-15.9,17.584A38.437,38.437,0,0,1,76.562,111.6ZM63.255,74.289c-.42,0-.837.018-1.248.055-4.612.408-10.275,3.228-11.059,9.83-1.088,8.272,3.371,16.771,11.094,21.169A27.1,27.1,0,0,0,73.371,108.6a36.141,36.141,0,0,0,15.994-2.2,22.988,22.988,0,0,0,14.147-15.66c2.928-10.858.695-19.142-7.026-26.071l-.885-.794.617-1.016c3.7-6.1,7.55-13.271,6.342-21.282C100.924,31.246,90.473,23.533,78.2,23.649c-7.769.114-14.819,3.188-19.334,8.434a21.139,21.139,0,0,0-4.823,16.88c.582,4.156,3.467,11,10.578,10.231a13.7,13.7,0,0,0,6.5-2.577,8.773,8.773,0,0,0,3.045-4.5c1.124-4.393.014-8.14-3.395-11.446l-.149-.169a3.9,3.9,0,0,0-.734-.6c-.122-.086-.242-.172-.355-.257l-1.011-.757.625-1.1a8.491,8.491,0,0,1,9.773-3.979c3.607.932,7.847,4.366,7.923,10.976a47.225,47.225,0,0,1-.714,9.114c-.838,3.775-2.957,6.236-5.2,8.841-.464.539-.936,1.087-1.4,1.657-1.739,2.174-1.478,4.263.788,6.2l3.027,2.018A9.858,9.858,0,0,1,87.5,79.38a23.6,23.6,0,0,1-.222,7.255,10.1,10.1,0,0,1-4.768,7.391,10.32,10.32,0,0,1-9.084.487l-1.473-.566.706-1.412c.092-.184.184-.36.274-.533a8.514,8.514,0,0,0,.565-1.228l.05-.13c1.459-3.282,1.8-6.036,1.074-8.666-1.637-5.393-6.691-7.69-11.37-7.69Z" transform="translate(-47.919 -20.782)" fill="#fff"/>
        </g>
      </g>
    </g>
  </g>
</svg>
