<svg xmlns="http://www.w3.org/2000/svg" width="85" height="84.817" viewBox="0 0 85 84.817">
  <g id="Grupo_1101788" data-name="Grupo 1101788" transform="translate(0 -0.553)">
    <g id="Grupo_1101329" data-name="Grupo 1101329" transform="translate(0 0.553)">
      <path id="Trazado_874771" data-name="Trazado 874771" d="M278.106,299.538a1.245,1.245,0,0,0-1.245,1.245v2.831a1.245,1.245,0,0,0,2.49,0v-2.831A1.245,1.245,0,0,0,278.106,299.538Z" transform="translate(-230.898 -249.902)" fill="#727aa6"/>
      <path id="Trazado_874772" data-name="Trazado 874772" d="M278.106,350.675a1.245,1.245,0,0,0-1.245,1.245v2.827a1.245,1.245,0,0,0,2.49,0V351.92A1.245,1.245,0,0,0,278.106,350.675Z" transform="translate(-230.898 -292.549)" fill="#727aa6"/>
      <path id="Trazado_874773" data-name="Trazado 874773" d="M278.106,401.784a1.245,1.245,0,0,0-1.245,1.245v2.827a1.245,1.245,0,0,0,2.49,0v-2.827A1.245,1.245,0,0,0,278.106,401.784Z" transform="translate(-230.898 -335.173)" fill="#727aa6"/>
      <path id="Trazado_874774" data-name="Trazado 874774" d="M278.106,248.43a1.245,1.245,0,0,0-1.245,1.245v2.831a1.245,1.245,0,0,0,2.49,0v-2.831A1.245,1.245,0,0,0,278.106,248.43Z" transform="translate(-230.898 -207.279)" fill="#727aa6"/>
      <path id="Trazado_874775" data-name="Trazado 874775" d="M278.106,195.369a1.245,1.245,0,0,0-1.245,1.245v3.151a1.245,1.245,0,0,0,2.49,0v-3.151A1.245,1.245,0,0,0,278.106,195.369Z" transform="translate(-230.898 -163.027)" fill="#727aa6"/>
      <path id="Trazado_874776" data-name="Trazado 874776" d="M278.106,144.261a1.245,1.245,0,0,0-1.245,1.245v3.151a1.245,1.245,0,1,0,2.49,0v-3.151A1.245,1.245,0,0,0,278.106,144.261Z" transform="translate(-230.898 -120.403)" fill="#727aa6"/>
      <path id="Trazado_874777" data-name="Trazado 874777" d="M278.106,93.124a1.245,1.245,0,0,0-1.245,1.245v3.155a1.245,1.245,0,0,0,2.49,0V94.369A1.245,1.245,0,0,0,278.106,93.124Z" transform="translate(-230.898 -77.756)" fill="#727aa6"/>
      <path id="Trazado_874778" data-name="Trazado 874778" d="M192.53,303.615a1.245,1.245,0,0,0,2.49,0v-2.831a1.245,1.245,0,0,0-2.49,0Z" transform="translate(-160.567 -249.902)" fill="#727aa6"/>
      <path id="Trazado_874779" data-name="Trazado 874779" d="M192.53,354.747a1.245,1.245,0,0,0,2.49,0V351.92a1.245,1.245,0,0,0-2.49,0Z" transform="translate(-160.567 -292.549)" fill="#727aa6"/>
      <path id="Trazado_874780" data-name="Trazado 874780" d="M192.53,405.856a1.245,1.245,0,0,0,2.49,0v-2.827a1.245,1.245,0,0,0-2.49,0Z" transform="translate(-160.567 -335.173)" fill="#727aa6"/>
      <path id="Trazado_874781" data-name="Trazado 874781" d="M192.53,252.506a1.245,1.245,0,0,0,2.49,0v-2.831a1.245,1.245,0,0,0-2.49,0Z" transform="translate(-160.567 -207.279)" fill="#727aa6"/>
      <path id="Trazado_874782" data-name="Trazado 874782" d="M192.53,199.765a1.245,1.245,0,0,0,2.49,0v-3.151a1.245,1.245,0,0,0-2.49,0Z" transform="translate(-160.567 -163.027)" fill="#727aa6"/>
      <path id="Trazado_874783" data-name="Trazado 874783" d="M192.53,148.657a1.245,1.245,0,0,0,2.49,0v-3.151a1.245,1.245,0,0,0-2.49,0Z" transform="translate(-160.567 -120.403)" fill="#727aa6"/>
      <path id="Trazado_874784" data-name="Trazado 874784" d="M193.775,98.769a1.245,1.245,0,0,0,1.245-1.245V94.368a1.245,1.245,0,0,0-2.49,0v3.155A1.245,1.245,0,0,0,193.775,98.769Z" transform="translate(-160.567 -77.755)" fill="#727aa6"/>
      <path id="Trazado_874785" data-name="Trazado 874785" d="M84.687,21.978A8.1,8.1,0,0,0,74,16.416v-1.09a5.9,5.9,0,0,0-5.9-5.889H59.95c-1-4.777-2.963-8.884-7.814-8.884a6.379,6.379,0,0,0-4.783,1.875c-1.453,1.5-2.222,3.857-2.294,7.009H12.314a5.9,5.9,0,0,0-5.9,5.889v.511H5.9A5.9,5.9,0,0,0,0,21.726V79.481A5.9,5.9,0,0,0,5.9,85.37H37.335a1.245,1.245,0,0,0,0-2.49H5.9a3.408,3.408,0,0,1-3.409-3.4V21.726a3.408,3.408,0,0,1,3.409-3.4h.515V39.451a1.245,1.245,0,1,0,2.49,0V15.326a3.408,3.408,0,0,1,3.409-3.4H38.961V76.48H12.314a3.408,3.408,0,0,1-3.409-3.4v-27.9a1.245,1.245,0,0,0-2.49,0v27.9a5.9,5.9,0,0,0,5.9,5.889H65.1v.511a3.408,3.408,0,0,1-3.409,3.4H43.081a1.245,1.245,0,1,0,0,2.49H61.689a5.9,5.9,0,0,0,5.9-5.889v-.511H68.1A5.9,5.9,0,0,0,74,73.08V38.267a9.042,9.042,0,0,1,2.661-1.886,26.8,26.8,0,0,0,3.244-2.066,28.178,28.178,0,0,1,.63,3.311,42.59,42.59,0,0,1-1.247,16.44,1.245,1.245,0,1,0,2.4.672A45.177,45.177,0,0,0,83.006,37.3a28.262,28.262,0,0,0-1.069-4.9,12.189,12.189,0,0,0,1.56-2.324,11.233,11.233,0,0,0,1.19-8.095ZM68.1,11.927a3.408,3.408,0,0,1,3.409,3.4v2.457a12.363,12.363,0,0,0-3.206,3.781l-2.485-.912c-3.414-1.444-4.711-3.389-5.331-7.985q-.05-.37-.1-.739ZM49.143,4.159a3.936,3.936,0,0,1,2.993-1.116c2.28,0,4.083,1.183,5.263,6.394H47.548c.059-2.469.593-4.242,1.595-5.277ZM71.512,73.081a3.408,3.408,0,0,1-3.409,3.4H41.451V11.927H57.866q.08.517.155,1.072c.625,4.629,1.991,7.909,6.859,9.959l.054.021,2.343.86a17.032,17.032,0,0,0-.453,7.475,7.38,7.38,0,0,1-.088,3.471L55.688,56.169a20.309,20.309,0,0,0-1.952,9.768l0,.352A1.245,1.245,0,0,0,55.7,67.3l.278-.2a20.352,20.352,0,0,0,6.854-7.261l8.679-16.8ZM81.284,28.93c-.137.265-.285.513-.437.753a11.55,11.55,0,0,0-3.363-4.232l.516-1a1.245,1.245,0,1,0-2.213-1.141L73.51,27.723a1.245,1.245,0,1,0,2.213,1.143l.6-1.165a10.265,10.265,0,0,1,2.75,4.064,20.119,20.119,0,0,1-3.64,2.45c-1.641.932-3.058,1.736-3.769,3.106L60.62,58.7a15.831,15.831,0,0,1-4.36,5.11,15.8,15.8,0,0,1,1.641-6.5l11.05-21.383c.708-1.37.543-2.99.353-4.866-.24-2.362-.512-5.04.922-7.816,1.795-3.471,4.355-4.84,6.641-4.84a5.566,5.566,0,0,1,2.544.609,5.646,5.646,0,0,1,2.872,3.61,8.813,8.813,0,0,1-1,6.3Z" transform="translate(0 -0.553)" fill="#727aa6"/>
    </g>
  </g>
</svg>
