<svg xmlns="http://www.w3.org/2000/svg" width="611.245" height="537.59" viewBox="0 0 611.245 537.59">
  <g id="Grupo_1115332" data-name="Grupo 1115332" transform="translate(-178.755 -12185.923)">
    <path id="Trazado_893293" data-name="Trazado 893293" d="M-7503.332-1082.123s24.781,100.156,30.032,164.959,13.723,252.858,13.723,252.858h238.086s-1.331-164.765,9.243-261.486,35.86-156.331,35.86-156.331-25.238.177-44.1-18.8-87.376-97.457-136.134-94.107-75.655,56.48-95.432,82.929S-7503.332-1082.123-7503.332-1082.123Z" transform="translate(7683.332 13382.063)" fill="none" stroke="#7eadbf" stroke-width="2"/>
    <path id="Trazado_893294" data-name="Trazado 893294" d="M-7503.332-1088.4s22.356,95.169,27.093,156.744,12.38,240.267,12.38,240.267h214.786s-1.2-156.561,8.337-248.466,34.148-147.008,34.148-147.008-21.445,1.59-41.581-19.406-78.562-84.931-122.547-81.747-68.515,45.995-86.356,71.126S-7503.332-1088.4-7503.332-1088.4Z" transform="translate(7698.919 13395.547)" fill="none" stroke="#7eadbf" stroke-width="2"/>
    <path id="Trazado_893295" data-name="Trazado 893295" d="M-7369.548-1176.381V-680" transform="translate(7695.712 13383.797)" fill="none" stroke="#7eadbf" stroke-width="2"/>
    <path id="Trazado_893296" data-name="Trazado 893296" d="M-7263.792-1128.692l-3.962,11.53,13.112-2.4" transform="translate(7705.133 13388.211)" fill="none" stroke="#7eadbf" stroke-width="2"/>
    <g id="Grupo_1114726" data-name="Grupo 1114726" transform="translate(300.761 12228.807)">
      <path id="Trazado_893297" data-name="Trazado 893297" d="M-7392.8-1156.8h19.711" transform="translate(7392.8 1156.803)" fill="none" stroke="#12263f" stroke-width="2"/>
      <path id="Trazado_893298" data-name="Trazado 893298" d="M-7392.8-1156.8h19.711" transform="translate(7392.8 1611.299)" fill="none" stroke="#12263f" stroke-width="2"/>
      <path id="Trazado_893299" data-name="Trazado 893299" d="M0,0H453.424" transform="translate(9.856 453.425) rotate(-90)" fill="none" stroke="#12263f" stroke-width="2"/>
    </g>
    <path id="Trazado_896801" data-name="Trazado 896801" d="M-63.426-12.086l3.486,9.264,3.478-9.264h2.714V0h-2.092V-3.984l.208-5.329L-59.2,0h-1.5l-3.561-9.305.208,5.321V0h-2.092V-12.086ZM-46.094,0a3.113,3.113,0,0,1-.232-.838,3.14,3.14,0,0,1-2.357,1,3.169,3.169,0,0,1-2.208-.772,2.47,2.47,0,0,1-.855-1.909,2.55,2.55,0,0,1,1.067-2.2,5.169,5.169,0,0,1,3.051-.768h1.237v-.589a1.573,1.573,0,0,0-.39-1.116,1.547,1.547,0,0,0-1.187-.419,1.777,1.777,0,0,0-1.129.344,1.066,1.066,0,0,0-.44.876h-2.017a2.239,2.239,0,0,1,.49-1.382,3.263,3.263,0,0,1,1.332-1.009,4.68,4.68,0,0,1,1.88-.365,3.769,3.769,0,0,1,2.515.793,2.827,2.827,0,0,1,.963,2.229v4.051a4.591,4.591,0,0,0,.34,1.934V0Zm-2.216-1.453a2.294,2.294,0,0,0,1.125-.291,1.941,1.941,0,0,0,.793-.78V-4.217H-47.48a2.973,2.973,0,0,0-1.685.39,1.264,1.264,0,0,0-.564,1.1,1.179,1.179,0,0,0,.386.926A1.5,1.5,0,0,0-48.311-1.453Zm7.919-7.529.058,1.038a3.229,3.229,0,0,1,2.615-1.2q2.806,0,2.855,3.212V0H-36.88V-5.819a1.85,1.85,0,0,0-.369-1.266A1.554,1.554,0,0,0-38.458-7.5a1.944,1.944,0,0,0-1.818,1.1V0h-2.017V-8.981Zm7.23,4.424A5.253,5.253,0,0,1-32.178-7.9a3.157,3.157,0,0,1,2.611-1.249,2.958,2.958,0,0,1,2.416,1.071l.091-.9h1.818V-.274a3.619,3.619,0,0,1-1.1,2.789A4.189,4.189,0,0,1-29.31,3.536a4.783,4.783,0,0,1-1.93-.411A3.429,3.429,0,0,1-32.672,2.05l.955-1.212a2.883,2.883,0,0,0,2.291,1.1A2.228,2.228,0,0,0-27.841,1.4,2.084,2.084,0,0,0-27.26-.2V-.805a2.97,2.97,0,0,1-2.324.971,3.15,3.15,0,0,1-2.577-1.253A5.423,5.423,0,0,1-33.162-4.557Zm2.009.174A3.616,3.616,0,0,0-30.6-2.254a1.775,1.775,0,0,0,1.531.776,1.941,1.941,0,0,0,1.81-1.046V-6.475A1.913,1.913,0,0,0-29.053-7.5a1.782,1.782,0,0,0-1.548.789A4.049,4.049,0,0,0-31.153-4.383ZM-17.805,0a3.113,3.113,0,0,1-.232-.838,3.14,3.14,0,0,1-2.357,1A3.169,3.169,0,0,1-22.6-.606a2.47,2.47,0,0,1-.855-1.909,2.55,2.55,0,0,1,1.067-2.2,5.169,5.169,0,0,1,3.051-.768H-18.1v-.589a1.573,1.573,0,0,0-.39-1.116,1.547,1.547,0,0,0-1.187-.419,1.777,1.777,0,0,0-1.129.344,1.066,1.066,0,0,0-.44.876h-2.017a2.239,2.239,0,0,1,.49-1.382,3.263,3.263,0,0,1,1.332-1.009,4.68,4.68,0,0,1,1.88-.365,3.769,3.769,0,0,1,2.515.793,2.827,2.827,0,0,1,.963,2.229v4.051a4.591,4.591,0,0,0,.34,1.934V0Zm-2.216-1.453A2.294,2.294,0,0,0-18.9-1.743a1.941,1.941,0,0,0,.793-.78V-4.217h-1.087a2.973,2.973,0,0,0-1.685.39,1.264,1.264,0,0,0-.564,1.1,1.179,1.179,0,0,0,.386.926A1.5,1.5,0,0,0-20.021-1.453Zm9.9-3.1A5.34,5.34,0,0,1-9.156-7.89,3.085,3.085,0,0,1-6.574-9.147a2.931,2.931,0,0,1,2.308,1v-4.6H-2.25V0H-4.076l-.1-.93A2.973,2.973,0,0,1-6.591.166,3.068,3.068,0,0,1-9.143-1.1,5.535,5.535,0,0,1-10.119-4.557Zm2.017.174a3.739,3.739,0,0,0,.527,2.137,1.71,1.71,0,0,0,1.5.768,1.9,1.9,0,0,0,1.81-1.1V-6.417A1.876,1.876,0,0,0-6.06-7.5a1.723,1.723,0,0,0-1.511.776A4.163,4.163,0,0,0-8.1-4.383ZM3.81.166A4.173,4.173,0,0,1,.7-1.042,4.381,4.381,0,0,1-.49-4.258v-.249a5.389,5.389,0,0,1,.519-2.4A3.949,3.949,0,0,1,1.486-8.558a3.851,3.851,0,0,1,2.092-.589,3.525,3.525,0,0,1,2.835,1.17,4.949,4.949,0,0,1,1,3.312v.813H1.544a2.7,2.7,0,0,0,.743,1.76,2.23,2.23,0,0,0,1.639.647A2.731,2.731,0,0,0,6.184-2.565L7.271-1.527A3.631,3.631,0,0,1,5.831-.278,4.509,4.509,0,0,1,3.81.166ZM3.569-7.529a1.7,1.7,0,0,0-1.341.581,3.012,3.012,0,0,0-.652,1.619H5.42v-.149a2.452,2.452,0,0,0-.54-1.531A1.686,1.686,0,0,0,3.569-7.529ZM16.9-1.444a1.824,1.824,0,0,0,1.253-.44,1.5,1.5,0,0,0,.531-1.087h1.9a2.963,2.963,0,0,1-.523,1.565,3.43,3.43,0,0,1-1.328,1.15,3.958,3.958,0,0,1-1.81.423,3.829,3.829,0,0,1-2.988-1.22,4.84,4.84,0,0,1-1.1-3.37v-.208a4.759,4.759,0,0,1,1.1-3.283,3.8,3.8,0,0,1,2.988-1.233,3.69,3.69,0,0,1,2.611.934,3.345,3.345,0,0,1,1.058,2.453h-1.9a1.847,1.847,0,0,0-.527-1.27,1.7,1.7,0,0,0-1.258-.5,1.775,1.775,0,0,0-1.511.71,3.621,3.621,0,0,0-.54,2.154v.324a3.682,3.682,0,0,0,.527,2.179A1.773,1.773,0,0,0,16.9-1.444ZM27.476,0a3.113,3.113,0,0,1-.232-.838,3.14,3.14,0,0,1-2.357,1,3.169,3.169,0,0,1-2.208-.772,2.47,2.47,0,0,1-.855-1.909,2.55,2.55,0,0,1,1.067-2.2,5.169,5.169,0,0,1,3.051-.768h1.237v-.589a1.573,1.573,0,0,0-.39-1.116A1.547,1.547,0,0,0,25.6-7.612a1.777,1.777,0,0,0-1.129.344,1.066,1.066,0,0,0-.44.876H22.014a2.239,2.239,0,0,1,.49-1.382,3.263,3.263,0,0,1,1.332-1.009,4.68,4.68,0,0,1,1.88-.365,3.769,3.769,0,0,1,2.515.793,2.827,2.827,0,0,1,.963,2.229v4.051a4.591,4.591,0,0,0,.34,1.934V0ZM25.259-1.453a2.294,2.294,0,0,0,1.125-.291,1.941,1.941,0,0,0,.793-.78V-4.217H26.089a2.973,2.973,0,0,0-1.685.39,1.264,1.264,0,0,0-.564,1.1,1.179,1.179,0,0,0,.386.926A1.5,1.5,0,0,0,25.259-1.453ZM33.2-8.981l.058.938a3.232,3.232,0,0,1,2.59-1.1A2.483,2.483,0,0,1,38.316-7.77a3.186,3.186,0,0,1,2.756-1.378,2.8,2.8,0,0,1,2.212.822A3.618,3.618,0,0,1,44.027-5.9V0H42.01V-5.844A1.786,1.786,0,0,0,41.637-7.1,1.635,1.635,0,0,0,40.4-7.5a1.679,1.679,0,0,0-1.125.369,1.948,1.948,0,0,0-.61.967L38.673,0H36.656V-5.91A1.439,1.439,0,0,0,35.038-7.5a1.776,1.776,0,0,0-1.718.988V0H31.3V-8.981ZM48.244,0H46.227V-8.981h2.017ZM46.1-11.314a1.071,1.071,0,0,1,.295-.772,1.113,1.113,0,0,1,.843-.307,1.127,1.127,0,0,1,.847.307,1.062,1.062,0,0,1,.3.772,1.038,1.038,0,0,1-.3.76,1.136,1.136,0,0,1-.847.3,1.122,1.122,0,0,1-.843-.3A1.046,1.046,0,0,1,46.1-11.314ZM55.474-2.44a.914.914,0,0,0-.444-.822,4.723,4.723,0,0,0-1.473-.5,7.574,7.574,0,0,1-1.718-.548,2.293,2.293,0,0,1-1.511-2.117,2.391,2.391,0,0,1,.979-1.942,3.872,3.872,0,0,1,2.49-.78,4.029,4.029,0,0,1,2.6.8,2.529,2.529,0,0,1,.992,2.067H55.375a1.243,1.243,0,0,0-.432-.967A1.654,1.654,0,0,0,53.8-7.637a1.787,1.787,0,0,0-1.083.307.968.968,0,0,0-.419.822.818.818,0,0,0,.39.722,5.365,5.365,0,0,0,1.577.519,7.466,7.466,0,0,1,1.864.623,2.639,2.639,0,0,1,1,.867,2.212,2.212,0,0,1,.328,1.229,2.34,2.34,0,0,1-1,1.963,4.283,4.283,0,0,1-2.631.751,4.644,4.644,0,0,1-1.967-.4,3.238,3.238,0,0,1-1.345-1.1,2.594,2.594,0,0,1-.481-1.5h1.959a1.421,1.421,0,0,0,.54,1.1,2.1,2.1,0,0,0,1.32.386,2.04,2.04,0,0,0,1.212-.3A.938.938,0,0,0,55.474-2.44ZM64.58,0a3.113,3.113,0,0,1-.232-.838,3.14,3.14,0,0,1-2.357,1,3.169,3.169,0,0,1-2.208-.772,2.47,2.47,0,0,1-.855-1.909,2.55,2.55,0,0,1,1.067-2.2,5.169,5.169,0,0,1,3.051-.768h1.237v-.589a1.573,1.573,0,0,0-.39-1.116A1.547,1.547,0,0,0,62.7-7.612a1.777,1.777,0,0,0-1.129.344,1.066,1.066,0,0,0-.44.876H59.118a2.239,2.239,0,0,1,.49-1.382A3.263,3.263,0,0,1,60.94-8.782a4.68,4.68,0,0,1,1.88-.365,3.769,3.769,0,0,1,2.515.793A2.827,2.827,0,0,1,66.3-6.126v4.051a4.591,4.591,0,0,0,.34,1.934V0ZM62.364-1.453a2.294,2.294,0,0,0,1.125-.291,1.941,1.941,0,0,0,.793-.78V-4.217H63.194a2.973,2.973,0,0,0-1.685.39,1.264,1.264,0,0,0-.564,1.1,1.179,1.179,0,0,0,.386.926A1.5,1.5,0,0,0,62.364-1.453Zm-97.75,16.288v2.183H-33.8v1.494h-1.585v5.014a1.1,1.1,0,0,0,.2.743.943.943,0,0,0,.726.228,3.107,3.107,0,0,0,.706-.083v1.561a4.968,4.968,0,0,1-1.328.191q-2.324,0-2.324-2.565V18.513h-1.478V17.019H-37.4V14.835ZM-26.895,26a3.113,3.113,0,0,1-.232-.838,3.14,3.14,0,0,1-2.357,1,3.169,3.169,0,0,1-2.208-.772,2.47,2.47,0,0,1-.855-1.909,2.55,2.55,0,0,1,1.067-2.2,5.169,5.169,0,0,1,3.051-.768h1.237v-.589a1.573,1.573,0,0,0-.39-1.116,1.547,1.547,0,0,0-1.187-.419,1.777,1.777,0,0,0-1.129.344,1.066,1.066,0,0,0-.44.876h-2.017a2.239,2.239,0,0,1,.49-1.382,3.263,3.263,0,0,1,1.332-1.009,4.68,4.68,0,0,1,1.88-.365,3.769,3.769,0,0,1,2.515.793,2.827,2.827,0,0,1,.963,2.229v4.051a4.591,4.591,0,0,0,.34,1.934V26Zm-2.216-1.453a2.294,2.294,0,0,0,1.125-.291,1.941,1.941,0,0,0,.793-.78V21.783h-1.087a2.973,2.973,0,0,0-1.685.39,1.264,1.264,0,0,0-.564,1.1,1.179,1.179,0,0,0,.386.926A1.5,1.5,0,0,0-29.111,24.547ZM-20.918,26h-2.017V13.25h2.017Zm4.341,0h-2.017V13.25h2.017Zm7.562,0a3.113,3.113,0,0,1-.232-.838,3.14,3.14,0,0,1-2.357,1,3.169,3.169,0,0,1-2.208-.772,2.47,2.47,0,0,1-.855-1.909,2.55,2.55,0,0,1,1.067-2.2,5.169,5.169,0,0,1,3.051-.768h1.237v-.589a1.573,1.573,0,0,0-.39-1.116,1.547,1.547,0,0,0-1.187-.419,1.777,1.777,0,0,0-1.129.344,1.066,1.066,0,0,0-.44.876h-2.017a2.239,2.239,0,0,1,.49-1.382,3.263,3.263,0,0,1,1.332-1.009,4.68,4.68,0,0,1,1.88-.365,3.769,3.769,0,0,1,2.515.793A2.827,2.827,0,0,1-7.3,19.874v4.051a4.591,4.591,0,0,0,.34,1.934V26Zm-2.216-1.453a2.294,2.294,0,0,0,1.125-.291,1.941,1.941,0,0,0,.793-.78V21.783H-10.4a2.973,2.973,0,0,0-1.685.39,1.264,1.264,0,0,0-.564,1.1,1.179,1.179,0,0,0,.386.926A1.5,1.5,0,0,0-11.231,24.547Zm13.2-10.633,3.486,9.264,3.478-9.264h2.714V26H9.554V22.016l.208-5.329L6.192,26H4.69L1.129,16.695l.208,5.321V26H-.755V13.914ZM14.5,27.038H12.916l4.756-13.124h1.585Zm8.359-8h1.229a2.2,2.2,0,0,0,1.473-.481,1.718,1.718,0,0,0,.544-1.37,1.872,1.872,0,0,0-.452-1.341,1.821,1.821,0,0,0-1.382-.477,1.926,1.926,0,0,0-1.336.469,1.567,1.567,0,0,0-.523,1.224H20.4a3.053,3.053,0,0,1,.494-1.693,3.318,3.318,0,0,1,1.378-1.191,4.489,4.489,0,0,1,1.98-.427,4.157,4.157,0,0,1,2.843.909,3.19,3.19,0,0,1,1.033,2.528,2.568,2.568,0,0,1-.519,1.531A3.253,3.253,0,0,1,26.264,19.8a2.965,2.965,0,0,1,1.515,1.071,2.932,2.932,0,0,1,.519,1.743,3.246,3.246,0,0,1-1.116,2.59,4.335,4.335,0,0,1-2.934.963,4.3,4.3,0,0,1-2.855-.93,3.062,3.062,0,0,1-1.112-2.474H22.3a1.687,1.687,0,0,0,.535,1.295,2.03,2.03,0,0,0,1.44.5,2.094,2.094,0,0,0,1.478-.5,1.868,1.868,0,0,0,.54-1.444,1.887,1.887,0,0,0-.564-1.469,2.413,2.413,0,0,0-1.677-.515H22.86Zm13.6-5.18v1.668h-.249a4,4,0,0,0-2.706.93,3.89,3.89,0,0,0-1.2,2.565A3.275,3.275,0,0,1,34.789,18a3.094,3.094,0,0,1,2.528,1.129,4.446,4.446,0,0,1,.926,2.914,4.157,4.157,0,0,1-1.083,2.984,3.739,3.739,0,0,1-2.843,1.141,3.652,3.652,0,0,1-2.934-1.336,5.257,5.257,0,0,1-1.125-3.5v-.689a7.4,7.4,0,0,1,1.548-4.98,5.551,5.551,0,0,1,4.453-1.8ZM34.3,19.625A2.124,2.124,0,0,0,33.083,20a2.183,2.183,0,0,0-.809,1v.614a3.618,3.618,0,0,0,.564,2.137,1.721,1.721,0,0,0,1.461.793,1.7,1.7,0,0,0,1.419-.672,2.8,2.8,0,0,0,.523-1.768,2.84,2.84,0,0,0-.531-1.785A1.693,1.693,0,0,0,34.3,19.625ZM-28.488,50.556a1.824,1.824,0,0,0,1.253-.44,1.5,1.5,0,0,0,.531-1.087h1.9a2.963,2.963,0,0,1-.523,1.565,3.43,3.43,0,0,1-1.328,1.15,3.958,3.958,0,0,1-1.81.423,3.829,3.829,0,0,1-2.988-1.22,4.84,4.84,0,0,1-1.1-3.37v-.208a4.759,4.759,0,0,1,1.1-3.283,3.8,3.8,0,0,1,2.988-1.233,3.69,3.69,0,0,1,2.611.934A3.345,3.345,0,0,1-24.8,46.239h-1.9a1.847,1.847,0,0,0-.527-1.27,1.7,1.7,0,0,0-1.258-.5,1.775,1.775,0,0,0-1.511.71,3.621,3.621,0,0,0-.54,2.154v.324a3.682,3.682,0,0,0,.527,2.179A1.773,1.773,0,0,0-28.488,50.556Zm4.831-3.129a5.3,5.3,0,0,1,.523-2.378,3.819,3.819,0,0,1,1.469-1.627,4.14,4.14,0,0,1,2.175-.569,3.923,3.923,0,0,1,2.951,1.17,4.6,4.6,0,0,1,1.224,3.1l.008.473a5.343,5.343,0,0,1-.51,2.374,3.773,3.773,0,0,1-1.461,1.619,4.17,4.17,0,0,1-2.2.573A3.9,3.9,0,0,1-22.516,50.9a4.848,4.848,0,0,1-1.141-3.374Zm2.017.174a3.619,3.619,0,0,0,.573,2.171,1.862,1.862,0,0,0,1.594.784,1.842,1.842,0,0,0,1.59-.8,4,4,0,0,0,.569-2.333,3.572,3.572,0,0,0-.585-2.158,1.869,1.869,0,0,0-1.59-.8,1.852,1.852,0,0,0-1.569.784A3.922,3.922,0,0,0-21.64,47.6ZM-8.9,44.861a4.992,4.992,0,0,0-.822-.066,1.85,1.85,0,0,0-1.868,1.063V52H-13.6V43.019h1.926l.05,1A2.273,2.273,0,0,1-9.6,42.853a1.888,1.888,0,0,1,.714.116Zm4.217-4.026v2.183H-3.1v1.494H-4.682v5.014a1.1,1.1,0,0,0,.2.743.943.943,0,0,0,.726.228,3.107,3.107,0,0,0,.706-.083v1.561a4.968,4.968,0,0,1-1.328.191Q-6.7,52.166-6.7,49.6V44.513H-8.176V43.019H-6.7V40.835ZM2.4,52.166A4.173,4.173,0,0,1-.71,50.958,4.381,4.381,0,0,1-1.9,47.742v-.249a5.389,5.389,0,0,1,.519-2.4A3.949,3.949,0,0,1,.075,43.442a3.851,3.851,0,0,1,2.092-.589A3.525,3.525,0,0,1,5,44.023a4.949,4.949,0,0,1,1,3.312v.813H.133a2.7,2.7,0,0,0,.743,1.76,2.23,2.23,0,0,0,1.639.647,2.731,2.731,0,0,0,2.258-1.121L5.86,50.473a3.631,3.631,0,0,1-1.44,1.249A4.509,4.509,0,0,1,2.4,52.166Zm-.241-7.695a1.7,1.7,0,0,0-1.341.581,3.012,3.012,0,0,0-.652,1.619H4.009v-.149a2.452,2.452,0,0,0-.54-1.531A1.686,1.686,0,0,0,2.158,44.471Zm12.866,1.5,1.71-2.955h2.241l-2.748,4.424L19.067,52H16.842l-1.793-3.071L13.265,52H11.023l2.839-4.557-2.739-4.424h2.225ZM32.581,52H24.454V50.614l4.026-4.391A10.025,10.025,0,0,0,29.721,44.6a2.629,2.629,0,0,0,.369-1.307A1.986,1.986,0,0,0,29.6,41.9a1.684,1.684,0,0,0-1.307-.531,1.942,1.942,0,0,0-1.519.6,2.35,2.35,0,0,0-.54,1.635H24.222a3.953,3.953,0,0,1,.5-1.988,3.458,3.458,0,0,1,1.436-1.374,4.571,4.571,0,0,1,2.154-.49,4.088,4.088,0,0,1,2.777.884,3.069,3.069,0,0,1,1.017,2.445,4.148,4.148,0,0,1-.51,1.9,10.785,10.785,0,0,1-1.673,2.254L26.969,50.39h5.611Z" transform="translate(403.227 12329.402)" fill="#12263f"/>
    <path id="Trazado_896802" data-name="Trazado 896802" d="M-21.422-6.555h1.156a2.069,2.069,0,0,0,1.387-.453A1.617,1.617,0,0,0-18.367-8.3a1.762,1.762,0,0,0-.426-1.262,1.714,1.714,0,0,0-1.3-.449,1.813,1.813,0,0,0-1.258.441,1.475,1.475,0,0,0-.492,1.152h-1.9a2.874,2.874,0,0,1,.465-1.594,3.123,3.123,0,0,1,1.3-1.121,4.225,4.225,0,0,1,1.863-.4,3.912,3.912,0,0,1,2.676.855A3,3,0,0,1-16.469-8.3a2.417,2.417,0,0,1-.488,1.441,3.062,3.062,0,0,1-1.262,1.02,2.791,2.791,0,0,1,1.426,1.008A2.759,2.759,0,0,1-16.3-3.187,3.055,3.055,0,0,1-17.355-.75a4.08,4.08,0,0,1-2.762.906A4.049,4.049,0,0,1-22.8-.719a2.882,2.882,0,0,1-1.047-2.328h1.9a1.588,1.588,0,0,0,.5,1.219,1.911,1.911,0,0,0,1.355.469A1.971,1.971,0,0,0-18.7-1.828,1.758,1.758,0,0,0-18.2-3.187a1.776,1.776,0,0,0-.531-1.383A2.271,2.271,0,0,0-20.3-5.055h-1.117ZM-13.219-2a1.084,1.084,0,0,1,.82.3,1.045,1.045,0,0,1,.289.754,1.008,1.008,0,0,1-.289.738,1.1,1.1,0,0,1-.82.293,1.1,1.1,0,0,1-.8-.289.991.991,0,0,1-.3-.742,1.045,1.045,0,0,1,.289-.754A1.074,1.074,0,0,1-13.219-2Zm3.672-3.641.617-5.734H-2.82v1.641H-7.352l-.312,2.719a3.512,3.512,0,0,1,1.781-.453A3.169,3.169,0,0,1-3.355-6.43a4.118,4.118,0,0,1,.9,2.8,3.79,3.79,0,0,1-1,2.762A3.65,3.65,0,0,1-6.2.156,3.822,3.822,0,0,1-8.785-.73,3.206,3.206,0,0,1-9.9-3.07h1.836A2,2,0,0,0-7.469-1.8,1.806,1.806,0,0,0-6.2-1.359,1.632,1.632,0,0,0-4.84-1.984a2.7,2.7,0,0,0,.488-1.7,2.384,2.384,0,0,0-.539-1.645,1.885,1.885,0,0,0-1.484-.605A2.469,2.469,0,0,0-7.25-5.8a2.478,2.478,0,0,0-.781.535ZM6.617-1.359A1.716,1.716,0,0,0,7.8-1.773,1.415,1.415,0,0,0,8.3-2.8h1.789a2.789,2.789,0,0,1-.492,1.473A3.228,3.228,0,0,1,8.344-.242a3.725,3.725,0,0,1-1.7.4A3.6,3.6,0,0,1,3.828-.992,4.555,4.555,0,0,1,2.789-4.164v-.2A4.479,4.479,0,0,1,3.82-7.449a3.571,3.571,0,0,1,2.813-1.16A3.473,3.473,0,0,1,9.09-7.73a3.148,3.148,0,0,1,1,2.309H8.3a1.738,1.738,0,0,0-.5-1.2,1.6,1.6,0,0,0-1.184-.469A1.671,1.671,0,0,0,5.2-6.418a3.408,3.408,0,0,0-.508,2.027v.3a3.465,3.465,0,0,0,.5,2.051A1.669,1.669,0,0,0,6.617-1.359ZM13.3-8.453l.055.883A3.042,3.042,0,0,1,15.8-8.609a2.337,2.337,0,0,1,2.32,1.3,3,3,0,0,1,2.594-1.3,2.636,2.636,0,0,1,2.082.773,3.405,3.405,0,0,1,.7,2.281V0h-1.9V-5.5a1.681,1.681,0,0,0-.352-1.18,1.539,1.539,0,0,0-1.164-.375,1.581,1.581,0,0,0-1.059.348,1.833,1.833,0,0,0-.574.91L18.453,0h-1.9V-5.562a1.354,1.354,0,0,0-1.523-1.492,1.671,1.671,0,0,0-1.617.93V0h-1.9V-8.453Z" transform="translate(539.403 12384.715)" fill="#12263f"/>
    <path id="Trazado_896803" data-name="Trazado 896803" d="M-10.016-11.43v1.57h-.234a3.768,3.768,0,0,0-2.547.875A3.661,3.661,0,0,0-13.93-6.57a3.083,3.083,0,0,1,2.336-.961A2.912,2.912,0,0,1-9.215-6.469a4.185,4.185,0,0,1,.871,2.742A3.912,3.912,0,0,1-9.363-.918,3.519,3.519,0,0,1-12.039.156,3.438,3.438,0,0,1-14.8-1.1a4.948,4.948,0,0,1-1.059-3.3v-.648A6.962,6.962,0,0,1-14.4-9.734a5.224,5.224,0,0,1,4.191-1.7ZM-12.055-6a2,2,0,0,0-1.145.352,2.055,2.055,0,0,0-.762.938v.578a3.405,3.405,0,0,0,.531,2.012,1.62,1.62,0,0,0,1.375.746,1.6,1.6,0,0,0,1.336-.633,2.635,2.635,0,0,0,.492-1.664,2.673,2.673,0,0,0-.5-1.68A1.594,1.594,0,0,0-12.055-6ZM2.156-3.7A4.107,4.107,0,0,1,.813-.863,4.581,4.581,0,0,1-2.3.156,4.436,4.436,0,0,1-4.7-.488,4.231,4.231,0,0,1-6.3-2.32a6.611,6.611,0,0,1-.586-2.758V-6.141a6.659,6.659,0,0,1,.57-2.836,4.3,4.3,0,0,1,1.637-1.891,4.566,4.566,0,0,1,2.465-.664A4.386,4.386,0,0,1,.82-10.508,4.276,4.276,0,0,1,2.156-7.617H.188a2.81,2.81,0,0,0-.715-1.77A2.363,2.363,0,0,0-2.211-9.93a2.309,2.309,0,0,0-1.98.941A4.7,4.7,0,0,0-4.9-6.227v1.008a4.988,4.988,0,0,0,.66,2.813A2.191,2.191,0,0,0-2.3-1.437a2.555,2.555,0,0,0,1.75-.523A2.729,2.729,0,0,0,.188-3.7Zm4.328-7.672L9.766-2.656l3.273-8.719h2.555V0H13.625V-3.75l.2-5.016L10.461,0H9.047L5.7-8.758l.2,5.008V0H3.922V-11.375Z" transform="translate(564.235 12606.648)" fill="#12263f"/>
    <path id="Trazado_896804" data-name="Trazado 896804" d="M-45.754-4.491V0h-2.1V-12.086h4.624a4.679,4.679,0,0,1,3.217,1.054,3.543,3.543,0,0,1,1.191,2.789,3.425,3.425,0,0,1-1.166,2.764,4.905,4.905,0,0,1-3.266.988Zm0-1.685h2.523a2.485,2.485,0,0,0,1.71-.527,1.937,1.937,0,0,0,.589-1.523,2.09,2.09,0,0,0-.6-1.565,2.3,2.3,0,0,0-1.644-.6h-2.582Zm14.012,5.3A3.128,3.128,0,0,1-34.266.166a2.788,2.788,0,0,1-2.212-.855,3.637,3.637,0,0,1-.751-2.474V-8.981h2.017v5.794q0,1.71,1.419,1.71a1.993,1.993,0,0,0,1.984-1.054v-6.45h2.017V0h-1.9Zm5.877-8.1.058,1.038a3.229,3.229,0,0,1,2.615-1.2q2.806,0,2.855,3.212V0h-2.017V-5.819a1.85,1.85,0,0,0-.369-1.266A1.554,1.554,0,0,0-23.931-7.5a1.944,1.944,0,0,0-1.818,1.1V0h-2.017V-8.981Zm4.9-3.586a2.231,2.231,0,0,1-.527,1.519,1.681,1.681,0,0,1-1.324.606,1.972,1.972,0,0,1-.56-.071,3.564,3.564,0,0,1-.672-.32,3.323,3.323,0,0,0-.614-.3,1.465,1.465,0,0,0-.394-.05.7.7,0,0,0-.535.237.872.872,0,0,0-.22.618l-1.237-.066a2.3,2.3,0,0,1,.527-1.536,1.654,1.654,0,0,1,1.316-.623,2.449,2.449,0,0,1,1.141.374,2.413,2.413,0,0,0,1.1.374.717.717,0,0,0,.54-.237.874.874,0,0,0,.224-.627Zm2.308,7.994a5.3,5.3,0,0,1,.523-2.378,3.819,3.819,0,0,1,1.469-1.627,4.14,4.14,0,0,1,2.175-.569,3.923,3.923,0,0,1,2.951,1.17,4.6,4.6,0,0,1,1.224,3.1l.008.473a5.343,5.343,0,0,1-.51,2.374A3.773,3.773,0,0,1-12.281-.407a4.17,4.17,0,0,1-2.2.573A3.9,3.9,0,0,1-17.519-1.1,4.848,4.848,0,0,1-18.66-4.474Zm2.017.174a3.619,3.619,0,0,0,.573,2.171,1.862,1.862,0,0,0,1.594.784,1.842,1.842,0,0,0,1.59-.8,4,4,0,0,0,.569-2.333A3.572,3.572,0,0,0-12.9-6.732a1.869,1.869,0,0,0-1.59-.8,1.852,1.852,0,0,0-1.569.784A3.922,3.922,0,0,0-16.643-4.4Zm20.7-5.993H.291V0H-1.793V-10.393H-5.528v-1.693H4.059ZM12.1-12.086l3.486,9.264,3.478-9.264h2.714V0H19.689V-3.984L19.9-9.313,16.328,0h-1.5L11.264-9.305l.208,5.321V0H9.38V-12.086ZM24.637,1.038H23.051l4.756-13.124h1.585Zm8.359-8h1.229A2.2,2.2,0,0,0,35.7-7.446a1.718,1.718,0,0,0,.544-1.37,1.872,1.872,0,0,0-.452-1.341,1.821,1.821,0,0,0-1.382-.477,1.926,1.926,0,0,0-1.336.469,1.567,1.567,0,0,0-.523,1.224H30.53a3.053,3.053,0,0,1,.494-1.693A3.318,3.318,0,0,1,32.4-11.824a4.489,4.489,0,0,1,1.98-.427,4.157,4.157,0,0,1,2.843.909,3.19,3.19,0,0,1,1.033,2.528,2.568,2.568,0,0,1-.519,1.531A3.253,3.253,0,0,1,36.4-6.2,2.965,2.965,0,0,1,37.914-5.13a2.932,2.932,0,0,1,.519,1.743A3.246,3.246,0,0,1,37.316-.8a4.335,4.335,0,0,1-2.934.963,4.3,4.3,0,0,1-2.855-.93,3.062,3.062,0,0,1-1.112-2.474h2.017a1.687,1.687,0,0,0,.535,1.295,2.03,2.03,0,0,0,1.44.5,2.094,2.094,0,0,0,1.478-.5,1.868,1.868,0,0,0,.54-1.444,1.887,1.887,0,0,0-.564-1.469,2.413,2.413,0,0,0-1.677-.515H33Zm13.6-5.18v1.668h-.249a4,4,0,0,0-2.706.93,3.89,3.89,0,0,0-1.2,2.565A3.275,3.275,0,0,1,44.924-8a3.094,3.094,0,0,1,2.528,1.129,4.446,4.446,0,0,1,.926,2.914A4.157,4.157,0,0,1,47.294-.975,3.739,3.739,0,0,1,44.451.166,3.652,3.652,0,0,1,41.516-1.17a5.257,5.257,0,0,1-1.125-3.5v-.689a7.4,7.4,0,0,1,1.548-4.98,5.551,5.551,0,0,1,4.453-1.8ZM44.434-6.375A2.124,2.124,0,0,0,43.218-6a2.183,2.183,0,0,0-.809,1v.614a3.618,3.618,0,0,0,.564,2.137,1.721,1.721,0,0,0,1.461.793,1.7,1.7,0,0,0,1.419-.672A2.8,2.8,0,0,0,46.376-3.9a2.84,2.84,0,0,0-.531-1.785A1.693,1.693,0,0,0,44.434-6.375ZM-28.488,24.556a1.824,1.824,0,0,0,1.253-.44,1.5,1.5,0,0,0,.531-1.087h1.9a2.963,2.963,0,0,1-.523,1.565,3.43,3.43,0,0,1-1.328,1.15,3.958,3.958,0,0,1-1.81.423,3.829,3.829,0,0,1-2.988-1.22,4.84,4.84,0,0,1-1.1-3.37v-.208a4.759,4.759,0,0,1,1.1-3.283,3.8,3.8,0,0,1,2.988-1.233,3.69,3.69,0,0,1,2.611.934A3.345,3.345,0,0,1-24.8,20.239h-1.9a1.847,1.847,0,0,0-.527-1.27,1.7,1.7,0,0,0-1.258-.5,1.775,1.775,0,0,0-1.511.71,3.621,3.621,0,0,0-.54,2.154v.324a3.682,3.682,0,0,0,.527,2.179A1.773,1.773,0,0,0-28.488,24.556Zm4.831-3.129a5.3,5.3,0,0,1,.523-2.378,3.819,3.819,0,0,1,1.469-1.627,4.14,4.14,0,0,1,2.175-.569,3.923,3.923,0,0,1,2.951,1.17,4.6,4.6,0,0,1,1.224,3.1l.008.473a5.343,5.343,0,0,1-.51,2.374,3.773,3.773,0,0,1-1.461,1.619,4.17,4.17,0,0,1-2.2.573A3.9,3.9,0,0,1-22.516,24.9a4.848,4.848,0,0,1-1.141-3.374Zm2.017.174a3.619,3.619,0,0,0,.573,2.171,1.862,1.862,0,0,0,1.594.784,1.842,1.842,0,0,0,1.59-.8,4,4,0,0,0,.569-2.333,3.572,3.572,0,0,0-.585-2.158,1.869,1.869,0,0,0-1.59-.8,1.852,1.852,0,0,0-1.569.784A3.922,3.922,0,0,0-21.64,21.6ZM-8.9,18.861a4.991,4.991,0,0,0-.822-.066,1.85,1.85,0,0,0-1.868,1.063V26H-13.6V17.019h1.926l.05,1A2.273,2.273,0,0,1-9.6,16.853a1.888,1.888,0,0,1,.714.116Zm4.217-4.026v2.183H-3.1v1.494H-4.682v5.014a1.1,1.1,0,0,0,.2.743.943.943,0,0,0,.726.228,3.107,3.107,0,0,0,.706-.083v1.561a4.968,4.968,0,0,1-1.328.191Q-6.7,26.166-6.7,23.6V18.513H-8.176V17.019H-6.7V14.835ZM2.4,26.166A4.173,4.173,0,0,1-.71,24.958,4.381,4.381,0,0,1-1.9,21.742v-.249a5.389,5.389,0,0,1,.519-2.4A3.949,3.949,0,0,1,.075,17.442a3.851,3.851,0,0,1,2.092-.589A3.525,3.525,0,0,1,5,18.023a4.949,4.949,0,0,1,1,3.312v.813H.133a2.7,2.7,0,0,0,.743,1.76,2.23,2.23,0,0,0,1.639.647,2.731,2.731,0,0,0,2.258-1.121L5.86,24.473a3.631,3.631,0,0,1-1.44,1.249A4.509,4.509,0,0,1,2.4,26.166Zm-.241-7.695a1.7,1.7,0,0,0-1.341.581,3.012,3.012,0,0,0-.652,1.619H4.009v-.149a2.452,2.452,0,0,0-.54-1.531A1.686,1.686,0,0,0,2.158,18.471Zm12.866,1.5,1.71-2.955h2.241l-2.748,4.424L19.067,26H16.842l-1.793-3.071L13.265,26H11.023l2.839-4.557-2.739-4.424h2.225Zm16.253,1.718h1.5v1.619h-1.5V26H29.26V23.311H24.039l-.058-1.229,5.213-8.168h2.083Zm-5.18,0H29.26V16.645l-.149.266Z" transform="translate(653.268 12665.033)" fill="#12263f"/>
    <path id="Trazado_896805" data-name="Trazado 896805" d="M-13.734,0h-7.648V-1.3l3.789-4.133a9.436,9.436,0,0,0,1.168-1.527,2.475,2.475,0,0,0,.348-1.23,1.87,1.87,0,0,0-.457-1.312,1.585,1.585,0,0,0-1.23-.5,1.827,1.827,0,0,0-1.43.563A2.212,2.212,0,0,0-19.7-7.906h-1.9a3.721,3.721,0,0,1,.473-1.871,3.255,3.255,0,0,1,1.352-1.293,4.3,4.3,0,0,1,2.027-.461,3.848,3.848,0,0,1,2.613.832,2.888,2.888,0,0,1,.957,2.3,3.9,3.9,0,0,1-.48,1.785,10.151,10.151,0,0,1-1.574,2.121l-2.781,2.977h5.281Zm8.859-4.789a6.2,6.2,0,0,1-.918,3.7A3.242,3.242,0,0,1-8.586.156a3.285,3.285,0,0,1-2.777-1.215,5.94,5.94,0,0,1-.957-3.6V-6.625A6.11,6.11,0,0,1-11.4-10.3a3.272,3.272,0,0,1,2.8-1.227,3.291,3.291,0,0,1,2.785,1.2,5.924,5.924,0,0,1,.941,3.578Zm-1.9-2.125a4.813,4.813,0,0,0-.437-2.348A1.493,1.493,0,0,0-8.6-10.008,1.492,1.492,0,0,0-9.969-9.3a4.448,4.448,0,0,0-.461,2.207v2.578a4.937,4.937,0,0,0,.445,2.375,1.5,1.5,0,0,0,1.4.781,1.469,1.469,0,0,0,1.352-.723,4.645,4.645,0,0,0,.461-2.262ZM4.383-1.359a1.716,1.716,0,0,0,1.18-.414,1.415,1.415,0,0,0,.5-1.023H7.852a2.789,2.789,0,0,1-.492,1.473A3.228,3.228,0,0,1,6.109-.242a3.725,3.725,0,0,1-1.7.4A3.6,3.6,0,0,1,1.594-.992,4.555,4.555,0,0,1,.555-4.164v-.2a4.479,4.479,0,0,1,1.031-3.09A3.571,3.571,0,0,1,4.4-8.609a3.473,3.473,0,0,1,2.457.879,3.148,3.148,0,0,1,1,2.309H6.063a1.738,1.738,0,0,0-.5-1.2,1.6,1.6,0,0,0-1.184-.469,1.671,1.671,0,0,0-1.422.668,3.408,3.408,0,0,0-.508,2.027v.3a3.465,3.465,0,0,0,.5,2.051A1.669,1.669,0,0,0,4.383-1.359ZM11.07-8.453l.055.883a3.042,3.042,0,0,1,2.438-1.039,2.337,2.337,0,0,1,2.32,1.3,3,3,0,0,1,2.594-1.3,2.636,2.636,0,0,1,2.082.773,3.405,3.405,0,0,1,.7,2.281V0h-1.9V-5.5a1.681,1.681,0,0,0-.352-1.18,1.539,1.539,0,0,0-1.164-.375,1.581,1.581,0,0,0-1.059.348,1.833,1.833,0,0,0-.574.91L16.219,0h-1.9V-5.562A1.354,1.354,0,0,0,12.8-7.055a1.671,1.671,0,0,0-1.617.93V0h-1.9V-8.453Z" transform="translate(512.473 12509.197) rotate(-90)" fill="#12263f"/>
    <path id="Trazado_896806" data-name="Trazado 896806" d="M-63.672-4.227V0h-1.977V-11.375H-61.3a4.4,4.4,0,0,1,3.027.992,3.334,3.334,0,0,1,1.121,2.625,3.224,3.224,0,0,1-1.1,2.6,4.617,4.617,0,0,1-3.074.93Zm0-1.586H-61.3a2.339,2.339,0,0,0,1.609-.5,1.823,1.823,0,0,0,.555-1.434A1.967,1.967,0,0,0-59.7-9.215a2.168,2.168,0,0,0-1.547-.566h-2.43ZM-56.062-4.3a4.984,4.984,0,0,1,.492-2.238,3.6,3.6,0,0,1,1.383-1.531,3.9,3.9,0,0,1,2.047-.535,3.692,3.692,0,0,1,2.777,1.1,4.333,4.333,0,0,1,1.152,2.922l.008.445a5.029,5.029,0,0,1-.48,2.234A3.551,3.551,0,0,1-50.059-.383a3.925,3.925,0,0,1-2.066.539,3.667,3.667,0,0,1-2.863-1.191,4.563,4.563,0,0,1-1.074-3.176Zm1.9.164A3.406,3.406,0,0,0-53.625-2.1a1.752,1.752,0,0,0,1.5.738,1.733,1.733,0,0,0,1.5-.75,3.762,3.762,0,0,0,.535-2.2,3.362,3.362,0,0,0-.551-2.031,1.759,1.759,0,0,0-1.5-.75,1.743,1.743,0,0,0-1.477.738A3.691,3.691,0,0,0-54.164-4.141Zm11.992-2.578a4.7,4.7,0,0,0-.773-.062,1.741,1.741,0,0,0-1.758,1V0h-1.9V-8.453h1.813l.047.945a2.139,2.139,0,0,1,1.906-1.1,1.777,1.777,0,0,1,.672.109Zm3.969-3.789v2.055h1.492v1.406H-38.2v4.719a1.039,1.039,0,0,0,.191.7.888.888,0,0,0,.684.215,2.924,2.924,0,0,0,.664-.078V-.023a4.676,4.676,0,0,1-1.25.18Q-40.1.156-40.1-2.258V-7.047h-1.391V-8.453H-40.1v-2.055ZM-30.211,0a2.93,2.93,0,0,1-.219-.789,2.955,2.955,0,0,1-2.219.945A2.982,2.982,0,0,1-34.727-.57a2.325,2.325,0,0,1-.8-1.8,2.4,2.4,0,0,1,1-2.074,4.865,4.865,0,0,1,2.871-.723h1.164v-.555a1.481,1.481,0,0,0-.367-1.051,1.456,1.456,0,0,0-1.117-.395,1.672,1.672,0,0,0-1.062.324,1,1,0,0,0-.414.824h-1.9a2.107,2.107,0,0,1,.461-1.3,3.071,3.071,0,0,1,1.254-.949,4.4,4.4,0,0,1,1.77-.344,3.547,3.547,0,0,1,2.367.746,2.661,2.661,0,0,1,.906,2.1v3.813a4.321,4.321,0,0,0,.32,1.82V0ZM-32.3-1.367a2.159,2.159,0,0,0,1.059-.273,1.827,1.827,0,0,0,.746-.734V-3.969h-1.023A2.8,2.8,0,0,0-33.1-3.6a1.189,1.189,0,0,0-.531,1.039,1.109,1.109,0,0,0,.363.871A1.407,1.407,0,0,0-32.3-1.367Zm7.453-7.086.055.977a3.039,3.039,0,0,1,2.461-1.133q2.641,0,2.688,3.023V0h-1.9V-5.477a1.741,1.741,0,0,0-.348-1.191,1.462,1.462,0,0,0-1.137-.387,1.829,1.829,0,0,0-1.711,1.039V0h-1.9V-8.453Zm4.609-3.375a2.1,2.1,0,0,1-.5,1.43,1.582,1.582,0,0,1-1.246.57,1.856,1.856,0,0,1-.527-.066,3.354,3.354,0,0,1-.633-.3,3.128,3.128,0,0,0-.578-.281,1.378,1.378,0,0,0-.371-.047.662.662,0,0,0-.5.223.821.821,0,0,0-.207.582l-1.164-.062a2.16,2.16,0,0,1,.5-1.445,1.557,1.557,0,0,1,1.238-.586,2.305,2.305,0,0,1,1.074.352,2.271,2.271,0,0,0,1.035.352.675.675,0,0,0,.508-.223.822.822,0,0,0,.211-.59Zm7.648,11a2.944,2.944,0,0,1-2.375.984,2.624,2.624,0,0,1-2.082-.8,3.423,3.423,0,0,1-.707-2.328V-8.453h1.9V-3q0,1.609,1.336,1.609a1.876,1.876,0,0,0,1.867-.992v-6.07h1.9V0h-1.789Zm7.492.984A3.928,3.928,0,0,1-8.02-.98,4.124,4.124,0,0,1-9.141-4.008v-.234A5.072,5.072,0,0,1-8.652-6.5,3.716,3.716,0,0,1-7.281-8.055a3.625,3.625,0,0,1,1.969-.555,3.318,3.318,0,0,1,2.668,1.1A4.658,4.658,0,0,1-1.7-4.391v.766H-7.227a2.539,2.539,0,0,0,.7,1.656,2.1,2.1,0,0,0,1.543.609A2.571,2.571,0,0,0-2.859-2.414l1.023.977A3.418,3.418,0,0,1-3.191-.262,4.244,4.244,0,0,1-5.094.156ZM-5.32-7.086a1.6,1.6,0,0,0-1.262.547A2.835,2.835,0,0,0-7.2-5.016h3.617v-.141A2.307,2.307,0,0,0-4.086-6.6,1.586,1.586,0,0,0-5.32-7.086ZM1.789,0h-1.9V-12h1.9ZM8.906,0a2.93,2.93,0,0,1-.219-.789A2.955,2.955,0,0,1,6.469.156,2.982,2.982,0,0,1,4.391-.57a2.325,2.325,0,0,1-.8-1.8,2.4,2.4,0,0,1,1-2.074,4.865,4.865,0,0,1,2.871-.723H8.625v-.555A1.481,1.481,0,0,0,8.258-6.77a1.456,1.456,0,0,0-1.117-.395,1.672,1.672,0,0,0-1.062.324,1,1,0,0,0-.414.824h-1.9a2.107,2.107,0,0,1,.461-1.3A3.071,3.071,0,0,1,5.48-8.266a4.4,4.4,0,0,1,1.77-.344,3.547,3.547,0,0,1,2.367.746,2.661,2.661,0,0,1,.906,2.1v3.813a4.321,4.321,0,0,0,.32,1.82V0ZM6.82-1.367a2.159,2.159,0,0,0,1.059-.273,1.827,1.827,0,0,0,.746-.734V-3.969H7.6A2.8,2.8,0,0,0,6.016-3.6a1.189,1.189,0,0,0-.531,1.039,1.109,1.109,0,0,0,.363.871A1.407,1.407,0,0,0,6.82-1.367ZM24.43-9.781H20.883V0H18.922V-9.781H15.406v-1.594H24.43ZM32-11.375l3.281,8.719,3.273-8.719h2.555V0H39.141V-3.75l.2-5.016L35.977,0H34.563L31.211-8.758l.2,5.008V0H29.438V-11.375ZM43.8.977H42.3l4.477-12.352h1.492Zm7.867-7.531H52.82a2.069,2.069,0,0,0,1.387-.453A1.617,1.617,0,0,0,54.719-8.3a1.762,1.762,0,0,0-.426-1.262,1.714,1.714,0,0,0-1.3-.449,1.813,1.813,0,0,0-1.258.441,1.475,1.475,0,0,0-.492,1.152h-1.9a2.874,2.874,0,0,1,.465-1.594,3.123,3.123,0,0,1,1.3-1.121,4.225,4.225,0,0,1,1.863-.4,3.912,3.912,0,0,1,2.676.855A3,3,0,0,1,56.617-8.3a2.417,2.417,0,0,1-.488,1.441,3.062,3.062,0,0,1-1.262,1.02,2.791,2.791,0,0,1,1.426,1.008,2.759,2.759,0,0,1,.488,1.641A3.055,3.055,0,0,1,55.73-.75a4.08,4.08,0,0,1-2.762.906,4.049,4.049,0,0,1-2.687-.875,2.882,2.882,0,0,1-1.047-2.328h1.9a1.588,1.588,0,0,0,.5,1.219,1.911,1.911,0,0,0,1.355.469,1.971,1.971,0,0,0,1.391-.469,1.758,1.758,0,0,0,.508-1.359,1.776,1.776,0,0,0-.531-1.383,2.271,2.271,0,0,0-1.578-.484H51.664Zm12.8-4.875v1.57h-.234a3.768,3.768,0,0,0-2.547.875A3.661,3.661,0,0,0,60.555-6.57a3.083,3.083,0,0,1,2.336-.961A2.912,2.912,0,0,1,65.27-6.469a4.185,4.185,0,0,1,.871,2.742,3.912,3.912,0,0,1-1.02,2.809A3.519,3.519,0,0,1,62.445.156,3.438,3.438,0,0,1,59.684-1.1a4.948,4.948,0,0,1-1.059-3.3v-.648a6.962,6.962,0,0,1,1.457-4.687,5.224,5.224,0,0,1,4.191-1.7ZM62.43-6a2,2,0,0,0-1.145.352,2.055,2.055,0,0,0-.762.938v.578a3.405,3.405,0,0,0,.531,2.012,1.62,1.62,0,0,0,1.375.746,1.6,1.6,0,0,0,1.336-.633,2.635,2.635,0,0,0,.492-1.664,2.673,2.673,0,0,0-.5-1.68A1.594,1.594,0,0,0,62.43-6Z" transform="translate(536.116 12520.389) rotate(-90)" fill="#12263f"/>
    <path id="Trazado_896807" data-name="Trazado 896807" d="M-24.82-1.359a1.716,1.716,0,0,0,1.18-.414,1.415,1.415,0,0,0,.5-1.023h1.789a2.789,2.789,0,0,1-.492,1.473,3.228,3.228,0,0,1-1.25,1.082,3.725,3.725,0,0,1-1.7.4A3.6,3.6,0,0,1-27.609-.992a4.555,4.555,0,0,1-1.039-3.172v-.2a4.479,4.479,0,0,1,1.031-3.09A3.571,3.571,0,0,1-24.8-8.609a3.473,3.473,0,0,1,2.457.879,3.148,3.148,0,0,1,1,2.309h-1.789a1.738,1.738,0,0,0-.5-1.2,1.6,1.6,0,0,0-1.184-.469,1.671,1.671,0,0,0-1.422.668,3.408,3.408,0,0,0-.508,2.027v.3a3.465,3.465,0,0,0,.5,2.051A1.669,1.669,0,0,0-24.82-1.359ZM-20.273-4.3a4.984,4.984,0,0,1,.492-2.238A3.6,3.6,0,0,1-18.4-8.074a3.9,3.9,0,0,1,2.047-.535,3.692,3.692,0,0,1,2.777,1.1,4.333,4.333,0,0,1,1.152,2.922l.008.445a5.029,5.029,0,0,1-.48,2.234A3.551,3.551,0,0,1-14.27-.383a3.925,3.925,0,0,1-2.066.539A3.667,3.667,0,0,1-19.2-1.035a4.563,4.563,0,0,1-1.074-3.176Zm1.9.164A3.406,3.406,0,0,0-17.836-2.1a1.752,1.752,0,0,0,1.5.738,1.733,1.733,0,0,0,1.5-.75A3.762,3.762,0,0,0-14.3-4.3a3.362,3.362,0,0,0-.551-2.031,1.759,1.759,0,0,0-1.5-.75,1.743,1.743,0,0,0-1.477.738A3.691,3.691,0,0,0-18.375-4.141ZM-6.383-6.719a4.7,4.7,0,0,0-.773-.062,1.741,1.741,0,0,0-1.758,1V0h-1.9V-8.453H-9l.047.945a2.139,2.139,0,0,1,1.906-1.1,1.777,1.777,0,0,1,.672.109Zm3.969-3.789v2.055H-.922v1.406H-2.414v4.719a1.039,1.039,0,0,0,.191.7.888.888,0,0,0,.684.215,2.924,2.924,0,0,0,.664-.078V-.023a4.676,4.676,0,0,1-1.25.18q-2.188,0-2.187-2.414V-7.047H-5.7V-8.453h1.391v-2.055ZM4.25.156A3.928,3.928,0,0,1,1.324-.98,4.124,4.124,0,0,1,.2-4.008v-.234A5.072,5.072,0,0,1,.691-6.5,3.716,3.716,0,0,1,2.063-8.055a3.625,3.625,0,0,1,1.969-.555A3.318,3.318,0,0,1,6.7-7.508a4.658,4.658,0,0,1,.941,3.117v.766H2.117a2.539,2.539,0,0,0,.7,1.656,2.1,2.1,0,0,0,1.543.609A2.571,2.571,0,0,0,6.484-2.414l1.023.977A3.418,3.418,0,0,1,6.152-.262,4.244,4.244,0,0,1,4.25.156ZM4.023-7.086a1.6,1.6,0,0,0-1.262.547,2.835,2.835,0,0,0-.613,1.523H5.766v-.141A2.307,2.307,0,0,0,5.258-6.6,1.586,1.586,0,0,0,4.023-7.086ZM16.133-5.672l1.609-2.781h2.109L17.266-4.289,19.938,0H17.844L16.156-2.891,14.477,0H12.367l2.672-4.289L12.461-8.453h2.094ZM28.672,0H21.023V-1.3l3.789-4.133A9.436,9.436,0,0,0,25.98-6.965a2.475,2.475,0,0,0,.348-1.23,1.87,1.87,0,0,0-.457-1.312,1.585,1.585,0,0,0-1.23-.5,1.827,1.827,0,0,0-1.43.563A2.212,2.212,0,0,0,22.7-7.906H20.8a3.721,3.721,0,0,1,.473-1.871,3.255,3.255,0,0,1,1.352-1.293,4.3,4.3,0,0,1,2.027-.461,3.848,3.848,0,0,1,2.613.832,2.888,2.888,0,0,1,.957,2.3,3.9,3.9,0,0,1-.48,1.785,10.151,10.151,0,0,1-1.574,2.121L23.391-1.516h5.281Z" transform="translate(558.624 12556.205) rotate(-90)" fill="#12263f"/>
    <path id="Trazado_893300" data-name="Trazado 893300" d="M-7192.94-809.671h93.385v-77.91h-46.333V-994.392l-24.493-14.267-22.56,14.267Z" transform="translate(7712.056 13399.318)" fill="none" stroke="#7eadbf" stroke-width="2"/>
    <path id="Trazado_893301" data-name="Trazado 893301" d="M-7186.853-972.122l14.4,9.474" transform="translate(7711.547 13403.637)" fill="none" stroke="#12263f" stroke-width="2"/>
    <path id="Trazado_893306" data-name="Trazado 893306" d="M-7186.853-972.122l14.4,9.474" transform="translate(7756.837 13653.967)" fill="none" stroke="#12263f" stroke-width="2"/>
    <path id="Trazado_893302" data-name="Trazado 893302" d="M-7186.853-962.967l14.093-5.708" transform="translate(7711.547 13371.234)" fill="none" stroke="#12263f" stroke-width="2"/>
    <path id="Trazado_893303" data-name="Trazado 893303" d="M-7181.385-995.154v30.546" transform="translate(7713.125 13400.568)" fill="none" stroke="#12263f" stroke-width="2"/>
    <path id="Trazado_893307" data-name="Trazado 893307" d="M-7181.385-995.154v30.546" transform="translate(7758.415 13650.898)" fill="none" stroke="#12263f" stroke-width="2"/>
    <g id="Trazado_896808" data-name="Trazado 896808" transform="translate(519.05 12640.479)" fill="none">
      <path d="M0,0H270.95V62.275H0Z" stroke="none"/>
      <path d="M 1.999969482421875 1.999992370605469 L 1.999969482421875 60.2747802734375 L 268.9498596191406 60.2747802734375 L 268.9498596191406 1.999992370605469 L 1.999969482421875 1.999992370605469 M -3.0517578125e-05 -7.62939453125e-06 L 270.9498596191406 -7.62939453125e-06 L 270.9498596191406 62.2747802734375 L -3.0517578125e-05 62.2747802734375 L -3.0517578125e-05 -7.62939453125e-06 Z" stroke="none" fill="#7eadbf"/>
    </g>
    <path id="Trazado_893304" data-name="Trazado 893304" d="M-6972.159-764.765v-14.907" transform="translate(7732.487 13420.51)" fill="none" stroke="#7eadbf" stroke-width="2"/>
    <path id="Trazado_893305" data-name="Trazado 893305" d="M-6972.159-764.765v-14.907" transform="translate(7732.487 13466.396)" fill="none" stroke="#7eadbf" stroke-width="2"/>
    <g id="Trazado_896809" data-name="Trazado 896809" transform="translate(390.13 12710.402)" fill="none">
      <path d="M6.555,0A6.555,6.555,0,1,1,0,6.555,6.555,6.555,0,0,1,6.555,0Z" stroke="none"/>
      <path d="M 6.555239200592041 1.999999046325684 C 4.043469429016113 1.999999046325684 1.999999046325684 4.043469429016113 1.999999046325684 6.555239200592041 C 1.999999046325684 9.067008972167969 4.043469429016113 11.1104793548584 6.555239200592041 11.1104793548584 C 9.067008972167969 11.1104793548584 11.1104793548584 9.067008972167969 11.1104793548584 6.555239200592041 C 11.1104793548584 4.043469429016113 9.067008972167969 1.999999046325684 6.555239200592041 1.999999046325684 M 6.555239200592041 -9.5367431640625e-07 C 10.17559909820557 -9.5367431640625e-07 13.1104793548584 2.934879302978516 13.1104793548584 6.555239200592041 C 13.1104793548584 10.17559909820557 10.17559909820557 13.1104793548584 6.555239200592041 13.1104793548584 C 2.934879302978516 13.1104793548584 -9.5367431640625e-07 10.17559909820557 -9.5367431640625e-07 6.555239200592041 C -9.5367431640625e-07 2.934879302978516 2.934879302978516 -9.5367431640625e-07 6.555239200592041 -9.5367431640625e-07 Z" stroke="none" fill="#12263f"/>
    </g>
    <path id="Trazado_893308" data-name="Trazado 893308" d="M-7305-759.07v47.536" transform="translate(7701.686 13422.416)" fill="none" stroke="#12263f" stroke-width="2" stroke-dasharray="6"/>
    <path id="Trazado_896810" data-name="Trazado 896810" d="M12.018,0,24.036,20.758H0Z" transform="translate(384.668 12644.85)" fill="#12263f"/>
    <path id="Trazado_893309" data-name="Trazado 893309" d="M-7313.949-780h17.96" transform="translate(7701.654 13421.572)" fill="none" stroke="#12263f" stroke-width="2"/>
  </g>
</svg>
