<svg xmlns="http://www.w3.org/2000/svg" width="610" height="423" viewBox="0 0 610 423">
  <g id="Grupo_1115333" data-name="Grupo 1115333" transform="translate(-810.34 -13058.662)">
    <path id="Trazado_896811" data-name="Trazado 896811" d="M0,0H610V423H0Z" transform="translate(810.34 13058.662)" fill="#f7f3f2"/>
    <path id="Trazado_896812" data-name="Trazado 896812" d="M4.707-1.569A4.016,4.016,0,0,1,2.889-.274a7.417,7.417,0,0,1-2.64.44A5.2,5.2,0,0,1-2.44-.523,4.589,4.589,0,0,1-4.246-2.494a6.9,6.9,0,0,1-.66-2.992v-.946a6.4,6.4,0,0,1,1.312-4.279,4.549,4.549,0,0,1,3.661-1.54,4.826,4.826,0,0,1,3.2,1A4.294,4.294,0,0,1,4.7-8.384H2.64A2.316,2.316,0,0,0,.108-10.567,2.481,2.481,0,0,0-2.038-9.55,5.184,5.184,0,0,0-2.8-6.566v.93a4.923,4.923,0,0,0,.826,3.042,2.723,2.723,0,0,0,2.3,1.083,3.026,3.026,0,0,0,2.291-.73V-4.607H.125V-6.2H4.707Z" transform="translate(1285.34 13161.662)" fill="#12263f"/>
    <path id="Trazado_896813" data-name="Trazado 896813" d="M-18.351-5.323a5.9,5.9,0,0,1-1.932,4.082A6.585,6.585,0,0,1-24.763.225,6.376,6.376,0,0,1-28.205-.7a6.081,6.081,0,0,1-2.3-2.634A9.5,9.5,0,0,1-31.344-7.3V-8.827a9.572,9.572,0,0,1,.82-4.077,6.179,6.179,0,0,1,2.353-2.718,6.563,6.563,0,0,1,3.543-.955A6.305,6.305,0,0,1-20.271-15.1a6.146,6.146,0,0,1,1.92,4.155h-2.83a4.039,4.039,0,0,0-1.028-2.544,3.4,3.4,0,0,0-2.42-.781,3.319,3.319,0,0,0-2.847,1.353,6.759,6.759,0,0,0-1.016,3.97V-7.5a7.17,7.17,0,0,0,.949,4.043,3.15,3.15,0,0,0,2.78,1.393,3.673,3.673,0,0,0,2.516-.752,3.923,3.923,0,0,0,1.067-2.5ZM-8.715-1.19A4.232,4.232,0,0,1-12.129.225,3.772,3.772,0,0,1-15.122-.932a4.921,4.921,0,0,1-1.016-3.347v-7.873h2.729v7.839Q-13.409-2-11.489-2A2.7,2.7,0,0,0-8.8-3.425v-8.726h2.729V0H-8.647ZM2.055.225A5.646,5.646,0,0,1-2.151-1.409,5.928,5.928,0,0,1-3.762-5.761V-6.1a7.291,7.291,0,0,1,.7-3.251,5.342,5.342,0,0,1,1.971-2.229,5.211,5.211,0,0,1,2.83-.8,4.769,4.769,0,0,1,3.835,1.583A6.7,6.7,0,0,1,6.929-6.312v1.1h-7.94A3.649,3.649,0,0,0-.006-2.83a3.018,3.018,0,0,0,2.218.876A3.7,3.7,0,0,0,5.267-3.47l1.471,1.4A4.913,4.913,0,0,1,4.79-.376,6.1,6.1,0,0,1,2.055.225ZM1.729-10.186A2.3,2.3,0,0,0-.084-9.4,4.075,4.075,0,0,0-.966-7.21h5.2v-.2A3.317,3.317,0,0,0,3.5-9.484,2.281,2.281,0,0,0,1.729-10.186ZM11.949,0H9.22V-17.25h2.729Zm5.874,0H15.094V-17.25h2.729Zm2.459-6.188a7.165,7.165,0,0,1,.708-3.218,5.167,5.167,0,0,1,1.988-2.2,5.6,5.6,0,0,1,2.942-.769,5.308,5.308,0,0,1,3.992,1.583,6.228,6.228,0,0,1,1.656,4.2l.011.64a7.229,7.229,0,0,1-.691,3.212A5.105,5.105,0,0,1,28.913-.55a5.642,5.642,0,0,1-2.97.775,5.271,5.271,0,0,1-4.116-1.713,6.559,6.559,0,0,1-1.544-4.565Zm2.729.236a4.9,4.9,0,0,0,.775,2.937,2.519,2.519,0,0,0,2.156,1.061,2.492,2.492,0,0,0,2.151-1.078,5.408,5.408,0,0,0,.769-3.156,4.833,4.833,0,0,0-.792-2.92,2.528,2.528,0,0,0-2.151-1.078A2.505,2.505,0,0,0,23.8-9.125,5.306,5.306,0,0,0,23.011-5.952Z" transform="translate(1075.34 13225.041)" fill="#12263f"/>
    <path id="Trazado_896814" data-name="Trazado 896814" d="M-61.346-6.076V0h-2.841V-16.352h6.255a6.33,6.33,0,0,1,4.352,1.426,4.793,4.793,0,0,1,1.612,3.773,4.634,4.634,0,0,1-1.578,3.74,6.636,6.636,0,0,1-4.419,1.336Zm0-2.28h3.414a3.363,3.363,0,0,0,2.313-.713,2.621,2.621,0,0,0,.8-2.061,2.828,2.828,0,0,0-.809-2.117,3.117,3.117,0,0,0-2.224-.814h-3.493ZM-46.848,0h-2.729V-12.151h2.729Zm-2.9-15.307a1.448,1.448,0,0,1,.4-1.044,1.506,1.506,0,0,1,1.14-.416,1.525,1.525,0,0,1,1.146.416,1.437,1.437,0,0,1,.4,1.044,1.4,1.4,0,0,1-.4,1.028,1.537,1.537,0,0,1-1.146.41,1.518,1.518,0,0,1-1.14-.41A1.415,1.415,0,0,1-49.745-15.307ZM-38.526.225a5.646,5.646,0,0,1-4.206-1.634,5.928,5.928,0,0,1-1.612-4.352V-6.1a7.291,7.291,0,0,1,.7-3.251,5.342,5.342,0,0,1,1.971-2.229,5.211,5.211,0,0,1,2.83-.8,4.769,4.769,0,0,1,3.835,1.583,6.7,6.7,0,0,1,1.353,4.481v1.1h-7.94A3.649,3.649,0,0,0-40.587-2.83a3.018,3.018,0,0,0,2.218.876A3.7,3.7,0,0,0-35.314-3.47l1.471,1.4a4.913,4.913,0,0,1-1.948,1.69A6.1,6.1,0,0,1-38.526.225Zm-.326-10.411a2.3,2.3,0,0,0-1.814.786,4.075,4.075,0,0,0-.882,2.19h5.2v-.2a3.317,3.317,0,0,0-.73-2.072A2.281,2.281,0,0,0-38.852-10.186Zm12.533,4.021a7.224,7.224,0,0,1,1.3-4.509,4.174,4.174,0,0,1,3.493-1.7A3.966,3.966,0,0,1-18.4-11.028V-17.25h2.729V0h-2.471l-.135-1.258A4.023,4.023,0,0,1-21.546.225,4.151,4.151,0,0,1-25-1.494,7.489,7.489,0,0,1-26.319-6.166Zm2.729.236a5.058,5.058,0,0,0,.713,2.892A2.314,2.314,0,0,0-20.849-2,2.577,2.577,0,0,0-18.4-3.493V-8.681a2.538,2.538,0,0,0-2.426-1.46,2.331,2.331,0,0,0-2.044,1.05A5.633,5.633,0,0,0-23.59-5.93ZM-7.474.225A5.646,5.646,0,0,1-11.68-1.409a5.928,5.928,0,0,1-1.612-4.352V-6.1a7.291,7.291,0,0,1,.7-3.251,5.342,5.342,0,0,1,1.971-2.229,5.211,5.211,0,0,1,2.83-.8,4.769,4.769,0,0,1,3.835,1.583A6.7,6.7,0,0,1-2.6-6.312v1.1h-7.94A3.649,3.649,0,0,0-9.535-2.83a3.018,3.018,0,0,0,2.218.876A3.7,3.7,0,0,0-4.262-3.47l1.471,1.4A4.913,4.913,0,0,1-4.739-.376,6.1,6.1,0,0,1-7.474.225ZM-7.8-10.186A2.3,2.3,0,0,0-9.613-9.4a4.075,4.075,0,0,0-.882,2.19h5.2v-.2a3.317,3.317,0,0,0-.73-2.072A2.281,2.281,0,0,0-7.8-10.186ZM10.237-1.954a2.467,2.467,0,0,0,1.7-.6,2.033,2.033,0,0,0,.719-1.471h2.572A4.009,4.009,0,0,1,14.515-1.9a4.641,4.641,0,0,1-1.8,1.555A5.355,5.355,0,0,1,10.27.225,5.181,5.181,0,0,1,6.227-1.426a6.548,6.548,0,0,1-1.494-4.56v-.281a6.439,6.439,0,0,1,1.482-4.442,5.134,5.134,0,0,1,4.043-1.668,4.993,4.993,0,0,1,3.532,1.263,4.526,4.526,0,0,1,1.432,3.319H12.651a2.5,2.5,0,0,0-.713-1.718,2.3,2.3,0,0,0-1.7-.674,2.4,2.4,0,0,0-2.044.96,4.9,4.9,0,0,0-.73,2.914v.438a4.981,4.981,0,0,0,.713,2.948A2.4,2.4,0,0,0,10.237-1.954Zm14.409.764A4.232,4.232,0,0,1,21.231.225,3.772,3.772,0,0,1,18.238-.932a4.921,4.921,0,0,1-1.016-3.347v-7.873h2.729v7.839Q19.951-2,21.871-2a2.7,2.7,0,0,0,2.684-1.426v-8.726h2.729V0H24.713ZM35.415.225a5.646,5.646,0,0,1-4.206-1.634A5.928,5.928,0,0,1,29.6-5.761V-6.1a7.291,7.291,0,0,1,.7-3.251,5.342,5.342,0,0,1,1.971-2.229,5.211,5.211,0,0,1,2.83-.8,4.769,4.769,0,0,1,3.835,1.583,6.7,6.7,0,0,1,1.353,4.481v1.1h-7.94A3.649,3.649,0,0,0,33.354-2.83a3.018,3.018,0,0,0,2.218.876A3.7,3.7,0,0,0,38.627-3.47l1.471,1.4A4.913,4.913,0,0,1,38.15-.376,6.1,6.1,0,0,1,35.415.225ZM35.09-10.186a2.3,2.3,0,0,0-1.814.786,4.075,4.075,0,0,0-.882,2.19h5.2v-.2a3.317,3.317,0,0,0-.73-2.072A2.281,2.281,0,0,0,35.09-10.186ZM45.309,0H42.58V-17.25h2.729Zm5.874,0H48.454V-17.25h2.729Zm2.459-6.188a7.165,7.165,0,0,1,.708-3.218,5.167,5.167,0,0,1,1.988-2.2,5.6,5.6,0,0,1,2.942-.769,5.308,5.308,0,0,1,3.992,1.583,6.228,6.228,0,0,1,1.656,4.2l.011.64A7.229,7.229,0,0,1,64.25-2.74,5.105,5.105,0,0,1,62.273-.55,5.642,5.642,0,0,1,59.3.225a5.271,5.271,0,0,1-4.116-1.713,6.559,6.559,0,0,1-1.544-4.565Zm2.729.236a4.9,4.9,0,0,0,.775,2.937A2.519,2.519,0,0,0,59.3-1.954a2.492,2.492,0,0,0,2.151-1.078,5.408,5.408,0,0,0,.769-3.156,4.833,4.833,0,0,0-.792-2.92,2.528,2.528,0,0,0-2.151-1.078,2.505,2.505,0,0,0-2.123,1.061A5.306,5.306,0,0,0,56.371-5.952Z" transform="translate(1075.34 13338.041)" fill="#12263f"/>
    <path id="Trazado_896815" data-name="Trazado 896815" d="M3.486-5.4H-1.478v3.719h5.8V0h-7.9V-12.086H4.267v1.693H-1.478v3.337H3.486Z" transform="translate(864.34 13172.041)" fill="#12263f"/>
    <path id="Trazado_896816" data-name="Trazado 896816" d="M-4.325,0V-12.086H-.755a5.6,5.6,0,0,1,2.843.714A4.868,4.868,0,0,1,4.009-9.347a6.429,6.429,0,0,1,.681,3v.606a6.4,6.4,0,0,1-.685,3.021A4.809,4.809,0,0,1,2.054-.706,5.858,5.858,0,0,1-.847,0Zm2.1-10.393v8.716h1.37A3.154,3.154,0,0,0,1.681-2.71a4.5,4.5,0,0,0,.9-2.968V-6.35a4.619,4.619,0,0,0-.855-3A3.031,3.031,0,0,0-.755-10.393Z" transform="translate(871.34 13252.041)" fill="#12263f"/>
    <path id="Trazado_896817" data-name="Trazado 896817" d="M4.9-3.935A4.364,4.364,0,0,1,3.474-.917,4.867,4.867,0,0,1,.162.166,4.713,4.713,0,0,1-2.382-.519a4.5,4.5,0,0,1-1.7-1.947A7.024,7.024,0,0,1-4.7-5.4V-6.524A7.075,7.075,0,0,1-4.1-9.538a4.567,4.567,0,0,1,1.739-2.009,4.851,4.851,0,0,1,2.619-.706,4.66,4.66,0,0,1,3.221,1.087A4.543,4.543,0,0,1,4.9-8.093H2.81a2.985,2.985,0,0,0-.76-1.88A2.51,2.51,0,0,0,.261-10.55a2.453,2.453,0,0,0-2.1,1,5,5,0,0,0-.751,2.934v1.071a5.3,5.3,0,0,0,.7,2.988A2.328,2.328,0,0,0,.162-1.527a2.715,2.715,0,0,0,1.859-.556A2.9,2.9,0,0,0,2.81-3.935Z" transform="translate(871.34 13293.041)" fill="#12263f"/>
    <path id="Trazado_896818" data-name="Trazado 896818" d="M3.524-5.122H-1.341V0h-2.1V-12.086H4.238v1.693H-1.341V-6.8H3.524Z" transform="translate(1305.34 13283.234)" fill="#12263f"/>
    <path id="Trazado_896819" data-name="Trazado 896819" d="M4.785,0H2.694V-5.371h-5.4V0h-2.1V-12.086h2.1v5.03h5.4v-5.03H4.785Z" transform="translate(1334.34 13335.541)" fill="#12263f"/>
    <path id="Trazado_896820" data-name="Trazado 896820" d="M-4.134,0V-12.086H.008a5.057,5.057,0,0,1,3.121.822A2.894,2.894,0,0,1,4.2-8.815a2.61,2.61,0,0,1-.448,1.494A2.885,2.885,0,0,1,2.44-6.292a2.668,2.668,0,0,1,1.515,1,2.913,2.913,0,0,1,.535,1.764A3.218,3.218,0,0,1,3.4-.913,4.746,4.746,0,0,1,.274,0Zm2.1-5.454v3.777H.3a2.257,2.257,0,0,0,1.544-.49A1.719,1.719,0,0,0,2.4-3.528,1.725,1.725,0,0,0,.473-5.454Zm0-1.544H.025a2.381,2.381,0,0,0,1.531-.444A1.522,1.522,0,0,0,2.108-8.7,1.542,1.542,0,0,0,1.6-9.994a2.578,2.578,0,0,0-1.59-.4H-2.034Z" transform="translate(1284.34 13362.422)" fill="#12263f"/>
    <path id="Trazado_896821" data-name="Trazado 896821" d="M2.337-2.814H-2.345L-3.324,0H-5.508L-.942-12.086H.942L5.516,0H3.324ZM-1.756-4.507h3.5L0-9.521Z" transform="translate(1077.34 13383.422)" fill="#12263f"/>
    <path id="Trazado_896822" data-name="Trazado 896822" d="M-16.252,0h-1.271V-8.429l-2.55.937V-8.641L-16.451-10h.2Zm3.862-.663A.792.792,0,0,1-12.2-1.21a.742.742,0,0,1,.584-.219.765.765,0,0,1,.591.219.776.776,0,0,1,.2.547.734.734,0,0,1-.2.526.778.778,0,0,1-.591.212A.755.755,0,0,1-12.2-.137.748.748,0,0,1-12.39-.663ZM-8.282-4.99l.506-4.963h5.1v1.169H-6.7L-7-6.07A3.212,3.212,0,0,1-5.342-6.5a2.746,2.746,0,0,1,2.16.9,3.523,3.523,0,0,1,.8,2.43A3.4,3.4,0,0,1-3.213-.749,3.027,3.027,0,0,1-5.534.137,3.146,3.146,0,0,1-7.687-.595a2.919,2.919,0,0,1-.95-2.023h1.2A2.009,2.009,0,0,0-6.833-1.33a1.892,1.892,0,0,0,1.3.434,1.706,1.706,0,0,0,1.384-.6,2.515,2.515,0,0,0,.5-1.661,2.308,2.308,0,0,0-.543-1.6,1.849,1.849,0,0,0-1.446-.6A2.085,2.085,0,0,0-6.935-5l-.335.273ZM5.561-.9a1.822,1.822,0,0,0,1.183-.41A1.443,1.443,0,0,0,7.3-2.331H8.5a2.293,2.293,0,0,1-.437,1.21,2.881,2.881,0,0,1-1.077.916A3.107,3.107,0,0,1,5.561.137a3.047,3.047,0,0,1-2.4-1.008A4.016,4.016,0,0,1,2.266-3.63v-.212a4.453,4.453,0,0,1,.4-1.921A3.02,3.02,0,0,1,3.8-7.068a3.233,3.233,0,0,1,1.753-.465,2.966,2.966,0,0,1,2.068.745A2.663,2.663,0,0,1,8.5-4.854H7.3a1.743,1.743,0,0,0-.543-1.179,1.691,1.691,0,0,0-1.207-.461A1.77,1.77,0,0,0,4.061-5.8a3.259,3.259,0,0,0-.53,2.006v.239a3.194,3.194,0,0,0,.526,1.969A1.779,1.779,0,0,0,5.561-.9Zm5.551-6.5.034.82a2.732,2.732,0,0,1,2.194-.957,2.115,2.115,0,0,1,2.112,1.189,2.8,2.8,0,0,1,.96-.861,2.837,2.837,0,0,1,1.4-.328q2.434,0,2.475,2.577V0H19.021V-4.881a1.7,1.7,0,0,0-.362-1.186,1.6,1.6,0,0,0-1.217-.393,1.677,1.677,0,0,0-1.169.42,1.706,1.706,0,0,0-.54,1.131V0H14.461V-4.847A1.411,1.411,0,0,0,12.882-6.46a1.692,1.692,0,0,0-1.7,1.06V0H9.916V-7.4Z" transform="translate(1305.34 13139.662)" fill="#12263f"/>
    <path id="Trazado_896823" data-name="Trazado 896823" d="M-13.887,0h-6.521V-.909l3.445-3.828a8.185,8.185,0,0,0,1.056-1.412,2.356,2.356,0,0,0,.291-1.125,1.786,1.786,0,0,0-.472-1.278,1.649,1.649,0,0,0-1.258-.5,1.953,1.953,0,0,0-1.466.537,2.05,2.05,0,0,0-.523,1.494H-20.6a2.936,2.936,0,0,1,.885-2.222,3.282,3.282,0,0,1,2.369-.848,3.153,3.153,0,0,1,2.194.728,2.483,2.483,0,0,1,.807,1.938q0,1.47-1.873,3.5l-2.666,2.892h5Zm1.5-.663A.792.792,0,0,1-12.2-1.21a.742.742,0,0,1,.584-.219.765.765,0,0,1,.591.219.776.776,0,0,1,.2.547.734.734,0,0,1-.2.526.778.778,0,0,1-.591.212A.755.755,0,0,1-12.2-.137.748.748,0,0,1-12.39-.663ZM-8.282-4.99l.506-4.963h5.1v1.169H-6.7L-7-6.07A3.212,3.212,0,0,1-5.342-6.5a2.746,2.746,0,0,1,2.16.9,3.523,3.523,0,0,1,.8,2.43A3.4,3.4,0,0,1-3.213-.749,3.027,3.027,0,0,1-5.534.137,3.146,3.146,0,0,1-7.687-.595a2.919,2.919,0,0,1-.95-2.023h1.2A2.009,2.009,0,0,0-6.833-1.33a1.892,1.892,0,0,0,1.3.434,1.706,1.706,0,0,0,1.384-.6,2.515,2.515,0,0,0,.5-1.661,2.308,2.308,0,0,0-.543-1.6,1.849,1.849,0,0,0-1.446-.6A2.085,2.085,0,0,0-6.935-5l-.335.273ZM5.561-.9a1.822,1.822,0,0,0,1.183-.41A1.443,1.443,0,0,0,7.3-2.331H8.5a2.293,2.293,0,0,1-.437,1.21,2.881,2.881,0,0,1-1.077.916A3.107,3.107,0,0,1,5.561.137a3.047,3.047,0,0,1-2.4-1.008A4.016,4.016,0,0,1,2.266-3.63v-.212a4.453,4.453,0,0,1,.4-1.921A3.02,3.02,0,0,1,3.8-7.068a3.233,3.233,0,0,1,1.753-.465,2.966,2.966,0,0,1,2.068.745A2.663,2.663,0,0,1,8.5-4.854H7.3a1.743,1.743,0,0,0-.543-1.179,1.691,1.691,0,0,0-1.207-.461A1.77,1.77,0,0,0,4.061-5.8a3.259,3.259,0,0,0-.53,2.006v.239a3.194,3.194,0,0,0,.526,1.969A1.779,1.779,0,0,0,5.561-.9Zm5.551-6.5.034.82a2.732,2.732,0,0,1,2.194-.957,2.115,2.115,0,0,1,2.112,1.189,2.8,2.8,0,0,1,.96-.861,2.837,2.837,0,0,1,1.4-.328q2.434,0,2.475,2.577V0H19.021V-4.881a1.7,1.7,0,0,0-.362-1.186,1.6,1.6,0,0,0-1.217-.393,1.677,1.677,0,0,0-1.169.42,1.706,1.706,0,0,0-.54,1.131V0H14.461V-4.847A1.411,1.411,0,0,0,12.882-6.46a1.692,1.692,0,0,0-1.7,1.06V0H9.916V-7.4Z" transform="translate(838.34 13325.041)" fill="#12263f"/>
    <path id="Trazado_896824" data-name="Trazado 896824" d="M-13.887,0h-6.521V-.909l3.445-3.828a8.185,8.185,0,0,0,1.056-1.412,2.356,2.356,0,0,0,.291-1.125,1.786,1.786,0,0,0-.472-1.278,1.649,1.649,0,0,0-1.258-.5,1.953,1.953,0,0,0-1.466.537,2.05,2.05,0,0,0-.523,1.494H-20.6a2.936,2.936,0,0,1,.885-2.222,3.282,3.282,0,0,1,2.369-.848,3.153,3.153,0,0,1,2.194.728,2.483,2.483,0,0,1,.807,1.938q0,1.47-1.873,3.5l-2.666,2.892h5Zm1.5-.663A.792.792,0,0,1-12.2-1.21a.742.742,0,0,1,.584-.219.765.765,0,0,1,.591.219.776.776,0,0,1,.2.547.734.734,0,0,1-.2.526.778.778,0,0,1-.591.212A.755.755,0,0,1-12.2-.137.748.748,0,0,1-12.39-.663ZM-8.282-4.99l.506-4.963h5.1v1.169H-6.7L-7-6.07A3.212,3.212,0,0,1-5.342-6.5a2.746,2.746,0,0,1,2.16.9,3.523,3.523,0,0,1,.8,2.43A3.4,3.4,0,0,1-3.213-.749,3.027,3.027,0,0,1-5.534.137,3.146,3.146,0,0,1-7.687-.595a2.919,2.919,0,0,1-.95-2.023h1.2A2.009,2.009,0,0,0-6.833-1.33a1.892,1.892,0,0,0,1.3.434,1.706,1.706,0,0,0,1.384-.6,2.515,2.515,0,0,0,.5-1.661,2.308,2.308,0,0,0-.543-1.6,1.849,1.849,0,0,0-1.446-.6A2.085,2.085,0,0,0-6.935-5l-.335.273ZM5.561-.9a1.822,1.822,0,0,0,1.183-.41A1.443,1.443,0,0,0,7.3-2.331H8.5a2.293,2.293,0,0,1-.437,1.21,2.881,2.881,0,0,1-1.077.916A3.107,3.107,0,0,1,5.561.137a3.047,3.047,0,0,1-2.4-1.008A4.016,4.016,0,0,1,2.266-3.63v-.212a4.453,4.453,0,0,1,.4-1.921A3.02,3.02,0,0,1,3.8-7.068a3.233,3.233,0,0,1,1.753-.465,2.966,2.966,0,0,1,2.068.745A2.663,2.663,0,0,1,8.5-4.854H7.3a1.743,1.743,0,0,0-.543-1.179,1.691,1.691,0,0,0-1.207-.461A1.77,1.77,0,0,0,4.061-5.8a3.259,3.259,0,0,0-.53,2.006v.239a3.194,3.194,0,0,0,.526,1.969A1.779,1.779,0,0,0,5.561-.9Zm5.551-6.5.034.82a2.732,2.732,0,0,1,2.194-.957,2.115,2.115,0,0,1,2.112,1.189,2.8,2.8,0,0,1,.96-.861,2.837,2.837,0,0,1,1.4-.328q2.434,0,2.475,2.577V0H19.021V-4.881a1.7,1.7,0,0,0-.362-1.186,1.6,1.6,0,0,0-1.217-.393,1.677,1.677,0,0,0-1.169.42,1.706,1.706,0,0,0-.54,1.131V0H14.461V-4.847A1.411,1.411,0,0,0,12.882-6.46a1.692,1.692,0,0,0-1.7,1.06V0H9.916V-7.4Z" transform="translate(905.34 13281.041)" fill="#12263f"/>
    <path id="Trazado_896825" data-name="Trazado 896825" d="M-9.3-3.343h1.381v1.032H-9.3V0h-1.271V-2.311H-15.1v-.745l4.457-6.9H-9.3Zm-4.368,0h3.1V-8.224l-.15.273ZM-.212-.9a1.822,1.822,0,0,0,1.183-.41,1.443,1.443,0,0,0,.561-1.025h1.2a2.293,2.293,0,0,1-.437,1.21,2.881,2.881,0,0,1-1.077.916A3.107,3.107,0,0,1-.212.137a3.047,3.047,0,0,1-2.4-1.008A4.016,4.016,0,0,1-3.507-3.63v-.212a4.453,4.453,0,0,1,.4-1.921A3.02,3.02,0,0,1-1.972-7.068,3.233,3.233,0,0,1-.219-7.533a2.966,2.966,0,0,1,2.068.745,2.663,2.663,0,0,1,.878,1.935h-1.2A1.743,1.743,0,0,0,.988-6.033,1.691,1.691,0,0,0-.219-6.494,1.77,1.77,0,0,0-1.712-5.8a3.259,3.259,0,0,0-.53,2.006v.239a3.194,3.194,0,0,0,.526,1.969A1.779,1.779,0,0,0-.212-.9ZM5.339-7.4l.034.82a2.732,2.732,0,0,1,2.194-.957A2.115,2.115,0,0,1,9.68-6.344a2.8,2.8,0,0,1,.96-.861,2.837,2.837,0,0,1,1.4-.328q2.434,0,2.475,2.577V0H13.248V-4.881a1.7,1.7,0,0,0-.362-1.186,1.6,1.6,0,0,0-1.217-.393,1.677,1.677,0,0,0-1.169.42,1.706,1.706,0,0,0-.54,1.131V0H8.688V-4.847A1.411,1.411,0,0,0,7.109-6.46a1.692,1.692,0,0,0-1.7,1.06V0H4.143V-7.4Z" transform="translate(844.34 13226.041)" fill="#12263f"/>
    <path id="Trazado_896826" data-name="Trazado 896826" d="M-17.609-1.743l2.844-8.21h1.436L-17.021,0h-1.162l-3.685-9.953h1.429ZM-9.126.137a3.232,3.232,0,0,1-2.447-.988,3.666,3.666,0,0,1-.943-2.642v-.232a4.438,4.438,0,0,1,.42-1.965A3.28,3.28,0,0,1-10.92-7.044a2.956,2.956,0,0,1,1.637-.489,2.77,2.77,0,0,1,2.242.95,4.114,4.114,0,0,1,.8,2.721v.526h-5.011a2.629,2.629,0,0,0,.639,1.767A2.009,2.009,0,0,0-9.058-.9a2.2,2.2,0,0,0,1.135-.273,2.851,2.851,0,0,0,.813-.725l.772.6A3.106,3.106,0,0,1-9.126.137Zm-.157-6.631a1.687,1.687,0,0,0-1.285.557,2.708,2.708,0,0,0-.643,1.562h3.705v-.1a2.409,2.409,0,0,0-.52-1.494A1.588,1.588,0,0,0-9.283-6.494Zm.615-4.006h1.531L-8.969-8.49H-9.987ZM-1.2-6.262a3.79,3.79,0,0,0-.622-.048A1.667,1.667,0,0,0-3.514-5.25V0H-4.778V-7.4h1.23l.021.854a1.969,1.969,0,0,1,1.764-.991,1.292,1.292,0,0,1,.561.1Zm3.22-2.926V-7.4H3.4v.978H2.017v4.587a1.024,1.024,0,0,0,.185.667.777.777,0,0,0,.629.222,3.062,3.062,0,0,0,.6-.082V0a3.666,3.666,0,0,1-.971.137A1.575,1.575,0,0,1,1.183-.376,2.2,2.2,0,0,1,.752-1.832V-6.419H-.595V-7.4H.752V-9.187ZM6.248,0H4.983V-7.4H6.248ZM4.881-9.358a.755.755,0,0,1,.188-.52.706.706,0,0,1,.557-.212.717.717,0,0,1,.561.212.747.747,0,0,1,.191.52.722.722,0,0,1-.191.513.73.73,0,0,1-.561.205.718.718,0,0,1-.557-.205A.73.73,0,0,1,4.881-9.358ZM11.238-.9a1.822,1.822,0,0,0,1.183-.41,1.443,1.443,0,0,0,.561-1.025h1.2a2.293,2.293,0,0,1-.437,1.21,2.881,2.881,0,0,1-1.077.916,3.107,3.107,0,0,1-1.425.342,3.047,3.047,0,0,1-2.4-1.008A4.016,4.016,0,0,1,7.943-3.63v-.212a4.453,4.453,0,0,1,.4-1.921A3.02,3.02,0,0,1,9.478-7.068a3.233,3.233,0,0,1,1.753-.465,2.966,2.966,0,0,1,2.068.745,2.663,2.663,0,0,1,.878,1.935h-1.2a1.743,1.743,0,0,0-.543-1.179,1.691,1.691,0,0,0-1.207-.461A1.77,1.77,0,0,0,9.738-5.8a3.259,3.259,0,0,0-.53,2.006v.239a3.194,3.194,0,0,0,.526,1.969A1.779,1.779,0,0,0,11.238-.9ZM18.669.137a3.232,3.232,0,0,1-2.447-.988,3.666,3.666,0,0,1-.943-2.642v-.232a4.438,4.438,0,0,1,.42-1.965,3.28,3.28,0,0,1,1.176-1.354,2.956,2.956,0,0,1,1.637-.489,2.77,2.77,0,0,1,2.242.95,4.114,4.114,0,0,1,.8,2.721v.526H16.543a2.629,2.629,0,0,0,.639,1.767A2.009,2.009,0,0,0,18.737-.9a2.2,2.2,0,0,0,1.135-.273,2.851,2.851,0,0,0,.813-.725l.772.6A3.106,3.106,0,0,1,18.669.137Zm-.157-6.631a1.687,1.687,0,0,0-1.285.557,2.708,2.708,0,0,0-.643,1.562h3.705v-.1a2.409,2.409,0,0,0-.52-1.494A1.588,1.588,0,0,0,18.512-6.494Z" transform="translate(863.34 13370.041)" fill="#12263f"/>
    <path id="Trazado_896827" data-name="Trazado 896827" d="M-16.252,0h-1.271V-8.429l-2.55.937V-8.641L-16.451-10h.2Zm3.862-.663A.792.792,0,0,1-12.2-1.21a.742.742,0,0,1,.584-.219.765.765,0,0,1,.591.219.776.776,0,0,1,.2.547.734.734,0,0,1-.2.526.778.778,0,0,1-.591.212A.755.755,0,0,1-12.2-.137.748.748,0,0,1-12.39-.663ZM-8.282-4.99l.506-4.963h5.1v1.169H-6.7L-7-6.07A3.212,3.212,0,0,1-5.342-6.5a2.746,2.746,0,0,1,2.16.9,3.523,3.523,0,0,1,.8,2.43A3.4,3.4,0,0,1-3.213-.749,3.027,3.027,0,0,1-5.534.137,3.146,3.146,0,0,1-7.687-.595a2.919,2.919,0,0,1-.95-2.023h1.2A2.009,2.009,0,0,0-6.833-1.33a1.892,1.892,0,0,0,1.3.434,1.706,1.706,0,0,0,1.384-.6,2.515,2.515,0,0,0,.5-1.661,2.308,2.308,0,0,0-.543-1.6,1.849,1.849,0,0,0-1.446-.6A2.085,2.085,0,0,0-6.935-5l-.335.273ZM5.561-.9a1.822,1.822,0,0,0,1.183-.41A1.443,1.443,0,0,0,7.3-2.331H8.5a2.293,2.293,0,0,1-.437,1.21,2.881,2.881,0,0,1-1.077.916A3.107,3.107,0,0,1,5.561.137a3.047,3.047,0,0,1-2.4-1.008A4.016,4.016,0,0,1,2.266-3.63v-.212a4.453,4.453,0,0,1,.4-1.921A3.02,3.02,0,0,1,3.8-7.068a3.233,3.233,0,0,1,1.753-.465,2.966,2.966,0,0,1,2.068.745A2.663,2.663,0,0,1,8.5-4.854H7.3a1.743,1.743,0,0,0-.543-1.179,1.691,1.691,0,0,0-1.207-.461A1.77,1.77,0,0,0,4.061-5.8a3.259,3.259,0,0,0-.53,2.006v.239a3.194,3.194,0,0,0,.526,1.969A1.779,1.779,0,0,0,5.561-.9Zm5.551-6.5.034.82a2.732,2.732,0,0,1,2.194-.957,2.115,2.115,0,0,1,2.112,1.189,2.8,2.8,0,0,1,.96-.861,2.837,2.837,0,0,1,1.4-.328q2.434,0,2.475,2.577V0H19.021V-4.881a1.7,1.7,0,0,0-.362-1.186,1.6,1.6,0,0,0-1.217-.393,1.677,1.677,0,0,0-1.169.42,1.706,1.706,0,0,0-.54,1.131V0H14.461V-4.847A1.411,1.411,0,0,0,12.882-6.46a1.692,1.692,0,0,0-1.7,1.06V0H9.916V-7.4Z" transform="translate(1392.719 13338.541)" fill="#12263f"/>
    <path id="Trazado_893310" data-name="Trazado 893310" d="M-6499.147,598.163c-186.566,28.836-404.84,7.584-404.84,7.584V667.9s62.253,9.841,198.608,6.418,239.016-26.077,239.016-26.077,1.663-2.205-4.991-24.066-27.793-26.012-27.793-26.012l34.876-108.82h-439.716v89.07s230.7-23.506,404.84,19.75" transform="translate(7784.34 12684.041)" fill="none" stroke="#7eadbf" stroke-width="2"/>
    <path id="Trazado_896828" data-name="Trazado 896828" d="M0,0H8V8H0Z" transform="translate(876.34 13169.041)" fill="#707070"/>
    <path id="Trazado_896829" data-name="Trazado 896829" d="M0,0H8V8H0Z" transform="translate(1313.34 13329.041)" fill="#707070"/>
    <path id="Trazado_896830" data-name="Trazado 896830" d="M0,0H8V8H0Z" transform="translate(1075.34 13353.041)" fill="#707070"/>
    <path id="Trazado_896831" data-name="Trazado 896831" d="M0,0H8V8H0Z" transform="translate(876.34 13349.041)" fill="#707070"/>
    <path id="Trazado_896832" data-name="Trazado 896832" d="M0,0H8V8H0Z" transform="translate(1315.34 13169.041)" fill="#707070"/>
    <path id="Trazado_893311" data-name="Trazado 893311" d="M-6904,579.21v25.127" transform="translate(7784.34 12684.041)" fill="none" stroke="#12263f" stroke-width="2"/>
    <path id="Trazado_896833" data-name="Trazado 896833" d="M0,0H8V8H0Z" transform="translate(876.34 13258.041)" fill="#707070"/>
    <path id="Trazado_896834" data-name="Trazado 896834" d="M0,0H8V8H0Z" transform="translate(876.34 13286.041)" fill="#707070"/>
    <path id="Trazado_896835" data-name="Trazado 896835" d="M6,0l6,10H0Z" transform="translate(857.34 13174.041)" fill="#12263f"/>
    <path id="Trazado_896836" data-name="Trazado 896836" d="M6,0l6,10H0Z" transform="translate(857.34 13286.041)" fill="#12263f"/>
    <path id="Trazado_896837" data-name="Trazado 896837" d="M11.5,0,23,10H0Z" transform="translate(1204.34 13406.041)" fill="#12263f"/>
    <g id="Trazado_896838" data-name="Trazado 896838" transform="translate(951.34 13406.041)" fill="none">
      <path d="M11.5,0,23,10H0Z" stroke="none"/>
      <path d="M 11.5 2.650392532348633 L 5.347951889038086 8 L 17.65204811096191 8 L 11.5 2.650392532348633 M 11.5 0 L 23 10 L 0 10 L 11.5 0 Z" stroke="none" fill="#12253f"/>
    </g>
    <path id="Trazado_896839" data-name="Trazado 896839" d="M6,0l6,10H0Z" transform="translate(869.34 13264.041) rotate(180)" fill="#12263f"/>
    <path id="Trazado_896840" data-name="Trazado 896840" d="M6,0l6,10H0Z" transform="translate(869.34 13351.041) rotate(180)" fill="#12263f"/>
    <path id="Trazado_893312" data-name="Trazado 893312" d="M-6921,499.358v72.1" transform="translate(7784.34 12684.041)" fill="none" stroke="#12263f" stroke-width="2"/>
    <g id="Grupo_1114737" data-name="Grupo 1114737" transform="translate(1 1076.041)">
      <path id="Polígono_16" data-name="Polígono 16" d="M6,0l6,10H0Z" transform="translate(1305.34 12094) rotate(180)" fill="#12263f"/>
      <path id="Trazado_893314" data-name="Trazado 893314" d="M-6921,499.358v17.835" transform="translate(8220.34 11568.263)" fill="none" stroke="#12263f" stroke-width="2"/>
      <path id="Trazado_893315" data-name="Trazado 893315" d="M-6921,499.358v10.3" transform="translate(794.833 5145.62) rotate(-90)" fill="none" stroke="#12263f" stroke-width="2"/>
    </g>
    <g id="Grupo_1114738" data-name="Grupo 1114738" transform="translate(-10721.281 14637.381) rotate(-90)">
      <path id="Polígono_16-2" data-name="Polígono 16" d="M6,0l6,10H0Z" transform="translate(1305.34 12094) rotate(180)" fill="#12263f"/>
      <path id="Trazado_893314-2" data-name="Trazado 893314" d="M-6921,499.358v17.835" transform="translate(8220.34 11568.263)" fill="none" stroke="#12263f" stroke-width="2"/>
      <path id="Trazado_893315-2" data-name="Trazado 893315" d="M-6921,499.358v10.3" transform="translate(794.833 5145.62) rotate(-90)" fill="none" stroke="#12263f" stroke-width="2"/>
    </g>
    <path id="Trazado_893313" data-name="Trazado 893313" d="M-6921,499.358v47.516" transform="translate(7784.34 12796.041)" fill="none" stroke="#12263f" stroke-width="2"/>
    <path id="Trazado_893316" data-name="Trazado 893316" d="M-6499,491.633v160.5" transform="translate(7784.34 12684.041)" fill="none" stroke="#12263f" stroke-width="2"/>
    <path id="Trazado_896841" data-name="Trazado 896841" d="M0,0H8V8H0Z" transform="translate(1281.34 13169.041)" fill="#707070"/>
    <path id="Trazado_896842" data-name="Trazado 896842" d="M0,0H8V8H0Z" transform="translate(1281.34 13278.041)" fill="#707070"/>
    <path id="Trazado_896843" data-name="Trazado 896843" d="M0,0H8V8H0Z" transform="translate(1281.34 13334.041)" fill="#707070"/>
    <g id="Trazado_896844" data-name="Trazado 896844" transform="translate(1278.34 13306.041)" fill="none">
      <path d="M7,0A7,7,0,1,1,0,7,7,7,0,0,1,7,0Z" stroke="none"/>
      <path d="M 7 2 C 4.242989540100098 2 2 4.242989540100098 2 7 C 2 9.757009506225586 4.242989540100098 12 7 12 C 9.757009506225586 12 12 9.757009506225586 12 7 C 12 4.242989540100098 9.757009506225586 2 7 2 M 7 0 C 10.86598968505859 0 14 3.134010314941406 14 7 C 14 10.86598968505859 10.86598968505859 14 7 14 C 3.134010314941406 14 0 10.86598968505859 0 7 C 0 3.134010314941406 3.134010314941406 0 7 0 Z" stroke="none" fill="#12263f"/>
    </g>
    <g id="Trazado_896845" data-name="Trazado 896845" transform="translate(883.34 13206.041)" fill="#fff">
      <path d="M 5 9.5 C 2.51869010925293 9.5 0.5 7.48130989074707 0.5 5 C 0.5 2.51869010925293 2.51869010925293 0.5 5 0.5 C 7.48130989074707 0.5 9.5 2.51869010925293 9.5 5 C 9.5 7.48130989074707 7.48130989074707 9.5 5 9.5 Z" stroke="none"/>
      <path d="M 5 1 C 2.794390201568604 1 1 2.794390201568604 1 5 C 1 7.205610275268555 2.794390201568604 9 5 9 C 7.205610275268555 9 9 7.205610275268555 9 5 C 9 2.794390201568604 7.205610275268555 1 5 1 M 5 0 C 7.761420249938965 0 10 2.238580226898193 10 5 C 10 7.761420249938965 7.761420249938965 10 5 10 C 2.238580226898193 10 0 7.761420249938965 0 5 C 0 2.238580226898193 2.238580226898193 0 5 0 Z" stroke="none" fill="#12263f"/>
    </g>
    <g id="Trazado_896846" data-name="Trazado 896846" transform="translate(883.34 13310.041)" fill="#fff">
      <path d="M 5 9.5 C 2.51869010925293 9.5 0.5 7.48130989074707 0.5 5 C 0.5 2.51869010925293 2.51869010925293 0.5 5 0.5 C 7.48130989074707 0.5 9.5 2.51869010925293 9.5 5 C 9.5 7.48130989074707 7.48130989074707 9.5 5 9.5 Z" stroke="none"/>
      <path d="M 5 1 C 2.794390201568604 1 1 2.794390201568604 1 5 C 1 7.205610275268555 2.794390201568604 9 5 9 C 7.205610275268555 9 9 7.205610275268555 9 5 C 9 2.794390201568604 7.205610275268555 1 5 1 M 5 0 C 7.761420249938965 0 10 2.238580226898193 10 5 C 10 7.761420249938965 7.761420249938965 10 5 10 C 2.238580226898193 10 0 7.761420249938965 0 5 C 0 2.238580226898193 2.238580226898193 0 5 0 Z" stroke="none" fill="#12263f"/>
    </g>
    <g id="Trazado_896847" data-name="Trazado 896847" transform="translate(892.34 13213.041)" fill="#fff">
      <path d="M 5 9.5 C 2.51869010925293 9.5 0.5 7.48130989074707 0.5 5 C 0.5 2.51869010925293 2.51869010925293 0.5 5 0.5 C 7.48130989074707 0.5 9.5 2.51869010925293 9.5 5 C 9.5 7.48130989074707 7.48130989074707 9.5 5 9.5 Z" stroke="none"/>
      <path d="M 5 1 C 2.794390201568604 1 1 2.794390201568604 1 5 C 1 7.205610275268555 2.794390201568604 9 5 9 C 7.205610275268555 9 9 7.205610275268555 9 5 C 9 2.794390201568604 7.205610275268555 1 5 1 M 5 0 C 7.761420249938965 0 10 2.238580226898193 10 5 C 10 7.761420249938965 7.761420249938965 10 5 10 C 2.238580226898193 10 0 7.761420249938965 0 5 C 0 2.238580226898193 2.238580226898193 0 5 0 Z" stroke="none" fill="#12263f"/>
    </g>
    <g id="Trazado_896848" data-name="Trazado 896848" transform="translate(892.34 13317.041)" fill="#fff">
      <path d="M 5 9.5 C 2.51869010925293 9.5 0.5 7.48130989074707 0.5 5 C 0.5 2.51869010925293 2.51869010925293 0.5 5 0.5 C 7.48130989074707 0.5 9.5 2.51869010925293 9.5 5 C 9.5 7.48130989074707 7.48130989074707 9.5 5 9.5 Z" stroke="none"/>
      <path d="M 5 1 C 2.794390201568604 1 1 2.794390201568604 1 5 C 1 7.205610275268555 2.794390201568604 9 5 9 C 7.205610275268555 9 9 7.205610275268555 9 5 C 9 2.794390201568604 7.205610275268555 1 5 1 M 5 0 C 7.761420249938965 0 10 2.238580226898193 10 5 C 10 7.761420249938965 7.761420249938965 10 5 10 C 2.238580226898193 10 0 7.761420249938965 0 5 C 0 2.238580226898193 2.238580226898193 0 5 0 Z" stroke="none" fill="#12263f"/>
    </g>
    <g id="Trazado_896849" data-name="Trazado 896849" transform="translate(883.34 13220.041)" fill="#fff">
      <path d="M 5 9.5 C 2.51869010925293 9.5 0.5 7.48130989074707 0.5 5 C 0.5 2.51869010925293 2.51869010925293 0.5 5 0.5 C 7.48130989074707 0.5 9.5 2.51869010925293 9.5 5 C 9.5 7.48130989074707 7.48130989074707 9.5 5 9.5 Z" stroke="none"/>
      <path d="M 5 1 C 2.794390201568604 1 1 2.794390201568604 1 5 C 1 7.205610275268555 2.794390201568604 9 5 9 C 7.205610275268555 9 9 7.205610275268555 9 5 C 9 2.794390201568604 7.205610275268555 1 5 1 M 5 0 C 7.761420249938965 0 10 2.238580226898193 10 5 C 10 7.761420249938965 7.761420249938965 10 5 10 C 2.238580226898193 10 0 7.761420249938965 0 5 C 0 2.238580226898193 2.238580226898193 0 5 0 Z" stroke="none" fill="#12263f"/>
    </g>
    <g id="Trazado_896850" data-name="Trazado 896850" transform="translate(883.34 13324.041)" fill="#fff">
      <path d="M 5 9.5 C 2.51869010925293 9.5 0.5 7.48130989074707 0.5 5 C 0.5 2.51869010925293 2.51869010925293 0.5 5 0.5 C 7.48130989074707 0.5 9.5 2.51869010925293 9.5 5 C 9.5 7.48130989074707 7.48130989074707 9.5 5 9.5 Z" stroke="none"/>
      <path d="M 5 1 C 2.794390201568604 1 1 2.794390201568604 1 5 C 1 7.205610275268555 2.794390201568604 9 5 9 C 7.205610275268555 9 9 7.205610275268555 9 5 C 9 2.794390201568604 7.205610275268555 1 5 1 M 5 0 C 7.761420249938965 0 10 2.238580226898193 10 5 C 10 7.761420249938965 7.761420249938965 10 5 10 C 2.238580226898193 10 0 7.761420249938965 0 5 C 0 2.238580226898193 2.238580226898193 0 5 0 Z" stroke="none" fill="#12263f"/>
    </g>
  </g>
</svg>
