<svg xmlns="http://www.w3.org/2000/svg" width="104" height="104" viewBox="0 0 104 104">
  <g id="Grupo_1115334" data-name="Grupo 1115334" transform="translate(-329.341 -13853)">
    <g id="Trazado_874818" data-name="Trazado 874818" transform="translate(329.341 13853)" fill="#658b99">
      <path d="M 52 103 C 45.11460113525391 103 38.43569946289062 101.6517105102539 32.1488151550293 98.99258422851562 C 26.07588577270508 96.42394256591797 20.62162780761719 92.74652862548828 15.93755722045898 88.06244659423828 C 11.25348567962646 83.37837219238281 7.576056957244873 77.92412567138672 5.007428646087646 71.8511962890625 C 2.348285675048828 65.56430053710938 1 58.88539886474609 1 52 C 1 45.11460113525391 2.348285675048828 38.43569946289062 5.007428646087646 32.1488151550293 C 7.576056957244873 26.07588577270508 11.25348567962646 20.62162780761719 15.93755722045898 15.93755722045898 C 20.62162780761719 11.25348567962646 26.07588577270508 7.576056957244873 32.1488151550293 5.007428646087646 C 38.43569946289062 2.348285675048828 45.11460113525391 1 52 1 C 58.88539886474609 1 65.56430053710938 2.348285675048828 71.8511962890625 5.007428646087646 C 77.92412567138672 7.576056957244873 83.37837219238281 11.25348567962646 88.06244659423828 15.93755722045898 C 92.74652862548828 20.62162780761719 96.42394256591797 26.07588577270508 98.99258422851562 32.1488151550293 C 101.6517105102539 38.43569946289062 103 45.11460113525391 103 52 C 103 58.88539886474609 101.6517105102539 65.56430053710938 98.99258422851562 71.8511962890625 C 96.42394256591797 77.92412567138672 92.74652862548828 83.37837219238281 88.06244659423828 88.06244659423828 C 83.37837219238281 92.74652862548828 77.92412567138672 96.42394256591797 71.8511962890625 98.99258422851562 C 65.56430053710938 101.6517105102539 58.88539886474609 103 52 103 Z" stroke="none"/>
      <path d="M 52 2 C 45.24916839599609 2 38.70132446289062 3.321708679199219 32.53835296630859 5.928428649902344 C 26.58463287353516 8.446647644042969 21.23721313476562 12.05210876464844 16.64466094970703 16.64466094970703 C 12.05210876464844 21.23721313476562 8.446647644042969 26.58463287353516 5.928428649902344 32.53835296630859 C 3.321708679199219 38.70132446289062 2 45.24916839599609 2 52 C 2 58.75084686279297 3.321708679199219 65.29867553710938 5.928428649902344 71.46164703369141 C 8.446647644042969 77.41536712646484 12.05210876464844 82.76278686523438 16.64466094970703 87.35533905029297 C 21.23721313476562 91.94789123535156 26.58463287353516 95.55335235595703 32.53835296630859 98.07157135009766 C 38.70132446289062 100.6782913208008 45.24916839599609 102 52 102 C 58.75084686279297 102 65.29867553710938 100.6782913208008 71.46164703369141 98.07157135009766 C 77.41536712646484 95.55335235595703 82.76278686523438 91.94789123535156 87.35533905029297 87.35533905029297 C 91.94789123535156 82.76278686523438 95.55335235595703 77.41536712646484 98.07157135009766 71.46164703369141 C 100.6782913208008 65.29867553710938 102 58.75084686279297 102 52 C 102 45.24916839599609 100.6782913208008 38.70132446289062 98.07157135009766 32.53835296630859 C 95.55335235595703 26.58463287353516 91.94789123535156 21.23721313476562 87.35533905029297 16.64466094970703 C 82.76278686523438 12.05210876464844 77.41536712646484 8.446647644042969 71.46164703369141 5.928428649902344 C 65.29867553710938 3.321708679199219 58.75084686279297 2 52 2 M 52 0 C 80.71881103515625 0 104 23.28119659423828 104 52 C 104 80.71881103515625 80.71881103515625 104 52 104 C 23.28119659423828 104 0 80.71881103515625 0 52 C 0 23.28119659423828 23.28119659423828 0 52 0 Z" stroke="none" fill="#fff"/>
    </g>
    <g id="one_8632785" transform="translate(364.165 13870.406)">
      <g id="Grupo_1114698" data-name="Grupo 1114698" transform="translate(0 0)">
        <g id="Grupo_1114696" data-name="Grupo 1114696" transform="translate(4.854 4.799)">
          <path id="Trazado_893277" data-name="Trazado 893277" d="M91.41,94.313h-.063a11.545,11.545,0,0,1-4.762-.967.459.459,0,0,1,.421-.815,10.686,10.686,0,0,0,4.363.866h.045a.459.459,0,0,1,0,.917Zm4.471-1.091a.459.459,0,0,1-.274-.827,3.865,3.865,0,0,0,1.331-3.4l.012-.46a.459.459,0,0,1,.917.027l-.012.433a4.777,4.777,0,0,1-1.7,4.139A.456.456,0,0,1,95.881,93.222ZM84.671,89.51a.459.459,0,0,1-.457-.435c-.016-.311-.022-.633-.022-.965.021-1.267.041-2.515.06-3.753a.478.478,0,0,1,.465-.452.459.459,0,0,1,.452.465q-.028,1.858-.06,3.746c0,.308.006.614.021.911a.458.458,0,0,1-.434.482h-.024Zm12.82-5.191h0a.459.459,0,0,1-.456-.461q.006-.921.006-1.865c0-.916,0-1.851-.01-2.816a.459.459,0,0,1,.456-.461.443.443,0,0,1,.461.456c.006.967.01,1.9.01,2.822q0,.949-.006,1.871A.459.459,0,0,1,97.491,84.319ZM84.775,80.135h-.006a.459.459,0,0,1-.453-.464q.03-2.364.054-4.686a.448.448,0,0,1,.463-.454.459.459,0,0,1,.454.463q-.024,2.324-.054,4.689A.459.459,0,0,1,84.775,80.135Zm12.669-5.189a.458.458,0,0,1-.459-.454l-.009-.867c-.013-1.226-.026-2.5-.038-3.819a.459.459,0,0,1,.455-.463h0a.459.459,0,0,1,.459.455c.012,1.323.025,2.592.038,3.818l.009.868a.459.459,0,0,1-.454.463h0ZM84.872,70.759h0a.459.459,0,0,1-.455-.462q.019-2.359.03-4.686a.459.459,0,0,1,.459-.456h0a.459.459,0,0,1,.456.461q-.012,2.329-.03,4.689A.459.459,0,0,1,84.872,70.759Zm12.493-5.186a.459.459,0,0,1-.459-.457q-.008-1.775-.009-3.685v-1a.458.458,0,0,1,.459-.458h0a.459.459,0,0,1,.458.459v1q0,1.911.009,3.681a.459.459,0,0,1-.457.461h0ZM84.92,61.384h0a.459.459,0,0,1-.457-.46q.005-2.022,0-4.029a3.7,3.7,0,0,0-.046-.581.458.458,0,0,1,.905-.145,4.621,4.621,0,0,1,.058.726q0,2.009,0,4.032a.459.459,0,0,1-.459.457ZM97.377,56.2h0a.459.459,0,0,1-.455-.462q.017-2.248.049-4.689a.459.459,0,1,1,.917.013q-.033,2.441-.049,4.683a.459.459,0,0,1-.459.455ZM78.22,53.5l-.04,0A1.379,1.379,0,0,1,77,52.777a.459.459,0,1,1,.844-.36.57.57,0,0,0,.387.164c.208-.011.518-.054.845-.1.411-.056.842-.113,1.305-.155a4.6,4.6,0,0,1,1.666.155.459.459,0,0,1-.25.882,3.64,3.64,0,0,0-1.333-.124c-.449.041-.866.1-1.265.15-.366.05-.712.1-.962.107H78.22Zm.5-4.94a.465.465,0,0,1-.127-.018.459.459,0,0,1-.313-.568c.494-1.713.912-3.2,1.27-4.5a.459.459,0,0,1,.884.243c-.359,1.306-.777,2.8-1.273,4.516a.459.459,0,0,1-.44.332ZM97.5,46.827h-.009a.459.459,0,0,1-.45-.467q.044-2.26.1-4.688a.458.458,0,1,1,.917.022q-.06,2.428-.1,4.683a.459.459,0,0,1-.458.45ZM81.2,39.522a.458.458,0,0,1-.444-.574l.175-.674c.451-1.736.749-2.883,1.076-3.871a.458.458,0,0,1,.871.288c-.318.96-.612,2.1-1.059,3.813l-.175.675a.459.459,0,0,1-.444.343Zm16.313-2.058a.459.459,0,0,1-.452-.386,7.962,7.962,0,0,0-.78-2.426,3.45,3.45,0,0,0-1.166-1.282.459.459,0,0,1,.512-.761,4.373,4.373,0,0,1,1.463,1.611,8.879,8.879,0,0,1,.876,2.712.458.458,0,0,1-.453.531ZM86.24,32.832a.459.459,0,0,1-.1-.907,21.353,21.353,0,0,1,4.484-.518l.271,0a.459.459,0,0,1,.45.467.466.466,0,0,1-.467.45,20.182,20.182,0,0,0-4.545.495.468.468,0,0,1-.1.01Z" transform="translate(-76.964 -31.407)" fill="#fff"/>
        </g>
        <g id="Grupo_1114697" data-name="Grupo 1114697">
          <path id="Trazado_893278" data-name="Trazado 893278" d="M85.794,93.462l-.291,0c-7.988-.3-11.859-3.91-11.859-11.051.177-10.547.267-20.333.274-29.886a11.237,11.237,0,0,1-1.513.127h-.044a6.112,6.112,0,0,1-5.836-4.62,5.328,5.328,0,0,1,.251-3.151l.037-.123c2.014-6.766,3.045-10.733,3.726-13.358.53-2.04.88-3.388,1.335-4.671a7.005,7.005,0,0,1,5.179-4.574c3.322-.983,14.352-3.544,18.55,4.132a15.091,15.091,0,0,1,1.608,7.245c-.433,15.829-.323,26.252-.235,34.627.062,5.862.11,10.491-.041,15.208a9.658,9.658,0,0,1-2.71,7.165c-1.952,1.923-4.864,2.935-8.434,2.935ZM76.212,49.973v1.255c0,9.977-.09,20.183-.275,31.2,0,5.87,2.879,8.49,9.626,8.74,3.052.044,5.5-.74,7.056-2.274a7.493,7.493,0,0,0,2.027-5.568c.15-4.7.1-9.312.04-15.147-.088-8.395-.2-18.842.236-34.682a12.847,12.847,0,0,0-1.338-6.133C90.21,21.2,80.562,23.5,77.685,24.356l-.048.013a4.773,4.773,0,0,0-3.6,3.131c-.419,1.182-.741,2.42-1.274,4.473-.686,2.64-1.722,6.631-3.749,13.438l-.039.129a3.239,3.239,0,0,0-.237,1.875l.022.086a3.818,3.818,0,0,0,3.671,2.857,10.942,10.942,0,0,0,1.38-.132c.363-.049.744-.1,1.154-.138Z" transform="translate(-66.378 -20.942)" fill="#fff"/>
        </g>
      </g>
    </g>
  </g>
</svg>
