<svg xmlns="http://www.w3.org/2000/svg" width="104" height="104" viewBox="0 0 104 104">
  <g id="Grupo_1115335" data-name="Grupo 1115335" transform="translate(-747.341 -13853)">
    <g id="Trazado_874818" data-name="Trazado 874818" transform="translate(747.341 13853)" fill="#a6826d">
      <path d="M 52 103 C 45.11460113525391 103 38.43569946289062 101.6517105102539 32.1488151550293 98.99258422851562 C 26.07588577270508 96.42394256591797 20.62162780761719 92.74652862548828 15.93755722045898 88.06244659423828 C 11.25348567962646 83.37837219238281 7.576056957244873 77.92412567138672 5.007428646087646 71.8511962890625 C 2.348285675048828 65.56430053710938 1 58.88539886474609 1 52 C 1 45.11460113525391 2.348285675048828 38.43569946289062 5.007428646087646 32.1488151550293 C 7.576056957244873 26.07588577270508 11.25348567962646 20.62162780761719 15.93755722045898 15.93755722045898 C 20.62162780761719 11.25348567962646 26.07588577270508 7.576056957244873 32.1488151550293 5.007428646087646 C 38.43569946289062 2.348285675048828 45.11460113525391 1 52 1 C 58.88539886474609 1 65.56430053710938 2.348285675048828 71.8511962890625 5.007428646087646 C 77.92412567138672 7.576056957244873 83.37837219238281 11.25348567962646 88.06244659423828 15.93755722045898 C 92.74652862548828 20.62162780761719 96.42394256591797 26.07588577270508 98.99258422851562 32.1488151550293 C 101.6517105102539 38.43569946289062 103 45.11460113525391 103 52 C 103 58.88539886474609 101.6517105102539 65.56430053710938 98.99258422851562 71.8511962890625 C 96.42394256591797 77.92412567138672 92.74652862548828 83.37837219238281 88.06244659423828 88.06244659423828 C 83.37837219238281 92.74652862548828 77.92412567138672 96.42394256591797 71.8511962890625 98.99258422851562 C 65.56430053710938 101.6517105102539 58.88539886474609 103 52 103 Z" stroke="none"/>
      <path d="M 52 2 C 45.24916839599609 2 38.70132446289062 3.321708679199219 32.53835296630859 5.928428649902344 C 26.58463287353516 8.446647644042969 21.23721313476562 12.05210876464844 16.64466094970703 16.64466094970703 C 12.05210876464844 21.23721313476562 8.446647644042969 26.58463287353516 5.928428649902344 32.53835296630859 C 3.321708679199219 38.70132446289062 2 45.24916839599609 2 52 C 2 58.75084686279297 3.321708679199219 65.29867553710938 5.928428649902344 71.46164703369141 C 8.446647644042969 77.41536712646484 12.05210876464844 82.76278686523438 16.64466094970703 87.35533905029297 C 21.23721313476562 91.94789123535156 26.58463287353516 95.55335235595703 32.53835296630859 98.07157135009766 C 38.70132446289062 100.6782913208008 45.24916839599609 102 52 102 C 58.75084686279297 102 65.29867553710938 100.6782913208008 71.46164703369141 98.07157135009766 C 77.41536712646484 95.55335235595703 82.76278686523438 91.94789123535156 87.35533905029297 87.35533905029297 C 91.94789123535156 82.76278686523438 95.55335235595703 77.41536712646484 98.07157135009766 71.46164703369141 C 100.6782913208008 65.29867553710938 102 58.75084686279297 102 52 C 102 45.24916839599609 100.6782913208008 38.70132446289062 98.07157135009766 32.53835296630859 C 95.55335235595703 26.58463287353516 91.94789123535156 21.23721313476562 87.35533905029297 16.64466094970703 C 82.76278686523438 12.05210876464844 77.41536712646484 8.446647644042969 71.46164703369141 5.928428649902344 C 65.29867553710938 3.321708679199219 58.75084686279297 2 52 2 M 52 0 C 80.71881103515625 0 104 23.28119659423828 104 52 C 104 80.71881103515625 80.71881103515625 104 52 104 C 23.28119659423828 104 0 80.71881103515625 0 52 C 0 23.28119659423828 23.28119659423828 0 52 0 Z" stroke="none" fill="#fff"/>
    </g>
    <g id="two_8632817" transform="translate(774.387 13870.406)">
      <g id="Grupo_1114706" data-name="Grupo 1114706" transform="translate(0 0)">
        <g id="Grupo_1114704" data-name="Grupo 1114704" transform="translate(4.857 4.814)">
          <path id="Trazado_893282" data-name="Trazado 893282" d="M84.07,94.393h-.12c-1.394,0-2.878-.015-4.534-.045a.459.459,0,0,1-.45-.467.47.47,0,0,1,.467-.45c1.651.03,3.129.045,4.517.045h.12a.459.459,0,1,1,0,.917Zm4.525-.062a.459.459,0,0,1-.013-.917c1.507-.042,2.928-.1,4.344-.191.039,0,.082-.008.122-.014a.459.459,0,1,1,.134.907c-.057.009-.12.015-.19.021-1.436.088-2.867.151-4.384.193Zm-13.7-.089h-.012L73.7,94.21c-1.1-.03-2.213-.059-3.331-.086a.459.459,0,0,1,.01-.917h.011c1.119.026,2.233.056,3.334.086l1.192.032a.459.459,0,0,1-.012.917Zm-9.051-.2h0q-.834-.008-1.664-.008c-.315-.014-.656-.02-1.08-.02-.365,0-.766,0-1.184.01l-.589.007h0a.459.459,0,0,1,0-.917l.588-.007c.423,0,.827-.01,1.195-.01.441,0,.8.007,1.1.021.532,0,1.092,0,1.651.008a.459.459,0,0,1,0,.917Zm-8.729-1a.458.458,0,0,1-.383-.205,2.837,2.837,0,0,1-.2-.367,5.966,5.966,0,0,1-.443-2.527,13.82,13.82,0,0,1,.135-1.843.458.458,0,0,1,.909.123,12.953,12.953,0,0,0-.126,1.72,5.108,5.108,0,0,0,.356,2.138,1.925,1.925,0,0,0,.138.249.459.459,0,0,1-.382.712Zm37.513-2.973H94.6a.457.457,0,0,1-.428-.479c.035-.463.075-.97.075-1.34a1.551,1.551,0,0,0-.022-.347l-.031-.121c-.155-.635-.958-1.031-1.6-1.251a.459.459,0,0,1,.3-.868c1.256.428,2,1.068,2.2,1.9l.025.1a2.325,2.325,0,0,1,.055.588c0,.406-.041.932-.076,1.4a.461.461,0,0,1-.457.426Zm-24.4-2.862a.477.477,0,0,1-.083-.007A4.61,4.61,0,0,1,66.4,84.29a.458.458,0,0,1,.855-.33,3.7,3.7,0,0,0,3.068,2.345.459.459,0,0,1-.082.91Zm4.5-.134a.459.459,0,0,1-.055-.914l.587-.072c1.326-.164,2.628-.324,3.912-.468a.458.458,0,0,1,.1.911c-1.281.143-2.58.3-3.9.467l-.587.073A.491.491,0,0,1,74.739,87.08Zm9-.951a.459.459,0,0,1-.029-.916c1.654-.107,3.121-.145,4.562-.116a.459.459,0,0,1-.018.917c-1.415-.029-2.856.009-4.484.114Zm-26.013-1.9a.459.459,0,0,1-.437-.6c.2-.631.433-1.3.686-1.976a12.327,12.327,0,0,1,1.115-2.287.459.459,0,1,1,.777.488,11.409,11.409,0,0,0-1.033,2.119c-.249.667-.475,1.318-.672,1.936a.459.459,0,0,1-.437.319Zm9.732-3.905a.459.459,0,0,1-.36-.742,9.172,9.172,0,0,1,2.268-1.949c.063-.042.129-.082.2-.121q.646-.377,1.281-.731a.459.459,0,0,1,.447.8q-.627.351-1.267.723c-.053.031-.1.062-.154.1a8.364,8.364,0,0,0-2.049,1.749A.457.457,0,0,1,67.46,80.324Zm-4.841-3.468a.459.459,0,0,1-.259-.837q.189-.129.385-.254l.067-.044c1.01-.673,2.123-1.369,3.4-2.127a.459.459,0,0,1,.467.789c-1.266.75-2.366,1.438-3.363,2.1l-.081.053q-.184.117-.361.238a.457.457,0,0,1-.258.08ZM75.071,75.53a.459.459,0,0,1-.205-.869c1.351-.675,2.623-1.281,3.854-1.866l.208-.1.217.4.176.424-.2.1c-1.233.587-2.5,1.191-3.844,1.862A.456.456,0,0,1,75.071,75.53ZM70.376,72.2a.459.459,0,0,1-.225-.858l.193-.108c1.232-.693,2.491-1.4,3.731-2.13a.459.459,0,0,1,.464.791c-1.247.732-2.51,1.443-3.731,2.13l-.208.117a.46.46,0,0,1-.225.059Zm12.831-.632a.459.459,0,0,1-.213-.865,31.766,31.766,0,0,0,3.823-2.292.459.459,0,1,1,.533.746,32.665,32.665,0,0,1-3.931,2.359A.456.456,0,0,1,83.207,71.564Zm-5.056-4a.459.459,0,0,1-.255-.84c1.1-.731,2.084-1.44,3.018-2.168.048-.037.095-.075.14-.115q.21-.181.416-.37a.459.459,0,0,1,.62.676q-.217.2-.438.39-.086.074-.175.143c-.952.742-1.957,1.464-3.073,2.208A.457.457,0,0,1,78.151,67.565ZM90.421,66.2a.459.459,0,0,1-.349-.755c.28-.33.552-.676.809-1.031a25.107,25.107,0,0,0,1.615-2.661.459.459,0,0,1,.812.427,26.055,26.055,0,0,1-1.679,2.765c-.275.38-.562.746-.857,1.093A.457.457,0,0,1,90.421,66.2ZM84.734,61.45a.459.459,0,0,1-.377-.719,20.957,20.957,0,0,0,2.122-3.879.459.459,0,0,1,.847.351,21.879,21.879,0,0,1-2.214,4.05.458.458,0,0,1-.378.2ZM62.728,59.732a.459.459,0,0,1-.039-.915,6.149,6.149,0,0,0,3.826-1.555.459.459,0,0,1,.64.657,7.045,7.045,0,0,1-4.387,1.811l-.04,0Zm-4.415-.687a.456.456,0,0,1-.2-.048,5.738,5.738,0,0,1-2.8-2.958c-.095-.217-.181-.446-.258-.68a.459.459,0,1,1,.871-.286c.068.207.145.409.228.6a4.793,4.793,0,0,0,2.365,2.5.459.459,0,0,1-.205.869Zm36.339-.786a.459.459,0,0,1-.437-.6,23.973,23.973,0,0,0,.965-4.329.459.459,0,1,1,.91.114,24.873,24.873,0,0,1-1,4.5A.459.459,0,0,1,94.652,58.26ZM68.121,53.9a.459.459,0,0,1-.452-.387,8.8,8.8,0,0,0-1.814-3.848.459.459,0,1,1,.728-.558,9.57,9.57,0,0,1,1.992,4.263.459.459,0,0,1-.454.53Zm19.971-.764a.465.465,0,0,1-.052,0,.458.458,0,0,1-.4-.507,16.558,16.558,0,0,0,.1-1.852,16.731,16.731,0,0,0-.195-2.539.459.459,0,1,1,.906-.14,17.521,17.521,0,0,1,.1,4.634.458.458,0,0,1-.455.407ZM55.061,51.2h-.035A.458.458,0,0,1,54.6,50.7,20.69,20.69,0,0,1,55.5,46.17a.458.458,0,0,1,.875.274,19.773,19.773,0,0,0-.856,4.33A.459.459,0,0,1,55.061,51.2Zm40.667-1.867a.458.458,0,0,1-.456-.418,18.349,18.349,0,0,0-.9-4.311.459.459,0,1,1,.868-.3,19.275,19.275,0,0,1,.948,4.527.458.458,0,0,1-.416.5l-.041,0Zm-31.672-3.4a.459.459,0,0,1-.449-.367A6.863,6.863,0,0,1,63.47,44.2a7.048,7.048,0,0,1,.6-2.832q.111-.253.237-.5a.459.459,0,1,1,.813.425q-.112.214-.21.437a6.139,6.139,0,0,0-.527,2.465,5.933,5.933,0,0,0,.119,1.181.459.459,0,0,1-.45.55Zm22.663-1.635a.459.459,0,0,1-.418-.27A14.575,14.575,0,0,0,83.94,40.35a.459.459,0,0,1,.664-.632c.01.01.023.024.031.034a15.45,15.45,0,0,1,2.5,3.893.459.459,0,0,1-.418.648ZM57.762,42.635a.459.459,0,0,1-.393-.695,19.783,19.783,0,0,1,2.814-3.667.459.459,0,1,1,.655.642,18.872,18.872,0,0,0-2.683,3.5A.458.458,0,0,1,57.762,42.635Zm35.056-1.776a.458.458,0,0,1-.384-.206q-.265-.4-.557-.8a14.682,14.682,0,0,0-2.4-2.406.458.458,0,1,1,.573-.716A15.606,15.606,0,0,1,92.608,39.3c.212.286.407.566.593.849a.459.459,0,0,1-.383.711ZM67.8,38.3a.459.459,0,0,1-.247-.845,13.674,13.674,0,0,1,4.319-1.76.459.459,0,1,1,.2.895,12.742,12.742,0,0,0-4.026,1.638.458.458,0,0,1-.246.072Zm12.959-.6a.457.457,0,0,1-.217-.055,11.57,11.57,0,0,0-4.127-1.3.459.459,0,1,1,.108-.911,12.488,12.488,0,0,1,4.453,1.407.459.459,0,0,1-.218.862Zm-16.693-1.42a.459.459,0,0,1-.233-.854,19.845,19.845,0,0,1,4.236-1.847.459.459,0,1,1,.27.877,18.909,18.909,0,0,0-4.041,1.76A.456.456,0,0,1,64.065,36.275Zm21.848-1.091a.456.456,0,0,1-.193-.043,20.1,20.1,0,0,0-4.186-1.41.459.459,0,0,1,.2-.9,21,21,0,0,1,4.378,1.474.459.459,0,0,1-.193.874ZM72.622,33.521a.459.459,0,0,1-.058-.913,32.559,32.559,0,0,1,4.58-.249.459.459,0,0,1,.452.465.475.475,0,0,1-.465.452,31.8,31.8,0,0,0-4.451.241A.439.439,0,0,1,72.622,33.521Z" transform="translate(-54.602 -32.356)" fill="#fff"/>
        </g>
        <g id="Grupo_1114705" data-name="Grupo 1114705">
          <path id="Trazado_893283" data-name="Trazado 893283" d="M78.21,93.523c-3.522,0-6.942-.092-10.3-.182-3.3-.089-6.415-.173-9.566-.173l-.064,0c-.5-.028-1.247-.019-2.038-.009a21.917,21.917,0,0,1-5.175-.306l-.073-.023a7.568,7.568,0,0,1-4.554-3.992c-1.549-3.305-1.127-8.064,1.291-14.548a16.137,16.137,0,0,1,6.695-8.27C57,64.3,59.668,62.8,62.248,61.35A78.728,78.728,0,0,0,72.2,55.094a15.39,15.39,0,0,0,4.911-8.625,11.179,11.179,0,0,0-2.63-8.747,6.974,6.974,0,0,0-5.539-2.331c-2.372.105-4.772,1.264-5.347,2.582a1.47,1.47,0,0,0,.394,1.675c3.929,4.569,4.841,9.781,2.433,13.937-2.444,4.22-7.661,6.132-13.611,4.988l-.078-.018a10.818,10.818,0,0,1-7.566-6.279c-2.348-5.392-.785-12.706,1.8-17.562l.007-.013A23.352,23.352,0,0,1,62.089,22.956a35.438,35.438,0,0,1,10.984-1.044c6.856.366,13.775,3.815,17.631,8.788,7.487,10.082,4.948,23.005-.883,31.348-3.731,5.172-8.66,7.518-14.366,10.235-2.163,1.03-4.384,2.087-6.757,3.38l.248-.03a87.159,87.159,0,0,1,15.038-.987c5.379.124,9.145,2.406,10.047,6.1a10.459,10.459,0,0,1,.127,3.592l-.005.069c-.219,2.107-.877,8.424-6.56,8.85C84.372,93.455,81.253,93.523,78.21,93.523ZM58.374,90.876c3.172,0,6.293.084,9.6.173,6.212.167,12.635.34,19.465-.079,1.85-.139,3.837-1.053,4.433-6.77l0-.038a8.737,8.737,0,0,0-.06-2.842c-.931-3.815-5.84-4.335-7.908-4.383a85.43,85.43,0,0,0-14.675.971q-1.23.152-2.495.3l-.136.008h-.289c-1.174.005-2.187.008-2.49-1-.321-1.073.749-1.771,1.693-2.387l.049-.03c3.22-1.879,6.243-3.317,8.91-4.587,5.645-2.687,10.1-4.81,13.482-9.492,5.35-7.655,7.719-19.488.926-28.635-3.451-4.45-9.707-7.552-15.923-7.884a33.123,33.123,0,0,0-10.278.971A21.145,21.145,0,0,0,48.988,35.8c-2.253,4.228-3.753,10.9-1.722,15.562a8.618,8.618,0,0,0,6.014,4.967c4.949.939,9.22-.552,11.155-3.893,1.9-3.274,1.077-7.5-2.192-11.3a3.76,3.76,0,0,1-.752-4.081c1.06-2.43,4.5-3.83,7.348-3.956a9.2,9.2,0,0,1,7.322,3.064,13.537,13.537,0,0,1,3.221,10.6,17.62,17.62,0,0,1-5.709,10.085l-.044.036a80.249,80.249,0,0,1-10.257,6.463c-2.543,1.43-5.172,2.91-7.7,4.592a13.943,13.943,0,0,0-5.8,7.149c-2.162,5.8-2.62,10.094-1.364,12.775a5.274,5.274,0,0,0,3.2,2.789,22.173,22.173,0,0,0,4.5.213C57.065,90.854,57.8,90.846,58.374,90.876Z" transform="translate(-44.011 -21.858)" fill="#fff"/>
        </g>
      </g>
    </g>
  </g>
</svg>
