<svg xmlns="http://www.w3.org/2000/svg" width="104" height="104" viewBox="0 0 104 104">
  <g id="Grupo_1115336" data-name="Grupo 1115336" transform="translate(-1161.341 -13853)">
    <g id="Trazado_874818" data-name="Trazado 874818" transform="translate(1161.341 13853)" fill="#727aa6">
      <path d="M 52 103 C 45.11460113525391 103 38.43569946289062 101.6517105102539 32.1488151550293 98.99258422851562 C 26.07588577270508 96.42394256591797 20.62162780761719 92.74652862548828 15.93755722045898 88.06244659423828 C 11.25348567962646 83.37837219238281 7.576056957244873 77.92412567138672 5.007428646087646 71.8511962890625 C 2.348285675048828 65.56430053710938 1 58.88539886474609 1 52 C 1 45.11460113525391 2.348285675048828 38.43569946289062 5.007428646087646 32.1488151550293 C 7.576056957244873 26.07588577270508 11.25348567962646 20.62162780761719 15.93755722045898 15.93755722045898 C 20.62162780761719 11.25348567962646 26.07588577270508 7.576056957244873 32.1488151550293 5.007428646087646 C 38.43569946289062 2.348285675048828 45.11460113525391 1 52 1 C 58.88539886474609 1 65.56430053710938 2.348285675048828 71.8511962890625 5.007428646087646 C 77.92412567138672 7.576056957244873 83.37837219238281 11.25348567962646 88.06244659423828 15.93755722045898 C 92.74652862548828 20.62162780761719 96.42394256591797 26.07588577270508 98.99258422851562 32.1488151550293 C 101.6517105102539 38.43569946289062 103 45.11460113525391 103 52 C 103 58.88539886474609 101.6517105102539 65.56430053710938 98.99258422851562 71.8511962890625 C 96.42394256591797 77.92412567138672 92.74652862548828 83.37837219238281 88.06244659423828 88.06244659423828 C 83.37837219238281 92.74652862548828 77.92412567138672 96.42394256591797 71.8511962890625 98.99258422851562 C 65.56430053710938 101.6517105102539 58.88539886474609 103 52 103 Z" stroke="none"/>
      <path d="M 52 2 C 45.24916839599609 2 38.70132446289062 3.321708679199219 32.53835296630859 5.928428649902344 C 26.58463287353516 8.446647644042969 21.23721313476562 12.05210876464844 16.64466094970703 16.64466094970703 C 12.05210876464844 21.23721313476562 8.446647644042969 26.58463287353516 5.928428649902344 32.53835296630859 C 3.321708679199219 38.70132446289062 2 45.24916839599609 2 52 C 2 58.75084686279297 3.321708679199219 65.29867553710938 5.928428649902344 71.46164703369141 C 8.446647644042969 77.41536712646484 12.05210876464844 82.76278686523438 16.64466094970703 87.35533905029297 C 21.23721313476562 91.94789123535156 26.58463287353516 95.55335235595703 32.53835296630859 98.07157135009766 C 38.70132446289062 100.6782913208008 45.24916839599609 102 52 102 C 58.75084686279297 102 65.29867553710938 100.6782913208008 71.46164703369141 98.07157135009766 C 77.41536712646484 95.55335235595703 82.76278686523438 91.94789123535156 87.35533905029297 87.35533905029297 C 91.94789123535156 82.76278686523438 95.55335235595703 77.41536712646484 98.07157135009766 71.46164703369141 C 100.6782913208008 65.29867553710938 102 58.75084686279297 102 52 C 102 45.24916839599609 100.6782913208008 38.70132446289062 98.07157135009766 32.53835296630859 C 95.55335235595703 26.58463287353516 91.94789123535156 21.23721313476562 87.35533905029297 16.64466094970703 C 82.76278686523438 12.05210876464844 77.41536712646484 8.446647644042969 71.46164703369141 5.928428649902344 C 65.29867553710938 3.321708679199219 58.75084686279297 2 52 2 M 52 0 C 80.71881103515625 0 104 23.28119659423828 104 52 C 104 80.71881103515625 80.71881103515625 104 52 104 C 23.28119659423828 104 0 80.71881103515625 0 52 C 0 23.28119659423828 23.28119659423828 0 52 0 Z" stroke="none" fill="#fff"/>
    </g>
    <g id="three_8632821" transform="translate(1189.467 13870.406)">
      <g id="Grupo_1114703" data-name="Grupo 1114703" transform="translate(0 0)">
        <g id="Grupo_1114701" data-name="Grupo 1114701" transform="translate(4.834 4.815)">
          <g id="Grupo_1114699" data-name="Grupo 1114699" transform="translate(22.094 30.04)">
            <path id="Trazado_893279" data-name="Trazado 893279" d="M108.92,100.858a.456.456,0,0,1-.254-.077l-1.471-.981a.447.447,0,0,1-.057-.045,2.641,2.641,0,0,1-.42-.477.458.458,0,0,1-.027-.454,2.378,2.378,0,0,1,.269-.412c.353-.43.7-.836,1.048-1.236l.193-.224a.459.459,0,1,1,.7.6l-.169.2c-.364.422-.709.823-1.052,1.24l0,.006.066.064,1.44.96a.459.459,0,0,1-.255.84Z" transform="translate(-106.643 -96.792)" fill="#fff"/>
          </g>
          <g id="Grupo_1114700" data-name="Grupo 1114700">
            <path id="Trazado_893280" data-name="Trazado 893280" d="M74.8,94.249h-.029q-.288-.018-.577-.041a22.659,22.659,0,0,1-4.109-.7.459.459,0,1,1,.241-.885,21.782,21.782,0,0,0,3.943.667q.28.023.559.04a.459.459,0,0,1-.028.916Zm4.651-.1a.459.459,0,0,1-.049-.914,25.021,25.021,0,0,0,4.477-.912.459.459,0,1,1,.265.878,25.959,25.959,0,0,1-4.642.945ZM65.932,91.707a.458.458,0,0,1-.241-.069,15.449,15.449,0,0,1-3.627-3.117.458.458,0,0,1,.7-.6,14.534,14.534,0,0,0,3.412,2.933.459.459,0,0,1-.242.849Zm22.358-.3a.459.459,0,0,1-.235-.853,14.453,14.453,0,0,0,3.462-2.87.458.458,0,0,1,.688.606,15.363,15.363,0,0,1-3.681,3.052.458.458,0,0,1-.234.064ZM76.939,89.534h-.019a12.9,12.9,0,0,1-4.12-.872,4.6,4.6,0,0,1-.582-.272.458.458,0,0,1,.445-.8,3.731,3.731,0,0,0,.466.218,11.986,11.986,0,0,0,3.827.811.459.459,0,0,1-.018.917Zm4.557-.782a.459.459,0,0,1-.174-.883,9.9,9.9,0,0,0,3.615-2.536.459.459,0,0,1,.679.616,10.8,10.8,0,0,1-3.948,2.769A.454.454,0,0,1,81.5,88.752ZM59.974,84.734a.459.459,0,0,1-.423-.281,13.917,13.917,0,0,1-1.089-4.668A.458.458,0,0,1,58.9,79.3a.453.453,0,0,1,.482.434A13.012,13.012,0,0,0,60.4,84.1a.459.459,0,0,1-.423.636Zm10.355-.164H70.3a.459.459,0,0,1-.427-.488,4.567,4.567,0,0,1,.474-1.749c.083-.166.166-.325.247-.481.069-.132.213-.407.238-.478.046-.139.1-.278.16-.413a12.4,12.4,0,0,0,.509-1.332.459.459,0,0,1,.875.273,13.234,13.234,0,0,1-.546,1.431c-.048.108-.091.219-.128.332a5.445,5.445,0,0,1-.295.612c-.079.15-.159.3-.239.466a3.649,3.649,0,0,0-.379,1.4.459.459,0,0,1-.457.428Zm24.031-.037a.459.459,0,0,1-.418-.646,16.605,16.605,0,0,0,.84-2.352c.184-.682.341-1.356.466-2a.459.459,0,1,1,.9.175c-.129.666-.291,1.361-.481,2.067a17.542,17.542,0,0,1-.887,2.485.459.459,0,0,1-.419.272Zm-6.773-2.44a.459.459,0,0,1-.436-.6,11.774,11.774,0,0,0,.46-1.97c.094-.6.227-1.5.3-2.5a.458.458,0,0,1,.914.068c-.076,1.034-.212,1.963-.308,2.572a12.643,12.643,0,0,1-.5,2.119A.459.459,0,0,1,87.587,82.093ZM59.772,75.711a.459.459,0,0,1-.391-.7A6.767,6.767,0,0,1,63.35,72.17a.459.459,0,0,1,.257.88,5.871,5.871,0,0,0-3.443,2.44A.458.458,0,0,1,59.772,75.711Zm11.935,0a.458.458,0,0,1-.4-.241,5.1,5.1,0,0,0-3.338-2.487.459.459,0,0,1,.239-.886,6.055,6.055,0,0,1,3.907,2.937.459.459,0,0,1-.4.676ZM96.1,75.449a.459.459,0,0,1-.458-.442,14.023,14.023,0,0,0-.843-4.414.459.459,0,0,1,.861-.317,15.127,15.127,0,0,1,.9,4.7.459.459,0,0,1-.442.475H96.1Zm-7.953-2.577a.459.459,0,0,1-.448-.361A11.476,11.476,0,0,0,85.98,68.4a.458.458,0,1,1,.755-.52,12.379,12.379,0,0,1,1.859,4.433.459.459,0,0,1-.448.556Zm4.8-6.018a.458.458,0,0,1-.361-.176,20.022,20.022,0,0,0-2.4-2.544,4.587,4.587,0,0,1-.776-.9.459.459,0,1,1,.768-.5,3.671,3.671,0,0,0,.621.723,20.956,20.956,0,0,1,2.512,2.661.459.459,0,0,1-.361.741Zm-3.219-7.831a.458.458,0,0,1-.392-.7c.663-1.092,1.52-2.536,2.273-4.026a.459.459,0,1,1,.819.413c-.767,1.519-1.636,2.983-2.307,4.089A.459.459,0,0,1,89.728,59.023Zm-4.45-.487a.459.459,0,0,1-.391-.7,13.931,13.931,0,0,0,1.727-4.148.459.459,0,1,1,.893.209,14.836,14.836,0,0,1-1.837,4.418.458.458,0,0,1-.392.219ZM67.758,54.5a.459.459,0,0,1-.124-.9,8.916,8.916,0,0,0,2.442-1.186,4.771,4.771,0,0,0,1.006-1.192.458.458,0,1,1,.806.436,5.689,5.689,0,0,1-1.222,1.459.437.437,0,0,1-.055.043,9.851,9.851,0,0,1-2.727,1.323.465.465,0,0,1-.125.017Zm-4.3-.945a.456.456,0,0,1-.33-.14,9.237,9.237,0,0,1-2.047-4.418.459.459,0,1,1,.9-.172,8.317,8.317,0,0,0,1.806,3.953.459.459,0,0,1-.33.777ZM93.79,50.662a.459.459,0,0,1-.439-.593,15.589,15.589,0,0,0,.731-4.451.459.459,0,0,1,.459-.455h0a.459.459,0,0,1,.455.463,16.487,16.487,0,0,1-.77,4.711.459.459,0,0,1-.438.325Zm-6.138-1.026h-.028a.459.459,0,0,1-.43-.486c.081-1.329.092-2.551.092-3.468,0-.4-.022-.766-.054-1.119a.459.459,0,0,1,.914-.081c.033.375.053.761.057,1.147v.053c0,.93-.011,2.171-.094,3.524A.458.458,0,0,1,87.652,49.636ZM71.565,47.363a.459.459,0,0,1-.422-.279,6.98,6.98,0,0,0-1.632-2.238q-.108-.1-.208-.215l-.094-.066c-.122-.086-.242-.172-.356-.258a4.624,4.624,0,0,1-.637-.577.459.459,0,1,1,.677-.619,3.669,3.669,0,0,0,.51.462c.108.081.221.162.337.244l.139.1a.476.476,0,0,1,.075.068q.094.106.2.205a7.866,7.866,0,0,1,1.837,2.537.459.459,0,0,1-.422.639Zm-10.073-2.64a.458.458,0,0,1-.454-.528,13.843,13.843,0,0,1,1.525-4.544.459.459,0,1,1,.806.438,12.916,12.916,0,0,0-1.424,4.244.459.459,0,0,1-.453.389ZM93.7,41.529a.459.459,0,0,1-.426-.288,12.453,12.453,0,0,0-2.4-3.768.459.459,0,1,1,.676-.62A13.367,13.367,0,0,1,94.13,40.9a.459.459,0,0,1-.425.63Zm-7.234-1.017a.459.459,0,0,1-.412-.257,11.042,11.042,0,0,0-2.707-3.523.459.459,0,1,1,.6-.694,11.953,11.953,0,0,1,2.93,3.814.459.459,0,0,1-.412.66Zm-18.687-.982a.459.459,0,0,1-.424-.633,4.647,4.647,0,0,1,.258-.528,10.207,10.207,0,0,1,2.847-3.21.459.459,0,1,1,.542.74,9.293,9.293,0,0,0-2.592,2.923,3.728,3.728,0,0,0-.207.424A.459.459,0,0,1,67.784,39.531Zm-1.951-2.848a.459.459,0,0,1-.31-.8,16.5,16.5,0,0,1,3.957-2.672.459.459,0,1,1,.4.825,15.588,15.588,0,0,0-3.737,2.523.457.457,0,0,1-.31.121Zm21.759-1.963a.458.458,0,0,1-.232-.063,17.557,17.557,0,0,0-4.171-1.761.458.458,0,1,1,.247-.883,18.478,18.478,0,0,1,4.389,1.854.459.459,0,0,1-.233.854Zm-7.983-.125a.461.461,0,0,1-.136-.021,9.984,9.984,0,0,0-2.949-.453h0a9.708,9.708,0,0,0-1.451.109.459.459,0,0,1-.137-.907,10.647,10.647,0,0,1,1.588-.119h0a10.9,10.9,0,0,1,3.219.494.459.459,0,0,1-.135.9Zm-5.524-1.987a.459.459,0,0,1-.091-.908,21.163,21.163,0,0,1,3.9-.417h.163c.227,0,.452,0,.676.011a.459.459,0,0,1-.031.917q-.32-.011-.643-.011H77.9a20.238,20.238,0,0,0-3.726.4.462.462,0,0,1-.092.009Z" transform="translate(-58.462 -31.282)" fill="#fff"/>
          </g>
        </g>
        <g id="Grupo_1114702" data-name="Grupo 1114702">
          <path id="Trazado_893281" data-name="Trazado 893281" d="M70.833,93.434q-1.359,0-2.739-.113a23.927,23.927,0,0,1-10.006-2.895c-6.985-3.978-11.01-11.7-10.021-19.216.736-6.206,6.015-9.429,10.92-9.863s10.689,1.793,12.5,7.754a12.288,12.288,0,0,1-.945,8.453c-.052.151-.109.294-.169.433a5.666,5.666,0,0,0,4.061-.587,5.814,5.814,0,0,0,2.708-4.276,16.826,16.826,0,0,0,.185-5.079,5.609,5.609,0,0,0-2.345-3.893L72.4,62.426c-2.824-2.372-3.192-5.437-.983-8.2.4-.481.784-.933,1.167-1.378,1.671-1.941,3.114-3.616,3.653-6.042A35.64,35.64,0,0,0,76.763,40c-.046-3.98-2.517-6.031-4.619-6.574a4.594,4.594,0,0,0-4.675,1.283,3.37,3.37,0,0,1,.382.4,11.115,11.115,0,0,1,3.282,11.323,9.3,9.3,0,0,1-3.2,4.8l-.1.08A13.207,13.207,0,0,1,61.5,53.794c-6.44.7-10.2-4.776-10.956-10.154a19.177,19.177,0,0,1,4.392-15.312,22.935,22.935,0,0,1,17.178-7.544h.234c10.834,0,20.073,6.967,21.549,16.283.981,6.51-1.7,12.378-4.9,17.764,6.241,5.988,8.074,13.363,5.606,22.516l0,.006A20.654,20.654,0,0,1,81.888,91.418,30.75,30.75,0,0,1,70.833,93.434ZM60.187,63.588c-.336,0-.669.015-1,.044-3.689.327-8.22,2.582-8.847,7.864-.871,6.617,2.7,13.417,8.875,16.936a21.682,21.682,0,0,0,9.063,2.6,28.913,28.913,0,0,0,12.8-1.762A18.39,18.39,0,0,0,92.393,76.746c2.342-8.687.556-15.314-5.621-20.857l-.708-.635.494-.813c2.961-4.877,6.04-10.617,5.074-17.026-1.309-8.262-9.67-14.433-19.49-14.34a20.643,20.643,0,0,0-15.468,6.747,16.911,16.911,0,0,0-3.858,13.5c.465,3.325,2.773,8.8,8.462,8.185a10.96,10.96,0,0,0,5.2-2.062,7.019,7.019,0,0,0,2.436-3.6A8.862,8.862,0,0,0,66.2,36.692l-.119-.135a3.119,3.119,0,0,0-.587-.482c-.1-.069-.193-.137-.284-.205l-.809-.606.5-.878A6.793,6.793,0,0,1,72.717,31.2c2.886.746,6.277,3.493,6.338,8.781a37.78,37.78,0,0,1-.571,7.291c-.67,3.02-2.366,4.989-4.161,7.073-.371.431-.749.869-1.123,1.325-1.391,1.739-1.182,3.411.63,4.958l2.422,1.614a7.886,7.886,0,0,1,3.333,5.416,18.876,18.876,0,0,1-.177,5.8,8.081,8.081,0,0,1-3.815,5.913,8.256,8.256,0,0,1-7.267.389l-1.178-.453.564-1.129c.074-.147.147-.288.219-.426a6.811,6.811,0,0,0,.452-.982l.04-.1a9.995,9.995,0,0,0,.86-6.933c-1.31-4.314-5.353-6.152-9.1-6.152Z" transform="translate(-47.919 -20.782)" fill="#fff"/>
        </g>
      </g>
    </g>
  </g>
</svg>
