<svg xmlns="http://www.w3.org/2000/svg" width="104" height="104" viewBox="0 0 104 104">
  <g id="Grupo_1115336" data-name="Grupo 1115336" transform="translate(-10743.409 11033.694)">
    <g id="Trazado_895774" data-name="Trazado 895774" transform="translate(10743.409 -11033.694)" fill="#c7b8b4">
      <path d="M 52 103 C 45.11460113525391 103 38.43569946289062 101.6517105102539 32.1488151550293 98.99258422851562 C 26.07588577270508 96.42394256591797 20.62162780761719 92.74652862548828 15.93755722045898 88.06244659423828 C 11.25348567962646 83.37837219238281 7.576056957244873 77.92412567138672 5.007428646087646 71.8511962890625 C 2.348285675048828 65.56430053710938 1 58.88539886474609 1 52 C 1 45.11460113525391 2.348285675048828 38.43569946289062 5.007428646087646 32.1488151550293 C 7.576056957244873 26.07588577270508 11.25348567962646 20.62162780761719 15.93755722045898 15.93755722045898 C 20.62162780761719 11.25348567962646 26.07588577270508 7.576056957244873 32.1488151550293 5.007428646087646 C 38.43569946289062 2.348285675048828 45.11460113525391 1 52 1 C 58.88539886474609 1 65.56430053710938 2.348285675048828 71.8511962890625 5.007428646087646 C 77.92412567138672 7.576056957244873 83.37837219238281 11.25348567962646 88.06244659423828 15.93755722045898 C 92.74652862548828 20.62162780761719 96.42394256591797 26.07588577270508 98.99258422851562 32.1488151550293 C 101.6517105102539 38.43569946289062 103 45.11460113525391 103 52 C 103 58.88539886474609 101.6517105102539 65.56430053710938 98.99258422851562 71.8511962890625 C 96.42394256591797 77.92412567138672 92.74652862548828 83.37837219238281 88.06244659423828 88.06244659423828 C 83.37837219238281 92.74652862548828 77.92412567138672 96.42394256591797 71.8511962890625 98.99258422851562 C 65.56430053710938 101.6517105102539 58.88539886474609 103 52 103 Z" stroke="none"/>
      <path d="M 52 2 C 45.24916839599609 2 38.70132446289062 3.321708679199219 32.53835296630859 5.928428649902344 C 26.58463287353516 8.446647644042969 21.23721313476562 12.05210876464844 16.64466094970703 16.64466094970703 C 12.05210876464844 21.23721313476562 8.446647644042969 26.58463287353516 5.928428649902344 32.53835296630859 C 3.321708679199219 38.70132446289062 2 45.24916839599609 2 52 C 2 58.75084686279297 3.321708679199219 65.29867553710938 5.928428649902344 71.46164703369141 C 8.446647644042969 77.41536712646484 12.05210876464844 82.76278686523438 16.64466094970703 87.35533905029297 C 21.23721313476562 91.94789123535156 26.58463287353516 95.55335235595703 32.53835296630859 98.07157135009766 C 38.70132446289062 100.6782913208008 45.24916839599609 102 52 102 C 58.75084686279297 102 65.29867553710938 100.6782913208008 71.46164703369141 98.07157135009766 C 77.41536712646484 95.55335235595703 82.76278686523438 91.94789123535156 87.35533905029297 87.35533905029297 C 91.94789123535156 82.76278686523438 95.55335235595703 77.41536712646484 98.07157135009766 71.46164703369141 C 100.6782913208008 65.29867553710938 102 58.75084686279297 102 52 C 102 45.24916839599609 100.6782913208008 38.70132446289062 98.07157135009766 32.53835296630859 C 95.55335235595703 26.58463287353516 91.94789123535156 21.23721313476562 87.35533905029297 16.64466094970703 C 82.76278686523438 12.05210876464844 77.41536712646484 8.446647644042969 71.46164703369141 5.928428649902344 C 65.29867553710938 3.321708679199219 58.75084686279297 2 52 2 M 52 0 C 80.71881103515625 0 104 23.28119659423828 104 52 C 104 80.71881103515625 80.71881103515625 104 52 104 C 23.28119659423828 104 0 80.71881103515625 0 52 C 0 23.28119659423828 23.28119659423828 0 52 0 Z" stroke="none" fill="#fff"/>
    </g>
    <g id="letra-c" transform="translate(10774.123 -10994.759)">
      <g id="Grupo_1114926" data-name="Grupo 1114926" transform="translate(0 0)">
        <g id="Grupo_1114925" data-name="Grupo 1114925">
          <g id="Grupo_1114923" data-name="Grupo 1114923" transform="translate(33.821 22.885)">
            <path id="Trazado_895756" data-name="Trazado 895756" d="M687.627,508.726a.4.4,0,0,1-.537-.024l-.463-.42c-.162-.123-.435-.312-.608-.42l-.313-.2c-.172-.108-.147-.21.055-.227l.368-.031c.2-.017.532-.06.732-.1a2.524,2.524,0,0,0,.59-.2l.095-.046c.1-.057.266.039.371.213s.092.373-.028.442l-.114.055-.129.063c-.145.055-.186.177-.089.272S687.781,508.593,687.627,508.726Z" transform="translate(-685.592 -507.048)"/>
          </g>
          <g id="Grupo_1114924" data-name="Grupo 1114924">
            <path id="Trazado_895757" data-name="Trazado 895757" d="M252.256,244.021c-.2,0-.432.008-.509.008a.409.409,0,0,1-.273-.372.381.381,0,0,1,.374-.374l2.2-.085a.384.384,0,0,1,.4.345.361.361,0,0,1-.336.393Zm-3.758-.536a.36.36,0,0,1-.405.319l-2.254-.359a.359.359,0,0,1-.285-.43.383.383,0,0,1,.441-.293l2.176.346A.382.382,0,0,1,248.5,243.485Zm9.344-.092a.358.358,0,0,1-.433-.279.384.384,0,0,1,.287-.446l2.13-.557a.384.384,0,0,1,.469.248.358.358,0,0,1-.241.455Zm-15.162-1.175a.356.356,0,0,1-.466.217l-2.113-.888a.356.356,0,0,1-.17-.485.387.387,0,0,1,.5-.176l2.022.849A.386.386,0,0,1,242.68,242.218Zm20.874-.785a.355.355,0,0,1-.486-.165.386.386,0,0,1,.172-.5l1.9-1.072a.39.39,0,0,1,.521.113.352.352,0,0,1-.109.5Zm-26.183-1.9a.354.354,0,0,1-.506.08l-1.777-1.455a.355.355,0,0,1-.022-.512.388.388,0,0,1,.532-.023l1.691,1.384A.388.388,0,0,1,237.371,239.537Zm31.1-1.649a.348.348,0,0,1-.508.021.4.4,0,0,1-.022-.537l.954-1.23c.114-.169.275-.421.358-.562a.379.379,0,0,1,.638.373c-.083.141-.243.394-.358.563Zm-35.4-2.452a.355.355,0,0,1-.508-.075l-1.268-1.915a.355.355,0,0,1,.129-.5.388.388,0,0,1,.515.135l1.208,1.825A.388.388,0,0,1,233.07,235.435Zm36.36-2.8a.386.386,0,0,1-.478-.234l-.811-2.054a.38.38,0,0,1,.194-.491.363.363,0,0,1,.481.191l.838,2.125A.356.356,0,0,1,269.43,232.631Zm-39.282-2.376a.365.365,0,0,1-.475-.21s-.1-.27-.21-.582c-.22-.637-.485-1.6-.485-1.6a.362.362,0,0,1,.26-.447.38.38,0,0,1,.456.266s.254.925.467,1.541c.1.3.2.552.2.552A.376.376,0,0,1,230.147,230.255Zm36.906-3.1a.374.374,0,0,1-.5-.162l-1.061-1.953a.382.382,0,0,1,.14-.51.361.361,0,0,1,.5.137l1.082,1.993A.368.368,0,0,1,267.054,227.155Zm-38.374-2.67a.358.358,0,0,1-.4-.32l-.17-2.278a.359.359,0,0,1,.352-.377.383.383,0,0,1,.387.362l.164,2.2A.384.384,0,0,1,228.679,224.486Zm.311-6.283a.386.386,0,0,1-.418.328.356.356,0,0,1-.318-.4l.384-2.259a.356.356,0,0,1,.433-.276.386.386,0,0,1,.285.448Zm37.643-.013a.358.358,0,0,1-.488.165.384.384,0,0,1-.17-.5s.267-.561.486-1.125c.149-.381.331-.9.331-.9a.376.376,0,0,1,.472-.231.366.366,0,0,1,.228.467s-.19.546-.343.937c-.228.588-.517,1.195-.517,1.195Zm-36.2-5.657a.374.374,0,0,1-.481.211.367.367,0,0,1-.21-.477s.035-.089.124-.3c.3-.718.841-1.776.841-1.776a.36.36,0,0,1,.493-.153.382.382,0,0,1,.157.506s-.518,1.014-.809,1.709C230.465,212.458,230.436,212.532,230.436,212.532Zm38.143-.058a.37.37,0,0,1-.713-.194l.057-.217c.2-.757.481-1.947.481-1.947a.374.374,0,0,1,.446-.277.367.367,0,0,1,.275.442s-.285,1.206-.486,1.97C268.59,212.433,268.579,212.474,268.579,212.474Zm-35.255-5.031a.386.386,0,0,1-.526.073.357.357,0,0,1-.071-.509l1.47-1.758a.356.356,0,0,1,.514-.021.386.386,0,0,1,.021.531Zm36.541-.831a.361.361,0,0,1-.419.3.381.381,0,0,1-.309-.429s.183-1.22.183-1.692a2.564,2.564,0,0,0-.019-.388.4.4,0,0,1,.295-.45.346.346,0,0,1,.424.278,3.517,3.517,0,0,1,.039.56C270.059,205.316,269.864,206.612,269.864,206.612Zm-32.434-3.339a.385.385,0,0,1-.527-.065.356.356,0,0,1,.063-.51l1.871-1.321a.357.357,0,0,1,.5.112.385.385,0,0,1-.115.518Zm30.407-1.646a.382.382,0,0,1-.521.091s-.14-.1-.4-.25c-.535-.32-1.507-.776-1.507-.776a.384.384,0,0,1-.187-.5.358.358,0,0,1,.482-.182s1.029.483,1.592.819c.275.165.45.285.45.285a.361.361,0,0,1,.089.509Zm-25.373-1.345a.376.376,0,0,1-.491-.189.366.366,0,0,1,.186-.486s.295-.129.616-.259c.611-.246,1.524-.552,1.524-.552a.362.362,0,0,1,.461.235.38.38,0,0,1-.24.47s-.876.293-1.47.532c-.31.126-.586.247-.586.247Zm19.955-1.1a.382.382,0,0,1-.463.257l-2.145-.524a.382.382,0,0,1-.291-.442.36.36,0,0,1,.432-.284l2.215.541a.36.36,0,0,1,.251.452Zm-14.331-.566a.383.383,0,0,1-.433-.305.358.358,0,0,1,.3-.421l2.265-.3a.359.359,0,0,1,.4.33.383.383,0,0,1-.339.407Zm8.482-.581a.38.38,0,0,1-.407.337l-2.209-.137a.38.38,0,0,1-.362-.385.362.362,0,0,1,.377-.354l2.27.141A.361.361,0,0,1,256.571,198.036Z" transform="translate(-228.104 -197.496)"/>
          </g>
        </g>
      </g>
      <path id="Trazado_895758" data-name="Trazado 895758" d="M284.008,273.571a25.268,25.268,0,0,1-9.48-1.686,18.079,18.079,0,0,1-6.641-4.558,18.685,18.685,0,0,1-3.858-6.577,23.629,23.629,0,0,1-1.239-7.718,20.438,20.438,0,0,1,6.083-14.587,21.088,21.088,0,0,1,6.99-4.564,24.12,24.12,0,0,1,9.049-1.691,30.568,30.568,0,0,1,10.234,1.652c1.811.646,4.048,1.734,4.39,2.674l.013.036.01.037c.041.164.126.506-.288,2.687-.254,1.342-.624,2.962-1.014,4.447a42.84,42.84,0,0,1-1.4,4.463c-.8,2.041-1.359,2.53-1.762,2.724-.48.236-.927-.009-1.814-.494a14.106,14.106,0,0,0-6.792-2.066,6.783,6.783,0,0,0-4.3,1.164,4.265,4.265,0,0,0-1.437,3.518c0,4.022,3.537,4.456,5.058,4.456a13.084,13.084,0,0,0,6.893-2.436.946.946,0,0,1,.943-.05c.322.15.776.5,1.7,1.976.563.893,1.209,2.057,1.868,3.364a28.117,28.117,0,0,1,2.5,6.234l.027.244-.123.211a12.472,12.472,0,0,1-5.8,4.547A24.48,24.48,0,0,1,284.008,273.571Zm.9-39.9c-11.769,0-20.643,8.324-20.643,19.363,0,9.215,5.185,19.062,19.739,19.062a22.859,22.859,0,0,0,9.225-1.866,11.65,11.65,0,0,0,4.982-3.72,31.887,31.887,0,0,0-2.258-5.393A24.193,24.193,0,0,0,293.2,256.5a14.239,14.239,0,0,1-7.38,2.466c-3.16,0-6.537-1.559-6.537-5.934,0-3.972,2.562-6.16,7.215-6.16a15.43,15.43,0,0,1,7.5,2.247c.208.114.435.238.6.32.391-.49,1.192-2.151,2.213-6.018a44.707,44.707,0,0,0,1.309-6.409c-.693-.724-5.413-3.344-13.2-3.344Z" transform="translate(-260.226 -229.625)"/>
    </g>
  </g>
</svg>
