<svg xmlns="http://www.w3.org/2000/svg" width="714.949" height="302" viewBox="0 0 714.949 302">
  <g id="Grupo_1115332" data-name="Grupo 1115332" transform="translate(-180.051 -14278.078)">
    <path id="Trazado_896801" data-name="Trazado 896801" d="M20,0H694.949a20,20,0,0,1,20,20V302H0V20A20,20,0,0,1,20,0Z" transform="translate(180.051 14278.078)" fill="#f1f2f6"/>
    <path id="Trazado_893317" data-name="Trazado 893317" d="M-7290.174,1071.959l-30.778-111.92h567.447l-31.063,109.566s-41.831-30.512-255.683-30.512S-7290.174,1071.959-7290.174,1071.959Z" transform="translate(7581.237 13384.797)" fill="none" stroke="#7eadbf" stroke-width="2"/>
    <path id="Trazado_893318" data-name="Trazado 893318" d="M-7298.177,1037.28l-22.775-77.241,532.132.288-21.869,76.646s-43.907-24.162-245.567-24.162S-7298.177,1037.28-7298.177,1037.28Z" transform="translate(7601.364 13397.967)" fill="none" stroke="#7eadbf" stroke-width="2"/>
    <path id="Trazado_896802" data-name="Trazado 896802" d="M0,0H9.124V9.124H0Z" transform="translate(796.886 14339.826)" fill="#6f7070"/>
    <path id="Trazado_896803" data-name="Trazado 896803" d="M0,0H9.124V9.124H0Z" transform="translate(531.469 14339.826)" fill="#6f7070"/>
    <path id="Trazado_896804" data-name="Trazado 896804" d="M0,0H9.124V9.124H0Z" transform="translate(533.127 14418.623)" fill="#6f7070"/>
    <path id="Trazado_896805" data-name="Trazado 896805" d="M0,0H9.124V9.124H0Z" transform="translate(283.469 14339.826)" fill="#6f7070"/>
    <path id="Trazado_896806" data-name="Trazado 896806" d="M0,0H9.124V9.124H0Z" transform="translate(283.469 14442.676)" fill="#6f7070"/>
    <path id="Trazado_896807" data-name="Trazado 896807" d="M0,0H9.124V9.124H0Z" transform="translate(790.251 14447.652)" fill="#6f7070"/>
    <path id="Trazado_893319" data-name="Trazado 893319" d="M-7293.4,1104c26.741-.448,161.949,6.761,251.652,6.9s255.488-6.9,255.488-6.9,27.535-3.585,33.3,23.578-1.294,25.334-1.294,25.334l-171.664,14.681h-223.15l-173.007-14.681S-7320.138,1104.445-7293.4,1104Z" transform="translate(7581.429 13360.268)" fill="none" stroke="#7eadbf" stroke-width="2"/>
    <path id="Trazado_893320" data-name="Trazado 893320" d="M-7294.21,1103.8c25.748-.273,79.693,7.39,244.038,6.628s244.25-6.628,244.25-6.628,27.885-5.177,33.432,11.371,3.137,15.386,3.137,15.386l-171.038,11.985h-214.855l-165.34-12.017S-7319.957,1104.071-7294.21,1103.8Z" transform="translate(7591.795 13373.627)" fill="none" stroke="#7eadbf" stroke-width="2"/>
    <path id="Trazado_896808" data-name="Trazado 896808" d="M0,0H9.124V9.124H0Z" transform="translate(283.469 14459.266)" fill="#6f7070"/>
    <path id="Trazado_896809" data-name="Trazado 896809" d="M0,0H9.124V9.124H0Z" transform="translate(256.928 14505.713)" fill="#6f7070"/>
    <path id="Trazado_896810" data-name="Trazado 896810" d="M0,0H9.124V9.124H0Z" transform="translate(428.62 14523.131)" fill="#6f7070"/>
    <path id="Trazado_896811" data-name="Trazado 896811" d="M0,0H9.124V9.124H0Z" transform="translate(651.736 14523.131)" fill="#6f7070"/>
    <path id="Trazado_896812" data-name="Trazado 896812" d="M0,0H9.124V9.124H0Z" transform="translate(651.736 14510.689)" fill="#6f7070"/>
    <path id="Trazado_896813" data-name="Trazado 896813" d="M0,0H9.124V9.124H0Z" transform="translate(428.62 14510.689)" fill="#6f7070"/>
    <path id="Trazado_896814" data-name="Trazado 896814" d="M0,0H9.124V9.124H0Z" transform="translate(820.11 14508.201)" fill="#6f7070"/>
    <path id="Trazado_896815" data-name="Trazado 896815" d="M0,0H9.124V9.124H0Z" transform="translate(792.739 14462.582)" fill="#6f7070"/>
    <g id="Grupo_1114745" data-name="Grupo 1114745" transform="translate(343.077 14365.361)">
      <path id="Trazado_893321" data-name="Trazado 893321" d="M-7221.134,984.784v6.564" transform="translate(7221.134 -984.784)" fill="none" stroke="#12263f" stroke-width="2"/>
      <path id="Trazado_893322" data-name="Trazado 893322" d="M-7221.134,984.784v6.564" transform="translate(7620.919 -984.784)" fill="none" stroke="#12263f" stroke-width="2"/>
      <path id="Trazado_893323" data-name="Trazado 893323" d="M0,0V399.785" transform="translate(0 3.282) rotate(-90)" fill="none" stroke="#12263f" stroke-width="2"/>
    </g>
    <g id="Grupo_1114746" data-name="Grupo 1114746" transform="translate(343.077 14501.637)">
      <path id="Trazado_893321-2" data-name="Trazado 893321" d="M-7221.134,984.784v6.564" transform="translate(7221.134 -984.784)" fill="none" stroke="#12263f" stroke-width="2"/>
      <path id="Trazado_893322-2" data-name="Trazado 893322" d="M-7221.134,984.784v6.564" transform="translate(7620.919 -984.784)" fill="none" stroke="#12263f" stroke-width="2"/>
      <path id="Trazado_893323-2" data-name="Trazado 893323" d="M0,0V399.785" transform="translate(0 3.282) rotate(-90)" fill="none" stroke="#12263f" stroke-width="2"/>
    </g>
    <g id="Grupo_1114747" data-name="Grupo 1114747" transform="translate(653.016 14507.148)">
      <path id="Trazado_893322-3" data-name="Trazado 893322" d="M0,0V6.564" transform="translate(0 0) rotate(-90)" fill="none" stroke="#12263f" stroke-width="2"/>
      <path id="Trazado_893323-3" data-name="Trazado 893323" d="M0,0V7.619" transform="translate(3.281 7.62) rotate(180)" fill="none" stroke="#12263f" stroke-width="2"/>
    </g>
    <g id="Grupo_1114748" data-name="Grupo 1114748" transform="translate(429.899 14507.148)">
      <path id="Trazado_893322-4" data-name="Trazado 893322" d="M0,0V6.564" transform="translate(0 0) rotate(-90)" fill="none" stroke="#12263f" stroke-width="2"/>
      <path id="Trazado_893323-4" data-name="Trazado 893323" d="M0,0V7.619" transform="translate(3.281 7.62) rotate(180)" fill="none" stroke="#12263f" stroke-width="2"/>
    </g>
    <path id="Trazado_896816" data-name="Trazado 896816" d="M3.691-5.713H-1.564v3.938H4.579V0H-3.788V-12.8H4.518V-11H-1.564v3.533H3.691Z" transform="translate(532.322 14324.078)" fill="#12263f"/>
    <path id="Trazado_896817" data-name="Trazado 896817" d="M-4.579,0V-12.8H-.8a5.928,5.928,0,0,1,3.01.756A5.154,5.154,0,0,1,4.245-9.9a6.807,6.807,0,0,1,.721,3.182v.642a6.779,6.779,0,0,1-.725,3.2A5.092,5.092,0,0,1,2.175-.747,6.2,6.2,0,0,1-.9,0Zm2.224-11v9.229h1.45A3.339,3.339,0,0,0,1.78-2.87a4.766,4.766,0,0,0,.954-3.142v-.712a4.891,4.891,0,0,0-.905-3.182A3.209,3.209,0,0,0-.8-11Z" transform="translate(528.345 14442.6)" fill="#12263f"/>
    <path id="Trazado_896818" data-name="Trazado 896818" d="M-45.343-4.491V0h-2.1V-12.086h4.624A4.679,4.679,0,0,1-39.6-11.032a3.543,3.543,0,0,1,1.191,2.789,3.425,3.425,0,0,1-1.166,2.764,4.905,4.905,0,0,1-3.266.988Zm0-1.685h2.523A2.485,2.485,0,0,0-41.11-6.7a1.937,1.937,0,0,0,.589-1.523,2.09,2.09,0,0,0-.6-1.565,2.3,2.3,0,0,0-1.644-.6h-2.582ZM-34.627,0h-2.017V-8.981h2.017Zm-2.142-11.314a1.071,1.071,0,0,1,.295-.772,1.113,1.113,0,0,1,.843-.307,1.127,1.127,0,0,1,.847.307,1.062,1.062,0,0,1,.3.772,1.038,1.038,0,0,1-.3.76,1.136,1.136,0,0,1-.847.3,1.122,1.122,0,0,1-.843-.3A1.046,1.046,0,0,1-36.768-11.314ZM-28.476.166a4.173,4.173,0,0,1-3.109-1.208,4.381,4.381,0,0,1-1.191-3.217v-.249a5.389,5.389,0,0,1,.519-2.4A3.949,3.949,0,0,1-30.8-8.558a3.851,3.851,0,0,1,2.092-.589,3.525,3.525,0,0,1,2.835,1.17,4.949,4.949,0,0,1,1,3.312v.813h-5.869A2.7,2.7,0,0,0-30-2.092a2.23,2.23,0,0,0,1.639.647A2.731,2.731,0,0,0-26.1-2.565l1.087,1.038a3.631,3.631,0,0,1-1.44,1.249A4.509,4.509,0,0,1-28.476.166Zm-.241-7.695a1.7,1.7,0,0,0-1.341.581,3.012,3.012,0,0,0-.652,1.619h3.843v-.149a2.452,2.452,0,0,0-.54-1.531A1.686,1.686,0,0,0-28.717-7.529Zm9.264,2.972A5.34,5.34,0,0,1-18.49-7.89a3.085,3.085,0,0,1,2.582-1.258,2.931,2.931,0,0,1,2.308,1v-4.6h2.017V0H-13.41l-.1-.93a2.973,2.973,0,0,1-2.416,1.1A3.068,3.068,0,0,1-18.478-1.1,5.535,5.535,0,0,1-19.453-4.557Zm2.017.174a3.739,3.739,0,0,0,.527,2.137,1.71,1.71,0,0,0,1.5.768,1.9,1.9,0,0,0,1.81-1.1V-6.417A1.876,1.876,0,0,0-15.394-7.5a1.723,1.723,0,0,0-1.511.776A4.163,4.163,0,0,0-17.436-4.383ZM-5.524.166A4.173,4.173,0,0,1-8.633-1.042,4.381,4.381,0,0,1-9.824-4.258v-.249a5.389,5.389,0,0,1,.519-2.4A3.949,3.949,0,0,1-7.848-8.558a3.851,3.851,0,0,1,2.092-.589,3.525,3.525,0,0,1,2.835,1.17,4.949,4.949,0,0,1,1,3.312v.813H-7.79a2.7,2.7,0,0,0,.743,1.76,2.23,2.23,0,0,0,1.639.647A2.731,2.731,0,0,0-3.15-2.565l1.087,1.038A3.631,3.631,0,0,1-3.5-.278,4.509,4.509,0,0,1-5.524.166Zm-.241-7.695a1.7,1.7,0,0,0-1.341.581,3.012,3.012,0,0,0-.652,1.619h3.843v-.149a2.452,2.452,0,0,0-.54-1.531A1.686,1.686,0,0,0-5.765-7.529ZM7.566-1.444a1.824,1.824,0,0,0,1.253-.44,1.5,1.5,0,0,0,.531-1.087h1.9a2.963,2.963,0,0,1-.523,1.565A3.43,3.43,0,0,1,9.4-.257a3.958,3.958,0,0,1-1.81.423A3.829,3.829,0,0,1,4.6-1.054a4.84,4.84,0,0,1-1.1-3.37v-.208a4.759,4.759,0,0,1,1.1-3.283A3.8,3.8,0,0,1,7.583-9.147a3.69,3.69,0,0,1,2.611.934,3.345,3.345,0,0,1,1.058,2.453h-1.9a1.847,1.847,0,0,0-.527-1.27,1.7,1.7,0,0,0-1.258-.5,1.775,1.775,0,0,0-1.511.71,3.621,3.621,0,0,0-.54,2.154v.324a3.682,3.682,0,0,0,.527,2.179A1.773,1.773,0,0,0,7.566-1.444Zm10.65.564A3.128,3.128,0,0,1,15.693.166,2.788,2.788,0,0,1,13.48-.689a3.637,3.637,0,0,1-.751-2.474V-8.981h2.017v5.794q0,1.71,1.419,1.71A1.993,1.993,0,0,0,18.15-2.532v-6.45h2.017V0h-1.9ZM26.177.166a4.173,4.173,0,0,1-3.109-1.208,4.381,4.381,0,0,1-1.191-3.217v-.249a5.389,5.389,0,0,1,.519-2.4,3.949,3.949,0,0,1,1.457-1.648,3.851,3.851,0,0,1,2.092-.589,3.525,3.525,0,0,1,2.835,1.17,4.949,4.949,0,0,1,1,3.312v.813H23.91a2.7,2.7,0,0,0,.743,1.76,2.23,2.23,0,0,0,1.639.647,2.731,2.731,0,0,0,2.258-1.121l1.087,1.038A3.631,3.631,0,0,1,28.2-.278,4.509,4.509,0,0,1,26.177.166Zm-.241-7.695a1.7,1.7,0,0,0-1.341.581,3.012,3.012,0,0,0-.652,1.619h3.843v-.149a2.452,2.452,0,0,0-.54-1.531A1.686,1.686,0,0,0,25.936-7.529ZM33.49,0H31.472V-12.75H33.49Zm4.341,0H35.814V-12.75h2.017Zm1.818-4.574a5.3,5.3,0,0,1,.523-2.378,3.819,3.819,0,0,1,1.469-1.627,4.14,4.14,0,0,1,2.175-.569,3.923,3.923,0,0,1,2.951,1.17,4.6,4.6,0,0,1,1.224,3.1L48-4.4a5.343,5.343,0,0,1-.51,2.374A3.773,3.773,0,0,1,46.028-.407a4.17,4.17,0,0,1-2.2.573A3.9,3.9,0,0,1,40.79-1.1a4.848,4.848,0,0,1-1.141-3.374Zm2.017.174a3.619,3.619,0,0,0,.573,2.171,1.862,1.862,0,0,0,1.594.784,1.842,1.842,0,0,0,1.59-.8,4,4,0,0,0,.569-2.333,3.572,3.572,0,0,0-.585-2.158,1.869,1.869,0,0,0-1.59-.8,1.852,1.852,0,0,0-1.569.784A3.922,3.922,0,0,0,41.666-4.4Z" transform="translate(440.295 14497.172)" fill="#12263f"/>
    <path id="Trazado_896819" data-name="Trazado 896819" d="M-14.361-4.166A4.621,4.621,0,0,1-15.873-.971,5.154,5.154,0,0,1-19.38.176a4.99,4.99,0,0,1-2.694-.725,4.759,4.759,0,0,1-1.8-2.061,7.438,7.438,0,0,1-.659-3.1v-1.2a7.491,7.491,0,0,1,.642-3.19,4.835,4.835,0,0,1,1.841-2.127,5.136,5.136,0,0,1,2.773-.747,4.934,4.934,0,0,1,3.41,1.151,4.81,4.81,0,0,1,1.5,3.252h-2.215a3.161,3.161,0,0,0-.8-1.991,2.658,2.658,0,0,0-1.894-.611A2.6,2.6,0,0,0-21.5-10.112,5.289,5.289,0,0,0-22.3-7v1.134a5.611,5.611,0,0,0,.743,3.164,2.465,2.465,0,0,0,2.175,1.09,2.875,2.875,0,0,0,1.969-.589,3.071,3.071,0,0,0,.835-1.96ZM-6.82-.932A3.312,3.312,0,0,1-9.492.176a2.952,2.952,0,0,1-2.342-.905,3.851,3.851,0,0,1-.8-2.619V-9.51h2.136v6.135q0,1.811,1.5,1.811a2.111,2.111,0,0,0,2.1-1.116V-9.51h2.136V0H-6.768ZM1.608.176A4.419,4.419,0,0,1-1.683-1.1,4.639,4.639,0,0,1-2.944-4.509v-.264A5.706,5.706,0,0,1-2.4-7.317,4.181,4.181,0,0,1-.853-9.062a4.078,4.078,0,0,1,2.215-.624,3.733,3.733,0,0,1,3,1.239A5.24,5.24,0,0,1,5.423-4.939v.861H-.791A2.856,2.856,0,0,0,0-2.215a2.362,2.362,0,0,0,1.736.686A2.892,2.892,0,0,0,4.122-2.716l1.151,1.1A3.845,3.845,0,0,1,3.749-.294,4.774,4.774,0,0,1,1.608.176ZM1.354-7.972a1.8,1.8,0,0,0-1.419.615,3.189,3.189,0,0,0-.69,1.714H3.313V-5.8a2.6,2.6,0,0,0-.571-1.622A1.785,1.785,0,0,0,1.354-7.972ZM9.352,0H7.216V-13.5H9.352Zm4.6,0H11.813V-13.5h2.136Zm1.925-4.843a5.607,5.607,0,0,1,.554-2.518,4.044,4.044,0,0,1,1.556-1.723,4.383,4.383,0,0,1,2.3-.6A4.154,4.154,0,0,1,23.41-8.446a4.874,4.874,0,0,1,1.3,3.287l.009.5a5.658,5.658,0,0,1-.541,2.514A4,4,0,0,1,22.627-.431,4.415,4.415,0,0,1,20.3.176a4.125,4.125,0,0,1-3.221-1.34,5.133,5.133,0,0,1-1.208-3.573Zm2.136.185a3.832,3.832,0,0,0,.606,2.3,1.971,1.971,0,0,0,1.688.831,1.95,1.95,0,0,0,1.683-.844,4.232,4.232,0,0,0,.6-2.47,3.782,3.782,0,0,0-.62-2.285,1.979,1.979,0,0,0-1.683-.844,1.96,1.96,0,0,0-1.661.831A4.152,4.152,0,0,0,18.009-4.658Z" transform="translate(422.101 14395.322)" fill="#12263f"/>
    <path id="Trazado_896820" data-name="Trazado 896820" d="M-56.008-11H-60V0H-62.2V-11H-66.16V-12.8h10.151Zm8.517-1.793L-43.8-2.988l3.683-9.809h2.874V0h-2.215V-4.219l.22-5.643L-43.018,0h-1.591l-3.771-9.853.22,5.634V0h-2.215V-12.8ZM-34.22,1.1H-35.9l5.036-13.9h1.679Zm8.851-8.473h1.3a2.328,2.328,0,0,0,1.56-.51,1.819,1.819,0,0,0,.576-1.45,1.982,1.982,0,0,0-.479-1.419,1.928,1.928,0,0,0-1.463-.505,2.039,2.039,0,0,0-1.415.5,1.659,1.659,0,0,0-.554,1.3H-27.98a3.233,3.233,0,0,1,.523-1.793A3.513,3.513,0,0,1-26-12.52a4.753,4.753,0,0,1,2.1-.453,4.4,4.4,0,0,1,3.01.962A3.377,3.377,0,0,1-19.8-9.334a2.719,2.719,0,0,1-.549,1.622,3.445,3.445,0,0,1-1.419,1.147,3.14,3.14,0,0,1,1.6,1.134,3.1,3.1,0,0,1,.549,1.846A3.437,3.437,0,0,1-20.795-.844,4.59,4.59,0,0,1-23.9.176a4.555,4.555,0,0,1-3.023-.984A3.242,3.242,0,0,1-28.1-3.428h2.136A1.787,1.787,0,0,0-25.4-2.057a2.15,2.15,0,0,0,1.525.527,2.217,2.217,0,0,0,1.564-.527,1.978,1.978,0,0,0,.571-1.529,2,2,0,0,0-.6-1.556,2.555,2.555,0,0,0-1.775-.545H-25.37Zm14.405-5.484v1.767h-.264a4.239,4.239,0,0,0-2.865.984,4.119,4.119,0,0,0-1.274,2.716A3.468,3.468,0,0,1-12.74-8.473a3.276,3.276,0,0,1,2.676,1.2,4.708,4.708,0,0,1,.98,3.085,4.4,4.4,0,0,1-1.147,3.16A3.959,3.959,0,0,1-13.241.176a3.867,3.867,0,0,1-3.107-1.415,5.566,5.566,0,0,1-1.191-3.709v-.729A7.832,7.832,0,0,1-15.9-10.951a5.877,5.877,0,0,1,4.715-1.907ZM-13.258-6.75a2.249,2.249,0,0,0-1.288.4A2.312,2.312,0,0,0-15.4-5.3v.65a3.831,3.831,0,0,0,.6,2.263,1.823,1.823,0,0,0,1.547.839,1.8,1.8,0,0,0,1.5-.712A2.965,2.965,0,0,0-11.2-4.131a3.007,3.007,0,0,0-.562-1.89A1.793,1.793,0,0,0-13.258-6.75ZM1.147-1.529A1.931,1.931,0,0,0,2.474-2a1.591,1.591,0,0,0,.563-1.151H5.049A3.137,3.137,0,0,1,4.5-1.49,3.632,3.632,0,0,1,3.089-.272,4.191,4.191,0,0,1,1.173.176,4.055,4.055,0,0,1-1.991-1.116,5.124,5.124,0,0,1-3.16-4.685V-4.9A5.039,5.039,0,0,1-2-8.38,4.018,4.018,0,0,1,1.165-9.686,3.907,3.907,0,0,1,3.929-8.7,3.542,3.542,0,0,1,5.049-6.1H3.037a1.956,1.956,0,0,0-.558-1.345,1.8,1.8,0,0,0-1.332-.527,1.879,1.879,0,0,0-1.6.751,3.834,3.834,0,0,0-.571,2.281V-4.6A3.9,3.9,0,0,0-.466-2.29,1.878,1.878,0,0,0,1.147-1.529ZM6.262-4.843a5.607,5.607,0,0,1,.554-2.518A4.044,4.044,0,0,1,8.372-9.083a4.383,4.383,0,0,1,2.3-.6A4.154,4.154,0,0,1,13.8-8.446a4.874,4.874,0,0,1,1.3,3.287l.009.5a5.658,5.658,0,0,1-.541,2.514A4,4,0,0,1,13.017-.431a4.415,4.415,0,0,1-2.325.606,4.125,4.125,0,0,1-3.221-1.34A5.133,5.133,0,0,1,6.262-4.737ZM8.4-4.658A3.832,3.832,0,0,0,9-2.36a1.971,1.971,0,0,0,1.688.831,1.95,1.95,0,0,0,1.683-.844,4.232,4.232,0,0,0,.6-2.47,3.782,3.782,0,0,0-.62-2.285,1.979,1.979,0,0,0-1.683-.844,1.96,1.96,0,0,0-1.661.831A4.152,4.152,0,0,0,8.4-4.658Zm13.491-2.9a5.285,5.285,0,0,0-.87-.07A1.959,1.959,0,0,0,19.042-6.5V0H16.906V-9.51h2.039L19-8.446a2.406,2.406,0,0,1,2.145-1.239,2,2,0,0,1,.756.123Zm4.465-4.263V-9.51h1.679v1.582H26.354v5.309a1.169,1.169,0,0,0,.215.787,1,1,0,0,0,.769.242,3.29,3.29,0,0,0,.747-.088V-.026a5.26,5.26,0,0,1-1.406.2q-2.461,0-2.461-2.716V-7.928H22.654V-9.51h1.564v-2.312ZM35.345,0A3.3,3.3,0,0,1,35.1-.888,3.325,3.325,0,0,1,32.6.176a3.355,3.355,0,0,1-2.338-.817,2.615,2.615,0,0,1-.905-2.021A2.7,2.7,0,0,1,30.489-5a5.473,5.473,0,0,1,3.23-.813h1.31v-.624a1.666,1.666,0,0,0-.413-1.182,1.638,1.638,0,0,0-1.257-.444,1.881,1.881,0,0,0-1.2.365,1.129,1.129,0,0,0-.466.927H29.562a2.37,2.37,0,0,1,.519-1.463A3.455,3.455,0,0,1,31.491-9.3a4.955,4.955,0,0,1,1.991-.387,3.99,3.99,0,0,1,2.663.839,2.993,2.993,0,0,1,1.02,2.36V-2.2a4.861,4.861,0,0,0,.36,2.048V0ZM33-1.538a2.429,2.429,0,0,0,1.191-.308,2.055,2.055,0,0,0,.839-.826V-4.465H33.877a3.148,3.148,0,0,0-1.784.413,1.338,1.338,0,0,0-.6,1.169,1.248,1.248,0,0,0,.409.98A1.583,1.583,0,0,0,33-1.538ZM47.3-6.381,49.109-9.51h2.373L48.573-4.825,51.579,0H49.223l-1.9-3.252L45.435,0H43.062l3.006-4.825-2.9-4.685h2.355ZM65.887,0h-8.6V-1.468l4.263-4.649a10.615,10.615,0,0,0,1.314-1.718A2.784,2.784,0,0,0,63.25-9.22a2.1,2.1,0,0,0-.514-1.477,1.783,1.783,0,0,0-1.384-.562,2.056,2.056,0,0,0-1.608.633,2.489,2.489,0,0,0-.571,1.731H57.037a4.186,4.186,0,0,1,.532-2.1,3.662,3.662,0,0,1,1.521-1.455,4.84,4.84,0,0,1,2.281-.519,4.329,4.329,0,0,1,2.94.936,3.249,3.249,0,0,1,1.077,2.588,4.392,4.392,0,0,1-.541,2.008,11.42,11.42,0,0,1-1.771,2.386L59.946-1.705h5.941Z" transform="translate(634.134 14395.322)" fill="#12263f"/>
    <path id="Trazado_896821" data-name="Trazado 896821" d="M-51.029-10.393H-54.8V0h-2.083V-10.393h-3.735v-1.693h9.587Zm4.308-1.693,3.486,9.264,3.478-9.264h2.714V0h-2.092V-3.984l.208-5.329L-42.5,0H-44l-3.561-9.305.208,5.321V0h-2.092V-12.086ZM-34.187,1.038h-1.585l4.756-13.124h1.585Zm8.359-8H-24.6a2.2,2.2,0,0,0,1.473-.481,1.718,1.718,0,0,0,.544-1.37,1.872,1.872,0,0,0-.452-1.341,1.821,1.821,0,0,0-1.382-.477,1.926,1.926,0,0,0-1.336.469,1.567,1.567,0,0,0-.523,1.224h-2.017a3.053,3.053,0,0,1,.494-1.693,3.318,3.318,0,0,1,1.378-1.191,4.489,4.489,0,0,1,1.98-.427,4.157,4.157,0,0,1,2.843.909,3.19,3.19,0,0,1,1.033,2.528,2.568,2.568,0,0,1-.519,1.531A3.253,3.253,0,0,1-22.425-6.2,2.965,2.965,0,0,1-20.91-5.13a2.932,2.932,0,0,1,.519,1.743A3.246,3.246,0,0,1-21.507-.8a4.335,4.335,0,0,1-2.934.963A4.3,4.3,0,0,1-27.3-.764a3.062,3.062,0,0,1-1.112-2.474h2.017a1.687,1.687,0,0,0,.535,1.295,2.03,2.03,0,0,0,1.44.5,2.094,2.094,0,0,0,1.478-.5,1.868,1.868,0,0,0,.54-1.444,1.887,1.887,0,0,0-.564-1.469,2.413,2.413,0,0,0-1.677-.515h-1.187Zm13.6-5.18v1.668h-.249a4,4,0,0,0-2.706.93,3.89,3.89,0,0,0-1.2,2.565A3.275,3.275,0,0,1-13.9-8a3.094,3.094,0,0,1,2.528,1.129,4.446,4.446,0,0,1,.926,2.914A4.157,4.157,0,0,1-11.53-.975,3.739,3.739,0,0,1-14.373.166,3.652,3.652,0,0,1-17.307-1.17a5.257,5.257,0,0,1-1.125-3.5v-.689a7.4,7.4,0,0,1,1.548-4.98,5.551,5.551,0,0,1,4.453-1.8Zm-2.167,5.769A2.124,2.124,0,0,0-15.605-6a2.183,2.183,0,0,0-.809,1v.614a3.618,3.618,0,0,0,.564,2.137,1.721,1.721,0,0,0,1.461.793,1.7,1.7,0,0,0,1.419-.672A2.8,2.8,0,0,0-12.447-3.9a2.84,2.84,0,0,0-.531-1.785A1.693,1.693,0,0,0-14.389-6.375Zm13.6,4.931a1.824,1.824,0,0,0,1.253-.44A1.5,1.5,0,0,0,1-2.972H2.9a2.963,2.963,0,0,1-.523,1.565A3.43,3.43,0,0,1,1.05-.257,3.958,3.958,0,0,1-.76.166a3.829,3.829,0,0,1-2.988-1.22,4.84,4.84,0,0,1-1.1-3.37v-.208a4.759,4.759,0,0,1,1.1-3.283A3.8,3.8,0,0,1-.768-9.147a3.69,3.69,0,0,1,2.611.934A3.345,3.345,0,0,1,2.9-5.761H1a1.847,1.847,0,0,0-.527-1.27,1.7,1.7,0,0,0-1.258-.5,1.775,1.775,0,0,0-1.511.71,3.621,3.621,0,0,0-.54,2.154v.324a3.682,3.682,0,0,0,.527,2.179A1.773,1.773,0,0,0-.784-1.444ZM4.047-4.574A5.3,5.3,0,0,1,4.57-6.952,3.819,3.819,0,0,1,6.039-8.579a4.14,4.14,0,0,1,2.175-.569,3.923,3.923,0,0,1,2.951,1.17,4.6,4.6,0,0,1,1.224,3.1L12.4-4.4a5.343,5.343,0,0,1-.51,2.374A3.773,3.773,0,0,1,10.426-.407a4.17,4.17,0,0,1-2.2.573A3.9,3.9,0,0,1,5.188-1.1,4.848,4.848,0,0,1,4.047-4.474ZM6.064-4.4a3.619,3.619,0,0,0,.573,2.171,1.862,1.862,0,0,0,1.594.784,1.842,1.842,0,0,0,1.59-.8,4,4,0,0,0,.569-2.333A3.572,3.572,0,0,0,9.8-6.732a1.869,1.869,0,0,0-1.59-.8,1.852,1.852,0,0,0-1.569.784A3.922,3.922,0,0,0,6.064-4.4ZM18.805-7.139a4.991,4.991,0,0,0-.822-.066,1.85,1.85,0,0,0-1.868,1.063V0H14.1V-8.981h1.926l.05,1A2.273,2.273,0,0,1,18.1-9.147a1.888,1.888,0,0,1,.714.116Zm4.217-4.026v2.183h1.585v1.494H23.022v5.014a1.1,1.1,0,0,0,.2.743.943.943,0,0,0,.726.228,3.107,3.107,0,0,0,.706-.083V-.025a4.968,4.968,0,0,1-1.328.191q-2.324,0-2.324-2.565V-7.487H19.528V-8.981h1.478v-2.183ZM31.514,0a3.113,3.113,0,0,1-.232-.838,3.14,3.14,0,0,1-2.357,1,3.169,3.169,0,0,1-2.208-.772,2.47,2.47,0,0,1-.855-1.909,2.55,2.55,0,0,1,1.067-2.2,5.169,5.169,0,0,1,3.051-.768h1.237v-.589a1.573,1.573,0,0,0-.39-1.116,1.547,1.547,0,0,0-1.187-.419,1.777,1.777,0,0,0-1.129.344,1.066,1.066,0,0,0-.44.876H26.052a2.239,2.239,0,0,1,.49-1.382,3.263,3.263,0,0,1,1.332-1.009,4.68,4.68,0,0,1,1.88-.365,3.769,3.769,0,0,1,2.515.793,2.827,2.827,0,0,1,.963,2.229v4.051a4.591,4.591,0,0,0,.34,1.934V0ZM29.3-1.453a2.294,2.294,0,0,0,1.125-.291,1.941,1.941,0,0,0,.793-.78V-4.217H30.128a2.973,2.973,0,0,0-1.685.39,1.264,1.264,0,0,0-.564,1.1,1.179,1.179,0,0,0,.386.926A1.5,1.5,0,0,0,29.3-1.453ZM42.8-6.026l1.71-2.955h2.241L44.007-4.557,46.845,0H44.621L42.828-3.071,41.043,0H38.8l2.839-4.557L38.9-8.981h2.225ZM60.359,0H52.233V-1.386l4.026-4.391A10.025,10.025,0,0,0,57.5-7.4a2.629,2.629,0,0,0,.369-1.307,1.986,1.986,0,0,0-.486-1.395,1.684,1.684,0,0,0-1.307-.531,1.942,1.942,0,0,0-1.519.6,2.35,2.35,0,0,0-.54,1.635H52a3.953,3.953,0,0,1,.5-1.988,3.458,3.458,0,0,1,1.436-1.374,4.571,4.571,0,0,1,2.154-.49,4.088,4.088,0,0,1,2.777.884,3.069,3.069,0,0,1,1.017,2.445,4.148,4.148,0,0,1-.51,1.9A10.785,10.785,0,0,1,57.7-4.773L54.748-1.61h5.611Z" transform="translate(658.823 14497.172)" fill="#12263f"/>
    <path id="Trazado_896822" data-name="Trazado 896822" d="M4.983-1.661A4.252,4.252,0,0,1,3.059-.29,7.853,7.853,0,0,1,.264.176,5.508,5.508,0,0,1-2.584-.554,4.859,4.859,0,0,1-4.5-2.641a7.3,7.3,0,0,1-.7-3.168v-1a6.773,6.773,0,0,1,1.389-4.531A4.816,4.816,0,0,1,.07-12.973a5.11,5.11,0,0,1,3.393,1.055A4.546,4.546,0,0,1,4.975-8.877H2.795A2.452,2.452,0,0,0,.114-11.188a2.627,2.627,0,0,0-2.272,1.077,5.489,5.489,0,0,0-.8,3.16v.984a5.213,5.213,0,0,0,.875,3.221A2.884,2.884,0,0,0,.343-1.6a3.2,3.2,0,0,0,2.426-.773v-2.5H.132V-6.565H4.983Z" transform="translate(789.615 14324.078)" fill="#12263f"/>
    <path id="Trazado_896823" data-name="Trazado 896823" d="M4.983-1.661A4.252,4.252,0,0,1,3.059-.29,7.853,7.853,0,0,1,.264.176,5.508,5.508,0,0,1-2.584-.554,4.859,4.859,0,0,1-4.5-2.641a7.3,7.3,0,0,1-.7-3.168v-1a6.773,6.773,0,0,1,1.389-4.531A4.816,4.816,0,0,1,.07-12.973a5.11,5.11,0,0,1,3.393,1.055A4.546,4.546,0,0,1,4.975-8.877H2.795A2.452,2.452,0,0,0,.114-11.188a2.627,2.627,0,0,0-2.272,1.077,5.489,5.489,0,0,0-.8,3.16v.984a5.213,5.213,0,0,0,.875,3.221A2.884,2.884,0,0,0,.343-1.6a3.2,3.2,0,0,0,2.426-.773v-2.5H.132V-6.565H4.983Z" transform="translate(279.776 14324.078)" fill="#12263f"/>
    <path id="Trazado_896824" data-name="Trazado 896824" d="M3.316-4.82H-1.262V0H-3.238V-11.375H3.988v1.594h-5.25V-6.4H3.316Z" transform="translate(267.823 14444.746)" fill="#12263f"/>
    <path id="Trazado_896825" data-name="Trazado 896825" d="M5.067,0H2.852V-5.687H-2.87V0H-5.093V-12.8H-2.87v5.326H2.852V-12.8H5.067Z" transform="translate(234.987 14520.566)" fill="#12263f"/>
    <path id="Trazado_896826" data-name="Trazado 896826" d="M5.067,0H2.852V-5.687H-2.87V0H-5.093V-12.8H-2.87v5.326H2.852V-12.8H5.067Z" transform="translate(838.552 14520.566)" fill="#12263f"/>
    <path id="Trazado_896827" data-name="Trazado 896827" d="M2.474-2.979H-2.483L-3.52,0H-5.832L-1-12.8H1L5.84,0H3.52ZM-1.859-4.772H1.85L0-10.081Z" transform="translate(649.442 14547.107)" fill="#12263f"/>
    <path id="Trazado_896828" data-name="Trazado 896828" d="M2.474-2.979H-2.483L-3.52,0H-5.832L-1-12.8H1L5.84,0H3.52ZM-1.859-4.772H1.85L0-10.081Z" transform="translate(426.325 14547.107)" fill="#12263f"/>
    <path id="Trazado_896829" data-name="Trazado 896829" d="M3.316-4.82H-1.262V0H-3.238V-11.375H3.988v1.594h-5.25V-6.4H3.316Z" transform="translate(809.75 14444.746)" fill="#12263f"/>
    <g id="Trazado_895688" data-name="Trazado 895688" transform="translate(282.64 14484.148)" fill="none">
      <path d="M8.709,0A8.709,8.709,0,1,1,0,8.709,8.709,8.709,0,0,1,8.709,0Z" stroke="none"/>
      <path d="M 8.709011077880859 2.000000953674316 C 5.009651184082031 2.000000953674316 2.000000953674316 5.009651184082031 2.000000953674316 8.709011077880859 C 2.000000953674316 12.40837097167969 5.009651184082031 15.4180212020874 8.709011077880859 15.4180212020874 C 12.40837097167969 15.4180212020874 15.4180212020874 12.40837097167969 15.4180212020874 8.709011077880859 C 15.4180212020874 5.009651184082031 12.40837097167969 2.000000953674316 8.709011077880859 2.000000953674316 M 8.709011077880859 1.9073486328125e-06 C 13.51886081695557 1.9073486328125e-06 17.41802024841309 3.899161338806152 17.41802024841309 8.709011077880859 C 17.41802024841309 13.51886081695557 13.51886081695557 17.41802024841309 8.709011077880859 17.41802024841309 C 3.899161338806152 17.41802024841309 1.9073486328125e-06 13.51886081695557 1.9073486328125e-06 8.709011077880859 C 1.9073486328125e-06 3.899161338806152 3.899161338806152 1.9073486328125e-06 8.709011077880859 1.9073486328125e-06 Z" stroke="none" fill="#12263f"/>
    </g>
    <g id="Trazado_896830" data-name="Trazado 896830" transform="translate(788.592 14484.148)" fill="none">
      <path d="M8.709,0A8.709,8.709,0,1,1,0,8.709,8.709,8.709,0,0,1,8.709,0Z" stroke="none"/>
      <path d="M 8.709011077880859 2.000000953674316 C 5.009651184082031 2.000000953674316 2.000000953674316 5.009651184082031 2.000000953674316 8.709011077880859 C 2.000000953674316 12.40837097167969 5.009651184082031 15.4180212020874 8.709011077880859 15.4180212020874 C 12.40837097167969 15.4180212020874 15.4180212020874 12.40837097167969 15.4180212020874 8.709011077880859 C 15.4180212020874 5.009651184082031 12.40837097167969 2.000000953674316 8.709011077880859 2.000000953674316 M 8.709011077880859 1.9073486328125e-06 C 13.51886081695557 1.9073486328125e-06 17.41802024841309 3.899161338806152 17.41802024841309 8.709011077880859 C 17.41802024841309 13.51886081695557 13.51886081695557 17.41802024841309 8.709011077880859 17.41802024841309 C 3.899161338806152 17.41802024841309 1.9073486328125e-06 13.51886081695557 1.9073486328125e-06 8.709011077880859 C 1.9073486328125e-06 3.899161338806152 3.899161338806152 1.9073486328125e-06 8.709011077880859 1.9073486328125e-06 Z" stroke="none" fill="#12263f"/>
    </g>
  </g>
</svg>
