<svg xmlns="http://www.w3.org/2000/svg" width="418.817" height="211" viewBox="0 0 418.817 211">
  <g id="Grupo_1115333" data-name="Grupo 1115333" transform="translate(4764.307 8677.293)">
    <g id="Grupo_1114396" data-name="Grupo 1114396" transform="translate(-5659.307 -12624.781)">
      <g id="Rectángulo_402448" data-name="Rectángulo 402448" transform="translate(895 3947.488)" fill="#fff" stroke="#7eadbf" stroke-width="2">
        <rect width="282" height="211" stroke="none"/>
        <rect x="1" y="1" width="280" height="209" fill="none"/>
      </g>
      <path id="Trazado_892527" data-name="Trazado 892527" d="M-7759.051-7539.189h281.334" transform="translate(8654.051 11608)" fill="none" stroke="#7eadbf" stroke-width="2"/>
    </g>
    <g id="Grupo_1101623" data-name="Grupo 1101623" transform="translate(-4478.855 -8560.867) rotate(-90)">
      <path id="Polígono_6" data-name="Polígono 6" d="M6.774,0l6.774,11.613H0Z" transform="translate(0 13.548) rotate(-90)" fill="red"/>
      <path id="Trazado_892525" data-name="Trazado 892525" d="M0,0H104.813" transform="translate(11.612 6.291)" fill="none" stroke="red" stroke-width="2"/>
    </g>
    <path id="Trazado_896808" data-name="Trazado 896808" d="M-27.523-3.009A3.337,3.337,0,0,1-28.615-.7a3.722,3.722,0,0,1-2.533.828A3.6,3.6,0,0,1-33.094-.4a3.437,3.437,0,0,1-1.3-1.489,5.372,5.372,0,0,1-.476-2.241v-.863a5.411,5.411,0,0,1,.463-2.3,3.492,3.492,0,0,1,1.33-1.536,3.71,3.71,0,0,1,2-.54,3.564,3.564,0,0,1,2.463.832,3.474,3.474,0,0,1,1.085,2.349h-1.6A2.283,2.283,0,0,0-29.7-7.627a1.92,1.92,0,0,0-1.368-.441,1.876,1.876,0,0,0-1.609.765,3.82,3.82,0,0,0-.574,2.244v.819a4.053,4.053,0,0,0,.536,2.285,1.78,1.78,0,0,0,1.571.787,2.076,2.076,0,0,0,1.422-.425,2.218,2.218,0,0,0,.6-1.416Zm1-.489a4.05,4.05,0,0,1,.4-1.819A2.921,2.921,0,0,1-25-6.56,3.166,3.166,0,0,1-23.34-7a3,3,0,0,1,2.257.9,3.52,3.52,0,0,1,.936,2.374l.006.362a4.086,4.086,0,0,1-.39,1.815A2.886,2.886,0,0,1-21.649-.311a3.189,3.189,0,0,1-1.679.438,2.979,2.979,0,0,1-2.326-.968,3.707,3.707,0,0,1-.873-2.58Zm1.542.133a2.767,2.767,0,0,0,.438,1.66,1.424,1.424,0,0,0,1.219.6,1.408,1.408,0,0,0,1.216-.609A3.057,3.057,0,0,0-21.677-3.5a2.732,2.732,0,0,0-.448-1.65,1.429,1.429,0,0,0-1.216-.609,1.416,1.416,0,0,0-1.2.6A3,3,0,0,0-24.984-3.364Zm9.744-2.095a3.817,3.817,0,0,0-.628-.051A1.415,1.415,0,0,0-17.3-4.7V0H-18.84V-6.868h1.473l.038.768A1.738,1.738,0,0,1-15.78-7a1.444,1.444,0,0,1,.546.089Zm3.225-3.079v1.669H-10.8v1.143h-1.212v3.834a.844.844,0,0,0,.156.568.721.721,0,0,0,.555.175,2.376,2.376,0,0,0,.54-.063V-.019a3.8,3.8,0,0,1-1.016.146q-1.777,0-1.777-1.961V-5.726h-1.13V-6.868h1.13V-8.538ZM-6.6.127A3.191,3.191,0,0,1-8.979-.8a3.35,3.35,0,0,1-.911-2.46v-.19a4.121,4.121,0,0,1,.4-1.838,3.02,3.02,0,0,1,1.114-1.26A2.945,2.945,0,0,1-6.779-7a2.7,2.7,0,0,1,2.168.9,3.785,3.785,0,0,1,.765,2.533v.622H-8.334A2.063,2.063,0,0,0-7.766-1.6a1.706,1.706,0,0,0,1.254.5,2.089,2.089,0,0,0,1.727-.857l.832.793a2.777,2.777,0,0,1-1.1.955A3.448,3.448,0,0,1-6.6.127Zm-.184-5.884a1.3,1.3,0,0,0-1.025.444,2.3,2.3,0,0,0-.5,1.238H-5.37v-.114a1.875,1.875,0,0,0-.413-1.171A1.289,1.289,0,0,0-6.786-5.757ZM6.6-3.364A4.089,4.089,0,0,1,5.878-.822,2.318,2.318,0,0,1,3.936.127,2.333,2.333,0,0,1,2.126-.616V2.641H.584V-6.868H2.006l.063.7A2.266,2.266,0,0,1,3.917-7a2.341,2.341,0,0,1,1.971.936,4.2,4.2,0,0,1,.714,2.6ZM5.065-3.5a2.865,2.865,0,0,0-.409-1.631,1.331,1.331,0,0,0-1.171-.6,1.419,1.419,0,0,0-1.358.781V-1.9A1.433,1.433,0,0,0,3.5-1.1,1.329,1.329,0,0,0,4.65-1.7,3.153,3.153,0,0,0,5.065-3.5ZM10.931.127A3.191,3.191,0,0,1,8.553-.8a3.35,3.35,0,0,1-.911-2.46v-.19a4.121,4.121,0,0,1,.4-1.838,3.02,3.02,0,0,1,1.114-1.26A2.945,2.945,0,0,1,10.753-7a2.7,2.7,0,0,1,2.168.9,3.785,3.785,0,0,1,.765,2.533v.622H9.2A2.063,2.063,0,0,0,9.766-1.6a1.706,1.706,0,0,0,1.254.5,2.089,2.089,0,0,0,1.727-.857l.832.793a2.777,2.777,0,0,1-1.1.955A3.448,3.448,0,0,1,10.931.127Zm-.184-5.884a1.3,1.3,0,0,0-1.025.444,2.3,2.3,0,0,0-.5,1.238h2.939v-.114a1.875,1.875,0,0,0-.413-1.171A1.289,1.289,0,0,0,10.747-5.757ZM17.7-1.1a1.4,1.4,0,0,0,.958-.336,1.149,1.149,0,0,0,.406-.832h1.454a2.266,2.266,0,0,1-.4,1.2A2.623,2.623,0,0,1,19.106-.2a3.027,3.027,0,0,1-1.384.324,2.928,2.928,0,0,1-2.285-.933,3.7,3.7,0,0,1-.844-2.577v-.159a3.639,3.639,0,0,1,.838-2.51A2.9,2.9,0,0,1,17.716-7a2.822,2.822,0,0,1,2,.714,2.558,2.558,0,0,1,.809,1.876H19.068a1.412,1.412,0,0,0-.4-.971,1.3,1.3,0,0,0-.962-.381,1.357,1.357,0,0,0-1.155.543,2.769,2.769,0,0,0-.413,1.647v.248a2.815,2.815,0,0,0,.4,1.666A1.356,1.356,0,0,0,17.7-1.1Zm5.5-5.015A2.414,2.414,0,0,1,25.118-7q2.2,0,2.228,2.507V0H25.8V-4.431A1.356,1.356,0,0,0,25.5-5.437a1.259,1.259,0,0,0-.9-.3,1.486,1.486,0,0,0-1.384.825V0H21.665V-9.75h1.542ZM28.615-3.5a4.05,4.05,0,0,1,.4-1.819A2.921,2.921,0,0,1,30.139-6.56,3.166,3.166,0,0,1,31.8-7a3,3,0,0,1,2.257.9,3.52,3.52,0,0,1,.936,2.374L35-3.364a4.086,4.086,0,0,1-.39,1.815A2.886,2.886,0,0,1,33.493-.311a3.189,3.189,0,0,1-1.679.438,2.979,2.979,0,0,1-2.326-.968,3.707,3.707,0,0,1-.873-2.58Zm1.542.133A2.767,2.767,0,0,0,30.6-1.7a1.424,1.424,0,0,0,1.219.6,1.408,1.408,0,0,0,1.216-.609A3.057,3.057,0,0,0,33.465-3.5a2.732,2.732,0,0,0-.448-1.65A1.429,1.429,0,0,0,31.8-5.757a1.416,1.416,0,0,0-1.2.6A3,3,0,0,0,30.158-3.364Z" transform="translate(-4426.256 -8614.08)" fill="#12263f"/>
    <path id="Trazado_896809" data-name="Trazado 896809" d="M-15.257-5.084h2.412v1.409h-2.412V-.927h-1.5V-3.675h-2.425V-5.084h2.425V-7.655h1.5ZM-4.066-3.866a2.416,2.416,0,0,1-1.809.819A2.416,2.416,0,0,1-7.817-3.9a3.352,3.352,0,0,1-.724-2.244A3.679,3.679,0,0,1-8.173-7.8,2.745,2.745,0,0,1-7.125-8.957a2.972,2.972,0,0,1,1.574-.413A2.67,2.67,0,0,1-3.336-8.328a4.385,4.385,0,0,1,.819,2.787v.432a5.7,5.7,0,0,1-1.13,3.815A4.253,4.253,0,0,1-7.017.038H-7.2V-1.238h.222a3.158,3.158,0,0,0,2.095-.657A2.739,2.739,0,0,0-4.066-3.866Zm-1.485-.387a1.557,1.557,0,0,0,.87-.267,1.757,1.757,0,0,0,.628-.736v-.6A2.9,2.9,0,0,0-4.472-7.5a1.262,1.262,0,0,0-1.085-.622,1.247,1.247,0,0,0-1.063.549,2.308,2.308,0,0,0-.4,1.387,2.28,2.28,0,0,0,.4,1.4A1.267,1.267,0,0,0-5.551-4.253ZM5.107-1.1a1.4,1.4,0,0,0,.958-.336,1.149,1.149,0,0,0,.406-.832H7.925a2.266,2.266,0,0,1-.4,1.2A2.623,2.623,0,0,1,6.51-.2,3.027,3.027,0,0,1,5.126.127,2.928,2.928,0,0,1,2.841-.806,3.7,3.7,0,0,1,2-3.383v-.159a3.639,3.639,0,0,1,.838-2.51A2.9,2.9,0,0,1,5.119-7a2.822,2.822,0,0,1,2,.714,2.558,2.558,0,0,1,.809,1.876H6.471a1.412,1.412,0,0,0-.4-.971,1.3,1.3,0,0,0-.962-.381,1.357,1.357,0,0,0-1.155.543,2.769,2.769,0,0,0-.413,1.647v.248a2.815,2.815,0,0,0,.4,1.666A1.356,1.356,0,0,0,5.107-1.1ZM10.54-6.868l.044.717A2.471,2.471,0,0,1,12.565-7,1.9,1.9,0,0,1,14.45-5.941,2.436,2.436,0,0,1,16.558-7a2.141,2.141,0,0,1,1.692.628,2.767,2.767,0,0,1,.568,1.854V0H17.275V-4.469a1.366,1.366,0,0,0-.286-.958,1.25,1.25,0,0,0-.946-.3,1.284,1.284,0,0,0-.86.282,1.49,1.49,0,0,0-.467.74L14.723,0H13.181V-4.52a1.1,1.1,0,0,0-1.238-1.212,1.358,1.358,0,0,0-1.314.755V0H9.087V-6.868Z" transform="translate(-4364.307 -8601.585)" fill="#12263f"/>
    <path id="Trazado_896810" data-name="Trazado 896810" d="M1.8-9.287v1.276h-.19A3.062,3.062,0,0,0-.463-7.3a2.975,2.975,0,0,0-.92,1.961,2.5,2.5,0,0,1,1.9-.781,2.366,2.366,0,0,1,1.933.863,3.4,3.4,0,0,1,.708,2.228A3.179,3.179,0,0,1,2.326-.746,2.859,2.859,0,0,1,.152.127,2.793,2.793,0,0,1-2.092-.9a4.02,4.02,0,0,1-.86-2.679V-4.1A5.656,5.656,0,0,1-1.768-7.909,4.245,4.245,0,0,1,1.638-9.287ZM.14-4.875a1.624,1.624,0,0,0-.93.286,1.67,1.67,0,0,0-.619.762v.47A2.767,2.767,0,0,0-.978-1.723,1.316,1.316,0,0,0,.14-1.117a1.3,1.3,0,0,0,1.085-.514,2.141,2.141,0,0,0,.4-1.352,2.172,2.172,0,0,0-.406-1.365A1.3,1.3,0,0,0,.14-4.875Z" transform="translate(-4426.256 -8592.585)" fill="#12263f"/>
    <path id="Trazado_892528" data-name="Trazado 892528" d="M-7460-7368.512h77.07" transform="translate(2995.244 -1238.073)" fill="none" stroke="#12263f" stroke-width="2"/>
  </g>
</svg>
