<svg xmlns="http://www.w3.org/2000/svg" width="104" height="104" viewBox="0 0 104 104">
  <g id="Grupo_1115338" data-name="Grupo 1115338" transform="translate(-11374.909 11033.694)">
    <g id="Trazado_895776" data-name="Trazado 895776" transform="translate(11374.909 -11033.694)" fill="#c7b8b4">
      <path d="M 52 103 C 45.11460113525391 103 38.43569946289062 101.6517105102539 32.1488151550293 98.99258422851562 C 26.07588577270508 96.42394256591797 20.62162780761719 92.74652862548828 15.93755722045898 88.06244659423828 C 11.25348567962646 83.37837219238281 7.576056957244873 77.92412567138672 5.007428646087646 71.8511962890625 C 2.348285675048828 65.56430053710938 1 58.88539886474609 1 52 C 1 45.11460113525391 2.348285675048828 38.43569946289062 5.007428646087646 32.1488151550293 C 7.576056957244873 26.07588577270508 11.25348567962646 20.62162780761719 15.93755722045898 15.93755722045898 C 20.62162780761719 11.25348567962646 26.07588577270508 7.576056957244873 32.1488151550293 5.007428646087646 C 38.43569946289062 2.348285675048828 45.11460113525391 1 52 1 C 58.88539886474609 1 65.56430053710938 2.348285675048828 71.8511962890625 5.007428646087646 C 77.92412567138672 7.576056957244873 83.37837219238281 11.25348567962646 88.06244659423828 15.93755722045898 C 92.74652862548828 20.62162780761719 96.42394256591797 26.07588577270508 98.99258422851562 32.1488151550293 C 101.6517105102539 38.43569946289062 103 45.11460113525391 103 52 C 103 58.88539886474609 101.6517105102539 65.56430053710938 98.99258422851562 71.8511962890625 C 96.42394256591797 77.92412567138672 92.74652862548828 83.37837219238281 88.06244659423828 88.06244659423828 C 83.37837219238281 92.74652862548828 77.92412567138672 96.42394256591797 71.8511962890625 98.99258422851562 C 65.56430053710938 101.6517105102539 58.88539886474609 103 52 103 Z" stroke="none"/>
      <path d="M 52 2 C 45.24916839599609 2 38.70132446289062 3.321708679199219 32.53835296630859 5.928428649902344 C 26.58463287353516 8.446647644042969 21.23721313476562 12.05210876464844 16.64466094970703 16.64466094970703 C 12.05210876464844 21.23721313476562 8.446647644042969 26.58463287353516 5.928428649902344 32.53835296630859 C 3.321708679199219 38.70132446289062 2 45.24916839599609 2 52 C 2 58.75084686279297 3.321708679199219 65.29867553710938 5.928428649902344 71.46164703369141 C 8.446647644042969 77.41536712646484 12.05210876464844 82.76278686523438 16.64466094970703 87.35533905029297 C 21.23721313476562 91.94789123535156 26.58463287353516 95.55335235595703 32.53835296630859 98.07157135009766 C 38.70132446289062 100.6782913208008 45.24916839599609 102 52 102 C 58.75084686279297 102 65.29867553710938 100.6782913208008 71.46164703369141 98.07157135009766 C 77.41536712646484 95.55335235595703 82.76278686523438 91.94789123535156 87.35533905029297 87.35533905029297 C 91.94789123535156 82.76278686523438 95.55335235595703 77.41536712646484 98.07157135009766 71.46164703369141 C 100.6782913208008 65.29867553710938 102 58.75084686279297 102 52 C 102 45.24916839599609 100.6782913208008 38.70132446289062 98.07157135009766 32.53835296630859 C 95.55335235595703 26.58463287353516 91.94789123535156 21.23721313476562 87.35533905029297 16.64466094970703 C 82.76278686523438 12.05210876464844 77.41536712646484 8.446647644042969 71.46164703369141 5.928428649902344 C 65.29867553710938 3.321708679199219 58.75084686279297 2 52 2 M 52 0 C 80.71881103515625 0 104 23.28119659423828 104 52 C 104 80.71881103515625 80.71881103515625 104 52 104 C 23.28119659423828 104 0 80.71881103515625 0 52 C 0 23.28119659423828 23.28119659423828 0 52 0 Z" stroke="none" fill="#fff"/>
    </g>
    <g id="letra-e" transform="translate(11405.393 -10994.931)">
      <g id="Grupo_1114941" data-name="Grupo 1114941" transform="translate(0 0)">
        <g id="Grupo_1114940" data-name="Grupo 1114940">
          <g id="Grupo_1114935" data-name="Grupo 1114935" transform="translate(39.187 39.275)">
            <path id="Trazado_895766" data-name="Trazado 895766" d="M751.229,729.957a.37.37,0,0,1-.484-.56l.421-.362a.848.848,0,0,0,.258-.611l-.032-.552a.374.374,0,0,1,.347-.393.367.367,0,0,1,.39.345l.054.922a.848.848,0,0,1-.258.611Z" transform="translate(-750.618 -727.479)"/>
          </g>
          <g id="Grupo_1114936" data-name="Grupo 1114936" transform="translate(38.274 33.882)">
            <path id="Trazado_895767" data-name="Trazado 895767" d="M739.553,657.2a.378.378,0,0,1-.481-.216l-.78-1.93a.376.376,0,0,1,.2-.487.366.366,0,0,1,.482.2l.794,1.964A.364.364,0,0,1,739.553,657.2Z" transform="translate(-738.264 -654.537)"/>
          </g>
          <g id="Grupo_1114937" data-name="Grupo 1114937" transform="translate(36.224 29.537)">
            <path id="Trazado_895768" data-name="Trazado 895768" d="M711.656,597.545a.374.374,0,0,1-.493-.179l-.315-.659c-.089-.183-.217-.445-.285-.582a.171.171,0,0,1,.155-.266l.647-.041.728-.052a.374.374,0,0,1,.4.339.34.34,0,0,1-.268.393c-.165.013-.574.172-.5.323S711.84,597.459,711.656,597.545Z" transform="translate(-710.537 -595.764)"/>
          </g>
          <g id="Grupo_1114938" data-name="Grupo 1114938" transform="translate(39.735 28.094)">
            <path id="Trazado_895769" data-name="Trazado 895769" d="M758.445,578.168a.37.37,0,0,1-.1-.733l.508-.067a.661.661,0,0,0,.489-.4l.169-.484a.37.37,0,0,1,.7.244l-.319.912a.659.659,0,0,1-.489.4Z" transform="translate(-758.027 -576.24)"/>
          </g>
          <g id="Grupo_1114939" data-name="Grupo 1114939">
            <path id="Trazado_895770" data-name="Trazado 895770" d="M245.081,242.924c-.2,0-.526,0-.729,0l-1.213-.03a.364.364,0,0,1-.35-.383.379.379,0,0,1,.388-.357l2.225.02a.383.383,0,0,1,.383.366C245.792,242.741,245.279,242.922,245.081,242.924Zm4.1-.342a.359.359,0,0,1-.415-.305.383.383,0,0,1,.313-.427l2.179-.42a.383.383,0,0,1,.45.279.36.36,0,0,1-.272.438Zm-9.381-.354a.36.36,0,0,1-.416.305l-2.254-.435a.358.358,0,0,1-.271-.438.383.383,0,0,1,.45-.279l2.179.42A.383.383,0,0,1,239.8,242.228Zm15.242-1.191a.357.357,0,0,1-.471-.207.385.385,0,0,1,.214-.486l2.015-.9a.388.388,0,0,1,.506.163.354.354,0,0,1-.157.488ZM234,240.764c-.073.19-.228.308-.346.262l-.106-.042c-.847-.34-2.115-.99-2.115-.99a.357.357,0,0,1-.15-.492.384.384,0,0,1,.508-.155s1.213.622,2.032.951l.1.041C234.044,240.384,234.078,240.575,234,240.764Zm-5.219-2.905a.354.354,0,0,1-.509.055l-1.714-1.555a.353.353,0,0,1,.006-.512.389.389,0,0,1,.533.006l1.626,1.476a.388.388,0,0,1,.058.529Zm-4.088-4.35a.355.355,0,0,1-.5-.106l-1.15-2a.355.355,0,0,1,.161-.487.388.388,0,0,1,.506.167l1.095,1.909A.388.388,0,0,1,224.7,233.509Zm-2.593-5.382a.356.356,0,0,1-.453-.243l-.56-2.233a.357.357,0,0,1,.284-.43.384.384,0,0,1,.442.293l.538,2.144a.385.385,0,0,1-.251.469Zm-1.114-5.876a.363.363,0,0,1-.389-.342s-.062-1.125-.062-1.884c0-.259,0-.41,0-.41a.367.367,0,0,1,.377-.359.374.374,0,0,1,.362.38s0,.137,0,.39c0,.741.06,1.83.06,1.83A.379.379,0,0,1,220.991,222.251Zm42.371-1.133a.358.358,0,0,1-.41.312.384.384,0,0,1-.322-.422l.2-2.209a.381.381,0,0,1,.394-.353.36.36,0,0,1,.344.385Zm-41.768-5.161a.384.384,0,0,1-.427.314.359.359,0,0,1-.305-.415l.444-2.255a.358.358,0,0,1,.44-.268.384.384,0,0,1,.276.452Zm41.634-.508a.386.386,0,0,1-.4-.347l-.279-2.187a.387.387,0,0,1,.3-.437.355.355,0,0,1,.422.292l.293,2.29A.356.356,0,0,1,263.227,215.449Zm-40.075-5.173a.385.385,0,0,1-.489.206.357.357,0,0,1-.2-.475l.968-2.089a.357.357,0,0,1,.491-.154.385.385,0,0,1,.159.506Zm38.9-.685c-.191.068-.376.044-.411-.052l-.033-.087c-.309-.839-.92-2.1-.92-2.1a.386.386,0,0,1,.166-.5.355.355,0,0,1,.488.16s.64,1.32.96,2.19l.033.09C262.373,209.386,262.245,209.523,262.053,209.591Zm-36.01-4.435a.379.379,0,0,1-.522.077.363.363,0,0,1-.075-.512s.416-.55.754-.95c.316-.373.731-.817.731-.817a.363.363,0,0,1,.518-.013.379.379,0,0,1,.013.527s-.393.419-.7.78c-.326.386-.722.908-.722.908Zm33.216-.844a.381.381,0,0,1-.524-.071s-.526-.673-.934-1.124c-.248-.274-.508-.536-.508-.536a.377.377,0,0,1,0-.526.365.365,0,0,1,.519,0s.281.283.538.568c.424.469.98,1.179.98,1.179A.36.36,0,0,1,259.26,204.312Zm-29.049-3.286a.388.388,0,0,1-.526-.079.354.354,0,0,1,.076-.507l1.932-1.268a.355.355,0,0,1,.5.132.388.388,0,0,1-.137.515Zm24.781-.888a.389.389,0,0,1-.523.1l-1.892-1.116a.388.388,0,0,1-.163-.507.353.353,0,0,1,.487-.157l1.994,1.176a.353.353,0,0,1,.1.5Zm-19.606-1.867a.388.388,0,0,1-.481-.227.355.355,0,0,1,.22-.464l2.21-.665a.356.356,0,0,1,.439.266.387.387,0,0,1-.276.455Zm14.241-.753a.388.388,0,0,1-.466.258l-2.146-.491a.387.387,0,0,1-.307-.435.354.354,0,0,1,.419-.3l2.251.515A.354.354,0,0,1,249.627,197.519Zm-8.492-.47a.382.382,0,0,1-.4-.342.359.359,0,0,1,.333-.394s1.3-.093,2.152-.093h.172a.371.371,0,0,1-.006.739h-.167C242.389,196.959,241.135,197.049,241.135,197.049Z" transform="translate(-220.54 -196.22)"/>
          </g>
        </g>
      </g>
      <path id="Trazado_895771" data-name="Trazado 895771" d="M277.134,272.743c-7.481,0-13.171-2.162-16.912-6.426-3.87-4.41-4.682-9.987-4.682-13.89a22.52,22.52,0,0,1,5.05-14.584,19.007,19.007,0,0,1,15.039-6.634,17.275,17.275,0,0,1,13.215,5.551,17.478,17.478,0,0,1,3.444,5.732,19.105,19.105,0,0,1,1.17,6.622,22.142,22.142,0,0,1-.795,6.568l-.15.429-.451.06c-1.391.183-3.684.3-6.251.383l.31.355c1.155,1.32,4.837,9.645,4.925,11.135l.021.364-.276.239C288.505,270.621,283.255,272.743,277.134,272.743Zm-1.506-40.055c-12.787,0-18.611,10.232-18.611,19.739,0,5.664,1.96,18.836,20.116,18.836,5.228,0,10.06-1.706,12.367-3.472a42.875,42.875,0,0,0-1.873-4.779,46.552,46.552,0,0,0-2.336-4.725l-.212.081a20.155,20.155,0,0,1-7.119,1.649c-4.087,0-6.16-1.363-6.16-4.052v-.739h.739c3.665,0,14.545,0,18.863-.465a22.412,22.412,0,0,0,.576-5.647C291.98,240.953,286.363,232.689,275.628,232.689Zm-2.255,24.018a1.8,1.8,0,0,0,.62.935,6.539,6.539,0,0,0,3.968.9,18.911,18.911,0,0,0,6.591-1.552c.271-.1.527-.2.76-.286l.395-.143C281.325,256.692,276.173,256.7,273.374,256.706Zm-2.249-8.642v-.755a5.349,5.349,0,0,1,1.317-3.8,4.492,4.492,0,0,1,3.338-1.309,3.58,3.58,0,0,1,2.629,1.179,5.154,5.154,0,0,1,1.271,3.827l-.047.674Zm4.654-4.383a2.919,2.919,0,0,0-3.132,2.871l5.548-.118a3.5,3.5,0,0,0-.868-2.044A2.11,2.11,0,0,0,275.779,243.681Z" transform="translate(-252.953 -228.623)"/>
    </g>
  </g>
</svg>
