<svg xmlns="http://www.w3.org/2000/svg" width="414.654" height="206.019" viewBox="0 0 414.654 206.019">
  <g id="Grupo_1115336" data-name="Grupo 1115336" transform="translate(4758.736 6731.727)">
    <g id="Trazado_895687" data-name="Trazado 895687" transform="translate(-4735.31 -6707.82)" fill="none">
      <path d="M0,0H391V163.167H0Z" stroke="none"/>
      <path d="M 2 1.999984741210938 L 2 161.1674957275391 L 389.0029296875 161.1674957275391 L 389.0029296875 1.999984741210938 L 2 1.999984741210938 M 0 -1.52587890625e-05 L 391.0029296875 -1.52587890625e-05 L 391.0029296875 163.1674957275391 L 0 163.1674957275391 L 0 -1.52587890625e-05 Z" stroke="none" fill="#7eadbf"/>
    </g>
    <path id="Trazado_896819" data-name="Trazado 896819" d="M-17.711-11.43v1.57h-.234a3.768,3.768,0,0,0-2.547.875A3.661,3.661,0,0,0-21.625-6.57a3.083,3.083,0,0,1,2.336-.961A2.912,2.912,0,0,1-16.91-6.469a4.185,4.185,0,0,1,.871,2.742,3.912,3.912,0,0,1-1.02,2.809A3.519,3.519,0,0,1-19.734.156,3.438,3.438,0,0,1-22.5-1.1a4.948,4.948,0,0,1-1.059-3.3v-.648A6.962,6.962,0,0,1-22.1-9.734a5.224,5.224,0,0,1,4.191-1.7ZM-19.75-6a2,2,0,0,0-1.145.352,2.055,2.055,0,0,0-.762.938v.578a3.405,3.405,0,0,0,.531,2.012,1.62,1.62,0,0,0,1.375.746,1.6,1.6,0,0,0,1.336-.633,2.635,2.635,0,0,0,.492-1.664,2.673,2.673,0,0,0-.5-1.68A1.594,1.594,0,0,0-19.75-6Zm6.531,4a1.084,1.084,0,0,1,.82.3,1.045,1.045,0,0,1,.289.754,1.008,1.008,0,0,1-.289.738,1.1,1.1,0,0,1-.82.293,1.1,1.1,0,0,1-.8-.289.991.991,0,0,1-.3-.742,1.045,1.045,0,0,1,.289-.754A1.074,1.074,0,0,1-13.219-2Zm8.3,2H-6.8V-9.133l-2.789.953v-1.6l4.438-1.633h.242ZM6.617-1.359A1.716,1.716,0,0,0,7.8-1.773,1.415,1.415,0,0,0,8.3-2.8h1.789a2.789,2.789,0,0,1-.492,1.473A3.228,3.228,0,0,1,8.344-.242a3.725,3.725,0,0,1-1.7.4A3.6,3.6,0,0,1,3.828-.992,4.555,4.555,0,0,1,2.789-4.164v-.2A4.479,4.479,0,0,1,3.82-7.449a3.571,3.571,0,0,1,2.813-1.16A3.473,3.473,0,0,1,9.09-7.73a3.148,3.148,0,0,1,1,2.309H8.3a1.738,1.738,0,0,0-.5-1.2,1.6,1.6,0,0,0-1.184-.469A1.671,1.671,0,0,0,5.2-6.418a3.408,3.408,0,0,0-.508,2.027v.3a3.465,3.465,0,0,0,.5,2.051A1.669,1.669,0,0,0,6.617-1.359ZM13.3-8.453l.055.883A3.042,3.042,0,0,1,15.8-8.609a2.337,2.337,0,0,1,2.32,1.3,3,3,0,0,1,2.594-1.3,2.636,2.636,0,0,1,2.082.773,3.405,3.405,0,0,1,.7,2.281V0h-1.9V-5.5a1.681,1.681,0,0,0-.352-1.18,1.539,1.539,0,0,0-1.164-.375,1.581,1.581,0,0,0-1.059.348,1.833,1.833,0,0,0-.574.91L18.453,0h-1.9V-5.562a1.354,1.354,0,0,0-1.523-1.492,1.671,1.671,0,0,0-1.617.93V0h-1.9V-8.453Z" transform="translate(-4717.307 -6720.297)" fill="#12263f"/>
    <path id="Trazado_896820" data-name="Trazado 896820" d="M-18.477,0h-1.891V-9.133l-2.789.953v-1.6l4.438-1.633h.242Zm5.258-2a1.084,1.084,0,0,1,.82.3,1.045,1.045,0,0,1,.289.754,1.008,1.008,0,0,1-.289.738,1.1,1.1,0,0,1-.82.293,1.1,1.1,0,0,1-.8-.289.991.991,0,0,1-.3-.742,1.045,1.045,0,0,1,.289-.754A1.074,1.074,0,0,1-13.219-2ZM-2.891-8.375a2.644,2.644,0,0,1-.43,1.488A2.98,2.98,0,0,1-4.492-5.859,3.246,3.246,0,0,1-3.121-4.727,2.858,2.858,0,0,1-2.641-3.1,2.984,2.984,0,0,1-3.656-.723a3.986,3.986,0,0,1-2.7.879A4,4,0,0,1-9.074-.727,2.982,2.982,0,0,1-10.094-3.1a2.891,2.891,0,0,1,.484-1.641A3.112,3.112,0,0,1-8.25-5.859,2.964,2.964,0,0,1-9.41-6.887a2.662,2.662,0,0,1-.426-1.488,2.959,2.959,0,0,1,.938-2.3,3.622,3.622,0,0,1,2.531-.852,3.633,3.633,0,0,1,2.539.852A2.959,2.959,0,0,1-2.891-8.375ZM-4.539-3.2a1.875,1.875,0,0,0-.5-1.363,1.771,1.771,0,0,0-1.332-.52A1.752,1.752,0,0,0-7.7-4.562,1.889,1.889,0,0,0-8.2-3.2a1.83,1.83,0,0,0,.488,1.336,1.8,1.8,0,0,0,1.348.5,1.8,1.8,0,0,0,1.34-.484A1.836,1.836,0,0,0-4.539-3.2ZM-4.781-8.3a1.765,1.765,0,0,0-.43-1.223,1.474,1.474,0,0,0-1.156-.48,1.486,1.486,0,0,0-1.148.457A1.766,1.766,0,0,0-7.937-8.3a1.759,1.759,0,0,0,.426,1.242A1.492,1.492,0,0,0-6.359-6.6a1.492,1.492,0,0,0,1.152-.461A1.759,1.759,0,0,0-4.781-8.3Zm11.4,6.945A1.716,1.716,0,0,0,7.8-1.773,1.415,1.415,0,0,0,8.3-2.8h1.789a2.789,2.789,0,0,1-.492,1.473A3.228,3.228,0,0,1,8.344-.242a3.725,3.725,0,0,1-1.7.4A3.6,3.6,0,0,1,3.828-.992,4.555,4.555,0,0,1,2.789-4.164v-.2A4.479,4.479,0,0,1,3.82-7.449a3.571,3.571,0,0,1,2.813-1.16A3.473,3.473,0,0,1,9.09-7.73a3.148,3.148,0,0,1,1,2.309H8.3a1.738,1.738,0,0,0-.5-1.2,1.6,1.6,0,0,0-1.184-.469A1.671,1.671,0,0,0,5.2-6.418a3.408,3.408,0,0,0-.508,2.027v.3a3.465,3.465,0,0,0,.5,2.051A1.669,1.669,0,0,0,6.617-1.359ZM13.3-8.453l.055.883A3.042,3.042,0,0,1,15.8-8.609a2.337,2.337,0,0,1,2.32,1.3,3,3,0,0,1,2.594-1.3,2.636,2.636,0,0,1,2.082.773,3.405,3.405,0,0,1,.7,2.281V0h-1.9V-5.5a1.681,1.681,0,0,0-.352-1.18,1.539,1.539,0,0,0-1.164-.375,1.581,1.581,0,0,0-1.059.348,1.833,1.833,0,0,0-.574.91L18.453,0h-1.9V-5.562a1.354,1.354,0,0,0-1.523-1.492,1.671,1.671,0,0,0-1.617.93V0h-1.9V-8.453Z" transform="translate(-4446.307 -6712.605)" fill="#12263f"/>
    <path id="Trazado_896821" data-name="Trazado 896821" d="M-23.109-5.641l.617-5.734h6.109v1.641h-4.531l-.312,2.719a3.512,3.512,0,0,1,1.781-.453A3.169,3.169,0,0,1-16.918-6.43a4.118,4.118,0,0,1,.9,2.8,3.79,3.79,0,0,1-1,2.762A3.65,3.65,0,0,1-19.758.156a3.822,3.822,0,0,1-2.59-.887,3.206,3.206,0,0,1-1.113-2.34h1.836a2,2,0,0,0,.594,1.27,1.806,1.806,0,0,0,1.266.441A1.632,1.632,0,0,0-18.4-1.984a2.7,2.7,0,0,0,.488-1.7,2.384,2.384,0,0,0-.539-1.645,1.885,1.885,0,0,0-1.484-.605,2.469,2.469,0,0,0-.875.137,2.478,2.478,0,0,0-.781.535ZM-13.219-2a1.084,1.084,0,0,1,.82.3,1.045,1.045,0,0,1,.289.754,1.008,1.008,0,0,1-.289.738,1.1,1.1,0,0,1-.82.293,1.1,1.1,0,0,1-.8-.289.991.991,0,0,1-.3-.742,1.045,1.045,0,0,1,.289-.754A1.074,1.074,0,0,1-13.219-2Zm9.07-9.43v1.57h-.234a3.768,3.768,0,0,0-2.547.875A3.661,3.661,0,0,0-8.062-6.57a3.083,3.083,0,0,1,2.336-.961A2.912,2.912,0,0,1-3.348-6.469a4.185,4.185,0,0,1,.871,2.742A3.912,3.912,0,0,1-3.5-.918,3.519,3.519,0,0,1-6.172.156,3.438,3.438,0,0,1-8.934-1.1,4.948,4.948,0,0,1-9.992-4.4v-.648A6.962,6.962,0,0,1-8.535-9.734a5.224,5.224,0,0,1,4.191-1.7ZM-6.187-6a2,2,0,0,0-1.145.352,2.055,2.055,0,0,0-.762.938v.578a3.405,3.405,0,0,0,.531,2.012,1.62,1.62,0,0,0,1.375.746,1.6,1.6,0,0,0,1.336-.633,2.635,2.635,0,0,0,.492-1.664,2.673,2.673,0,0,0-.5-1.68A1.594,1.594,0,0,0-6.187-6Zm12.8,4.641A1.716,1.716,0,0,0,7.8-1.773,1.415,1.415,0,0,0,8.3-2.8h1.789a2.789,2.789,0,0,1-.492,1.473A3.228,3.228,0,0,1,8.344-.242a3.725,3.725,0,0,1-1.7.4A3.6,3.6,0,0,1,3.828-.992,4.555,4.555,0,0,1,2.789-4.164v-.2A4.479,4.479,0,0,1,3.82-7.449a3.571,3.571,0,0,1,2.813-1.16A3.473,3.473,0,0,1,9.09-7.73a3.148,3.148,0,0,1,1,2.309H8.3a1.738,1.738,0,0,0-.5-1.2,1.6,1.6,0,0,0-1.184-.469A1.671,1.671,0,0,0,5.2-6.418a3.408,3.408,0,0,0-.508,2.027v.3a3.465,3.465,0,0,0,.5,2.051A1.669,1.669,0,0,0,6.617-1.359ZM13.3-8.453l.055.883A3.042,3.042,0,0,1,15.8-8.609a2.337,2.337,0,0,1,2.32,1.3,3,3,0,0,1,2.594-1.3,2.636,2.636,0,0,1,2.082.773,3.405,3.405,0,0,1,.7,2.281V0h-1.9V-5.5a1.681,1.681,0,0,0-.352-1.18,1.539,1.539,0,0,0-1.164-.375,1.581,1.581,0,0,0-1.059.348,1.833,1.833,0,0,0-.574.91L18.453,0h-1.9V-5.562a1.354,1.354,0,0,0-1.523-1.492,1.671,1.671,0,0,0-1.617.93V0h-1.9V-8.453Z" transform="translate(-4372.307 -6684.297)" fill="#12263f"/>
    <path id="Trazado_896822" data-name="Trazado 896822" d="M-23.109-5.641l.617-5.734h6.109v1.641h-4.531l-.312,2.719a3.512,3.512,0,0,1,1.781-.453A3.169,3.169,0,0,1-16.918-6.43a4.118,4.118,0,0,1,.9,2.8,3.79,3.79,0,0,1-1,2.762A3.65,3.65,0,0,1-19.758.156a3.822,3.822,0,0,1-2.59-.887,3.206,3.206,0,0,1-1.113-2.34h1.836a2,2,0,0,0,.594,1.27,1.806,1.806,0,0,0,1.266.441A1.632,1.632,0,0,0-18.4-1.984a2.7,2.7,0,0,0,.488-1.7,2.384,2.384,0,0,0-.539-1.645,1.885,1.885,0,0,0-1.484-.605,2.469,2.469,0,0,0-.875.137,2.478,2.478,0,0,0-.781.535ZM-13.219-2a1.084,1.084,0,0,1,.82.3,1.045,1.045,0,0,1,.289.754,1.008,1.008,0,0,1-.289.738,1.1,1.1,0,0,1-.82.293,1.1,1.1,0,0,1-.8-.289.991.991,0,0,1-.3-.742,1.045,1.045,0,0,1,.289-.754A1.074,1.074,0,0,1-13.219-2Zm9.07-9.43v1.57h-.234a3.768,3.768,0,0,0-2.547.875A3.661,3.661,0,0,0-8.062-6.57a3.083,3.083,0,0,1,2.336-.961A2.912,2.912,0,0,1-3.348-6.469a4.185,4.185,0,0,1,.871,2.742A3.912,3.912,0,0,1-3.5-.918,3.519,3.519,0,0,1-6.172.156,3.438,3.438,0,0,1-8.934-1.1,4.948,4.948,0,0,1-9.992-4.4v-.648A6.962,6.962,0,0,1-8.535-9.734a5.224,5.224,0,0,1,4.191-1.7ZM-6.187-6a2,2,0,0,0-1.145.352,2.055,2.055,0,0,0-.762.938v.578a3.405,3.405,0,0,0,.531,2.012,1.62,1.62,0,0,0,1.375.746,1.6,1.6,0,0,0,1.336-.633,2.635,2.635,0,0,0,.492-1.664,2.673,2.673,0,0,0-.5-1.68A1.594,1.594,0,0,0-6.187-6Zm12.8,4.641A1.716,1.716,0,0,0,7.8-1.773,1.415,1.415,0,0,0,8.3-2.8h1.789a2.789,2.789,0,0,1-.492,1.473A3.228,3.228,0,0,1,8.344-.242a3.725,3.725,0,0,1-1.7.4A3.6,3.6,0,0,1,3.828-.992,4.555,4.555,0,0,1,2.789-4.164v-.2A4.479,4.479,0,0,1,3.82-7.449a3.571,3.571,0,0,1,2.813-1.16A3.473,3.473,0,0,1,9.09-7.73a3.148,3.148,0,0,1,1,2.309H8.3a1.738,1.738,0,0,0-.5-1.2,1.6,1.6,0,0,0-1.184-.469A1.671,1.671,0,0,0,5.2-6.418a3.408,3.408,0,0,0-.508,2.027v.3a3.465,3.465,0,0,0,.5,2.051A1.669,1.669,0,0,0,6.617-1.359ZM13.3-8.453l.055.883A3.042,3.042,0,0,1,15.8-8.609a2.337,2.337,0,0,1,2.32,1.3,3,3,0,0,1,2.594-1.3,2.636,2.636,0,0,1,2.082.773,3.405,3.405,0,0,1,.7,2.281V0h-1.9V-5.5a1.681,1.681,0,0,0-.352-1.18,1.539,1.539,0,0,0-1.164-.375,1.581,1.581,0,0,0-1.059.348,1.833,1.833,0,0,0-.574.91L18.453,0h-1.9V-5.562a1.354,1.354,0,0,0-1.523-1.492,1.671,1.671,0,0,0-1.617.93V0h-1.9V-8.453Z" transform="translate(-4747.307 -6683.82) rotate(-90)" fill="#12263f"/>
    <g id="Grupo_1101623" data-name="Grupo 1101623" transform="translate(-4744.307 -6650.265) rotate(-90)">
      <path id="Polígono_6" data-name="Polígono 6" d="M6.774,0l6.774,11.613H0Z" transform="translate(0 13.548) rotate(-90)" fill="red"/>
      <path id="Trazado_892525" data-name="Trazado 892525" d="M0,0H50.611" transform="translate(6.944 6.291)" fill="none" stroke="red" stroke-width="2"/>
    </g>
    <g id="Grupo_1114445" data-name="Grupo 1114445" transform="translate(-4677.755 -6710.269) rotate(180)">
      <path id="Polígono_6-2" data-name="Polígono 6" d="M6.774,0l6.774,11.613H0Z" transform="translate(0 13.548) rotate(-90)" fill="red"/>
      <path id="Trazado_892525-2" data-name="Trazado 892525" d="M0,0H50.611" transform="translate(6.944 6.291)" fill="none" stroke="red" stroke-width="2"/>
    </g>
    <g id="Grupo_1114446" data-name="Grupo 1114446" transform="translate(-4403.758 -6726.754) rotate(90)">
      <path id="Polígono_6-3" data-name="Polígono 6" d="M6.774,0l6.774,11.613H0Z" transform="translate(0 13.548) rotate(-90)" fill="red"/>
      <path id="Trazado_892525-3" data-name="Trazado 892525" d="M0,0H12.342" transform="translate(5.807 6.291)" fill="none" stroke="red" stroke-width="2"/>
    </g>
    <g id="Grupo_1114447" data-name="Grupo 1114447" transform="translate(-4410.532 -6706.454)">
      <path id="Polígono_6-4" data-name="Polígono 6" d="M6.774,0l6.774,11.613H0Z" transform="translate(0 13.548) rotate(-90)" fill="red"/>
      <path id="Trazado_892525-4" data-name="Trazado 892525" d="M0,0H54.036" transform="translate(9.621 6.291)" fill="none" stroke="red" stroke-width="2"/>
    </g>
    <path id="Trazado_892534" data-name="Trazado 892534" d="M-7728.249-5633.3s60.642,5.7,56.078-53.668" transform="translate(2994.744 -1020.103)" fill="none" stroke="#727aa6" stroke-width="2"/>
    <path id="Trazado_892535" data-name="Trazado 892535" d="M-7395.543-5706.651v18.369" transform="translate(2994.744 -1020.103)" fill="none" stroke="#12263f" stroke-width="2"/>
    <path id="Trazado_892536" data-name="Trazado 892536" d="M-7339.051-5689.442s-40.981,6.262-56.272-18.121" transform="translate(2994.744 -1018.103)" fill="none" stroke="#727aa6" stroke-width="2"/>
    <path id="Trazado_892537" data-name="Trazado 892537" d="M-7728.826-5505.605v-19.456" transform="translate(2994.744 -1020.103)" fill="none" stroke="#7eadbf" stroke-width="2"/>
    <path id="Trazado_892538" data-name="Trazado 892538" d="M-7728.826-5505.605v-19.456" transform="translate(3190.744 -1020.103)" fill="none" stroke="#7eadbf" stroke-width="2"/>
    <path id="Trazado_892539" data-name="Trazado 892539" d="M-7728.826-5505.605v-19.456" transform="translate(3383.744 -1020.103)" fill="none" stroke="#7eadbf" stroke-width="2"/>
  </g>
</svg>
