<svg xmlns="http://www.w3.org/2000/svg" width="73" height="73" viewBox="0 0 73 73">
  <g id="Grupo_1101512" data-name="Grupo 1101512" transform="translate(-1120.333 -126)">
    <g id="Trazado_875169" data-name="Trazado 875169" transform="translate(1120.333 126)" fill="#734f43">
      <path d="M 36.5 72 C 31.70709037780762 72 27.05808067321777 71.06153106689453 22.68210983276367 69.21063995361328 C 18.45491027832031 67.42269134521484 14.65828990936279 64.86286926269531 11.39770984649658 61.60229110717773 C 8.137129783630371 58.34170913696289 5.577310085296631 54.54508972167969 3.789360046386719 50.31789016723633 C 1.938470005989075 45.94192123413086 1 41.29291152954102 1 36.5 C 1 31.70709037780762 1.938470005989075 27.05808067321777 3.789360046386719 22.68210983276367 C 5.577310085296631 18.45491027832031 8.137129783630371 14.65828990936279 11.39770984649658 11.39770984649658 C 14.65828990936279 8.137129783630371 18.45491027832031 5.577310085296631 22.68210983276367 3.789360046386719 C 27.05808067321777 1.938470005989075 31.70709037780762 1 36.5 1 C 41.29291152954102 1 45.94192123413086 1.938470005989075 50.31789016723633 3.789360046386719 C 54.54508972167969 5.577310085296631 58.34170913696289 8.137129783630371 61.60229110717773 11.39770984649658 C 64.86286926269531 14.65828990936279 67.42269134521484 18.45491027832031 69.21063995361328 22.68210983276367 C 71.06153106689453 27.05808067321777 72 31.70709037780762 72 36.5 C 72 41.29291152954102 71.06153106689453 45.94192123413086 69.21063995361328 50.31789016723633 C 67.42269134521484 54.54508972167969 64.86286926269531 58.34170913696289 61.60229110717773 61.60229110717773 C 58.34170913696289 64.86286926269531 54.54508972167969 67.42269134521484 50.31789016723633 69.21063995361328 C 45.94192123413086 71.06153106689453 41.29291152954102 72 36.5 72 Z" stroke="none"/>
      <path d="M 36.5 2 C 31.84164428710938 2 27.32369995117188 2.911903381347656 23.0716552734375 4.710357666015625 C 18.96365737915039 6.447898864746094 15.27387619018555 8.935745239257812 12.10481262207031 12.10481262207031 C 8.935745239257812 15.27387619018555 6.447898864746094 18.96365737915039 4.710357666015625 23.0716552734375 C 2.911903381347656 27.32369995117188 2 31.84164428710938 2 36.5 C 2 41.15835571289062 2.911903381347656 45.67630004882812 4.710357666015625 49.9283447265625 C 6.447898864746094 54.03633117675781 8.935745239257812 57.72611999511719 12.10481262207031 60.89517974853516 C 15.27387619018555 64.06424713134766 18.96365737915039 66.55210113525391 23.0716552734375 68.28964233398438 C 27.32369995117188 70.08809661865234 31.84164428710938 71 36.5 71 C 41.15835571289062 71 45.67630004882812 70.08809661865234 49.9283447265625 68.28964233398438 C 54.03633117675781 66.55210113525391 57.72611236572266 64.06424713134766 60.89517974853516 60.89517974853516 C 64.06424713134766 57.72611236572266 66.55210113525391 54.03633117675781 68.28964233398438 49.9283447265625 C 70.08809661865234 45.67630004882812 71 41.15835571289062 71 36.5 C 71 31.84164428710938 70.08809661865234 27.32369995117188 68.28964233398438 23.0716552734375 C 66.55210113525391 18.96365737915039 64.06424713134766 15.27387619018555 60.89517974853516 12.10481262207031 C 57.72611999511719 8.935745239257812 54.03633117675781 6.447898864746094 49.9283447265625 4.710357666015625 C 45.67630004882812 2.911903381347656 41.15835571289062 2 36.5 2 M 36.5 0 C 56.65838623046875 0 73 16.34159851074219 73 36.5 C 73 56.65838623046875 56.65838623046875 73 36.5 73 C 16.34159851074219 73 0 56.65838623046875 0 36.5 C 0 16.34159851074219 16.34159851074219 0 36.5 0 Z" stroke="none" fill="#fff"/>
    </g>
    <g id="Grupo_1101506" data-name="Grupo 1101506" transform="translate(-376 -128.5)">
      <rect id="Rectángulo_402392" data-name="Rectángulo 402392" width="16.714" height="37.408" transform="translate(1514.027 272.694)" fill="#fff"/>
      <path id="Trazado_892098" data-name="Trazado 892098" d="M54.35,16H37.45a.65.65,0,0,0-.65.65v2.6H34.2v-2.6a.65.65,0,0,0-.65-.65H16.65a.65.65,0,0,0-.65.65v37.7a.65.65,0,0,0,.65.65h16.9a.65.65,0,0,0,.65-.65v-2.6h2.6v2.6a.65.65,0,0,0,.65.65h16.9a.65.65,0,0,0,.65-.65V16.65A.65.65,0,0,0,54.35,16ZM36.8,20.55v3.1l-2.6-1.114V20.55Zm0,6.5H34.2v-3.1l2.6,1.114Zm1.3-1.429,2.606,1.117a.163.163,0,0,1-.064.312H38.1ZM36.8,34.85H34.2v-3.1l2.6,1.114Zm1.3-1.429,2.606,1.117a.163.163,0,0,1-.064.312H38.1ZM36.8,42.65H34.2v-3.1l2.6,1.114Zm1.3-1.429,2.606,1.117a.162.162,0,0,1-.064.312H38.1ZM34.2,43.95h2.6v3.1l-2.6-1.114Zm-1.3,1.429-2.606-1.117a.162.162,0,0,1,.064-.312H32.9Zm1.3-7.243V36.15h2.6v3.1Zm-1.3-.557-2.606-1.117a.163.163,0,0,1,.064-.312H32.9Zm1.3-7.243V28.35h2.6v3.1Zm-1.3-.557-2.606-1.117a.162.162,0,0,1,.064-.312H32.9Zm0-7.8-2.606-1.117a.162.162,0,0,1,.064-.312H32.9ZM17.3,17.3h8.45V53.7H17.3ZM32.9,53.7H27.05V17.3H32.9v1.95H30.358a1.463,1.463,0,0,0-.576,2.807L32.9,23.393V27.05H30.358a1.463,1.463,0,0,0-.576,2.807L32.9,31.193V34.85H30.358a1.462,1.462,0,0,0-.576,2.807L32.9,38.993V42.65H30.358a1.463,1.463,0,0,0-.576,2.807L32.9,46.793V50.45H29v1.3h3.9Zm1.3-3.25v-3.1l2.6,1.114V50.45Zm3.9-1.429,2.606,1.117a.163.163,0,0,1-.064.312H38.1Zm0,2.729h2.542a1.463,1.463,0,0,0,.576-2.807L38.1,47.607V43.95h2.542a1.463,1.463,0,0,0,.576-2.807L38.1,39.807V36.15h2.542a1.462,1.462,0,0,0,.576-2.807L38.1,32.007V28.35h2.542a1.462,1.462,0,0,0,.576-2.807L38.1,24.207V20.55H42v-1.3H38.1V17.3h5.85V53.7H38.1ZM53.7,53.7H45.25V17.3H53.7Z" transform="translate(1496.833 255.5)" fill="#453028"/>
      <path id="Trazado_892099" data-name="Trazado 892099" d="M392,56h1.3v1.3H392Z" transform="translate(1151.383 218.75)" fill="#fff"/>
      <path id="Trazado_892100" data-name="Trazado 892100" d="M392,120h1.3v1.3H392Z" transform="translate(1151.383 159.95)" fill="#fff"/>
      <path id="Trazado_892101" data-name="Trazado 892101" d="M392,184h1.3v1.3H392Z" transform="translate(1151.383 101.15)" fill="#fff"/>
      <path id="Trazado_892102" data-name="Trazado 892102" d="M392,248h1.3v1.3H392Z" transform="translate(1151.383 42.35)" fill="#fff"/>
      <path id="Trazado_892103" data-name="Trazado 892103" d="M392,312h1.3v1.3H392Z" transform="translate(1151.383 -16.45)" fill="#fff"/>
      <path id="Trazado_892104" data-name="Trazado 892104" d="M392,376h1.3v1.3H392Z" transform="translate(1151.383 -75.25)" fill="#fff"/>
      <path id="Trazado_892105" data-name="Trazado 892105" d="M392,440h1.3v1.3H392Z" transform="translate(1151.383 -134.05)" fill="#fff"/>
      <path id="Trazado_892106" data-name="Trazado 892106" d="M104,56h1.3v1.3H104Z" transform="translate(1415.983 218.75)" fill="#453028"/>
      <path id="Trazado_892107" data-name="Trazado 892107" d="M104,120h1.3v1.3H104Z" transform="translate(1415.983 159.95)" fill="#453028"/>
      <path id="Trazado_892108" data-name="Trazado 892108" d="M104,184h1.3v1.3H104Z" transform="translate(1415.983 101.15)" fill="#453028"/>
      <path id="Trazado_892109" data-name="Trazado 892109" d="M104,248h1.3v1.3H104Z" transform="translate(1415.983 42.35)" fill="#453028"/>
      <path id="Trazado_892110" data-name="Trazado 892110" d="M104,312h1.3v1.3H104Z" transform="translate(1415.983 -16.45)" fill="#453028"/>
      <path id="Trazado_892111" data-name="Trazado 892111" d="M104,376h1.3v1.3H104Z" transform="translate(1415.983 -75.25)" fill="#453028"/>
      <path id="Trazado_892112" data-name="Trazado 892112" d="M104,440h1.3v1.3H104Z" transform="translate(1415.983 -134.05)" fill="#453028"/>
    </g>
  </g>
</svg>
