<svg xmlns="http://www.w3.org/2000/svg" width="73" height="73" viewBox="0 0 73 73">
  <g id="Grupo_1101511" data-name="Grupo 1101511" transform="translate(-1120.333 -126)">
    <g id="Trazado_875170" data-name="Trazado 875170" transform="translate(1120.333 126)" fill="#734f43">
      <path d="M 36.5 72 C 31.70709037780762 72 27.05808067321777 71.06153106689453 22.68210983276367 69.21063995361328 C 18.45491027832031 67.42269134521484 14.65828990936279 64.86286926269531 11.39770984649658 61.60229110717773 C 8.137129783630371 58.34170913696289 5.577310085296631 54.54508972167969 3.789360046386719 50.31789016723633 C 1.938470005989075 45.94192123413086 1 41.29291152954102 1 36.5 C 1 31.70709037780762 1.938470005989075 27.05808067321777 3.789360046386719 22.68210983276367 C 5.577310085296631 18.45491027832031 8.137129783630371 14.65828990936279 11.39770984649658 11.39770984649658 C 14.65828990936279 8.137129783630371 18.45491027832031 5.577310085296631 22.68210983276367 3.789360046386719 C 27.05808067321777 1.938470005989075 31.70709037780762 1 36.5 1 C 41.29291152954102 1 45.94192123413086 1.938470005989075 50.31789016723633 3.789360046386719 C 54.54508972167969 5.577310085296631 58.34170913696289 8.137129783630371 61.60229110717773 11.39770984649658 C 64.86286926269531 14.65828990936279 67.42269134521484 18.45491027832031 69.21063995361328 22.68210983276367 C 71.06153106689453 27.05808067321777 72 31.70709037780762 72 36.5 C 72 41.29291152954102 71.06153106689453 45.94192123413086 69.21063995361328 50.31789016723633 C 67.42269134521484 54.54508972167969 64.86286926269531 58.34170913696289 61.60229110717773 61.60229110717773 C 58.34170913696289 64.86286926269531 54.54508972167969 67.42269134521484 50.31789016723633 69.21063995361328 C 45.94192123413086 71.06153106689453 41.29291152954102 72 36.5 72 Z" stroke="none"/>
      <path d="M 36.5 2 C 31.84164428710938 2 27.32369995117188 2.911903381347656 23.0716552734375 4.710357666015625 C 18.96365737915039 6.447898864746094 15.27387619018555 8.935745239257812 12.10481262207031 12.10481262207031 C 8.935745239257812 15.27387619018555 6.447898864746094 18.96365737915039 4.710357666015625 23.0716552734375 C 2.911903381347656 27.32369995117188 2 31.84164428710938 2 36.5 C 2 41.15835571289062 2.911903381347656 45.67630004882812 4.710357666015625 49.9283447265625 C 6.447898864746094 54.03633117675781 8.935745239257812 57.72611999511719 12.10481262207031 60.89517974853516 C 15.27387619018555 64.06424713134766 18.96365737915039 66.55210113525391 23.0716552734375 68.28964233398438 C 27.32369995117188 70.08809661865234 31.84164428710938 71 36.5 71 C 41.15835571289062 71 45.67630004882812 70.08809661865234 49.9283447265625 68.28964233398438 C 54.03633117675781 66.55210113525391 57.72611236572266 64.06424713134766 60.89517974853516 60.89517974853516 C 64.06424713134766 57.72611236572266 66.55210113525391 54.03633117675781 68.28964233398438 49.9283447265625 C 70.08809661865234 45.67630004882812 71 41.15835571289062 71 36.5 C 71 31.84164428710938 70.08809661865234 27.32369995117188 68.28964233398438 23.0716552734375 C 66.55210113525391 18.96365737915039 64.06424713134766 15.27387619018555 60.89517974853516 12.10481262207031 C 57.72611999511719 8.935745239257812 54.03633117675781 6.447898864746094 49.9283447265625 4.710357666015625 C 45.67630004882812 2.911903381347656 41.15835571289062 2 36.5 2 M 36.5 0 C 56.65838623046875 0 73 16.34159851074219 73 36.5 C 73 56.65838623046875 56.65838623046875 73 36.5 73 C 16.34159851074219 73 0 56.65838623046875 0 36.5 C 0 16.34159851074219 16.34159851074219 0 36.5 0 Z" stroke="none" fill="#fff"/>
    </g>
    <g id="Grupo_1101413" data-name="Grupo 1101413" transform="translate(1128.686 133.5)">
      <path id="Trazado_875105" data-name="Trazado 875105" d="M37.93,11.4a2.777,2.777,0,0,1,2.144,3.793,13.854,13.854,0,0,0-.825,4.948c0,7.174,4.948,12.946,11.132,12.946A3.382,3.382,0,0,0,51.288,33a2.863,2.863,0,0,1,3.133,2.8V51.063a2.78,2.78,0,0,1-2.8,2.8H31a2.78,2.78,0,0,1-2.8-2.8V48.836" transform="translate(-4.227 -1.824)" fill="none" stroke="#fff" stroke-linecap="round" stroke-linejoin="round" stroke-miterlimit="10" stroke-width="2.067"/>
      <path id="Trazado_875106" data-name="Trazado 875106" d="M38.649,32.1c2.556,4.783,7.174,8,12.451,8h.577V54.2H32.3V52.467" transform="translate(-4.947 -5.455)" fill="none" stroke="#fff" stroke-linecap="round" stroke-linejoin="round" stroke-miterlimit="10" stroke-width="2.067" stroke-dasharray="1.033 4.133"/>
      <path id="Trazado_875107" data-name="Trazado 875107" d="M30.322,3.8V40.745a2.78,2.78,0,0,1-2.8,2.8H6.9a2.78,2.78,0,0,1-2.8-2.8V25.49a2.816,2.816,0,0,1,3.133-2.8c.33,0,.577.082.907.082,6.1,0,11.132-5.772,11.132-12.946a16.373,16.373,0,0,0-.825-4.948A2.747,2.747,0,0,1,20.922,1h6.514a2.851,2.851,0,0,1,2.886,2.8" fill="#fff"/>
      <g id="Grupo_1101412" data-name="Grupo 1101412" transform="translate(4.1 1)">
        <path id="Trazado_875109" data-name="Trazado 875109" d="M30.322,3.8V40.745a2.78,2.78,0,0,1-2.8,2.8H6.9a2.78,2.78,0,0,1-2.8-2.8V25.49a2.816,2.816,0,0,1,3.133-2.8c.33,0,.577.082.907.082,6.1,0,11.132-5.772,11.132-12.946a16.373,16.373,0,0,0-.825-4.948A2.747,2.747,0,0,1,20.922,1h6.514a2.851,2.851,0,0,1,2.886,2.8Z" transform="translate(-4.1 -1)" fill="none" stroke="#453028" stroke-linecap="round" stroke-linejoin="round" stroke-miterlimit="10" stroke-width="2.067"/>
        <path id="Trazado_875110" data-name="Trazado 875110" d="M8.2,40.887V26.869h.577c8,0,14.513-7.339,14.513-16.409a16.922,16.922,0,0,0-.825-5.36h5.112V40.887Z" transform="translate(-4.819 -1.719)" fill="none" stroke="#453028" stroke-linecap="round" stroke-linejoin="round" stroke-miterlimit="10" stroke-width="2.067" stroke-dasharray="1.033 4.133"/>
      </g>
    </g>
  </g>
</svg>
